%TF.GenerationSoftware,KiCad,Pcbnew,(5.99.0-9650-gad505e29c0)*%
%TF.CreationDate,2021-03-23T23:01:50-07:00*%
%TF.ProjectId,Choc40-switch_plate,43686f63-3430-42d7-9377-697463685f70,rev?*%
%TF.SameCoordinates,Original*%
%TF.FileFunction,Copper,L2,Bot*%
%TF.FilePolarity,Positive*%
%FSLAX46Y46*%
G04 Gerber Fmt 4.6, Leading zero omitted, Abs format (unit mm)*
G04 Created by KiCad (PCBNEW (5.99.0-9650-gad505e29c0)) date 2021-03-23 23:01:50*
%MOMM*%
%LPD*%
G01*
G04 APERTURE LIST*
G04 APERTURE END LIST*
%TA.AperFunction,NonConductor*%
G36*
X242961144Y-20202444D02*
G01*
X242961187Y-20202104D01*
X242968259Y-20203001D01*
X242975183Y-20204690D01*
X243106831Y-20206429D01*
X243112169Y-20206614D01*
X243157355Y-20209151D01*
X243186918Y-20210812D01*
X243193958Y-20211406D01*
X243431443Y-20238164D01*
X243438412Y-20239148D01*
X243498023Y-20249276D01*
X243504938Y-20250652D01*
X243737954Y-20303836D01*
X243744796Y-20305601D01*
X243769614Y-20312751D01*
X243802894Y-20322338D01*
X243809580Y-20324469D01*
X244016094Y-20396732D01*
X244035184Y-20403412D01*
X244041786Y-20405932D01*
X244097641Y-20429068D01*
X244104092Y-20431955D01*
X244319392Y-20535638D01*
X244325656Y-20538874D01*
X244378615Y-20568143D01*
X244384647Y-20571702D01*
X244552493Y-20677166D01*
X244587000Y-20698848D01*
X244592877Y-20702774D01*
X244642209Y-20737777D01*
X244647856Y-20742028D01*
X244834696Y-20891029D01*
X244840095Y-20895588D01*
X244885171Y-20935870D01*
X244890307Y-20940726D01*
X245059282Y-21109701D01*
X245064122Y-21114819D01*
X245104436Y-21159930D01*
X245108977Y-21165308D01*
X245257970Y-21352140D01*
X245262220Y-21357787D01*
X245297223Y-21407119D01*
X245301145Y-21412989D01*
X245428285Y-21615330D01*
X245431850Y-21621373D01*
X245461127Y-21674345D01*
X245464361Y-21680606D01*
X245568059Y-21895937D01*
X245570924Y-21902339D01*
X245588470Y-21944699D01*
X245594069Y-21958217D01*
X245596588Y-21964818D01*
X245675521Y-22190394D01*
X245677668Y-22197128D01*
X245694404Y-22255220D01*
X245696169Y-22262063D01*
X245749342Y-22495028D01*
X245750721Y-22501960D01*
X245760851Y-22561580D01*
X245761839Y-22568579D01*
X245788595Y-22806057D01*
X245789189Y-22813099D01*
X245793384Y-22887793D01*
X245793571Y-22893194D01*
X245795307Y-23024625D01*
X245796971Y-23031501D01*
X245797855Y-23038514D01*
X245797555Y-23038552D01*
X245800000Y-23059044D01*
X245800000Y-94940809D01*
X245797556Y-94961144D01*
X245797896Y-94961187D01*
X245796999Y-94968259D01*
X245795310Y-94975183D01*
X245793571Y-95106831D01*
X245793386Y-95112169D01*
X245791169Y-95151643D01*
X245789188Y-95186915D01*
X245788594Y-95193955D01*
X245761837Y-95431433D01*
X245760849Y-95438432D01*
X245750724Y-95498022D01*
X245749345Y-95504952D01*
X245715612Y-95652750D01*
X245696165Y-95737951D01*
X245694402Y-95744786D01*
X245694402Y-95744789D01*
X245694400Y-95744795D01*
X245677663Y-95802890D01*
X245675516Y-95809623D01*
X245596596Y-96035165D01*
X245594087Y-96041740D01*
X245570933Y-96097639D01*
X245568049Y-96104084D01*
X245464364Y-96319386D01*
X245461120Y-96325664D01*
X245431862Y-96378603D01*
X245428271Y-96384691D01*
X245301141Y-96587017D01*
X245297214Y-96592894D01*
X245262229Y-96642200D01*
X245257980Y-96647847D01*
X245108979Y-96834688D01*
X245104419Y-96840087D01*
X245064130Y-96885171D01*
X245059274Y-96890307D01*
X244890299Y-97059282D01*
X244885181Y-97064122D01*
X244840070Y-97104436D01*
X244834691Y-97108977D01*
X244647855Y-97257973D01*
X244642211Y-97262221D01*
X244614995Y-97281533D01*
X244592875Y-97297228D01*
X244587030Y-97301133D01*
X244384692Y-97428271D01*
X244384676Y-97428281D01*
X244378606Y-97431862D01*
X244345618Y-97450093D01*
X244325663Y-97461122D01*
X244319386Y-97464365D01*
X244104091Y-97568046D01*
X244097641Y-97570932D01*
X244041769Y-97594075D01*
X244035174Y-97596592D01*
X243947747Y-97627184D01*
X243809603Y-97675522D01*
X243802889Y-97677663D01*
X243786880Y-97682275D01*
X243744789Y-97694401D01*
X243737947Y-97696166D01*
X243504971Y-97749342D01*
X243498039Y-97750721D01*
X243438420Y-97760851D01*
X243431426Y-97761838D01*
X243369690Y-97768794D01*
X243193943Y-97788595D01*
X243186901Y-97789189D01*
X243112207Y-97793384D01*
X243106806Y-97793571D01*
X243100900Y-97793649D01*
X242975375Y-97795307D01*
X242968499Y-97796971D01*
X242961486Y-97797855D01*
X242961448Y-97797555D01*
X242940956Y-97800000D01*
X23059191Y-97800000D01*
X23038856Y-97797556D01*
X23038813Y-97797896D01*
X23031741Y-97796999D01*
X23024817Y-97795310D01*
X22893169Y-97793571D01*
X22887831Y-97793386D01*
X22848357Y-97791169D01*
X22813085Y-97789188D01*
X22806045Y-97788594D01*
X22568567Y-97761837D01*
X22561568Y-97760849D01*
X22501978Y-97750724D01*
X22495046Y-97749345D01*
X22495033Y-97749342D01*
X22262043Y-97696163D01*
X22255209Y-97694401D01*
X22197103Y-97677661D01*
X22190377Y-97675516D01*
X21964835Y-97596596D01*
X21958260Y-97594087D01*
X21902350Y-97570928D01*
X21895916Y-97568049D01*
X21680614Y-97464364D01*
X21674336Y-97461120D01*
X21621397Y-97431862D01*
X21615309Y-97428271D01*
X21412983Y-97301141D01*
X21407106Y-97297214D01*
X21357800Y-97262229D01*
X21352153Y-97257980D01*
X21165312Y-97108979D01*
X21159913Y-97104419D01*
X21114829Y-97064130D01*
X21109693Y-97059274D01*
X20940718Y-96890299D01*
X20935869Y-96885171D01*
X20895564Y-96840070D01*
X20891023Y-96834691D01*
X20742027Y-96647855D01*
X20737779Y-96642211D01*
X20718467Y-96614995D01*
X20702772Y-96592875D01*
X20698867Y-96587030D01*
X20571717Y-96384672D01*
X20568136Y-96378603D01*
X20549907Y-96345618D01*
X20538878Y-96325663D01*
X20535635Y-96319386D01*
X20431954Y-96104091D01*
X20429067Y-96097639D01*
X20405928Y-96041777D01*
X20403408Y-96035174D01*
X20324480Y-95809611D01*
X20322333Y-95802876D01*
X20305599Y-95744789D01*
X20303834Y-95737947D01*
X20250658Y-95504971D01*
X20249279Y-95498039D01*
X20239149Y-95438420D01*
X20238161Y-95431421D01*
X20211405Y-95193943D01*
X20210811Y-95186901D01*
X20206616Y-95112207D01*
X20206429Y-95106806D01*
X20206351Y-95100900D01*
X20205018Y-95000000D01*
X21694500Y-95000000D01*
X21714333Y-95226698D01*
X21773231Y-95446507D01*
X21775553Y-95451488D01*
X21775554Y-95451489D01*
X21867078Y-95647763D01*
X21867081Y-95647768D01*
X21869404Y-95652750D01*
X21872560Y-95657257D01*
X21872561Y-95657259D01*
X21979248Y-95809623D01*
X21999929Y-95839159D01*
X22160841Y-96000071D01*
X22165349Y-96003228D01*
X22165352Y-96003230D01*
X22309387Y-96104084D01*
X22347250Y-96130596D01*
X22352232Y-96132919D01*
X22352237Y-96132922D01*
X22548511Y-96224446D01*
X22553493Y-96226769D01*
X22558801Y-96228191D01*
X22558803Y-96228192D01*
X22626122Y-96246230D01*
X22773302Y-96285667D01*
X23000000Y-96305500D01*
X23226698Y-96285667D01*
X23373878Y-96246230D01*
X23441197Y-96228192D01*
X23441199Y-96228191D01*
X23446507Y-96226769D01*
X23451489Y-96224446D01*
X23647763Y-96132922D01*
X23647768Y-96132919D01*
X23652750Y-96130596D01*
X23690613Y-96104084D01*
X23834648Y-96003230D01*
X23834651Y-96003228D01*
X23839159Y-96000071D01*
X24000071Y-95839159D01*
X24020753Y-95809623D01*
X24127439Y-95657259D01*
X24127440Y-95657257D01*
X24130596Y-95652750D01*
X24132919Y-95647768D01*
X24132922Y-95647763D01*
X24224446Y-95451489D01*
X24224447Y-95451488D01*
X24226769Y-95446507D01*
X24285667Y-95226698D01*
X24305500Y-95000000D01*
X241694500Y-95000000D01*
X241714333Y-95226698D01*
X241773231Y-95446507D01*
X241775553Y-95451488D01*
X241775554Y-95451489D01*
X241867078Y-95647763D01*
X241867081Y-95647768D01*
X241869404Y-95652750D01*
X241872560Y-95657257D01*
X241872561Y-95657259D01*
X241979248Y-95809623D01*
X241999929Y-95839159D01*
X242160841Y-96000071D01*
X242165349Y-96003228D01*
X242165352Y-96003230D01*
X242309387Y-96104084D01*
X242347250Y-96130596D01*
X242352232Y-96132919D01*
X242352237Y-96132922D01*
X242548511Y-96224446D01*
X242553493Y-96226769D01*
X242558801Y-96228191D01*
X242558803Y-96228192D01*
X242626122Y-96246230D01*
X242773302Y-96285667D01*
X243000000Y-96305500D01*
X243226698Y-96285667D01*
X243373878Y-96246230D01*
X243441197Y-96228192D01*
X243441199Y-96228191D01*
X243446507Y-96226769D01*
X243451489Y-96224446D01*
X243647763Y-96132922D01*
X243647768Y-96132919D01*
X243652750Y-96130596D01*
X243690613Y-96104084D01*
X243834648Y-96003230D01*
X243834651Y-96003228D01*
X243839159Y-96000071D01*
X244000071Y-95839159D01*
X244020753Y-95809623D01*
X244127439Y-95657259D01*
X244127440Y-95657257D01*
X244130596Y-95652750D01*
X244132919Y-95647768D01*
X244132922Y-95647763D01*
X244224446Y-95451489D01*
X244224447Y-95451488D01*
X244226769Y-95446507D01*
X244285667Y-95226698D01*
X244305500Y-95000000D01*
X244285667Y-94773302D01*
X244226769Y-94553493D01*
X244224446Y-94548511D01*
X244132922Y-94352237D01*
X244132919Y-94352232D01*
X244130596Y-94347250D01*
X244000071Y-94160841D01*
X243839159Y-93999929D01*
X243834651Y-93996772D01*
X243834648Y-93996770D01*
X243657259Y-93872561D01*
X243657257Y-93872560D01*
X243652750Y-93869404D01*
X243647768Y-93867081D01*
X243647763Y-93867078D01*
X243451489Y-93775554D01*
X243451488Y-93775553D01*
X243446507Y-93773231D01*
X243441199Y-93771809D01*
X243441197Y-93771808D01*
X243373336Y-93753625D01*
X243226698Y-93714333D01*
X243000000Y-93694500D01*
X242773302Y-93714333D01*
X242626664Y-93753625D01*
X242558803Y-93771808D01*
X242558801Y-93771809D01*
X242553493Y-93773231D01*
X242548512Y-93775553D01*
X242548511Y-93775554D01*
X242352237Y-93867078D01*
X242352232Y-93867081D01*
X242347250Y-93869404D01*
X242342743Y-93872560D01*
X242342741Y-93872561D01*
X242165352Y-93996770D01*
X242165349Y-93996772D01*
X242160841Y-93999929D01*
X241999929Y-94160841D01*
X241869404Y-94347250D01*
X241867081Y-94352232D01*
X241867078Y-94352237D01*
X241775554Y-94548511D01*
X241773231Y-94553493D01*
X241714333Y-94773302D01*
X241694500Y-95000000D01*
X24305500Y-95000000D01*
X24285667Y-94773302D01*
X24226769Y-94553493D01*
X24224446Y-94548511D01*
X24132922Y-94352237D01*
X24132919Y-94352232D01*
X24130596Y-94347250D01*
X24000071Y-94160841D01*
X23839159Y-93999929D01*
X23834651Y-93996772D01*
X23834648Y-93996770D01*
X23657259Y-93872561D01*
X23657257Y-93872560D01*
X23652750Y-93869404D01*
X23647768Y-93867081D01*
X23647763Y-93867078D01*
X23451489Y-93775554D01*
X23451488Y-93775553D01*
X23446507Y-93773231D01*
X23441199Y-93771809D01*
X23441197Y-93771808D01*
X23373336Y-93753625D01*
X23226698Y-93714333D01*
X23000000Y-93694500D01*
X22773302Y-93714333D01*
X22626664Y-93753625D01*
X22558803Y-93771808D01*
X22558801Y-93771809D01*
X22553493Y-93773231D01*
X22548512Y-93775553D01*
X22548511Y-93775554D01*
X22352237Y-93867078D01*
X22352232Y-93867081D01*
X22347250Y-93869404D01*
X22342743Y-93872560D01*
X22342741Y-93872561D01*
X22165352Y-93996770D01*
X22165349Y-93996772D01*
X22160841Y-93999929D01*
X21999929Y-94160841D01*
X21869404Y-94347250D01*
X21867081Y-94352232D01*
X21867078Y-94352237D01*
X21775554Y-94548511D01*
X21773231Y-94553493D01*
X21714333Y-94773302D01*
X21694500Y-95000000D01*
X20205018Y-95000000D01*
X20204693Y-94975375D01*
X20203029Y-94968499D01*
X20202145Y-94961486D01*
X20202445Y-94961448D01*
X20200000Y-94940956D01*
X20200000Y-77477899D01*
X29050000Y-77477899D01*
X29050000Y-91521919D01*
X29050068Y-91522216D01*
X29050113Y-91523036D01*
X29050094Y-91545417D01*
X29056234Y-91558205D01*
X29057365Y-91563182D01*
X29059911Y-91570471D01*
X29062123Y-91575068D01*
X29065279Y-91588900D01*
X29074121Y-91599995D01*
X29076497Y-91604933D01*
X29080006Y-91610528D01*
X29083422Y-91614822D01*
X29089565Y-91627616D01*
X29100649Y-91636480D01*
X29103829Y-91640478D01*
X29109268Y-91645926D01*
X29113261Y-91649114D01*
X29122105Y-91660212D01*
X29134885Y-91666376D01*
X29139170Y-91669797D01*
X29144759Y-91673316D01*
X29149696Y-91675703D01*
X29160778Y-91684565D01*
X29174604Y-91687744D01*
X29179204Y-91689968D01*
X29186478Y-91692522D01*
X29191454Y-91693662D01*
X29204234Y-91699826D01*
X29226655Y-91699845D01*
X29227417Y-91699889D01*
X29227899Y-91700000D01*
X43271919Y-91700000D01*
X43272216Y-91699932D01*
X43273036Y-91699887D01*
X43281229Y-91699894D01*
X43281230Y-91699894D01*
X43295417Y-91699906D01*
X43308205Y-91693766D01*
X43313182Y-91692635D01*
X43320471Y-91690089D01*
X43325068Y-91687877D01*
X43338900Y-91684721D01*
X43349995Y-91675879D01*
X43354933Y-91673503D01*
X43360528Y-91669994D01*
X43364822Y-91666578D01*
X43377616Y-91660435D01*
X43386480Y-91649351D01*
X43390478Y-91646171D01*
X43395926Y-91640732D01*
X43399114Y-91636739D01*
X43410212Y-91627895D01*
X43416376Y-91615115D01*
X43419797Y-91610830D01*
X43423316Y-91605241D01*
X43425703Y-91600304D01*
X43434565Y-91589222D01*
X43437744Y-91575396D01*
X43439968Y-91570796D01*
X43442522Y-91563522D01*
X43443662Y-91558546D01*
X43449826Y-91545766D01*
X43449845Y-91523345D01*
X43449889Y-91522583D01*
X43450000Y-91522101D01*
X43450000Y-77478081D01*
X43449958Y-77477899D01*
X49300000Y-77477899D01*
X49300000Y-91521919D01*
X49300068Y-91522216D01*
X49300113Y-91523036D01*
X49300094Y-91545417D01*
X49306234Y-91558205D01*
X49307365Y-91563182D01*
X49309911Y-91570471D01*
X49312123Y-91575068D01*
X49315279Y-91588900D01*
X49324121Y-91599995D01*
X49326497Y-91604933D01*
X49330006Y-91610528D01*
X49333422Y-91614822D01*
X49339565Y-91627616D01*
X49350649Y-91636480D01*
X49353829Y-91640478D01*
X49359268Y-91645926D01*
X49363261Y-91649114D01*
X49372105Y-91660212D01*
X49384885Y-91666376D01*
X49389170Y-91669797D01*
X49394759Y-91673316D01*
X49399696Y-91675703D01*
X49410778Y-91684565D01*
X49424604Y-91687744D01*
X49429204Y-91689968D01*
X49436478Y-91692522D01*
X49441454Y-91693662D01*
X49454234Y-91699826D01*
X49476655Y-91699845D01*
X49477417Y-91699889D01*
X49477899Y-91700000D01*
X63521919Y-91700000D01*
X63522216Y-91699932D01*
X63523036Y-91699887D01*
X63531229Y-91699894D01*
X63531230Y-91699894D01*
X63545417Y-91699906D01*
X63558205Y-91693766D01*
X63563182Y-91692635D01*
X63570471Y-91690089D01*
X63575068Y-91687877D01*
X63588900Y-91684721D01*
X63599995Y-91675879D01*
X63604933Y-91673503D01*
X63610528Y-91669994D01*
X63614822Y-91666578D01*
X63627616Y-91660435D01*
X63636480Y-91649351D01*
X63640478Y-91646171D01*
X63645926Y-91640732D01*
X63649114Y-91636739D01*
X63660212Y-91627895D01*
X63666376Y-91615115D01*
X63669797Y-91610830D01*
X63673316Y-91605241D01*
X63675703Y-91600304D01*
X63684565Y-91589222D01*
X63687744Y-91575396D01*
X63689968Y-91570796D01*
X63692522Y-91563522D01*
X63693662Y-91558546D01*
X63699826Y-91545766D01*
X63699845Y-91523345D01*
X63699889Y-91522583D01*
X63700000Y-91522101D01*
X63700000Y-77478081D01*
X63699958Y-77477899D01*
X67300000Y-77477899D01*
X67300000Y-91521919D01*
X67300068Y-91522216D01*
X67300113Y-91523036D01*
X67300094Y-91545417D01*
X67306234Y-91558205D01*
X67307365Y-91563182D01*
X67309911Y-91570471D01*
X67312123Y-91575068D01*
X67315279Y-91588900D01*
X67324121Y-91599995D01*
X67326497Y-91604933D01*
X67330006Y-91610528D01*
X67333422Y-91614822D01*
X67339565Y-91627616D01*
X67350649Y-91636480D01*
X67353829Y-91640478D01*
X67359268Y-91645926D01*
X67363261Y-91649114D01*
X67372105Y-91660212D01*
X67384885Y-91666376D01*
X67389170Y-91669797D01*
X67394759Y-91673316D01*
X67399696Y-91675703D01*
X67410778Y-91684565D01*
X67424604Y-91687744D01*
X67429204Y-91689968D01*
X67436478Y-91692522D01*
X67441454Y-91693662D01*
X67454234Y-91699826D01*
X67476655Y-91699845D01*
X67477417Y-91699889D01*
X67477899Y-91700000D01*
X81521919Y-91700000D01*
X81522216Y-91699932D01*
X81523036Y-91699887D01*
X81531229Y-91699894D01*
X81531230Y-91699894D01*
X81545417Y-91699906D01*
X81558205Y-91693766D01*
X81563182Y-91692635D01*
X81570471Y-91690089D01*
X81575068Y-91687877D01*
X81588900Y-91684721D01*
X81599995Y-91675879D01*
X81604933Y-91673503D01*
X81610528Y-91669994D01*
X81614822Y-91666578D01*
X81627616Y-91660435D01*
X81636480Y-91649351D01*
X81640478Y-91646171D01*
X81645926Y-91640732D01*
X81649114Y-91636739D01*
X81660212Y-91627895D01*
X81666376Y-91615115D01*
X81669797Y-91610830D01*
X81673316Y-91605241D01*
X81675703Y-91600304D01*
X81684565Y-91589222D01*
X81687744Y-91575396D01*
X81689968Y-91570796D01*
X81692522Y-91563522D01*
X81693662Y-91558546D01*
X81699826Y-91545766D01*
X81699845Y-91523345D01*
X81699889Y-91522583D01*
X81700000Y-91522101D01*
X81700000Y-80677899D01*
X86400000Y-80677899D01*
X86400000Y-87571919D01*
X86400068Y-87572216D01*
X86400113Y-87573036D01*
X86400094Y-87595417D01*
X86406234Y-87608205D01*
X86407365Y-87613182D01*
X86409911Y-87620471D01*
X86412123Y-87625068D01*
X86415279Y-87638900D01*
X86424121Y-87649995D01*
X86426497Y-87654933D01*
X86430006Y-87660528D01*
X86433422Y-87664822D01*
X86439565Y-87677616D01*
X86450649Y-87686480D01*
X86453829Y-87690478D01*
X86459268Y-87695926D01*
X86463261Y-87699114D01*
X86472105Y-87710212D01*
X86484885Y-87716376D01*
X86489170Y-87719797D01*
X86494759Y-87723316D01*
X86499696Y-87725703D01*
X86510778Y-87734565D01*
X86524604Y-87737744D01*
X86529204Y-87739968D01*
X86536478Y-87742522D01*
X86541454Y-87743662D01*
X86554234Y-87749826D01*
X86576655Y-87749845D01*
X86577417Y-87749889D01*
X86577899Y-87750000D01*
X92921919Y-87750000D01*
X92922216Y-87749932D01*
X92923036Y-87749887D01*
X92931229Y-87749894D01*
X92931230Y-87749894D01*
X92945417Y-87749906D01*
X92958205Y-87743766D01*
X92963182Y-87742635D01*
X92970471Y-87740089D01*
X92975068Y-87737877D01*
X92988900Y-87734721D01*
X92999995Y-87725879D01*
X93004933Y-87723503D01*
X93010528Y-87719994D01*
X93014822Y-87716578D01*
X93027616Y-87710435D01*
X93036480Y-87699351D01*
X93040478Y-87696171D01*
X93045926Y-87690732D01*
X93049114Y-87686739D01*
X93060212Y-87677895D01*
X93066376Y-87665115D01*
X93069797Y-87660830D01*
X93073316Y-87655241D01*
X93075703Y-87650304D01*
X93084565Y-87639222D01*
X93087744Y-87625396D01*
X93089968Y-87620796D01*
X93092522Y-87613522D01*
X93093662Y-87608546D01*
X93099826Y-87595766D01*
X93099845Y-87573345D01*
X93099889Y-87572583D01*
X93100000Y-87572101D01*
X93100000Y-80678081D01*
X93099932Y-80677784D01*
X93099887Y-80676964D01*
X93099894Y-80668771D01*
X93099894Y-80668770D01*
X93099906Y-80654583D01*
X93093766Y-80641795D01*
X93092635Y-80636818D01*
X93090089Y-80629529D01*
X93087877Y-80624932D01*
X93084721Y-80611100D01*
X93075879Y-80600005D01*
X93073503Y-80595067D01*
X93069994Y-80589472D01*
X93066578Y-80585178D01*
X93060435Y-80572384D01*
X93049351Y-80563520D01*
X93046171Y-80559522D01*
X93040732Y-80554074D01*
X93036739Y-80550886D01*
X93027895Y-80539788D01*
X93015115Y-80533624D01*
X93010830Y-80530203D01*
X93005241Y-80526684D01*
X93000304Y-80524297D01*
X92989222Y-80515435D01*
X92975396Y-80512256D01*
X92970796Y-80510032D01*
X92963522Y-80507478D01*
X92958546Y-80506338D01*
X92945766Y-80500174D01*
X92923345Y-80500155D01*
X92922583Y-80500111D01*
X92922101Y-80500000D01*
X91876000Y-80500000D01*
X91807879Y-80479998D01*
X91761386Y-80426342D01*
X91750000Y-80374000D01*
X91750000Y-77477899D01*
X132550000Y-77477899D01*
X132550000Y-91521919D01*
X132550068Y-91522216D01*
X132550113Y-91523036D01*
X132550094Y-91545417D01*
X132556234Y-91558205D01*
X132557365Y-91563182D01*
X132559911Y-91570471D01*
X132562123Y-91575068D01*
X132565279Y-91588900D01*
X132574121Y-91599995D01*
X132576497Y-91604933D01*
X132580006Y-91610528D01*
X132583422Y-91614822D01*
X132589565Y-91627616D01*
X132600649Y-91636480D01*
X132603829Y-91640478D01*
X132609268Y-91645926D01*
X132613261Y-91649114D01*
X132622105Y-91660212D01*
X132634885Y-91666376D01*
X132639170Y-91669797D01*
X132644759Y-91673316D01*
X132649696Y-91675703D01*
X132660778Y-91684565D01*
X132674604Y-91687744D01*
X132679204Y-91689968D01*
X132686478Y-91692522D01*
X132691454Y-91693662D01*
X132704234Y-91699826D01*
X132726655Y-91699845D01*
X132727417Y-91699889D01*
X132727899Y-91700000D01*
X146771919Y-91700000D01*
X146772216Y-91699932D01*
X146773036Y-91699887D01*
X146781229Y-91699894D01*
X146781230Y-91699894D01*
X146795417Y-91699906D01*
X146808205Y-91693766D01*
X146813182Y-91692635D01*
X146820471Y-91690089D01*
X146825068Y-91687877D01*
X146838900Y-91684721D01*
X146849995Y-91675879D01*
X146854933Y-91673503D01*
X146860528Y-91669994D01*
X146864822Y-91666578D01*
X146877616Y-91660435D01*
X146886480Y-91649351D01*
X146890478Y-91646171D01*
X146895926Y-91640732D01*
X146899114Y-91636739D01*
X146910212Y-91627895D01*
X146916376Y-91615115D01*
X146919797Y-91610830D01*
X146923316Y-91605241D01*
X146925703Y-91600304D01*
X146934565Y-91589222D01*
X146937744Y-91575396D01*
X146939968Y-91570796D01*
X146942522Y-91563522D01*
X146943662Y-91558546D01*
X146949826Y-91545766D01*
X146949845Y-91523345D01*
X146949889Y-91522583D01*
X146950000Y-91522101D01*
X146950000Y-80677899D01*
X186400000Y-80677899D01*
X186400000Y-87571919D01*
X186400068Y-87572216D01*
X186400113Y-87573036D01*
X186400094Y-87595417D01*
X186406234Y-87608205D01*
X186407365Y-87613182D01*
X186409911Y-87620471D01*
X186412123Y-87625068D01*
X186415279Y-87638900D01*
X186424121Y-87649995D01*
X186426497Y-87654933D01*
X186430006Y-87660528D01*
X186433422Y-87664822D01*
X186439565Y-87677616D01*
X186450649Y-87686480D01*
X186453829Y-87690478D01*
X186459268Y-87695926D01*
X186463261Y-87699114D01*
X186472105Y-87710212D01*
X186484885Y-87716376D01*
X186489170Y-87719797D01*
X186494759Y-87723316D01*
X186499696Y-87725703D01*
X186510778Y-87734565D01*
X186524604Y-87737744D01*
X186529204Y-87739968D01*
X186536478Y-87742522D01*
X186541454Y-87743662D01*
X186554234Y-87749826D01*
X186576655Y-87749845D01*
X186577417Y-87749889D01*
X186577899Y-87750000D01*
X192921919Y-87750000D01*
X192922216Y-87749932D01*
X192923036Y-87749887D01*
X192931229Y-87749894D01*
X192931230Y-87749894D01*
X192945417Y-87749906D01*
X192958205Y-87743766D01*
X192963182Y-87742635D01*
X192970471Y-87740089D01*
X192975068Y-87737877D01*
X192988900Y-87734721D01*
X192999995Y-87725879D01*
X193004933Y-87723503D01*
X193010528Y-87719994D01*
X193014822Y-87716578D01*
X193027616Y-87710435D01*
X193036480Y-87699351D01*
X193040478Y-87696171D01*
X193045926Y-87690732D01*
X193049114Y-87686739D01*
X193060212Y-87677895D01*
X193066376Y-87665115D01*
X193069797Y-87660830D01*
X193073316Y-87655241D01*
X193075703Y-87650304D01*
X193084565Y-87639222D01*
X193087744Y-87625396D01*
X193089968Y-87620796D01*
X193092522Y-87613522D01*
X193093662Y-87608546D01*
X193099826Y-87595766D01*
X193099845Y-87573345D01*
X193099889Y-87572583D01*
X193100000Y-87572101D01*
X193100000Y-80678081D01*
X193099932Y-80677784D01*
X193099887Y-80676964D01*
X193099894Y-80668771D01*
X193099894Y-80668770D01*
X193099906Y-80654583D01*
X193093766Y-80641795D01*
X193092635Y-80636818D01*
X193090089Y-80629529D01*
X193087877Y-80624932D01*
X193084721Y-80611100D01*
X193075879Y-80600005D01*
X193073503Y-80595067D01*
X193069994Y-80589472D01*
X193066578Y-80585178D01*
X193060435Y-80572384D01*
X193049351Y-80563520D01*
X193046171Y-80559522D01*
X193040732Y-80554074D01*
X193036739Y-80550886D01*
X193027895Y-80539788D01*
X193015115Y-80533624D01*
X193010830Y-80530203D01*
X193005241Y-80526684D01*
X193000304Y-80524297D01*
X192989222Y-80515435D01*
X192975396Y-80512256D01*
X192970796Y-80510032D01*
X192963522Y-80507478D01*
X192958546Y-80506338D01*
X192945766Y-80500174D01*
X192923345Y-80500155D01*
X192922583Y-80500111D01*
X192922101Y-80500000D01*
X191876000Y-80500000D01*
X191807879Y-80479998D01*
X191761386Y-80426342D01*
X191750000Y-80374000D01*
X191750000Y-77477899D01*
X200050000Y-77477899D01*
X200050000Y-91521919D01*
X200050068Y-91522216D01*
X200050113Y-91523036D01*
X200050094Y-91545417D01*
X200056234Y-91558205D01*
X200057365Y-91563182D01*
X200059911Y-91570471D01*
X200062123Y-91575068D01*
X200065279Y-91588900D01*
X200074121Y-91599995D01*
X200076497Y-91604933D01*
X200080006Y-91610528D01*
X200083422Y-91614822D01*
X200089565Y-91627616D01*
X200100649Y-91636480D01*
X200103829Y-91640478D01*
X200109268Y-91645926D01*
X200113261Y-91649114D01*
X200122105Y-91660212D01*
X200134885Y-91666376D01*
X200139170Y-91669797D01*
X200144759Y-91673316D01*
X200149696Y-91675703D01*
X200160778Y-91684565D01*
X200174604Y-91687744D01*
X200179204Y-91689968D01*
X200186478Y-91692522D01*
X200191454Y-91693662D01*
X200204234Y-91699826D01*
X200226655Y-91699845D01*
X200227417Y-91699889D01*
X200227899Y-91700000D01*
X214271919Y-91700000D01*
X214272216Y-91699932D01*
X214273036Y-91699887D01*
X214281229Y-91699894D01*
X214281230Y-91699894D01*
X214295417Y-91699906D01*
X214308205Y-91693766D01*
X214313182Y-91692635D01*
X214320471Y-91690089D01*
X214325068Y-91687877D01*
X214338900Y-91684721D01*
X214349995Y-91675879D01*
X214354933Y-91673503D01*
X214360528Y-91669994D01*
X214364822Y-91666578D01*
X214377616Y-91660435D01*
X214386480Y-91649351D01*
X214390478Y-91646171D01*
X214395926Y-91640732D01*
X214399114Y-91636739D01*
X214410212Y-91627895D01*
X214416376Y-91615115D01*
X214419797Y-91610830D01*
X214423316Y-91605241D01*
X214425703Y-91600304D01*
X214434565Y-91589222D01*
X214437744Y-91575396D01*
X214439968Y-91570796D01*
X214442522Y-91563522D01*
X214443662Y-91558546D01*
X214449826Y-91545766D01*
X214449845Y-91523345D01*
X214449889Y-91522583D01*
X214450000Y-91522101D01*
X214450000Y-77478081D01*
X214449958Y-77477899D01*
X222550000Y-77477899D01*
X222550000Y-91521919D01*
X222550068Y-91522216D01*
X222550113Y-91523036D01*
X222550094Y-91545417D01*
X222556234Y-91558205D01*
X222557365Y-91563182D01*
X222559911Y-91570471D01*
X222562123Y-91575068D01*
X222565279Y-91588900D01*
X222574121Y-91599995D01*
X222576497Y-91604933D01*
X222580006Y-91610528D01*
X222583422Y-91614822D01*
X222589565Y-91627616D01*
X222600649Y-91636480D01*
X222603829Y-91640478D01*
X222609268Y-91645926D01*
X222613261Y-91649114D01*
X222622105Y-91660212D01*
X222634885Y-91666376D01*
X222639170Y-91669797D01*
X222644759Y-91673316D01*
X222649696Y-91675703D01*
X222660778Y-91684565D01*
X222674604Y-91687744D01*
X222679204Y-91689968D01*
X222686478Y-91692522D01*
X222691454Y-91693662D01*
X222704234Y-91699826D01*
X222726655Y-91699845D01*
X222727417Y-91699889D01*
X222727899Y-91700000D01*
X236771919Y-91700000D01*
X236772216Y-91699932D01*
X236773036Y-91699887D01*
X236781229Y-91699894D01*
X236781230Y-91699894D01*
X236795417Y-91699906D01*
X236808205Y-91693766D01*
X236813182Y-91692635D01*
X236820471Y-91690089D01*
X236825068Y-91687877D01*
X236838900Y-91684721D01*
X236849995Y-91675879D01*
X236854933Y-91673503D01*
X236860528Y-91669994D01*
X236864822Y-91666578D01*
X236877616Y-91660435D01*
X236886480Y-91649351D01*
X236890478Y-91646171D01*
X236895926Y-91640732D01*
X236899114Y-91636739D01*
X236910212Y-91627895D01*
X236916376Y-91615115D01*
X236919797Y-91610830D01*
X236923316Y-91605241D01*
X236925703Y-91600304D01*
X236934565Y-91589222D01*
X236937744Y-91575396D01*
X236939968Y-91570796D01*
X236942522Y-91563522D01*
X236943662Y-91558546D01*
X236949826Y-91545766D01*
X236949845Y-91523345D01*
X236949889Y-91522583D01*
X236950000Y-91522101D01*
X236950000Y-77478081D01*
X236949932Y-77477784D01*
X236949887Y-77476964D01*
X236949894Y-77468771D01*
X236949894Y-77468770D01*
X236949906Y-77454583D01*
X236943766Y-77441795D01*
X236942635Y-77436818D01*
X236940089Y-77429529D01*
X236937877Y-77424932D01*
X236934721Y-77411100D01*
X236925879Y-77400005D01*
X236923503Y-77395067D01*
X236919994Y-77389472D01*
X236916578Y-77385178D01*
X236910435Y-77372384D01*
X236899351Y-77363520D01*
X236896171Y-77359522D01*
X236890732Y-77354074D01*
X236886739Y-77350886D01*
X236877895Y-77339788D01*
X236865115Y-77333624D01*
X236860830Y-77330203D01*
X236855241Y-77326684D01*
X236850304Y-77324297D01*
X236839222Y-77315435D01*
X236825396Y-77312256D01*
X236820796Y-77310032D01*
X236813522Y-77307478D01*
X236808546Y-77306338D01*
X236795766Y-77300174D01*
X236773345Y-77300155D01*
X236772583Y-77300111D01*
X236772101Y-77300000D01*
X222728081Y-77300000D01*
X222727784Y-77300068D01*
X222726964Y-77300113D01*
X222718771Y-77300106D01*
X222718770Y-77300106D01*
X222704583Y-77300094D01*
X222691795Y-77306234D01*
X222686818Y-77307365D01*
X222679529Y-77309911D01*
X222674932Y-77312123D01*
X222661100Y-77315279D01*
X222650005Y-77324121D01*
X222645067Y-77326497D01*
X222639472Y-77330006D01*
X222635178Y-77333422D01*
X222622384Y-77339565D01*
X222613520Y-77350649D01*
X222609522Y-77353829D01*
X222604074Y-77359268D01*
X222600886Y-77363261D01*
X222589788Y-77372105D01*
X222583624Y-77384885D01*
X222580203Y-77389170D01*
X222576684Y-77394759D01*
X222574297Y-77399696D01*
X222565435Y-77410778D01*
X222562256Y-77424604D01*
X222560032Y-77429204D01*
X222557478Y-77436478D01*
X222556338Y-77441454D01*
X222550174Y-77454234D01*
X222550162Y-77468771D01*
X222550155Y-77476646D01*
X222550111Y-77477417D01*
X222550000Y-77477899D01*
X214449958Y-77477899D01*
X214449932Y-77477784D01*
X214449887Y-77476964D01*
X214449894Y-77468771D01*
X214449894Y-77468770D01*
X214449906Y-77454583D01*
X214443766Y-77441795D01*
X214442635Y-77436818D01*
X214440089Y-77429529D01*
X214437877Y-77424932D01*
X214434721Y-77411100D01*
X214425879Y-77400005D01*
X214423503Y-77395067D01*
X214419994Y-77389472D01*
X214416578Y-77385178D01*
X214410435Y-77372384D01*
X214399351Y-77363520D01*
X214396171Y-77359522D01*
X214390732Y-77354074D01*
X214386739Y-77350886D01*
X214377895Y-77339788D01*
X214365115Y-77333624D01*
X214360830Y-77330203D01*
X214355241Y-77326684D01*
X214350304Y-77324297D01*
X214339222Y-77315435D01*
X214325396Y-77312256D01*
X214320796Y-77310032D01*
X214313522Y-77307478D01*
X214308546Y-77306338D01*
X214295766Y-77300174D01*
X214273345Y-77300155D01*
X214272583Y-77300111D01*
X214272101Y-77300000D01*
X200228081Y-77300000D01*
X200227784Y-77300068D01*
X200226964Y-77300113D01*
X200218771Y-77300106D01*
X200218770Y-77300106D01*
X200204583Y-77300094D01*
X200191795Y-77306234D01*
X200186818Y-77307365D01*
X200179529Y-77309911D01*
X200174932Y-77312123D01*
X200161100Y-77315279D01*
X200150005Y-77324121D01*
X200145067Y-77326497D01*
X200139472Y-77330006D01*
X200135178Y-77333422D01*
X200122384Y-77339565D01*
X200113520Y-77350649D01*
X200109522Y-77353829D01*
X200104074Y-77359268D01*
X200100886Y-77363261D01*
X200089788Y-77372105D01*
X200083624Y-77384885D01*
X200080203Y-77389170D01*
X200076684Y-77394759D01*
X200074297Y-77399696D01*
X200065435Y-77410778D01*
X200062256Y-77424604D01*
X200060032Y-77429204D01*
X200057478Y-77436478D01*
X200056338Y-77441454D01*
X200050174Y-77454234D01*
X200050162Y-77468771D01*
X200050155Y-77476646D01*
X200050111Y-77477417D01*
X200050000Y-77477899D01*
X191750000Y-77477899D01*
X191750000Y-76028081D01*
X191749932Y-76027784D01*
X191749887Y-76026964D01*
X191749894Y-76018771D01*
X191749894Y-76018770D01*
X191749906Y-76004583D01*
X191743766Y-75991795D01*
X191742635Y-75986818D01*
X191740089Y-75979529D01*
X191737877Y-75974932D01*
X191734721Y-75961100D01*
X191725879Y-75950005D01*
X191723503Y-75945067D01*
X191719994Y-75939472D01*
X191716578Y-75935178D01*
X191710435Y-75922384D01*
X191699351Y-75913520D01*
X191696171Y-75909522D01*
X191690732Y-75904074D01*
X191686739Y-75900886D01*
X191677895Y-75889788D01*
X191665115Y-75883624D01*
X191660830Y-75880203D01*
X191655241Y-75876684D01*
X191650304Y-75874297D01*
X191639222Y-75865435D01*
X191625396Y-75862256D01*
X191620796Y-75860032D01*
X191613522Y-75857478D01*
X191608546Y-75856338D01*
X191595766Y-75850174D01*
X191573345Y-75850155D01*
X191572583Y-75850111D01*
X191572101Y-75850000D01*
X187928081Y-75850000D01*
X187927784Y-75850068D01*
X187926964Y-75850113D01*
X187918771Y-75850106D01*
X187918770Y-75850106D01*
X187904583Y-75850094D01*
X187891795Y-75856234D01*
X187886818Y-75857365D01*
X187879529Y-75859911D01*
X187874932Y-75862123D01*
X187861100Y-75865279D01*
X187850005Y-75874121D01*
X187845067Y-75876497D01*
X187839472Y-75880006D01*
X187835178Y-75883422D01*
X187822384Y-75889565D01*
X187813520Y-75900649D01*
X187809522Y-75903829D01*
X187804074Y-75909268D01*
X187800886Y-75913261D01*
X187789788Y-75922105D01*
X187783624Y-75934885D01*
X187780203Y-75939170D01*
X187776684Y-75944759D01*
X187774297Y-75949696D01*
X187765435Y-75960778D01*
X187762256Y-75974604D01*
X187760032Y-75979204D01*
X187757478Y-75986478D01*
X187756338Y-75991454D01*
X187750174Y-76004234D01*
X187750162Y-76018771D01*
X187750155Y-76026646D01*
X187750111Y-76027417D01*
X187750000Y-76027899D01*
X187750000Y-80374000D01*
X187729998Y-80442121D01*
X187676342Y-80488614D01*
X187624000Y-80500000D01*
X186578081Y-80500000D01*
X186577784Y-80500068D01*
X186576964Y-80500113D01*
X186568771Y-80500106D01*
X186568770Y-80500106D01*
X186554583Y-80500094D01*
X186541795Y-80506234D01*
X186536818Y-80507365D01*
X186529529Y-80509911D01*
X186524932Y-80512123D01*
X186511100Y-80515279D01*
X186500005Y-80524121D01*
X186495067Y-80526497D01*
X186489472Y-80530006D01*
X186485178Y-80533422D01*
X186472384Y-80539565D01*
X186463520Y-80550649D01*
X186459522Y-80553829D01*
X186454074Y-80559268D01*
X186450886Y-80563261D01*
X186439788Y-80572105D01*
X186433624Y-80584885D01*
X186430203Y-80589170D01*
X186426684Y-80594759D01*
X186424297Y-80599696D01*
X186415435Y-80610778D01*
X186412256Y-80624604D01*
X186410032Y-80629204D01*
X186407478Y-80636478D01*
X186406338Y-80641454D01*
X186400174Y-80654234D01*
X186400162Y-80668771D01*
X186400155Y-80676646D01*
X186400111Y-80677417D01*
X186400000Y-80677899D01*
X146950000Y-80677899D01*
X146950000Y-77478081D01*
X146949932Y-77477784D01*
X146949887Y-77476964D01*
X146949894Y-77468771D01*
X146949894Y-77468770D01*
X146949906Y-77454583D01*
X146943766Y-77441795D01*
X146942635Y-77436818D01*
X146940089Y-77429529D01*
X146937877Y-77424932D01*
X146934721Y-77411100D01*
X146925879Y-77400005D01*
X146923503Y-77395067D01*
X146919994Y-77389472D01*
X146916578Y-77385178D01*
X146910435Y-77372384D01*
X146899351Y-77363520D01*
X146896171Y-77359522D01*
X146890732Y-77354074D01*
X146886739Y-77350886D01*
X146877895Y-77339788D01*
X146865115Y-77333624D01*
X146860830Y-77330203D01*
X146855241Y-77326684D01*
X146850304Y-77324297D01*
X146839222Y-77315435D01*
X146825396Y-77312256D01*
X146820796Y-77310032D01*
X146813522Y-77307478D01*
X146808546Y-77306338D01*
X146795766Y-77300174D01*
X146773345Y-77300155D01*
X146772583Y-77300111D01*
X146772101Y-77300000D01*
X132728081Y-77300000D01*
X132727784Y-77300068D01*
X132726964Y-77300113D01*
X132718771Y-77300106D01*
X132718770Y-77300106D01*
X132704583Y-77300094D01*
X132691795Y-77306234D01*
X132686818Y-77307365D01*
X132679529Y-77309911D01*
X132674932Y-77312123D01*
X132661100Y-77315279D01*
X132650005Y-77324121D01*
X132645067Y-77326497D01*
X132639472Y-77330006D01*
X132635178Y-77333422D01*
X132622384Y-77339565D01*
X132613520Y-77350649D01*
X132609522Y-77353829D01*
X132604074Y-77359268D01*
X132600886Y-77363261D01*
X132589788Y-77372105D01*
X132583624Y-77384885D01*
X132580203Y-77389170D01*
X132576684Y-77394759D01*
X132574297Y-77399696D01*
X132565435Y-77410778D01*
X132562256Y-77424604D01*
X132560032Y-77429204D01*
X132557478Y-77436478D01*
X132556338Y-77441454D01*
X132550174Y-77454234D01*
X132550162Y-77468771D01*
X132550155Y-77476646D01*
X132550111Y-77477417D01*
X132550000Y-77477899D01*
X91750000Y-77477899D01*
X91750000Y-76028081D01*
X91749932Y-76027784D01*
X91749887Y-76026964D01*
X91749894Y-76018771D01*
X91749894Y-76018770D01*
X91749906Y-76004583D01*
X91743766Y-75991795D01*
X91742635Y-75986818D01*
X91740089Y-75979529D01*
X91737877Y-75974932D01*
X91734721Y-75961100D01*
X91725879Y-75950005D01*
X91723503Y-75945067D01*
X91719994Y-75939472D01*
X91716578Y-75935178D01*
X91710435Y-75922384D01*
X91699351Y-75913520D01*
X91696171Y-75909522D01*
X91690732Y-75904074D01*
X91686739Y-75900886D01*
X91677895Y-75889788D01*
X91665115Y-75883624D01*
X91660830Y-75880203D01*
X91655241Y-75876684D01*
X91650304Y-75874297D01*
X91639222Y-75865435D01*
X91625396Y-75862256D01*
X91620796Y-75860032D01*
X91613522Y-75857478D01*
X91608546Y-75856338D01*
X91595766Y-75850174D01*
X91573345Y-75850155D01*
X91572583Y-75850111D01*
X91572101Y-75850000D01*
X87928081Y-75850000D01*
X87927784Y-75850068D01*
X87926964Y-75850113D01*
X87918771Y-75850106D01*
X87918770Y-75850106D01*
X87904583Y-75850094D01*
X87891795Y-75856234D01*
X87886818Y-75857365D01*
X87879529Y-75859911D01*
X87874932Y-75862123D01*
X87861100Y-75865279D01*
X87850005Y-75874121D01*
X87845067Y-75876497D01*
X87839472Y-75880006D01*
X87835178Y-75883422D01*
X87822384Y-75889565D01*
X87813520Y-75900649D01*
X87809522Y-75903829D01*
X87804074Y-75909268D01*
X87800886Y-75913261D01*
X87789788Y-75922105D01*
X87783624Y-75934885D01*
X87780203Y-75939170D01*
X87776684Y-75944759D01*
X87774297Y-75949696D01*
X87765435Y-75960778D01*
X87762256Y-75974604D01*
X87760032Y-75979204D01*
X87757478Y-75986478D01*
X87756338Y-75991454D01*
X87750174Y-76004234D01*
X87750162Y-76018771D01*
X87750155Y-76026646D01*
X87750111Y-76027417D01*
X87750000Y-76027899D01*
X87750000Y-80374000D01*
X87729998Y-80442121D01*
X87676342Y-80488614D01*
X87624000Y-80500000D01*
X86578081Y-80500000D01*
X86577784Y-80500068D01*
X86576964Y-80500113D01*
X86568771Y-80500106D01*
X86568770Y-80500106D01*
X86554583Y-80500094D01*
X86541795Y-80506234D01*
X86536818Y-80507365D01*
X86529529Y-80509911D01*
X86524932Y-80512123D01*
X86511100Y-80515279D01*
X86500005Y-80524121D01*
X86495067Y-80526497D01*
X86489472Y-80530006D01*
X86485178Y-80533422D01*
X86472384Y-80539565D01*
X86463520Y-80550649D01*
X86459522Y-80553829D01*
X86454074Y-80559268D01*
X86450886Y-80563261D01*
X86439788Y-80572105D01*
X86433624Y-80584885D01*
X86430203Y-80589170D01*
X86426684Y-80594759D01*
X86424297Y-80599696D01*
X86415435Y-80610778D01*
X86412256Y-80624604D01*
X86410032Y-80629204D01*
X86407478Y-80636478D01*
X86406338Y-80641454D01*
X86400174Y-80654234D01*
X86400162Y-80668771D01*
X86400155Y-80676646D01*
X86400111Y-80677417D01*
X86400000Y-80677899D01*
X81700000Y-80677899D01*
X81700000Y-77478081D01*
X81699932Y-77477784D01*
X81699887Y-77476964D01*
X81699894Y-77468771D01*
X81699894Y-77468770D01*
X81699906Y-77454583D01*
X81693766Y-77441795D01*
X81692635Y-77436818D01*
X81690089Y-77429529D01*
X81687877Y-77424932D01*
X81684721Y-77411100D01*
X81675879Y-77400005D01*
X81673503Y-77395067D01*
X81669994Y-77389472D01*
X81666578Y-77385178D01*
X81660435Y-77372384D01*
X81649351Y-77363520D01*
X81646171Y-77359522D01*
X81640732Y-77354074D01*
X81636739Y-77350886D01*
X81627895Y-77339788D01*
X81615115Y-77333624D01*
X81610830Y-77330203D01*
X81605241Y-77326684D01*
X81600304Y-77324297D01*
X81589222Y-77315435D01*
X81575396Y-77312256D01*
X81570796Y-77310032D01*
X81563522Y-77307478D01*
X81558546Y-77306338D01*
X81545766Y-77300174D01*
X81523345Y-77300155D01*
X81522583Y-77300111D01*
X81522101Y-77300000D01*
X67478081Y-77300000D01*
X67477784Y-77300068D01*
X67476964Y-77300113D01*
X67468771Y-77300106D01*
X67468770Y-77300106D01*
X67454583Y-77300094D01*
X67441795Y-77306234D01*
X67436818Y-77307365D01*
X67429529Y-77309911D01*
X67424932Y-77312123D01*
X67411100Y-77315279D01*
X67400005Y-77324121D01*
X67395067Y-77326497D01*
X67389472Y-77330006D01*
X67385178Y-77333422D01*
X67372384Y-77339565D01*
X67363520Y-77350649D01*
X67359522Y-77353829D01*
X67354074Y-77359268D01*
X67350886Y-77363261D01*
X67339788Y-77372105D01*
X67333624Y-77384885D01*
X67330203Y-77389170D01*
X67326684Y-77394759D01*
X67324297Y-77399696D01*
X67315435Y-77410778D01*
X67312256Y-77424604D01*
X67310032Y-77429204D01*
X67307478Y-77436478D01*
X67306338Y-77441454D01*
X67300174Y-77454234D01*
X67300162Y-77468771D01*
X67300155Y-77476646D01*
X67300111Y-77477417D01*
X67300000Y-77477899D01*
X63699958Y-77477899D01*
X63699932Y-77477784D01*
X63699887Y-77476964D01*
X63699894Y-77468771D01*
X63699894Y-77468770D01*
X63699906Y-77454583D01*
X63693766Y-77441795D01*
X63692635Y-77436818D01*
X63690089Y-77429529D01*
X63687877Y-77424932D01*
X63684721Y-77411100D01*
X63675879Y-77400005D01*
X63673503Y-77395067D01*
X63669994Y-77389472D01*
X63666578Y-77385178D01*
X63660435Y-77372384D01*
X63649351Y-77363520D01*
X63646171Y-77359522D01*
X63640732Y-77354074D01*
X63636739Y-77350886D01*
X63627895Y-77339788D01*
X63615115Y-77333624D01*
X63610830Y-77330203D01*
X63605241Y-77326684D01*
X63600304Y-77324297D01*
X63589222Y-77315435D01*
X63575396Y-77312256D01*
X63570796Y-77310032D01*
X63563522Y-77307478D01*
X63558546Y-77306338D01*
X63545766Y-77300174D01*
X63523345Y-77300155D01*
X63522583Y-77300111D01*
X63522101Y-77300000D01*
X49478081Y-77300000D01*
X49477784Y-77300068D01*
X49476964Y-77300113D01*
X49468771Y-77300106D01*
X49468770Y-77300106D01*
X49454583Y-77300094D01*
X49441795Y-77306234D01*
X49436818Y-77307365D01*
X49429529Y-77309911D01*
X49424932Y-77312123D01*
X49411100Y-77315279D01*
X49400005Y-77324121D01*
X49395067Y-77326497D01*
X49389472Y-77330006D01*
X49385178Y-77333422D01*
X49372384Y-77339565D01*
X49363520Y-77350649D01*
X49359522Y-77353829D01*
X49354074Y-77359268D01*
X49350886Y-77363261D01*
X49339788Y-77372105D01*
X49333624Y-77384885D01*
X49330203Y-77389170D01*
X49326684Y-77394759D01*
X49324297Y-77399696D01*
X49315435Y-77410778D01*
X49312256Y-77424604D01*
X49310032Y-77429204D01*
X49307478Y-77436478D01*
X49306338Y-77441454D01*
X49300174Y-77454234D01*
X49300162Y-77468771D01*
X49300155Y-77476646D01*
X49300111Y-77477417D01*
X49300000Y-77477899D01*
X43449958Y-77477899D01*
X43449932Y-77477784D01*
X43449887Y-77476964D01*
X43449894Y-77468771D01*
X43449894Y-77468770D01*
X43449906Y-77454583D01*
X43443766Y-77441795D01*
X43442635Y-77436818D01*
X43440089Y-77429529D01*
X43437877Y-77424932D01*
X43434721Y-77411100D01*
X43425879Y-77400005D01*
X43423503Y-77395067D01*
X43419994Y-77389472D01*
X43416578Y-77385178D01*
X43410435Y-77372384D01*
X43399351Y-77363520D01*
X43396171Y-77359522D01*
X43390732Y-77354074D01*
X43386739Y-77350886D01*
X43377895Y-77339788D01*
X43365115Y-77333624D01*
X43360830Y-77330203D01*
X43355241Y-77326684D01*
X43350304Y-77324297D01*
X43339222Y-77315435D01*
X43325396Y-77312256D01*
X43320796Y-77310032D01*
X43313522Y-77307478D01*
X43308546Y-77306338D01*
X43295766Y-77300174D01*
X43273345Y-77300155D01*
X43272583Y-77300111D01*
X43272101Y-77300000D01*
X29228081Y-77300000D01*
X29227784Y-77300068D01*
X29226964Y-77300113D01*
X29218771Y-77300106D01*
X29218770Y-77300106D01*
X29204583Y-77300094D01*
X29191795Y-77306234D01*
X29186818Y-77307365D01*
X29179529Y-77309911D01*
X29174932Y-77312123D01*
X29161100Y-77315279D01*
X29150005Y-77324121D01*
X29145067Y-77326497D01*
X29139472Y-77330006D01*
X29135178Y-77333422D01*
X29122384Y-77339565D01*
X29113520Y-77350649D01*
X29109522Y-77353829D01*
X29104074Y-77359268D01*
X29100886Y-77363261D01*
X29089788Y-77372105D01*
X29083624Y-77384885D01*
X29080203Y-77389170D01*
X29076684Y-77394759D01*
X29074297Y-77399696D01*
X29065435Y-77410778D01*
X29062256Y-77424604D01*
X29060032Y-77429204D01*
X29057478Y-77436478D01*
X29056338Y-77441454D01*
X29050174Y-77454234D01*
X29050162Y-77468771D01*
X29050155Y-77476646D01*
X29050111Y-77477417D01*
X29050000Y-77477899D01*
X20200000Y-77477899D01*
X20200000Y-60477899D01*
X33550000Y-60477899D01*
X33550000Y-74521919D01*
X33550068Y-74522216D01*
X33550113Y-74523036D01*
X33550094Y-74545417D01*
X33556234Y-74558205D01*
X33557365Y-74563182D01*
X33559911Y-74570471D01*
X33562123Y-74575068D01*
X33565279Y-74588900D01*
X33574121Y-74599995D01*
X33576497Y-74604933D01*
X33580006Y-74610528D01*
X33583422Y-74614822D01*
X33589565Y-74627616D01*
X33600649Y-74636480D01*
X33603829Y-74640478D01*
X33609268Y-74645926D01*
X33613261Y-74649114D01*
X33622105Y-74660212D01*
X33634885Y-74666376D01*
X33639170Y-74669797D01*
X33644759Y-74673316D01*
X33649696Y-74675703D01*
X33660778Y-74684565D01*
X33674604Y-74687744D01*
X33679204Y-74689968D01*
X33686478Y-74692522D01*
X33691454Y-74693662D01*
X33704234Y-74699826D01*
X33726655Y-74699845D01*
X33727417Y-74699889D01*
X33727899Y-74700000D01*
X47771919Y-74700000D01*
X47772216Y-74699932D01*
X47773036Y-74699887D01*
X47781229Y-74699894D01*
X47781230Y-74699894D01*
X47795417Y-74699906D01*
X47808205Y-74693766D01*
X47813182Y-74692635D01*
X47820471Y-74690089D01*
X47825068Y-74687877D01*
X47838900Y-74684721D01*
X47849995Y-74675879D01*
X47854933Y-74673503D01*
X47860528Y-74669994D01*
X47864822Y-74666578D01*
X47877616Y-74660435D01*
X47886480Y-74649351D01*
X47890478Y-74646171D01*
X47895926Y-74640732D01*
X47899114Y-74636739D01*
X47910212Y-74627895D01*
X47916376Y-74615115D01*
X47919797Y-74610830D01*
X47923316Y-74605241D01*
X47925703Y-74600304D01*
X47934565Y-74589222D01*
X47937744Y-74575396D01*
X47939968Y-74570796D01*
X47942522Y-74563522D01*
X47943662Y-74558546D01*
X47949826Y-74545766D01*
X47949845Y-74523345D01*
X47949889Y-74522583D01*
X47950000Y-74522101D01*
X47950000Y-60478081D01*
X47949958Y-60477899D01*
X58300000Y-60477899D01*
X58300000Y-74521919D01*
X58300068Y-74522216D01*
X58300113Y-74523036D01*
X58300094Y-74545417D01*
X58306234Y-74558205D01*
X58307365Y-74563182D01*
X58309911Y-74570471D01*
X58312123Y-74575068D01*
X58315279Y-74588900D01*
X58324121Y-74599995D01*
X58326497Y-74604933D01*
X58330006Y-74610528D01*
X58333422Y-74614822D01*
X58339565Y-74627616D01*
X58350649Y-74636480D01*
X58353829Y-74640478D01*
X58359268Y-74645926D01*
X58363261Y-74649114D01*
X58372105Y-74660212D01*
X58384885Y-74666376D01*
X58389170Y-74669797D01*
X58394759Y-74673316D01*
X58399696Y-74675703D01*
X58410778Y-74684565D01*
X58424604Y-74687744D01*
X58429204Y-74689968D01*
X58436478Y-74692522D01*
X58441454Y-74693662D01*
X58454234Y-74699826D01*
X58476655Y-74699845D01*
X58477417Y-74699889D01*
X58477899Y-74700000D01*
X72521919Y-74700000D01*
X72522216Y-74699932D01*
X72523036Y-74699887D01*
X72531229Y-74699894D01*
X72531230Y-74699894D01*
X72545417Y-74699906D01*
X72558205Y-74693766D01*
X72563182Y-74692635D01*
X72570471Y-74690089D01*
X72575068Y-74687877D01*
X72588900Y-74684721D01*
X72599995Y-74675879D01*
X72604933Y-74673503D01*
X72610528Y-74669994D01*
X72614822Y-74666578D01*
X72627616Y-74660435D01*
X72636480Y-74649351D01*
X72640478Y-74646171D01*
X72645926Y-74640732D01*
X72649114Y-74636739D01*
X72660212Y-74627895D01*
X72666376Y-74615115D01*
X72669797Y-74610830D01*
X72673316Y-74605241D01*
X72675703Y-74600304D01*
X72684565Y-74589222D01*
X72687744Y-74575396D01*
X72689968Y-74570796D01*
X72692522Y-74563522D01*
X72693662Y-74558546D01*
X72699826Y-74545766D01*
X72699845Y-74523345D01*
X72699889Y-74522583D01*
X72700000Y-74522101D01*
X72700000Y-60478081D01*
X72699958Y-60477899D01*
X76300000Y-60477899D01*
X76300000Y-74521919D01*
X76300068Y-74522216D01*
X76300113Y-74523036D01*
X76300094Y-74545417D01*
X76306234Y-74558205D01*
X76307365Y-74563182D01*
X76309911Y-74570471D01*
X76312123Y-74575068D01*
X76315279Y-74588900D01*
X76324121Y-74599995D01*
X76326497Y-74604933D01*
X76330006Y-74610528D01*
X76333422Y-74614822D01*
X76339565Y-74627616D01*
X76350649Y-74636480D01*
X76353829Y-74640478D01*
X76359268Y-74645926D01*
X76363261Y-74649114D01*
X76372105Y-74660212D01*
X76384885Y-74666376D01*
X76389170Y-74669797D01*
X76394759Y-74673316D01*
X76399696Y-74675703D01*
X76410778Y-74684565D01*
X76424604Y-74687744D01*
X76429204Y-74689968D01*
X76436478Y-74692522D01*
X76441454Y-74693662D01*
X76454234Y-74699826D01*
X76476655Y-74699845D01*
X76477417Y-74699889D01*
X76477899Y-74700000D01*
X90521919Y-74700000D01*
X90522216Y-74699932D01*
X90523036Y-74699887D01*
X90531229Y-74699894D01*
X90531230Y-74699894D01*
X90545417Y-74699906D01*
X90558205Y-74693766D01*
X90563182Y-74692635D01*
X90570471Y-74690089D01*
X90575068Y-74687877D01*
X90588900Y-74684721D01*
X90599995Y-74675879D01*
X90604933Y-74673503D01*
X90610528Y-74669994D01*
X90614822Y-74666578D01*
X90627616Y-74660435D01*
X90636480Y-74649351D01*
X90640478Y-74646171D01*
X90645926Y-74640732D01*
X90649114Y-74636739D01*
X90660212Y-74627895D01*
X90666376Y-74615115D01*
X90669797Y-74610830D01*
X90673316Y-74605241D01*
X90675703Y-74600304D01*
X90684565Y-74589222D01*
X90687744Y-74575396D01*
X90689968Y-74570796D01*
X90692522Y-74563522D01*
X90693662Y-74558546D01*
X90699826Y-74545766D01*
X90699845Y-74523345D01*
X90699889Y-74522583D01*
X90700000Y-74522101D01*
X90700000Y-60478081D01*
X90699958Y-60477899D01*
X94300000Y-60477899D01*
X94300000Y-74521919D01*
X94300068Y-74522216D01*
X94300113Y-74523036D01*
X94300094Y-74545417D01*
X94306234Y-74558205D01*
X94307365Y-74563182D01*
X94309911Y-74570471D01*
X94312123Y-74575068D01*
X94315279Y-74588900D01*
X94324121Y-74599995D01*
X94326497Y-74604933D01*
X94330006Y-74610528D01*
X94333422Y-74614822D01*
X94339565Y-74627616D01*
X94350649Y-74636480D01*
X94353829Y-74640478D01*
X94359268Y-74645926D01*
X94363261Y-74649114D01*
X94372105Y-74660212D01*
X94384885Y-74666376D01*
X94389170Y-74669797D01*
X94394759Y-74673316D01*
X94399696Y-74675703D01*
X94410778Y-74684565D01*
X94424604Y-74687744D01*
X94429204Y-74689968D01*
X94436478Y-74692522D01*
X94441454Y-74693662D01*
X94454234Y-74699826D01*
X94476655Y-74699845D01*
X94477417Y-74699889D01*
X94477899Y-74700000D01*
X108521919Y-74700000D01*
X108522216Y-74699932D01*
X108523036Y-74699887D01*
X108531229Y-74699894D01*
X108531230Y-74699894D01*
X108545417Y-74699906D01*
X108558205Y-74693766D01*
X108563182Y-74692635D01*
X108570471Y-74690089D01*
X108575068Y-74687877D01*
X108588900Y-74684721D01*
X108599995Y-74675879D01*
X108604933Y-74673503D01*
X108610528Y-74669994D01*
X108614822Y-74666578D01*
X108627616Y-74660435D01*
X108636480Y-74649351D01*
X108640478Y-74646171D01*
X108645926Y-74640732D01*
X108649114Y-74636739D01*
X108660212Y-74627895D01*
X108666376Y-74615115D01*
X108669797Y-74610830D01*
X108673316Y-74605241D01*
X108675703Y-74600304D01*
X108684565Y-74589222D01*
X108687744Y-74575396D01*
X108689968Y-74570796D01*
X108692522Y-74563522D01*
X108693662Y-74558546D01*
X108699826Y-74545766D01*
X108699845Y-74523345D01*
X108699889Y-74522583D01*
X108700000Y-74522101D01*
X108700000Y-60478081D01*
X108699958Y-60477899D01*
X112300000Y-60477899D01*
X112300000Y-74521919D01*
X112300068Y-74522216D01*
X112300113Y-74523036D01*
X112300094Y-74545417D01*
X112306234Y-74558205D01*
X112307365Y-74563182D01*
X112309911Y-74570471D01*
X112312123Y-74575068D01*
X112315279Y-74588900D01*
X112324121Y-74599995D01*
X112326497Y-74604933D01*
X112330006Y-74610528D01*
X112333422Y-74614822D01*
X112339565Y-74627616D01*
X112350649Y-74636480D01*
X112353829Y-74640478D01*
X112359268Y-74645926D01*
X112363261Y-74649114D01*
X112372105Y-74660212D01*
X112384885Y-74666376D01*
X112389170Y-74669797D01*
X112394759Y-74673316D01*
X112399696Y-74675703D01*
X112410778Y-74684565D01*
X112424604Y-74687744D01*
X112429204Y-74689968D01*
X112436478Y-74692522D01*
X112441454Y-74693662D01*
X112454234Y-74699826D01*
X112476655Y-74699845D01*
X112477417Y-74699889D01*
X112477899Y-74700000D01*
X126521919Y-74700000D01*
X126522216Y-74699932D01*
X126523036Y-74699887D01*
X126531229Y-74699894D01*
X126531230Y-74699894D01*
X126545417Y-74699906D01*
X126558205Y-74693766D01*
X126563182Y-74692635D01*
X126570471Y-74690089D01*
X126575068Y-74687877D01*
X126588900Y-74684721D01*
X126599995Y-74675879D01*
X126604933Y-74673503D01*
X126610528Y-74669994D01*
X126614822Y-74666578D01*
X126627616Y-74660435D01*
X126636480Y-74649351D01*
X126640478Y-74646171D01*
X126645926Y-74640732D01*
X126649114Y-74636739D01*
X126660212Y-74627895D01*
X126666376Y-74615115D01*
X126669797Y-74610830D01*
X126673316Y-74605241D01*
X126675703Y-74600304D01*
X126684565Y-74589222D01*
X126687744Y-74575396D01*
X126689968Y-74570796D01*
X126692522Y-74563522D01*
X126693662Y-74558546D01*
X126699826Y-74545766D01*
X126699845Y-74523345D01*
X126699889Y-74522583D01*
X126700000Y-74522101D01*
X126700000Y-60478081D01*
X126699958Y-60477899D01*
X130300000Y-60477899D01*
X130300000Y-74521919D01*
X130300068Y-74522216D01*
X130300113Y-74523036D01*
X130300094Y-74545417D01*
X130306234Y-74558205D01*
X130307365Y-74563182D01*
X130309911Y-74570471D01*
X130312123Y-74575068D01*
X130315279Y-74588900D01*
X130324121Y-74599995D01*
X130326497Y-74604933D01*
X130330006Y-74610528D01*
X130333422Y-74614822D01*
X130339565Y-74627616D01*
X130350649Y-74636480D01*
X130353829Y-74640478D01*
X130359268Y-74645926D01*
X130363261Y-74649114D01*
X130372105Y-74660212D01*
X130384885Y-74666376D01*
X130389170Y-74669797D01*
X130394759Y-74673316D01*
X130399696Y-74675703D01*
X130410778Y-74684565D01*
X130424604Y-74687744D01*
X130429204Y-74689968D01*
X130436478Y-74692522D01*
X130441454Y-74693662D01*
X130454234Y-74699826D01*
X130476655Y-74699845D01*
X130477417Y-74699889D01*
X130477899Y-74700000D01*
X144521919Y-74700000D01*
X144522216Y-74699932D01*
X144523036Y-74699887D01*
X144531229Y-74699894D01*
X144531230Y-74699894D01*
X144545417Y-74699906D01*
X144558205Y-74693766D01*
X144563182Y-74692635D01*
X144570471Y-74690089D01*
X144575068Y-74687877D01*
X144588900Y-74684721D01*
X144599995Y-74675879D01*
X144604933Y-74673503D01*
X144610528Y-74669994D01*
X144614822Y-74666578D01*
X144627616Y-74660435D01*
X144636480Y-74649351D01*
X144640478Y-74646171D01*
X144645926Y-74640732D01*
X144649114Y-74636739D01*
X144660212Y-74627895D01*
X144666376Y-74615115D01*
X144669797Y-74610830D01*
X144673316Y-74605241D01*
X144675703Y-74600304D01*
X144684565Y-74589222D01*
X144687744Y-74575396D01*
X144689968Y-74570796D01*
X144692522Y-74563522D01*
X144693662Y-74558546D01*
X144699826Y-74545766D01*
X144699845Y-74523345D01*
X144699889Y-74522583D01*
X144700000Y-74522101D01*
X144700000Y-60478081D01*
X144699958Y-60477899D01*
X148300000Y-60477899D01*
X148300000Y-74521919D01*
X148300068Y-74522216D01*
X148300113Y-74523036D01*
X148300094Y-74545417D01*
X148306234Y-74558205D01*
X148307365Y-74563182D01*
X148309911Y-74570471D01*
X148312123Y-74575068D01*
X148315279Y-74588900D01*
X148324121Y-74599995D01*
X148326497Y-74604933D01*
X148330006Y-74610528D01*
X148333422Y-74614822D01*
X148339565Y-74627616D01*
X148350649Y-74636480D01*
X148353829Y-74640478D01*
X148359268Y-74645926D01*
X148363261Y-74649114D01*
X148372105Y-74660212D01*
X148384885Y-74666376D01*
X148389170Y-74669797D01*
X148394759Y-74673316D01*
X148399696Y-74675703D01*
X148410778Y-74684565D01*
X148424604Y-74687744D01*
X148429204Y-74689968D01*
X148436478Y-74692522D01*
X148441454Y-74693662D01*
X148454234Y-74699826D01*
X148476655Y-74699845D01*
X148477417Y-74699889D01*
X148477899Y-74700000D01*
X162521919Y-74700000D01*
X162522216Y-74699932D01*
X162523036Y-74699887D01*
X162531229Y-74699894D01*
X162531230Y-74699894D01*
X162545417Y-74699906D01*
X162558205Y-74693766D01*
X162563182Y-74692635D01*
X162570471Y-74690089D01*
X162575068Y-74687877D01*
X162588900Y-74684721D01*
X162599995Y-74675879D01*
X162604933Y-74673503D01*
X162610528Y-74669994D01*
X162614822Y-74666578D01*
X162627616Y-74660435D01*
X162636480Y-74649351D01*
X162640478Y-74646171D01*
X162645926Y-74640732D01*
X162649114Y-74636739D01*
X162660212Y-74627895D01*
X162666376Y-74615115D01*
X162669797Y-74610830D01*
X162673316Y-74605241D01*
X162675703Y-74600304D01*
X162684565Y-74589222D01*
X162687744Y-74575396D01*
X162689968Y-74570796D01*
X162692522Y-74563522D01*
X162693662Y-74558546D01*
X162699826Y-74545766D01*
X162699845Y-74523345D01*
X162699889Y-74522583D01*
X162700000Y-74522101D01*
X162700000Y-60478081D01*
X162699958Y-60477899D01*
X166300000Y-60477899D01*
X166300000Y-74521919D01*
X166300068Y-74522216D01*
X166300113Y-74523036D01*
X166300094Y-74545417D01*
X166306234Y-74558205D01*
X166307365Y-74563182D01*
X166309911Y-74570471D01*
X166312123Y-74575068D01*
X166315279Y-74588900D01*
X166324121Y-74599995D01*
X166326497Y-74604933D01*
X166330006Y-74610528D01*
X166333422Y-74614822D01*
X166339565Y-74627616D01*
X166350649Y-74636480D01*
X166353829Y-74640478D01*
X166359268Y-74645926D01*
X166363261Y-74649114D01*
X166372105Y-74660212D01*
X166384885Y-74666376D01*
X166389170Y-74669797D01*
X166394759Y-74673316D01*
X166399696Y-74675703D01*
X166410778Y-74684565D01*
X166424604Y-74687744D01*
X166429204Y-74689968D01*
X166436478Y-74692522D01*
X166441454Y-74693662D01*
X166454234Y-74699826D01*
X166476655Y-74699845D01*
X166477417Y-74699889D01*
X166477899Y-74700000D01*
X180521919Y-74700000D01*
X180522216Y-74699932D01*
X180523036Y-74699887D01*
X180531229Y-74699894D01*
X180531230Y-74699894D01*
X180545417Y-74699906D01*
X180558205Y-74693766D01*
X180563182Y-74692635D01*
X180570471Y-74690089D01*
X180575068Y-74687877D01*
X180588900Y-74684721D01*
X180599995Y-74675879D01*
X180604933Y-74673503D01*
X180610528Y-74669994D01*
X180614822Y-74666578D01*
X180627616Y-74660435D01*
X180636480Y-74649351D01*
X180640478Y-74646171D01*
X180645926Y-74640732D01*
X180649114Y-74636739D01*
X180660212Y-74627895D01*
X180666376Y-74615115D01*
X180669797Y-74610830D01*
X180673316Y-74605241D01*
X180675703Y-74600304D01*
X180684565Y-74589222D01*
X180687744Y-74575396D01*
X180689968Y-74570796D01*
X180692522Y-74563522D01*
X180693662Y-74558546D01*
X180699826Y-74545766D01*
X180699845Y-74523345D01*
X180699889Y-74522583D01*
X180700000Y-74522101D01*
X180700000Y-60478081D01*
X180699958Y-60477899D01*
X184300000Y-60477899D01*
X184300000Y-74521919D01*
X184300068Y-74522216D01*
X184300113Y-74523036D01*
X184300094Y-74545417D01*
X184306234Y-74558205D01*
X184307365Y-74563182D01*
X184309911Y-74570471D01*
X184312123Y-74575068D01*
X184315279Y-74588900D01*
X184324121Y-74599995D01*
X184326497Y-74604933D01*
X184330006Y-74610528D01*
X184333422Y-74614822D01*
X184339565Y-74627616D01*
X184350649Y-74636480D01*
X184353829Y-74640478D01*
X184359268Y-74645926D01*
X184363261Y-74649114D01*
X184372105Y-74660212D01*
X184384885Y-74666376D01*
X184389170Y-74669797D01*
X184394759Y-74673316D01*
X184399696Y-74675703D01*
X184410778Y-74684565D01*
X184424604Y-74687744D01*
X184429204Y-74689968D01*
X184436478Y-74692522D01*
X184441454Y-74693662D01*
X184454234Y-74699826D01*
X184476655Y-74699845D01*
X184477417Y-74699889D01*
X184477899Y-74700000D01*
X198521919Y-74700000D01*
X198522216Y-74699932D01*
X198523036Y-74699887D01*
X198531229Y-74699894D01*
X198531230Y-74699894D01*
X198545417Y-74699906D01*
X198558205Y-74693766D01*
X198563182Y-74692635D01*
X198570471Y-74690089D01*
X198575068Y-74687877D01*
X198588900Y-74684721D01*
X198599995Y-74675879D01*
X198604933Y-74673503D01*
X198610528Y-74669994D01*
X198614822Y-74666578D01*
X198627616Y-74660435D01*
X198636480Y-74649351D01*
X198640478Y-74646171D01*
X198645926Y-74640732D01*
X198649114Y-74636739D01*
X198660212Y-74627895D01*
X198666376Y-74615115D01*
X198669797Y-74610830D01*
X198673316Y-74605241D01*
X198675703Y-74600304D01*
X198684565Y-74589222D01*
X198687744Y-74575396D01*
X198689968Y-74570796D01*
X198692522Y-74563522D01*
X198693662Y-74558546D01*
X198699826Y-74545766D01*
X198699845Y-74523345D01*
X198699889Y-74522583D01*
X198700000Y-74522101D01*
X198700000Y-60478081D01*
X198699958Y-60477899D01*
X202300000Y-60477899D01*
X202300000Y-74521919D01*
X202300068Y-74522216D01*
X202300113Y-74523036D01*
X202300094Y-74545417D01*
X202306234Y-74558205D01*
X202307365Y-74563182D01*
X202309911Y-74570471D01*
X202312123Y-74575068D01*
X202315279Y-74588900D01*
X202324121Y-74599995D01*
X202326497Y-74604933D01*
X202330006Y-74610528D01*
X202333422Y-74614822D01*
X202339565Y-74627616D01*
X202350649Y-74636480D01*
X202353829Y-74640478D01*
X202359268Y-74645926D01*
X202363261Y-74649114D01*
X202372105Y-74660212D01*
X202384885Y-74666376D01*
X202389170Y-74669797D01*
X202394759Y-74673316D01*
X202399696Y-74675703D01*
X202410778Y-74684565D01*
X202424604Y-74687744D01*
X202429204Y-74689968D01*
X202436478Y-74692522D01*
X202441454Y-74693662D01*
X202454234Y-74699826D01*
X202476655Y-74699845D01*
X202477417Y-74699889D01*
X202477899Y-74700000D01*
X216521919Y-74700000D01*
X216522216Y-74699932D01*
X216523036Y-74699887D01*
X216531229Y-74699894D01*
X216531230Y-74699894D01*
X216545417Y-74699906D01*
X216558205Y-74693766D01*
X216563182Y-74692635D01*
X216570471Y-74690089D01*
X216575068Y-74687877D01*
X216588900Y-74684721D01*
X216599995Y-74675879D01*
X216604933Y-74673503D01*
X216610528Y-74669994D01*
X216614822Y-74666578D01*
X216627616Y-74660435D01*
X216636480Y-74649351D01*
X216640478Y-74646171D01*
X216645926Y-74640732D01*
X216649114Y-74636739D01*
X216660212Y-74627895D01*
X216666376Y-74615115D01*
X216669797Y-74610830D01*
X216673316Y-74605241D01*
X216675703Y-74600304D01*
X216684565Y-74589222D01*
X216687744Y-74575396D01*
X216689968Y-74570796D01*
X216692522Y-74563522D01*
X216693662Y-74558546D01*
X216699826Y-74545766D01*
X216699845Y-74523345D01*
X216699889Y-74522583D01*
X216700000Y-74522101D01*
X216700000Y-60478081D01*
X216699958Y-60477899D01*
X222550000Y-60477899D01*
X222550000Y-74521919D01*
X222550068Y-74522216D01*
X222550113Y-74523036D01*
X222550094Y-74545417D01*
X222556234Y-74558205D01*
X222557365Y-74563182D01*
X222559911Y-74570471D01*
X222562123Y-74575068D01*
X222565279Y-74588900D01*
X222574121Y-74599995D01*
X222576497Y-74604933D01*
X222580006Y-74610528D01*
X222583422Y-74614822D01*
X222589565Y-74627616D01*
X222600649Y-74636480D01*
X222603829Y-74640478D01*
X222609268Y-74645926D01*
X222613261Y-74649114D01*
X222622105Y-74660212D01*
X222634885Y-74666376D01*
X222639170Y-74669797D01*
X222644759Y-74673316D01*
X222649696Y-74675703D01*
X222660778Y-74684565D01*
X222674604Y-74687744D01*
X222679204Y-74689968D01*
X222686478Y-74692522D01*
X222691454Y-74693662D01*
X222704234Y-74699826D01*
X222726655Y-74699845D01*
X222727417Y-74699889D01*
X222727899Y-74700000D01*
X236771919Y-74700000D01*
X236772216Y-74699932D01*
X236773036Y-74699887D01*
X236781229Y-74699894D01*
X236781230Y-74699894D01*
X236795417Y-74699906D01*
X236808205Y-74693766D01*
X236813182Y-74692635D01*
X236820471Y-74690089D01*
X236825068Y-74687877D01*
X236838900Y-74684721D01*
X236849995Y-74675879D01*
X236854933Y-74673503D01*
X236860528Y-74669994D01*
X236864822Y-74666578D01*
X236877616Y-74660435D01*
X236886480Y-74649351D01*
X236890478Y-74646171D01*
X236895926Y-74640732D01*
X236899114Y-74636739D01*
X236910212Y-74627895D01*
X236916376Y-74615115D01*
X236919797Y-74610830D01*
X236923316Y-74605241D01*
X236925703Y-74600304D01*
X236934565Y-74589222D01*
X236937744Y-74575396D01*
X236939968Y-74570796D01*
X236942522Y-74563522D01*
X236943662Y-74558546D01*
X236949826Y-74545766D01*
X236949845Y-74523345D01*
X236949889Y-74522583D01*
X236950000Y-74522101D01*
X236950000Y-60478081D01*
X236949932Y-60477784D01*
X236949887Y-60476964D01*
X236949894Y-60468771D01*
X236949894Y-60468770D01*
X236949906Y-60454583D01*
X236943766Y-60441795D01*
X236942635Y-60436818D01*
X236940089Y-60429529D01*
X236937877Y-60424932D01*
X236934721Y-60411100D01*
X236925879Y-60400005D01*
X236923503Y-60395067D01*
X236919994Y-60389472D01*
X236916578Y-60385178D01*
X236910435Y-60372384D01*
X236899351Y-60363520D01*
X236896171Y-60359522D01*
X236890732Y-60354074D01*
X236886739Y-60350886D01*
X236877895Y-60339788D01*
X236865115Y-60333624D01*
X236860830Y-60330203D01*
X236855241Y-60326684D01*
X236850304Y-60324297D01*
X236839222Y-60315435D01*
X236825396Y-60312256D01*
X236820796Y-60310032D01*
X236813522Y-60307478D01*
X236808546Y-60306338D01*
X236795766Y-60300174D01*
X236773345Y-60300155D01*
X236772583Y-60300111D01*
X236772101Y-60300000D01*
X222728081Y-60300000D01*
X222727784Y-60300068D01*
X222726964Y-60300113D01*
X222718771Y-60300106D01*
X222718770Y-60300106D01*
X222704583Y-60300094D01*
X222691795Y-60306234D01*
X222686818Y-60307365D01*
X222679529Y-60309911D01*
X222674932Y-60312123D01*
X222661100Y-60315279D01*
X222650005Y-60324121D01*
X222645067Y-60326497D01*
X222639472Y-60330006D01*
X222635178Y-60333422D01*
X222622384Y-60339565D01*
X222613520Y-60350649D01*
X222609522Y-60353829D01*
X222604074Y-60359268D01*
X222600886Y-60363261D01*
X222589788Y-60372105D01*
X222583624Y-60384885D01*
X222580203Y-60389170D01*
X222576684Y-60394759D01*
X222574297Y-60399696D01*
X222565435Y-60410778D01*
X222562256Y-60424604D01*
X222560032Y-60429204D01*
X222557478Y-60436478D01*
X222556338Y-60441454D01*
X222550174Y-60454234D01*
X222550162Y-60468771D01*
X222550155Y-60476646D01*
X222550111Y-60477417D01*
X222550000Y-60477899D01*
X216699958Y-60477899D01*
X216699932Y-60477784D01*
X216699887Y-60476964D01*
X216699894Y-60468771D01*
X216699894Y-60468770D01*
X216699906Y-60454583D01*
X216693766Y-60441795D01*
X216692635Y-60436818D01*
X216690089Y-60429529D01*
X216687877Y-60424932D01*
X216684721Y-60411100D01*
X216675879Y-60400005D01*
X216673503Y-60395067D01*
X216669994Y-60389472D01*
X216666578Y-60385178D01*
X216660435Y-60372384D01*
X216649351Y-60363520D01*
X216646171Y-60359522D01*
X216640732Y-60354074D01*
X216636739Y-60350886D01*
X216627895Y-60339788D01*
X216615115Y-60333624D01*
X216610830Y-60330203D01*
X216605241Y-60326684D01*
X216600304Y-60324297D01*
X216589222Y-60315435D01*
X216575396Y-60312256D01*
X216570796Y-60310032D01*
X216563522Y-60307478D01*
X216558546Y-60306338D01*
X216545766Y-60300174D01*
X216523345Y-60300155D01*
X216522583Y-60300111D01*
X216522101Y-60300000D01*
X202478081Y-60300000D01*
X202477784Y-60300068D01*
X202476964Y-60300113D01*
X202468771Y-60300106D01*
X202468770Y-60300106D01*
X202454583Y-60300094D01*
X202441795Y-60306234D01*
X202436818Y-60307365D01*
X202429529Y-60309911D01*
X202424932Y-60312123D01*
X202411100Y-60315279D01*
X202400005Y-60324121D01*
X202395067Y-60326497D01*
X202389472Y-60330006D01*
X202385178Y-60333422D01*
X202372384Y-60339565D01*
X202363520Y-60350649D01*
X202359522Y-60353829D01*
X202354074Y-60359268D01*
X202350886Y-60363261D01*
X202339788Y-60372105D01*
X202333624Y-60384885D01*
X202330203Y-60389170D01*
X202326684Y-60394759D01*
X202324297Y-60399696D01*
X202315435Y-60410778D01*
X202312256Y-60424604D01*
X202310032Y-60429204D01*
X202307478Y-60436478D01*
X202306338Y-60441454D01*
X202300174Y-60454234D01*
X202300162Y-60468771D01*
X202300155Y-60476646D01*
X202300111Y-60477417D01*
X202300000Y-60477899D01*
X198699958Y-60477899D01*
X198699932Y-60477784D01*
X198699887Y-60476964D01*
X198699894Y-60468771D01*
X198699894Y-60468770D01*
X198699906Y-60454583D01*
X198693766Y-60441795D01*
X198692635Y-60436818D01*
X198690089Y-60429529D01*
X198687877Y-60424932D01*
X198684721Y-60411100D01*
X198675879Y-60400005D01*
X198673503Y-60395067D01*
X198669994Y-60389472D01*
X198666578Y-60385178D01*
X198660435Y-60372384D01*
X198649351Y-60363520D01*
X198646171Y-60359522D01*
X198640732Y-60354074D01*
X198636739Y-60350886D01*
X198627895Y-60339788D01*
X198615115Y-60333624D01*
X198610830Y-60330203D01*
X198605241Y-60326684D01*
X198600304Y-60324297D01*
X198589222Y-60315435D01*
X198575396Y-60312256D01*
X198570796Y-60310032D01*
X198563522Y-60307478D01*
X198558546Y-60306338D01*
X198545766Y-60300174D01*
X198523345Y-60300155D01*
X198522583Y-60300111D01*
X198522101Y-60300000D01*
X184478081Y-60300000D01*
X184477784Y-60300068D01*
X184476964Y-60300113D01*
X184468771Y-60300106D01*
X184468770Y-60300106D01*
X184454583Y-60300094D01*
X184441795Y-60306234D01*
X184436818Y-60307365D01*
X184429529Y-60309911D01*
X184424932Y-60312123D01*
X184411100Y-60315279D01*
X184400005Y-60324121D01*
X184395067Y-60326497D01*
X184389472Y-60330006D01*
X184385178Y-60333422D01*
X184372384Y-60339565D01*
X184363520Y-60350649D01*
X184359522Y-60353829D01*
X184354074Y-60359268D01*
X184350886Y-60363261D01*
X184339788Y-60372105D01*
X184333624Y-60384885D01*
X184330203Y-60389170D01*
X184326684Y-60394759D01*
X184324297Y-60399696D01*
X184315435Y-60410778D01*
X184312256Y-60424604D01*
X184310032Y-60429204D01*
X184307478Y-60436478D01*
X184306338Y-60441454D01*
X184300174Y-60454234D01*
X184300162Y-60468771D01*
X184300155Y-60476646D01*
X184300111Y-60477417D01*
X184300000Y-60477899D01*
X180699958Y-60477899D01*
X180699932Y-60477784D01*
X180699887Y-60476964D01*
X180699894Y-60468771D01*
X180699894Y-60468770D01*
X180699906Y-60454583D01*
X180693766Y-60441795D01*
X180692635Y-60436818D01*
X180690089Y-60429529D01*
X180687877Y-60424932D01*
X180684721Y-60411100D01*
X180675879Y-60400005D01*
X180673503Y-60395067D01*
X180669994Y-60389472D01*
X180666578Y-60385178D01*
X180660435Y-60372384D01*
X180649351Y-60363520D01*
X180646171Y-60359522D01*
X180640732Y-60354074D01*
X180636739Y-60350886D01*
X180627895Y-60339788D01*
X180615115Y-60333624D01*
X180610830Y-60330203D01*
X180605241Y-60326684D01*
X180600304Y-60324297D01*
X180589222Y-60315435D01*
X180575396Y-60312256D01*
X180570796Y-60310032D01*
X180563522Y-60307478D01*
X180558546Y-60306338D01*
X180545766Y-60300174D01*
X180523345Y-60300155D01*
X180522583Y-60300111D01*
X180522101Y-60300000D01*
X166478081Y-60300000D01*
X166477784Y-60300068D01*
X166476964Y-60300113D01*
X166468771Y-60300106D01*
X166468770Y-60300106D01*
X166454583Y-60300094D01*
X166441795Y-60306234D01*
X166436818Y-60307365D01*
X166429529Y-60309911D01*
X166424932Y-60312123D01*
X166411100Y-60315279D01*
X166400005Y-60324121D01*
X166395067Y-60326497D01*
X166389472Y-60330006D01*
X166385178Y-60333422D01*
X166372384Y-60339565D01*
X166363520Y-60350649D01*
X166359522Y-60353829D01*
X166354074Y-60359268D01*
X166350886Y-60363261D01*
X166339788Y-60372105D01*
X166333624Y-60384885D01*
X166330203Y-60389170D01*
X166326684Y-60394759D01*
X166324297Y-60399696D01*
X166315435Y-60410778D01*
X166312256Y-60424604D01*
X166310032Y-60429204D01*
X166307478Y-60436478D01*
X166306338Y-60441454D01*
X166300174Y-60454234D01*
X166300162Y-60468771D01*
X166300155Y-60476646D01*
X166300111Y-60477417D01*
X166300000Y-60477899D01*
X162699958Y-60477899D01*
X162699932Y-60477784D01*
X162699887Y-60476964D01*
X162699894Y-60468771D01*
X162699894Y-60468770D01*
X162699906Y-60454583D01*
X162693766Y-60441795D01*
X162692635Y-60436818D01*
X162690089Y-60429529D01*
X162687877Y-60424932D01*
X162684721Y-60411100D01*
X162675879Y-60400005D01*
X162673503Y-60395067D01*
X162669994Y-60389472D01*
X162666578Y-60385178D01*
X162660435Y-60372384D01*
X162649351Y-60363520D01*
X162646171Y-60359522D01*
X162640732Y-60354074D01*
X162636739Y-60350886D01*
X162627895Y-60339788D01*
X162615115Y-60333624D01*
X162610830Y-60330203D01*
X162605241Y-60326684D01*
X162600304Y-60324297D01*
X162589222Y-60315435D01*
X162575396Y-60312256D01*
X162570796Y-60310032D01*
X162563522Y-60307478D01*
X162558546Y-60306338D01*
X162545766Y-60300174D01*
X162523345Y-60300155D01*
X162522583Y-60300111D01*
X162522101Y-60300000D01*
X148478081Y-60300000D01*
X148477784Y-60300068D01*
X148476964Y-60300113D01*
X148468771Y-60300106D01*
X148468770Y-60300106D01*
X148454583Y-60300094D01*
X148441795Y-60306234D01*
X148436818Y-60307365D01*
X148429529Y-60309911D01*
X148424932Y-60312123D01*
X148411100Y-60315279D01*
X148400005Y-60324121D01*
X148395067Y-60326497D01*
X148389472Y-60330006D01*
X148385178Y-60333422D01*
X148372384Y-60339565D01*
X148363520Y-60350649D01*
X148359522Y-60353829D01*
X148354074Y-60359268D01*
X148350886Y-60363261D01*
X148339788Y-60372105D01*
X148333624Y-60384885D01*
X148330203Y-60389170D01*
X148326684Y-60394759D01*
X148324297Y-60399696D01*
X148315435Y-60410778D01*
X148312256Y-60424604D01*
X148310032Y-60429204D01*
X148307478Y-60436478D01*
X148306338Y-60441454D01*
X148300174Y-60454234D01*
X148300162Y-60468771D01*
X148300155Y-60476646D01*
X148300111Y-60477417D01*
X148300000Y-60477899D01*
X144699958Y-60477899D01*
X144699932Y-60477784D01*
X144699887Y-60476964D01*
X144699894Y-60468771D01*
X144699894Y-60468770D01*
X144699906Y-60454583D01*
X144693766Y-60441795D01*
X144692635Y-60436818D01*
X144690089Y-60429529D01*
X144687877Y-60424932D01*
X144684721Y-60411100D01*
X144675879Y-60400005D01*
X144673503Y-60395067D01*
X144669994Y-60389472D01*
X144666578Y-60385178D01*
X144660435Y-60372384D01*
X144649351Y-60363520D01*
X144646171Y-60359522D01*
X144640732Y-60354074D01*
X144636739Y-60350886D01*
X144627895Y-60339788D01*
X144615115Y-60333624D01*
X144610830Y-60330203D01*
X144605241Y-60326684D01*
X144600304Y-60324297D01*
X144589222Y-60315435D01*
X144575396Y-60312256D01*
X144570796Y-60310032D01*
X144563522Y-60307478D01*
X144558546Y-60306338D01*
X144545766Y-60300174D01*
X144523345Y-60300155D01*
X144522583Y-60300111D01*
X144522101Y-60300000D01*
X130478081Y-60300000D01*
X130477784Y-60300068D01*
X130476964Y-60300113D01*
X130468771Y-60300106D01*
X130468770Y-60300106D01*
X130454583Y-60300094D01*
X130441795Y-60306234D01*
X130436818Y-60307365D01*
X130429529Y-60309911D01*
X130424932Y-60312123D01*
X130411100Y-60315279D01*
X130400005Y-60324121D01*
X130395067Y-60326497D01*
X130389472Y-60330006D01*
X130385178Y-60333422D01*
X130372384Y-60339565D01*
X130363520Y-60350649D01*
X130359522Y-60353829D01*
X130354074Y-60359268D01*
X130350886Y-60363261D01*
X130339788Y-60372105D01*
X130333624Y-60384885D01*
X130330203Y-60389170D01*
X130326684Y-60394759D01*
X130324297Y-60399696D01*
X130315435Y-60410778D01*
X130312256Y-60424604D01*
X130310032Y-60429204D01*
X130307478Y-60436478D01*
X130306338Y-60441454D01*
X130300174Y-60454234D01*
X130300162Y-60468771D01*
X130300155Y-60476646D01*
X130300111Y-60477417D01*
X130300000Y-60477899D01*
X126699958Y-60477899D01*
X126699932Y-60477784D01*
X126699887Y-60476964D01*
X126699894Y-60468771D01*
X126699894Y-60468770D01*
X126699906Y-60454583D01*
X126693766Y-60441795D01*
X126692635Y-60436818D01*
X126690089Y-60429529D01*
X126687877Y-60424932D01*
X126684721Y-60411100D01*
X126675879Y-60400005D01*
X126673503Y-60395067D01*
X126669994Y-60389472D01*
X126666578Y-60385178D01*
X126660435Y-60372384D01*
X126649351Y-60363520D01*
X126646171Y-60359522D01*
X126640732Y-60354074D01*
X126636739Y-60350886D01*
X126627895Y-60339788D01*
X126615115Y-60333624D01*
X126610830Y-60330203D01*
X126605241Y-60326684D01*
X126600304Y-60324297D01*
X126589222Y-60315435D01*
X126575396Y-60312256D01*
X126570796Y-60310032D01*
X126563522Y-60307478D01*
X126558546Y-60306338D01*
X126545766Y-60300174D01*
X126523345Y-60300155D01*
X126522583Y-60300111D01*
X126522101Y-60300000D01*
X112478081Y-60300000D01*
X112477784Y-60300068D01*
X112476964Y-60300113D01*
X112468771Y-60300106D01*
X112468770Y-60300106D01*
X112454583Y-60300094D01*
X112441795Y-60306234D01*
X112436818Y-60307365D01*
X112429529Y-60309911D01*
X112424932Y-60312123D01*
X112411100Y-60315279D01*
X112400005Y-60324121D01*
X112395067Y-60326497D01*
X112389472Y-60330006D01*
X112385178Y-60333422D01*
X112372384Y-60339565D01*
X112363520Y-60350649D01*
X112359522Y-60353829D01*
X112354074Y-60359268D01*
X112350886Y-60363261D01*
X112339788Y-60372105D01*
X112333624Y-60384885D01*
X112330203Y-60389170D01*
X112326684Y-60394759D01*
X112324297Y-60399696D01*
X112315435Y-60410778D01*
X112312256Y-60424604D01*
X112310032Y-60429204D01*
X112307478Y-60436478D01*
X112306338Y-60441454D01*
X112300174Y-60454234D01*
X112300162Y-60468771D01*
X112300155Y-60476646D01*
X112300111Y-60477417D01*
X112300000Y-60477899D01*
X108699958Y-60477899D01*
X108699932Y-60477784D01*
X108699887Y-60476964D01*
X108699894Y-60468771D01*
X108699894Y-60468770D01*
X108699906Y-60454583D01*
X108693766Y-60441795D01*
X108692635Y-60436818D01*
X108690089Y-60429529D01*
X108687877Y-60424932D01*
X108684721Y-60411100D01*
X108675879Y-60400005D01*
X108673503Y-60395067D01*
X108669994Y-60389472D01*
X108666578Y-60385178D01*
X108660435Y-60372384D01*
X108649351Y-60363520D01*
X108646171Y-60359522D01*
X108640732Y-60354074D01*
X108636739Y-60350886D01*
X108627895Y-60339788D01*
X108615115Y-60333624D01*
X108610830Y-60330203D01*
X108605241Y-60326684D01*
X108600304Y-60324297D01*
X108589222Y-60315435D01*
X108575396Y-60312256D01*
X108570796Y-60310032D01*
X108563522Y-60307478D01*
X108558546Y-60306338D01*
X108545766Y-60300174D01*
X108523345Y-60300155D01*
X108522583Y-60300111D01*
X108522101Y-60300000D01*
X94478081Y-60300000D01*
X94477784Y-60300068D01*
X94476964Y-60300113D01*
X94468771Y-60300106D01*
X94468770Y-60300106D01*
X94454583Y-60300094D01*
X94441795Y-60306234D01*
X94436818Y-60307365D01*
X94429529Y-60309911D01*
X94424932Y-60312123D01*
X94411100Y-60315279D01*
X94400005Y-60324121D01*
X94395067Y-60326497D01*
X94389472Y-60330006D01*
X94385178Y-60333422D01*
X94372384Y-60339565D01*
X94363520Y-60350649D01*
X94359522Y-60353829D01*
X94354074Y-60359268D01*
X94350886Y-60363261D01*
X94339788Y-60372105D01*
X94333624Y-60384885D01*
X94330203Y-60389170D01*
X94326684Y-60394759D01*
X94324297Y-60399696D01*
X94315435Y-60410778D01*
X94312256Y-60424604D01*
X94310032Y-60429204D01*
X94307478Y-60436478D01*
X94306338Y-60441454D01*
X94300174Y-60454234D01*
X94300162Y-60468771D01*
X94300155Y-60476646D01*
X94300111Y-60477417D01*
X94300000Y-60477899D01*
X90699958Y-60477899D01*
X90699932Y-60477784D01*
X90699887Y-60476964D01*
X90699894Y-60468771D01*
X90699894Y-60468770D01*
X90699906Y-60454583D01*
X90693766Y-60441795D01*
X90692635Y-60436818D01*
X90690089Y-60429529D01*
X90687877Y-60424932D01*
X90684721Y-60411100D01*
X90675879Y-60400005D01*
X90673503Y-60395067D01*
X90669994Y-60389472D01*
X90666578Y-60385178D01*
X90660435Y-60372384D01*
X90649351Y-60363520D01*
X90646171Y-60359522D01*
X90640732Y-60354074D01*
X90636739Y-60350886D01*
X90627895Y-60339788D01*
X90615115Y-60333624D01*
X90610830Y-60330203D01*
X90605241Y-60326684D01*
X90600304Y-60324297D01*
X90589222Y-60315435D01*
X90575396Y-60312256D01*
X90570796Y-60310032D01*
X90563522Y-60307478D01*
X90558546Y-60306338D01*
X90545766Y-60300174D01*
X90523345Y-60300155D01*
X90522583Y-60300111D01*
X90522101Y-60300000D01*
X76478081Y-60300000D01*
X76477784Y-60300068D01*
X76476964Y-60300113D01*
X76468771Y-60300106D01*
X76468770Y-60300106D01*
X76454583Y-60300094D01*
X76441795Y-60306234D01*
X76436818Y-60307365D01*
X76429529Y-60309911D01*
X76424932Y-60312123D01*
X76411100Y-60315279D01*
X76400005Y-60324121D01*
X76395067Y-60326497D01*
X76389472Y-60330006D01*
X76385178Y-60333422D01*
X76372384Y-60339565D01*
X76363520Y-60350649D01*
X76359522Y-60353829D01*
X76354074Y-60359268D01*
X76350886Y-60363261D01*
X76339788Y-60372105D01*
X76333624Y-60384885D01*
X76330203Y-60389170D01*
X76326684Y-60394759D01*
X76324297Y-60399696D01*
X76315435Y-60410778D01*
X76312256Y-60424604D01*
X76310032Y-60429204D01*
X76307478Y-60436478D01*
X76306338Y-60441454D01*
X76300174Y-60454234D01*
X76300162Y-60468771D01*
X76300155Y-60476646D01*
X76300111Y-60477417D01*
X76300000Y-60477899D01*
X72699958Y-60477899D01*
X72699932Y-60477784D01*
X72699887Y-60476964D01*
X72699894Y-60468771D01*
X72699894Y-60468770D01*
X72699906Y-60454583D01*
X72693766Y-60441795D01*
X72692635Y-60436818D01*
X72690089Y-60429529D01*
X72687877Y-60424932D01*
X72684721Y-60411100D01*
X72675879Y-60400005D01*
X72673503Y-60395067D01*
X72669994Y-60389472D01*
X72666578Y-60385178D01*
X72660435Y-60372384D01*
X72649351Y-60363520D01*
X72646171Y-60359522D01*
X72640732Y-60354074D01*
X72636739Y-60350886D01*
X72627895Y-60339788D01*
X72615115Y-60333624D01*
X72610830Y-60330203D01*
X72605241Y-60326684D01*
X72600304Y-60324297D01*
X72589222Y-60315435D01*
X72575396Y-60312256D01*
X72570796Y-60310032D01*
X72563522Y-60307478D01*
X72558546Y-60306338D01*
X72545766Y-60300174D01*
X72523345Y-60300155D01*
X72522583Y-60300111D01*
X72522101Y-60300000D01*
X58478081Y-60300000D01*
X58477784Y-60300068D01*
X58476964Y-60300113D01*
X58468771Y-60300106D01*
X58468770Y-60300106D01*
X58454583Y-60300094D01*
X58441795Y-60306234D01*
X58436818Y-60307365D01*
X58429529Y-60309911D01*
X58424932Y-60312123D01*
X58411100Y-60315279D01*
X58400005Y-60324121D01*
X58395067Y-60326497D01*
X58389472Y-60330006D01*
X58385178Y-60333422D01*
X58372384Y-60339565D01*
X58363520Y-60350649D01*
X58359522Y-60353829D01*
X58354074Y-60359268D01*
X58350886Y-60363261D01*
X58339788Y-60372105D01*
X58333624Y-60384885D01*
X58330203Y-60389170D01*
X58326684Y-60394759D01*
X58324297Y-60399696D01*
X58315435Y-60410778D01*
X58312256Y-60424604D01*
X58310032Y-60429204D01*
X58307478Y-60436478D01*
X58306338Y-60441454D01*
X58300174Y-60454234D01*
X58300162Y-60468771D01*
X58300155Y-60476646D01*
X58300111Y-60477417D01*
X58300000Y-60477899D01*
X47949958Y-60477899D01*
X47949932Y-60477784D01*
X47949887Y-60476964D01*
X47949894Y-60468771D01*
X47949894Y-60468770D01*
X47949906Y-60454583D01*
X47943766Y-60441795D01*
X47942635Y-60436818D01*
X47940089Y-60429529D01*
X47937877Y-60424932D01*
X47934721Y-60411100D01*
X47925879Y-60400005D01*
X47923503Y-60395067D01*
X47919994Y-60389472D01*
X47916578Y-60385178D01*
X47910435Y-60372384D01*
X47899351Y-60363520D01*
X47896171Y-60359522D01*
X47890732Y-60354074D01*
X47886739Y-60350886D01*
X47877895Y-60339788D01*
X47865115Y-60333624D01*
X47860830Y-60330203D01*
X47855241Y-60326684D01*
X47850304Y-60324297D01*
X47839222Y-60315435D01*
X47825396Y-60312256D01*
X47820796Y-60310032D01*
X47813522Y-60307478D01*
X47808546Y-60306338D01*
X47795766Y-60300174D01*
X47773345Y-60300155D01*
X47772583Y-60300111D01*
X47772101Y-60300000D01*
X33728081Y-60300000D01*
X33727784Y-60300068D01*
X33726964Y-60300113D01*
X33718771Y-60300106D01*
X33718770Y-60300106D01*
X33704583Y-60300094D01*
X33691795Y-60306234D01*
X33686818Y-60307365D01*
X33679529Y-60309911D01*
X33674932Y-60312123D01*
X33661100Y-60315279D01*
X33650005Y-60324121D01*
X33645067Y-60326497D01*
X33639472Y-60330006D01*
X33635178Y-60333422D01*
X33622384Y-60339565D01*
X33613520Y-60350649D01*
X33609522Y-60353829D01*
X33604074Y-60359268D01*
X33600886Y-60363261D01*
X33589788Y-60372105D01*
X33583624Y-60384885D01*
X33580203Y-60389170D01*
X33576684Y-60394759D01*
X33574297Y-60399696D01*
X33565435Y-60410778D01*
X33562256Y-60424604D01*
X33560032Y-60429204D01*
X33557478Y-60436478D01*
X33556338Y-60441454D01*
X33550174Y-60454234D01*
X33550162Y-60468771D01*
X33550155Y-60476646D01*
X33550111Y-60477417D01*
X33550000Y-60477899D01*
X20200000Y-60477899D01*
X20200000Y-43477899D01*
X29050000Y-43477899D01*
X29050000Y-57521919D01*
X29050068Y-57522216D01*
X29050113Y-57523036D01*
X29050094Y-57545417D01*
X29056234Y-57558205D01*
X29057365Y-57563182D01*
X29059911Y-57570471D01*
X29062123Y-57575068D01*
X29065279Y-57588900D01*
X29074121Y-57599995D01*
X29076497Y-57604933D01*
X29080006Y-57610528D01*
X29083422Y-57614822D01*
X29089565Y-57627616D01*
X29100649Y-57636480D01*
X29103829Y-57640478D01*
X29109268Y-57645926D01*
X29113261Y-57649114D01*
X29122105Y-57660212D01*
X29134885Y-57666376D01*
X29139170Y-57669797D01*
X29144759Y-57673316D01*
X29149696Y-57675703D01*
X29160778Y-57684565D01*
X29174604Y-57687744D01*
X29179204Y-57689968D01*
X29186478Y-57692522D01*
X29191454Y-57693662D01*
X29204234Y-57699826D01*
X29226655Y-57699845D01*
X29227417Y-57699889D01*
X29227899Y-57700000D01*
X43271919Y-57700000D01*
X43272216Y-57699932D01*
X43273036Y-57699887D01*
X43281229Y-57699894D01*
X43281230Y-57699894D01*
X43295417Y-57699906D01*
X43308205Y-57693766D01*
X43313182Y-57692635D01*
X43320471Y-57690089D01*
X43325068Y-57687877D01*
X43338900Y-57684721D01*
X43349995Y-57675879D01*
X43354933Y-57673503D01*
X43360528Y-57669994D01*
X43364822Y-57666578D01*
X43377616Y-57660435D01*
X43386480Y-57649351D01*
X43390478Y-57646171D01*
X43395926Y-57640732D01*
X43399114Y-57636739D01*
X43410212Y-57627895D01*
X43416376Y-57615115D01*
X43419797Y-57610830D01*
X43423316Y-57605241D01*
X43425703Y-57600304D01*
X43434565Y-57589222D01*
X43437744Y-57575396D01*
X43439968Y-57570796D01*
X43442522Y-57563522D01*
X43443662Y-57558546D01*
X43449826Y-57545766D01*
X43449845Y-57523345D01*
X43449889Y-57522583D01*
X43450000Y-57522101D01*
X43450000Y-43478081D01*
X43449958Y-43477899D01*
X49300000Y-43477899D01*
X49300000Y-57521919D01*
X49300068Y-57522216D01*
X49300113Y-57523036D01*
X49300094Y-57545417D01*
X49306234Y-57558205D01*
X49307365Y-57563182D01*
X49309911Y-57570471D01*
X49312123Y-57575068D01*
X49315279Y-57588900D01*
X49324121Y-57599995D01*
X49326497Y-57604933D01*
X49330006Y-57610528D01*
X49333422Y-57614822D01*
X49339565Y-57627616D01*
X49350649Y-57636480D01*
X49353829Y-57640478D01*
X49359268Y-57645926D01*
X49363261Y-57649114D01*
X49372105Y-57660212D01*
X49384885Y-57666376D01*
X49389170Y-57669797D01*
X49394759Y-57673316D01*
X49399696Y-57675703D01*
X49410778Y-57684565D01*
X49424604Y-57687744D01*
X49429204Y-57689968D01*
X49436478Y-57692522D01*
X49441454Y-57693662D01*
X49454234Y-57699826D01*
X49476655Y-57699845D01*
X49477417Y-57699889D01*
X49477899Y-57700000D01*
X63521919Y-57700000D01*
X63522216Y-57699932D01*
X63523036Y-57699887D01*
X63531229Y-57699894D01*
X63531230Y-57699894D01*
X63545417Y-57699906D01*
X63558205Y-57693766D01*
X63563182Y-57692635D01*
X63570471Y-57690089D01*
X63575068Y-57687877D01*
X63588900Y-57684721D01*
X63599995Y-57675879D01*
X63604933Y-57673503D01*
X63610528Y-57669994D01*
X63614822Y-57666578D01*
X63627616Y-57660435D01*
X63636480Y-57649351D01*
X63640478Y-57646171D01*
X63645926Y-57640732D01*
X63649114Y-57636739D01*
X63660212Y-57627895D01*
X63666376Y-57615115D01*
X63669797Y-57610830D01*
X63673316Y-57605241D01*
X63675703Y-57600304D01*
X63684565Y-57589222D01*
X63687744Y-57575396D01*
X63689968Y-57570796D01*
X63692522Y-57563522D01*
X63693662Y-57558546D01*
X63699826Y-57545766D01*
X63699845Y-57523345D01*
X63699889Y-57522583D01*
X63700000Y-57522101D01*
X63700000Y-43478081D01*
X63699958Y-43477899D01*
X67300000Y-43477899D01*
X67300000Y-57521919D01*
X67300068Y-57522216D01*
X67300113Y-57523036D01*
X67300094Y-57545417D01*
X67306234Y-57558205D01*
X67307365Y-57563182D01*
X67309911Y-57570471D01*
X67312123Y-57575068D01*
X67315279Y-57588900D01*
X67324121Y-57599995D01*
X67326497Y-57604933D01*
X67330006Y-57610528D01*
X67333422Y-57614822D01*
X67339565Y-57627616D01*
X67350649Y-57636480D01*
X67353829Y-57640478D01*
X67359268Y-57645926D01*
X67363261Y-57649114D01*
X67372105Y-57660212D01*
X67384885Y-57666376D01*
X67389170Y-57669797D01*
X67394759Y-57673316D01*
X67399696Y-57675703D01*
X67410778Y-57684565D01*
X67424604Y-57687744D01*
X67429204Y-57689968D01*
X67436478Y-57692522D01*
X67441454Y-57693662D01*
X67454234Y-57699826D01*
X67476655Y-57699845D01*
X67477417Y-57699889D01*
X67477899Y-57700000D01*
X81521919Y-57700000D01*
X81522216Y-57699932D01*
X81523036Y-57699887D01*
X81531229Y-57699894D01*
X81531230Y-57699894D01*
X81545417Y-57699906D01*
X81558205Y-57693766D01*
X81563182Y-57692635D01*
X81570471Y-57690089D01*
X81575068Y-57687877D01*
X81588900Y-57684721D01*
X81599995Y-57675879D01*
X81604933Y-57673503D01*
X81610528Y-57669994D01*
X81614822Y-57666578D01*
X81627616Y-57660435D01*
X81636480Y-57649351D01*
X81640478Y-57646171D01*
X81645926Y-57640732D01*
X81649114Y-57636739D01*
X81660212Y-57627895D01*
X81666376Y-57615115D01*
X81669797Y-57610830D01*
X81673316Y-57605241D01*
X81675703Y-57600304D01*
X81684565Y-57589222D01*
X81687744Y-57575396D01*
X81689968Y-57570796D01*
X81692522Y-57563522D01*
X81693662Y-57558546D01*
X81699826Y-57545766D01*
X81699845Y-57523345D01*
X81699889Y-57522583D01*
X81700000Y-57522101D01*
X81700000Y-43478081D01*
X81699958Y-43477899D01*
X85300000Y-43477899D01*
X85300000Y-57521919D01*
X85300068Y-57522216D01*
X85300113Y-57523036D01*
X85300094Y-57545417D01*
X85306234Y-57558205D01*
X85307365Y-57563182D01*
X85309911Y-57570471D01*
X85312123Y-57575068D01*
X85315279Y-57588900D01*
X85324121Y-57599995D01*
X85326497Y-57604933D01*
X85330006Y-57610528D01*
X85333422Y-57614822D01*
X85339565Y-57627616D01*
X85350649Y-57636480D01*
X85353829Y-57640478D01*
X85359268Y-57645926D01*
X85363261Y-57649114D01*
X85372105Y-57660212D01*
X85384885Y-57666376D01*
X85389170Y-57669797D01*
X85394759Y-57673316D01*
X85399696Y-57675703D01*
X85410778Y-57684565D01*
X85424604Y-57687744D01*
X85429204Y-57689968D01*
X85436478Y-57692522D01*
X85441454Y-57693662D01*
X85454234Y-57699826D01*
X85476655Y-57699845D01*
X85477417Y-57699889D01*
X85477899Y-57700000D01*
X99521919Y-57700000D01*
X99522216Y-57699932D01*
X99523036Y-57699887D01*
X99531229Y-57699894D01*
X99531230Y-57699894D01*
X99545417Y-57699906D01*
X99558205Y-57693766D01*
X99563182Y-57692635D01*
X99570471Y-57690089D01*
X99575068Y-57687877D01*
X99588900Y-57684721D01*
X99599995Y-57675879D01*
X99604933Y-57673503D01*
X99610528Y-57669994D01*
X99614822Y-57666578D01*
X99627616Y-57660435D01*
X99636480Y-57649351D01*
X99640478Y-57646171D01*
X99645926Y-57640732D01*
X99649114Y-57636739D01*
X99660212Y-57627895D01*
X99666376Y-57615115D01*
X99669797Y-57610830D01*
X99673316Y-57605241D01*
X99675703Y-57600304D01*
X99684565Y-57589222D01*
X99687744Y-57575396D01*
X99689968Y-57570796D01*
X99692522Y-57563522D01*
X99693662Y-57558546D01*
X99699826Y-57545766D01*
X99699845Y-57523345D01*
X99699889Y-57522583D01*
X99700000Y-57522101D01*
X99700000Y-43478081D01*
X99699958Y-43477899D01*
X103300000Y-43477899D01*
X103300000Y-57521919D01*
X103300068Y-57522216D01*
X103300113Y-57523036D01*
X103300094Y-57545417D01*
X103306234Y-57558205D01*
X103307365Y-57563182D01*
X103309911Y-57570471D01*
X103312123Y-57575068D01*
X103315279Y-57588900D01*
X103324121Y-57599995D01*
X103326497Y-57604933D01*
X103330006Y-57610528D01*
X103333422Y-57614822D01*
X103339565Y-57627616D01*
X103350649Y-57636480D01*
X103353829Y-57640478D01*
X103359268Y-57645926D01*
X103363261Y-57649114D01*
X103372105Y-57660212D01*
X103384885Y-57666376D01*
X103389170Y-57669797D01*
X103394759Y-57673316D01*
X103399696Y-57675703D01*
X103410778Y-57684565D01*
X103424604Y-57687744D01*
X103429204Y-57689968D01*
X103436478Y-57692522D01*
X103441454Y-57693662D01*
X103454234Y-57699826D01*
X103476655Y-57699845D01*
X103477417Y-57699889D01*
X103477899Y-57700000D01*
X117521919Y-57700000D01*
X117522216Y-57699932D01*
X117523036Y-57699887D01*
X117531229Y-57699894D01*
X117531230Y-57699894D01*
X117545417Y-57699906D01*
X117558205Y-57693766D01*
X117563182Y-57692635D01*
X117570471Y-57690089D01*
X117575068Y-57687877D01*
X117588900Y-57684721D01*
X117599995Y-57675879D01*
X117604933Y-57673503D01*
X117610528Y-57669994D01*
X117614822Y-57666578D01*
X117627616Y-57660435D01*
X117636480Y-57649351D01*
X117640478Y-57646171D01*
X117645926Y-57640732D01*
X117649114Y-57636739D01*
X117660212Y-57627895D01*
X117666376Y-57615115D01*
X117669797Y-57610830D01*
X117673316Y-57605241D01*
X117675703Y-57600304D01*
X117684565Y-57589222D01*
X117687744Y-57575396D01*
X117689968Y-57570796D01*
X117692522Y-57563522D01*
X117693662Y-57558546D01*
X117699826Y-57545766D01*
X117699845Y-57523345D01*
X117699889Y-57522583D01*
X117700000Y-57522101D01*
X117700000Y-43478081D01*
X117699958Y-43477899D01*
X121300000Y-43477899D01*
X121300000Y-57521919D01*
X121300068Y-57522216D01*
X121300113Y-57523036D01*
X121300094Y-57545417D01*
X121306234Y-57558205D01*
X121307365Y-57563182D01*
X121309911Y-57570471D01*
X121312123Y-57575068D01*
X121315279Y-57588900D01*
X121324121Y-57599995D01*
X121326497Y-57604933D01*
X121330006Y-57610528D01*
X121333422Y-57614822D01*
X121339565Y-57627616D01*
X121350649Y-57636480D01*
X121353829Y-57640478D01*
X121359268Y-57645926D01*
X121363261Y-57649114D01*
X121372105Y-57660212D01*
X121384885Y-57666376D01*
X121389170Y-57669797D01*
X121394759Y-57673316D01*
X121399696Y-57675703D01*
X121410778Y-57684565D01*
X121424604Y-57687744D01*
X121429204Y-57689968D01*
X121436478Y-57692522D01*
X121441454Y-57693662D01*
X121454234Y-57699826D01*
X121476655Y-57699845D01*
X121477417Y-57699889D01*
X121477899Y-57700000D01*
X135521919Y-57700000D01*
X135522216Y-57699932D01*
X135523036Y-57699887D01*
X135531229Y-57699894D01*
X135531230Y-57699894D01*
X135545417Y-57699906D01*
X135558205Y-57693766D01*
X135563182Y-57692635D01*
X135570471Y-57690089D01*
X135575068Y-57687877D01*
X135588900Y-57684721D01*
X135599995Y-57675879D01*
X135604933Y-57673503D01*
X135610528Y-57669994D01*
X135614822Y-57666578D01*
X135627616Y-57660435D01*
X135636480Y-57649351D01*
X135640478Y-57646171D01*
X135645926Y-57640732D01*
X135649114Y-57636739D01*
X135660212Y-57627895D01*
X135666376Y-57615115D01*
X135669797Y-57610830D01*
X135673316Y-57605241D01*
X135675703Y-57600304D01*
X135684565Y-57589222D01*
X135687744Y-57575396D01*
X135689968Y-57570796D01*
X135692522Y-57563522D01*
X135693662Y-57558546D01*
X135699826Y-57545766D01*
X135699845Y-57523345D01*
X135699889Y-57522583D01*
X135700000Y-57522101D01*
X135700000Y-43478081D01*
X135699958Y-43477899D01*
X139300000Y-43477899D01*
X139300000Y-57521919D01*
X139300068Y-57522216D01*
X139300113Y-57523036D01*
X139300094Y-57545417D01*
X139306234Y-57558205D01*
X139307365Y-57563182D01*
X139309911Y-57570471D01*
X139312123Y-57575068D01*
X139315279Y-57588900D01*
X139324121Y-57599995D01*
X139326497Y-57604933D01*
X139330006Y-57610528D01*
X139333422Y-57614822D01*
X139339565Y-57627616D01*
X139350649Y-57636480D01*
X139353829Y-57640478D01*
X139359268Y-57645926D01*
X139363261Y-57649114D01*
X139372105Y-57660212D01*
X139384885Y-57666376D01*
X139389170Y-57669797D01*
X139394759Y-57673316D01*
X139399696Y-57675703D01*
X139410778Y-57684565D01*
X139424604Y-57687744D01*
X139429204Y-57689968D01*
X139436478Y-57692522D01*
X139441454Y-57693662D01*
X139454234Y-57699826D01*
X139476655Y-57699845D01*
X139477417Y-57699889D01*
X139477899Y-57700000D01*
X153521919Y-57700000D01*
X153522216Y-57699932D01*
X153523036Y-57699887D01*
X153531229Y-57699894D01*
X153531230Y-57699894D01*
X153545417Y-57699906D01*
X153558205Y-57693766D01*
X153563182Y-57692635D01*
X153570471Y-57690089D01*
X153575068Y-57687877D01*
X153588900Y-57684721D01*
X153599995Y-57675879D01*
X153604933Y-57673503D01*
X153610528Y-57669994D01*
X153614822Y-57666578D01*
X153627616Y-57660435D01*
X153636480Y-57649351D01*
X153640478Y-57646171D01*
X153645926Y-57640732D01*
X153649114Y-57636739D01*
X153660212Y-57627895D01*
X153666376Y-57615115D01*
X153669797Y-57610830D01*
X153673316Y-57605241D01*
X153675703Y-57600304D01*
X153684565Y-57589222D01*
X153687744Y-57575396D01*
X153689968Y-57570796D01*
X153692522Y-57563522D01*
X153693662Y-57558546D01*
X153699826Y-57545766D01*
X153699845Y-57523345D01*
X153699889Y-57522583D01*
X153700000Y-57522101D01*
X153700000Y-43478081D01*
X153699958Y-43477899D01*
X157300000Y-43477899D01*
X157300000Y-57521919D01*
X157300068Y-57522216D01*
X157300113Y-57523036D01*
X157300094Y-57545417D01*
X157306234Y-57558205D01*
X157307365Y-57563182D01*
X157309911Y-57570471D01*
X157312123Y-57575068D01*
X157315279Y-57588900D01*
X157324121Y-57599995D01*
X157326497Y-57604933D01*
X157330006Y-57610528D01*
X157333422Y-57614822D01*
X157339565Y-57627616D01*
X157350649Y-57636480D01*
X157353829Y-57640478D01*
X157359268Y-57645926D01*
X157363261Y-57649114D01*
X157372105Y-57660212D01*
X157384885Y-57666376D01*
X157389170Y-57669797D01*
X157394759Y-57673316D01*
X157399696Y-57675703D01*
X157410778Y-57684565D01*
X157424604Y-57687744D01*
X157429204Y-57689968D01*
X157436478Y-57692522D01*
X157441454Y-57693662D01*
X157454234Y-57699826D01*
X157476655Y-57699845D01*
X157477417Y-57699889D01*
X157477899Y-57700000D01*
X171521919Y-57700000D01*
X171522216Y-57699932D01*
X171523036Y-57699887D01*
X171531229Y-57699894D01*
X171531230Y-57699894D01*
X171545417Y-57699906D01*
X171558205Y-57693766D01*
X171563182Y-57692635D01*
X171570471Y-57690089D01*
X171575068Y-57687877D01*
X171588900Y-57684721D01*
X171599995Y-57675879D01*
X171604933Y-57673503D01*
X171610528Y-57669994D01*
X171614822Y-57666578D01*
X171627616Y-57660435D01*
X171636480Y-57649351D01*
X171640478Y-57646171D01*
X171645926Y-57640732D01*
X171649114Y-57636739D01*
X171660212Y-57627895D01*
X171666376Y-57615115D01*
X171669797Y-57610830D01*
X171673316Y-57605241D01*
X171675703Y-57600304D01*
X171684565Y-57589222D01*
X171687744Y-57575396D01*
X171689968Y-57570796D01*
X171692522Y-57563522D01*
X171693662Y-57558546D01*
X171699826Y-57545766D01*
X171699845Y-57523345D01*
X171699889Y-57522583D01*
X171700000Y-57522101D01*
X171700000Y-43478081D01*
X171699958Y-43477899D01*
X175300000Y-43477899D01*
X175300000Y-57521919D01*
X175300068Y-57522216D01*
X175300113Y-57523036D01*
X175300094Y-57545417D01*
X175306234Y-57558205D01*
X175307365Y-57563182D01*
X175309911Y-57570471D01*
X175312123Y-57575068D01*
X175315279Y-57588900D01*
X175324121Y-57599995D01*
X175326497Y-57604933D01*
X175330006Y-57610528D01*
X175333422Y-57614822D01*
X175339565Y-57627616D01*
X175350649Y-57636480D01*
X175353829Y-57640478D01*
X175359268Y-57645926D01*
X175363261Y-57649114D01*
X175372105Y-57660212D01*
X175384885Y-57666376D01*
X175389170Y-57669797D01*
X175394759Y-57673316D01*
X175399696Y-57675703D01*
X175410778Y-57684565D01*
X175424604Y-57687744D01*
X175429204Y-57689968D01*
X175436478Y-57692522D01*
X175441454Y-57693662D01*
X175454234Y-57699826D01*
X175476655Y-57699845D01*
X175477417Y-57699889D01*
X175477899Y-57700000D01*
X189521919Y-57700000D01*
X189522216Y-57699932D01*
X189523036Y-57699887D01*
X189531229Y-57699894D01*
X189531230Y-57699894D01*
X189545417Y-57699906D01*
X189558205Y-57693766D01*
X189563182Y-57692635D01*
X189570471Y-57690089D01*
X189575068Y-57687877D01*
X189588900Y-57684721D01*
X189599995Y-57675879D01*
X189604933Y-57673503D01*
X189610528Y-57669994D01*
X189614822Y-57666578D01*
X189627616Y-57660435D01*
X189636480Y-57649351D01*
X189640478Y-57646171D01*
X189645926Y-57640732D01*
X189649114Y-57636739D01*
X189660212Y-57627895D01*
X189666376Y-57615115D01*
X189669797Y-57610830D01*
X189673316Y-57605241D01*
X189675703Y-57600304D01*
X189684565Y-57589222D01*
X189687744Y-57575396D01*
X189689968Y-57570796D01*
X189692522Y-57563522D01*
X189693662Y-57558546D01*
X189699826Y-57545766D01*
X189699845Y-57523345D01*
X189699889Y-57522583D01*
X189700000Y-57522101D01*
X189700000Y-43478081D01*
X189699958Y-43477899D01*
X193300000Y-43477899D01*
X193300000Y-57521919D01*
X193300068Y-57522216D01*
X193300113Y-57523036D01*
X193300094Y-57545417D01*
X193306234Y-57558205D01*
X193307365Y-57563182D01*
X193309911Y-57570471D01*
X193312123Y-57575068D01*
X193315279Y-57588900D01*
X193324121Y-57599995D01*
X193326497Y-57604933D01*
X193330006Y-57610528D01*
X193333422Y-57614822D01*
X193339565Y-57627616D01*
X193350649Y-57636480D01*
X193353829Y-57640478D01*
X193359268Y-57645926D01*
X193363261Y-57649114D01*
X193372105Y-57660212D01*
X193384885Y-57666376D01*
X193389170Y-57669797D01*
X193394759Y-57673316D01*
X193399696Y-57675703D01*
X193410778Y-57684565D01*
X193424604Y-57687744D01*
X193429204Y-57689968D01*
X193436478Y-57692522D01*
X193441454Y-57693662D01*
X193454234Y-57699826D01*
X193476655Y-57699845D01*
X193477417Y-57699889D01*
X193477899Y-57700000D01*
X207521919Y-57700000D01*
X207522216Y-57699932D01*
X207523036Y-57699887D01*
X207531229Y-57699894D01*
X207531230Y-57699894D01*
X207545417Y-57699906D01*
X207558205Y-57693766D01*
X207563182Y-57692635D01*
X207570471Y-57690089D01*
X207575068Y-57687877D01*
X207588900Y-57684721D01*
X207599995Y-57675879D01*
X207604933Y-57673503D01*
X207610528Y-57669994D01*
X207614822Y-57666578D01*
X207627616Y-57660435D01*
X207636480Y-57649351D01*
X207640478Y-57646171D01*
X207645926Y-57640732D01*
X207649114Y-57636739D01*
X207660212Y-57627895D01*
X207666376Y-57615115D01*
X207669797Y-57610830D01*
X207673316Y-57605241D01*
X207675703Y-57600304D01*
X207684565Y-57589222D01*
X207687744Y-57575396D01*
X207689968Y-57570796D01*
X207692522Y-57563522D01*
X207693662Y-57558546D01*
X207699826Y-57545766D01*
X207699845Y-57523345D01*
X207699889Y-57522583D01*
X207700000Y-57522101D01*
X207700000Y-43478081D01*
X207699958Y-43477899D01*
X218050000Y-43477899D01*
X218050000Y-57521919D01*
X218050068Y-57522216D01*
X218050113Y-57523036D01*
X218050094Y-57545417D01*
X218056234Y-57558205D01*
X218057365Y-57563182D01*
X218059911Y-57570471D01*
X218062123Y-57575068D01*
X218065279Y-57588900D01*
X218074121Y-57599995D01*
X218076497Y-57604933D01*
X218080006Y-57610528D01*
X218083422Y-57614822D01*
X218089565Y-57627616D01*
X218100649Y-57636480D01*
X218103829Y-57640478D01*
X218109268Y-57645926D01*
X218113261Y-57649114D01*
X218122105Y-57660212D01*
X218134885Y-57666376D01*
X218139170Y-57669797D01*
X218144759Y-57673316D01*
X218149696Y-57675703D01*
X218160778Y-57684565D01*
X218174604Y-57687744D01*
X218179204Y-57689968D01*
X218186478Y-57692522D01*
X218191454Y-57693662D01*
X218204234Y-57699826D01*
X218226655Y-57699845D01*
X218227417Y-57699889D01*
X218227899Y-57700000D01*
X232271919Y-57700000D01*
X232272216Y-57699932D01*
X232273036Y-57699887D01*
X232281229Y-57699894D01*
X232281230Y-57699894D01*
X232295417Y-57699906D01*
X232308205Y-57693766D01*
X232313182Y-57692635D01*
X232320471Y-57690089D01*
X232325068Y-57687877D01*
X232338900Y-57684721D01*
X232349995Y-57675879D01*
X232354933Y-57673503D01*
X232360528Y-57669994D01*
X232364822Y-57666578D01*
X232377616Y-57660435D01*
X232386480Y-57649351D01*
X232390478Y-57646171D01*
X232395926Y-57640732D01*
X232399114Y-57636739D01*
X232410212Y-57627895D01*
X232416376Y-57615115D01*
X232419797Y-57610830D01*
X232423316Y-57605241D01*
X232425703Y-57600304D01*
X232434565Y-57589222D01*
X232437744Y-57575396D01*
X232439968Y-57570796D01*
X232442522Y-57563522D01*
X232443662Y-57558546D01*
X232449826Y-57545766D01*
X232449845Y-57523345D01*
X232449889Y-57522583D01*
X232450000Y-57522101D01*
X232450000Y-43478081D01*
X232449932Y-43477784D01*
X232449887Y-43476964D01*
X232449894Y-43468771D01*
X232449894Y-43468770D01*
X232449906Y-43454583D01*
X232443766Y-43441795D01*
X232442635Y-43436818D01*
X232440089Y-43429529D01*
X232437877Y-43424932D01*
X232434721Y-43411100D01*
X232425879Y-43400005D01*
X232423503Y-43395067D01*
X232419994Y-43389472D01*
X232416578Y-43385178D01*
X232410435Y-43372384D01*
X232399351Y-43363520D01*
X232396171Y-43359522D01*
X232390732Y-43354074D01*
X232386739Y-43350886D01*
X232377895Y-43339788D01*
X232365115Y-43333624D01*
X232360830Y-43330203D01*
X232355241Y-43326684D01*
X232350304Y-43324297D01*
X232339222Y-43315435D01*
X232325396Y-43312256D01*
X232320796Y-43310032D01*
X232313522Y-43307478D01*
X232308546Y-43306338D01*
X232295766Y-43300174D01*
X232273345Y-43300155D01*
X232272583Y-43300111D01*
X232272101Y-43300000D01*
X218228081Y-43300000D01*
X218227784Y-43300068D01*
X218226964Y-43300113D01*
X218218771Y-43300106D01*
X218218770Y-43300106D01*
X218204583Y-43300094D01*
X218191795Y-43306234D01*
X218186818Y-43307365D01*
X218179529Y-43309911D01*
X218174932Y-43312123D01*
X218161100Y-43315279D01*
X218150005Y-43324121D01*
X218145067Y-43326497D01*
X218139472Y-43330006D01*
X218135178Y-43333422D01*
X218122384Y-43339565D01*
X218113520Y-43350649D01*
X218109522Y-43353829D01*
X218104074Y-43359268D01*
X218100886Y-43363261D01*
X218089788Y-43372105D01*
X218083624Y-43384885D01*
X218080203Y-43389170D01*
X218076684Y-43394759D01*
X218074297Y-43399696D01*
X218065435Y-43410778D01*
X218062256Y-43424604D01*
X218060032Y-43429204D01*
X218057478Y-43436478D01*
X218056338Y-43441454D01*
X218050174Y-43454234D01*
X218050162Y-43468771D01*
X218050155Y-43476646D01*
X218050111Y-43477417D01*
X218050000Y-43477899D01*
X207699958Y-43477899D01*
X207699932Y-43477784D01*
X207699887Y-43476964D01*
X207699894Y-43468771D01*
X207699894Y-43468770D01*
X207699906Y-43454583D01*
X207693766Y-43441795D01*
X207692635Y-43436818D01*
X207690089Y-43429529D01*
X207687877Y-43424932D01*
X207684721Y-43411100D01*
X207675879Y-43400005D01*
X207673503Y-43395067D01*
X207669994Y-43389472D01*
X207666578Y-43385178D01*
X207660435Y-43372384D01*
X207649351Y-43363520D01*
X207646171Y-43359522D01*
X207640732Y-43354074D01*
X207636739Y-43350886D01*
X207627895Y-43339788D01*
X207615115Y-43333624D01*
X207610830Y-43330203D01*
X207605241Y-43326684D01*
X207600304Y-43324297D01*
X207589222Y-43315435D01*
X207575396Y-43312256D01*
X207570796Y-43310032D01*
X207563522Y-43307478D01*
X207558546Y-43306338D01*
X207545766Y-43300174D01*
X207523345Y-43300155D01*
X207522583Y-43300111D01*
X207522101Y-43300000D01*
X193478081Y-43300000D01*
X193477784Y-43300068D01*
X193476964Y-43300113D01*
X193468771Y-43300106D01*
X193468770Y-43300106D01*
X193454583Y-43300094D01*
X193441795Y-43306234D01*
X193436818Y-43307365D01*
X193429529Y-43309911D01*
X193424932Y-43312123D01*
X193411100Y-43315279D01*
X193400005Y-43324121D01*
X193395067Y-43326497D01*
X193389472Y-43330006D01*
X193385178Y-43333422D01*
X193372384Y-43339565D01*
X193363520Y-43350649D01*
X193359522Y-43353829D01*
X193354074Y-43359268D01*
X193350886Y-43363261D01*
X193339788Y-43372105D01*
X193333624Y-43384885D01*
X193330203Y-43389170D01*
X193326684Y-43394759D01*
X193324297Y-43399696D01*
X193315435Y-43410778D01*
X193312256Y-43424604D01*
X193310032Y-43429204D01*
X193307478Y-43436478D01*
X193306338Y-43441454D01*
X193300174Y-43454234D01*
X193300162Y-43468771D01*
X193300155Y-43476646D01*
X193300111Y-43477417D01*
X193300000Y-43477899D01*
X189699958Y-43477899D01*
X189699932Y-43477784D01*
X189699887Y-43476964D01*
X189699894Y-43468771D01*
X189699894Y-43468770D01*
X189699906Y-43454583D01*
X189693766Y-43441795D01*
X189692635Y-43436818D01*
X189690089Y-43429529D01*
X189687877Y-43424932D01*
X189684721Y-43411100D01*
X189675879Y-43400005D01*
X189673503Y-43395067D01*
X189669994Y-43389472D01*
X189666578Y-43385178D01*
X189660435Y-43372384D01*
X189649351Y-43363520D01*
X189646171Y-43359522D01*
X189640732Y-43354074D01*
X189636739Y-43350886D01*
X189627895Y-43339788D01*
X189615115Y-43333624D01*
X189610830Y-43330203D01*
X189605241Y-43326684D01*
X189600304Y-43324297D01*
X189589222Y-43315435D01*
X189575396Y-43312256D01*
X189570796Y-43310032D01*
X189563522Y-43307478D01*
X189558546Y-43306338D01*
X189545766Y-43300174D01*
X189523345Y-43300155D01*
X189522583Y-43300111D01*
X189522101Y-43300000D01*
X175478081Y-43300000D01*
X175477784Y-43300068D01*
X175476964Y-43300113D01*
X175468771Y-43300106D01*
X175468770Y-43300106D01*
X175454583Y-43300094D01*
X175441795Y-43306234D01*
X175436818Y-43307365D01*
X175429529Y-43309911D01*
X175424932Y-43312123D01*
X175411100Y-43315279D01*
X175400005Y-43324121D01*
X175395067Y-43326497D01*
X175389472Y-43330006D01*
X175385178Y-43333422D01*
X175372384Y-43339565D01*
X175363520Y-43350649D01*
X175359522Y-43353829D01*
X175354074Y-43359268D01*
X175350886Y-43363261D01*
X175339788Y-43372105D01*
X175333624Y-43384885D01*
X175330203Y-43389170D01*
X175326684Y-43394759D01*
X175324297Y-43399696D01*
X175315435Y-43410778D01*
X175312256Y-43424604D01*
X175310032Y-43429204D01*
X175307478Y-43436478D01*
X175306338Y-43441454D01*
X175300174Y-43454234D01*
X175300162Y-43468771D01*
X175300155Y-43476646D01*
X175300111Y-43477417D01*
X175300000Y-43477899D01*
X171699958Y-43477899D01*
X171699932Y-43477784D01*
X171699887Y-43476964D01*
X171699894Y-43468771D01*
X171699894Y-43468770D01*
X171699906Y-43454583D01*
X171693766Y-43441795D01*
X171692635Y-43436818D01*
X171690089Y-43429529D01*
X171687877Y-43424932D01*
X171684721Y-43411100D01*
X171675879Y-43400005D01*
X171673503Y-43395067D01*
X171669994Y-43389472D01*
X171666578Y-43385178D01*
X171660435Y-43372384D01*
X171649351Y-43363520D01*
X171646171Y-43359522D01*
X171640732Y-43354074D01*
X171636739Y-43350886D01*
X171627895Y-43339788D01*
X171615115Y-43333624D01*
X171610830Y-43330203D01*
X171605241Y-43326684D01*
X171600304Y-43324297D01*
X171589222Y-43315435D01*
X171575396Y-43312256D01*
X171570796Y-43310032D01*
X171563522Y-43307478D01*
X171558546Y-43306338D01*
X171545766Y-43300174D01*
X171523345Y-43300155D01*
X171522583Y-43300111D01*
X171522101Y-43300000D01*
X157478081Y-43300000D01*
X157477784Y-43300068D01*
X157476964Y-43300113D01*
X157468771Y-43300106D01*
X157468770Y-43300106D01*
X157454583Y-43300094D01*
X157441795Y-43306234D01*
X157436818Y-43307365D01*
X157429529Y-43309911D01*
X157424932Y-43312123D01*
X157411100Y-43315279D01*
X157400005Y-43324121D01*
X157395067Y-43326497D01*
X157389472Y-43330006D01*
X157385178Y-43333422D01*
X157372384Y-43339565D01*
X157363520Y-43350649D01*
X157359522Y-43353829D01*
X157354074Y-43359268D01*
X157350886Y-43363261D01*
X157339788Y-43372105D01*
X157333624Y-43384885D01*
X157330203Y-43389170D01*
X157326684Y-43394759D01*
X157324297Y-43399696D01*
X157315435Y-43410778D01*
X157312256Y-43424604D01*
X157310032Y-43429204D01*
X157307478Y-43436478D01*
X157306338Y-43441454D01*
X157300174Y-43454234D01*
X157300162Y-43468771D01*
X157300155Y-43476646D01*
X157300111Y-43477417D01*
X157300000Y-43477899D01*
X153699958Y-43477899D01*
X153699932Y-43477784D01*
X153699887Y-43476964D01*
X153699894Y-43468771D01*
X153699894Y-43468770D01*
X153699906Y-43454583D01*
X153693766Y-43441795D01*
X153692635Y-43436818D01*
X153690089Y-43429529D01*
X153687877Y-43424932D01*
X153684721Y-43411100D01*
X153675879Y-43400005D01*
X153673503Y-43395067D01*
X153669994Y-43389472D01*
X153666578Y-43385178D01*
X153660435Y-43372384D01*
X153649351Y-43363520D01*
X153646171Y-43359522D01*
X153640732Y-43354074D01*
X153636739Y-43350886D01*
X153627895Y-43339788D01*
X153615115Y-43333624D01*
X153610830Y-43330203D01*
X153605241Y-43326684D01*
X153600304Y-43324297D01*
X153589222Y-43315435D01*
X153575396Y-43312256D01*
X153570796Y-43310032D01*
X153563522Y-43307478D01*
X153558546Y-43306338D01*
X153545766Y-43300174D01*
X153523345Y-43300155D01*
X153522583Y-43300111D01*
X153522101Y-43300000D01*
X139478081Y-43300000D01*
X139477784Y-43300068D01*
X139476964Y-43300113D01*
X139468771Y-43300106D01*
X139468770Y-43300106D01*
X139454583Y-43300094D01*
X139441795Y-43306234D01*
X139436818Y-43307365D01*
X139429529Y-43309911D01*
X139424932Y-43312123D01*
X139411100Y-43315279D01*
X139400005Y-43324121D01*
X139395067Y-43326497D01*
X139389472Y-43330006D01*
X139385178Y-43333422D01*
X139372384Y-43339565D01*
X139363520Y-43350649D01*
X139359522Y-43353829D01*
X139354074Y-43359268D01*
X139350886Y-43363261D01*
X139339788Y-43372105D01*
X139333624Y-43384885D01*
X139330203Y-43389170D01*
X139326684Y-43394759D01*
X139324297Y-43399696D01*
X139315435Y-43410778D01*
X139312256Y-43424604D01*
X139310032Y-43429204D01*
X139307478Y-43436478D01*
X139306338Y-43441454D01*
X139300174Y-43454234D01*
X139300162Y-43468771D01*
X139300155Y-43476646D01*
X139300111Y-43477417D01*
X139300000Y-43477899D01*
X135699958Y-43477899D01*
X135699932Y-43477784D01*
X135699887Y-43476964D01*
X135699894Y-43468771D01*
X135699894Y-43468770D01*
X135699906Y-43454583D01*
X135693766Y-43441795D01*
X135692635Y-43436818D01*
X135690089Y-43429529D01*
X135687877Y-43424932D01*
X135684721Y-43411100D01*
X135675879Y-43400005D01*
X135673503Y-43395067D01*
X135669994Y-43389472D01*
X135666578Y-43385178D01*
X135660435Y-43372384D01*
X135649351Y-43363520D01*
X135646171Y-43359522D01*
X135640732Y-43354074D01*
X135636739Y-43350886D01*
X135627895Y-43339788D01*
X135615115Y-43333624D01*
X135610830Y-43330203D01*
X135605241Y-43326684D01*
X135600304Y-43324297D01*
X135589222Y-43315435D01*
X135575396Y-43312256D01*
X135570796Y-43310032D01*
X135563522Y-43307478D01*
X135558546Y-43306338D01*
X135545766Y-43300174D01*
X135523345Y-43300155D01*
X135522583Y-43300111D01*
X135522101Y-43300000D01*
X121478081Y-43300000D01*
X121477784Y-43300068D01*
X121476964Y-43300113D01*
X121468771Y-43300106D01*
X121468770Y-43300106D01*
X121454583Y-43300094D01*
X121441795Y-43306234D01*
X121436818Y-43307365D01*
X121429529Y-43309911D01*
X121424932Y-43312123D01*
X121411100Y-43315279D01*
X121400005Y-43324121D01*
X121395067Y-43326497D01*
X121389472Y-43330006D01*
X121385178Y-43333422D01*
X121372384Y-43339565D01*
X121363520Y-43350649D01*
X121359522Y-43353829D01*
X121354074Y-43359268D01*
X121350886Y-43363261D01*
X121339788Y-43372105D01*
X121333624Y-43384885D01*
X121330203Y-43389170D01*
X121326684Y-43394759D01*
X121324297Y-43399696D01*
X121315435Y-43410778D01*
X121312256Y-43424604D01*
X121310032Y-43429204D01*
X121307478Y-43436478D01*
X121306338Y-43441454D01*
X121300174Y-43454234D01*
X121300162Y-43468771D01*
X121300155Y-43476646D01*
X121300111Y-43477417D01*
X121300000Y-43477899D01*
X117699958Y-43477899D01*
X117699932Y-43477784D01*
X117699887Y-43476964D01*
X117699894Y-43468771D01*
X117699894Y-43468770D01*
X117699906Y-43454583D01*
X117693766Y-43441795D01*
X117692635Y-43436818D01*
X117690089Y-43429529D01*
X117687877Y-43424932D01*
X117684721Y-43411100D01*
X117675879Y-43400005D01*
X117673503Y-43395067D01*
X117669994Y-43389472D01*
X117666578Y-43385178D01*
X117660435Y-43372384D01*
X117649351Y-43363520D01*
X117646171Y-43359522D01*
X117640732Y-43354074D01*
X117636739Y-43350886D01*
X117627895Y-43339788D01*
X117615115Y-43333624D01*
X117610830Y-43330203D01*
X117605241Y-43326684D01*
X117600304Y-43324297D01*
X117589222Y-43315435D01*
X117575396Y-43312256D01*
X117570796Y-43310032D01*
X117563522Y-43307478D01*
X117558546Y-43306338D01*
X117545766Y-43300174D01*
X117523345Y-43300155D01*
X117522583Y-43300111D01*
X117522101Y-43300000D01*
X103478081Y-43300000D01*
X103477784Y-43300068D01*
X103476964Y-43300113D01*
X103468771Y-43300106D01*
X103468770Y-43300106D01*
X103454583Y-43300094D01*
X103441795Y-43306234D01*
X103436818Y-43307365D01*
X103429529Y-43309911D01*
X103424932Y-43312123D01*
X103411100Y-43315279D01*
X103400005Y-43324121D01*
X103395067Y-43326497D01*
X103389472Y-43330006D01*
X103385178Y-43333422D01*
X103372384Y-43339565D01*
X103363520Y-43350649D01*
X103359522Y-43353829D01*
X103354074Y-43359268D01*
X103350886Y-43363261D01*
X103339788Y-43372105D01*
X103333624Y-43384885D01*
X103330203Y-43389170D01*
X103326684Y-43394759D01*
X103324297Y-43399696D01*
X103315435Y-43410778D01*
X103312256Y-43424604D01*
X103310032Y-43429204D01*
X103307478Y-43436478D01*
X103306338Y-43441454D01*
X103300174Y-43454234D01*
X103300162Y-43468771D01*
X103300155Y-43476646D01*
X103300111Y-43477417D01*
X103300000Y-43477899D01*
X99699958Y-43477899D01*
X99699932Y-43477784D01*
X99699887Y-43476964D01*
X99699894Y-43468771D01*
X99699894Y-43468770D01*
X99699906Y-43454583D01*
X99693766Y-43441795D01*
X99692635Y-43436818D01*
X99690089Y-43429529D01*
X99687877Y-43424932D01*
X99684721Y-43411100D01*
X99675879Y-43400005D01*
X99673503Y-43395067D01*
X99669994Y-43389472D01*
X99666578Y-43385178D01*
X99660435Y-43372384D01*
X99649351Y-43363520D01*
X99646171Y-43359522D01*
X99640732Y-43354074D01*
X99636739Y-43350886D01*
X99627895Y-43339788D01*
X99615115Y-43333624D01*
X99610830Y-43330203D01*
X99605241Y-43326684D01*
X99600304Y-43324297D01*
X99589222Y-43315435D01*
X99575396Y-43312256D01*
X99570796Y-43310032D01*
X99563522Y-43307478D01*
X99558546Y-43306338D01*
X99545766Y-43300174D01*
X99523345Y-43300155D01*
X99522583Y-43300111D01*
X99522101Y-43300000D01*
X85478081Y-43300000D01*
X85477784Y-43300068D01*
X85476964Y-43300113D01*
X85468771Y-43300106D01*
X85468770Y-43300106D01*
X85454583Y-43300094D01*
X85441795Y-43306234D01*
X85436818Y-43307365D01*
X85429529Y-43309911D01*
X85424932Y-43312123D01*
X85411100Y-43315279D01*
X85400005Y-43324121D01*
X85395067Y-43326497D01*
X85389472Y-43330006D01*
X85385178Y-43333422D01*
X85372384Y-43339565D01*
X85363520Y-43350649D01*
X85359522Y-43353829D01*
X85354074Y-43359268D01*
X85350886Y-43363261D01*
X85339788Y-43372105D01*
X85333624Y-43384885D01*
X85330203Y-43389170D01*
X85326684Y-43394759D01*
X85324297Y-43399696D01*
X85315435Y-43410778D01*
X85312256Y-43424604D01*
X85310032Y-43429204D01*
X85307478Y-43436478D01*
X85306338Y-43441454D01*
X85300174Y-43454234D01*
X85300162Y-43468771D01*
X85300155Y-43476646D01*
X85300111Y-43477417D01*
X85300000Y-43477899D01*
X81699958Y-43477899D01*
X81699932Y-43477784D01*
X81699887Y-43476964D01*
X81699894Y-43468771D01*
X81699894Y-43468770D01*
X81699906Y-43454583D01*
X81693766Y-43441795D01*
X81692635Y-43436818D01*
X81690089Y-43429529D01*
X81687877Y-43424932D01*
X81684721Y-43411100D01*
X81675879Y-43400005D01*
X81673503Y-43395067D01*
X81669994Y-43389472D01*
X81666578Y-43385178D01*
X81660435Y-43372384D01*
X81649351Y-43363520D01*
X81646171Y-43359522D01*
X81640732Y-43354074D01*
X81636739Y-43350886D01*
X81627895Y-43339788D01*
X81615115Y-43333624D01*
X81610830Y-43330203D01*
X81605241Y-43326684D01*
X81600304Y-43324297D01*
X81589222Y-43315435D01*
X81575396Y-43312256D01*
X81570796Y-43310032D01*
X81563522Y-43307478D01*
X81558546Y-43306338D01*
X81545766Y-43300174D01*
X81523345Y-43300155D01*
X81522583Y-43300111D01*
X81522101Y-43300000D01*
X67478081Y-43300000D01*
X67477784Y-43300068D01*
X67476964Y-43300113D01*
X67468771Y-43300106D01*
X67468770Y-43300106D01*
X67454583Y-43300094D01*
X67441795Y-43306234D01*
X67436818Y-43307365D01*
X67429529Y-43309911D01*
X67424932Y-43312123D01*
X67411100Y-43315279D01*
X67400005Y-43324121D01*
X67395067Y-43326497D01*
X67389472Y-43330006D01*
X67385178Y-43333422D01*
X67372384Y-43339565D01*
X67363520Y-43350649D01*
X67359522Y-43353829D01*
X67354074Y-43359268D01*
X67350886Y-43363261D01*
X67339788Y-43372105D01*
X67333624Y-43384885D01*
X67330203Y-43389170D01*
X67326684Y-43394759D01*
X67324297Y-43399696D01*
X67315435Y-43410778D01*
X67312256Y-43424604D01*
X67310032Y-43429204D01*
X67307478Y-43436478D01*
X67306338Y-43441454D01*
X67300174Y-43454234D01*
X67300162Y-43468771D01*
X67300155Y-43476646D01*
X67300111Y-43477417D01*
X67300000Y-43477899D01*
X63699958Y-43477899D01*
X63699932Y-43477784D01*
X63699887Y-43476964D01*
X63699894Y-43468771D01*
X63699894Y-43468770D01*
X63699906Y-43454583D01*
X63693766Y-43441795D01*
X63692635Y-43436818D01*
X63690089Y-43429529D01*
X63687877Y-43424932D01*
X63684721Y-43411100D01*
X63675879Y-43400005D01*
X63673503Y-43395067D01*
X63669994Y-43389472D01*
X63666578Y-43385178D01*
X63660435Y-43372384D01*
X63649351Y-43363520D01*
X63646171Y-43359522D01*
X63640732Y-43354074D01*
X63636739Y-43350886D01*
X63627895Y-43339788D01*
X63615115Y-43333624D01*
X63610830Y-43330203D01*
X63605241Y-43326684D01*
X63600304Y-43324297D01*
X63589222Y-43315435D01*
X63575396Y-43312256D01*
X63570796Y-43310032D01*
X63563522Y-43307478D01*
X63558546Y-43306338D01*
X63545766Y-43300174D01*
X63523345Y-43300155D01*
X63522583Y-43300111D01*
X63522101Y-43300000D01*
X49478081Y-43300000D01*
X49477784Y-43300068D01*
X49476964Y-43300113D01*
X49468771Y-43300106D01*
X49468770Y-43300106D01*
X49454583Y-43300094D01*
X49441795Y-43306234D01*
X49436818Y-43307365D01*
X49429529Y-43309911D01*
X49424932Y-43312123D01*
X49411100Y-43315279D01*
X49400005Y-43324121D01*
X49395067Y-43326497D01*
X49389472Y-43330006D01*
X49385178Y-43333422D01*
X49372384Y-43339565D01*
X49363520Y-43350649D01*
X49359522Y-43353829D01*
X49354074Y-43359268D01*
X49350886Y-43363261D01*
X49339788Y-43372105D01*
X49333624Y-43384885D01*
X49330203Y-43389170D01*
X49326684Y-43394759D01*
X49324297Y-43399696D01*
X49315435Y-43410778D01*
X49312256Y-43424604D01*
X49310032Y-43429204D01*
X49307478Y-43436478D01*
X49306338Y-43441454D01*
X49300174Y-43454234D01*
X49300162Y-43468771D01*
X49300155Y-43476646D01*
X49300111Y-43477417D01*
X49300000Y-43477899D01*
X43449958Y-43477899D01*
X43449932Y-43477784D01*
X43449887Y-43476964D01*
X43449894Y-43468771D01*
X43449894Y-43468770D01*
X43449906Y-43454583D01*
X43443766Y-43441795D01*
X43442635Y-43436818D01*
X43440089Y-43429529D01*
X43437877Y-43424932D01*
X43434721Y-43411100D01*
X43425879Y-43400005D01*
X43423503Y-43395067D01*
X43419994Y-43389472D01*
X43416578Y-43385178D01*
X43410435Y-43372384D01*
X43399351Y-43363520D01*
X43396171Y-43359522D01*
X43390732Y-43354074D01*
X43386739Y-43350886D01*
X43377895Y-43339788D01*
X43365115Y-43333624D01*
X43360830Y-43330203D01*
X43355241Y-43326684D01*
X43350304Y-43324297D01*
X43339222Y-43315435D01*
X43325396Y-43312256D01*
X43320796Y-43310032D01*
X43313522Y-43307478D01*
X43308546Y-43306338D01*
X43295766Y-43300174D01*
X43273345Y-43300155D01*
X43272583Y-43300111D01*
X43272101Y-43300000D01*
X29228081Y-43300000D01*
X29227784Y-43300068D01*
X29226964Y-43300113D01*
X29218771Y-43300106D01*
X29218770Y-43300106D01*
X29204583Y-43300094D01*
X29191795Y-43306234D01*
X29186818Y-43307365D01*
X29179529Y-43309911D01*
X29174932Y-43312123D01*
X29161100Y-43315279D01*
X29150005Y-43324121D01*
X29145067Y-43326497D01*
X29139472Y-43330006D01*
X29135178Y-43333422D01*
X29122384Y-43339565D01*
X29113520Y-43350649D01*
X29109522Y-43353829D01*
X29104074Y-43359268D01*
X29100886Y-43363261D01*
X29089788Y-43372105D01*
X29083624Y-43384885D01*
X29080203Y-43389170D01*
X29076684Y-43394759D01*
X29074297Y-43399696D01*
X29065435Y-43410778D01*
X29062256Y-43424604D01*
X29060032Y-43429204D01*
X29057478Y-43436478D01*
X29056338Y-43441454D01*
X29050174Y-43454234D01*
X29050162Y-43468771D01*
X29050155Y-43476646D01*
X29050111Y-43477417D01*
X29050000Y-43477899D01*
X20200000Y-43477899D01*
X20200000Y-26477899D01*
X26800000Y-26477899D01*
X26800000Y-40521919D01*
X26800068Y-40522216D01*
X26800113Y-40523036D01*
X26800094Y-40545417D01*
X26806234Y-40558205D01*
X26807365Y-40563182D01*
X26809911Y-40570471D01*
X26812123Y-40575068D01*
X26815279Y-40588900D01*
X26824121Y-40599995D01*
X26826497Y-40604933D01*
X26830006Y-40610528D01*
X26833422Y-40614822D01*
X26839565Y-40627616D01*
X26850649Y-40636480D01*
X26853829Y-40640478D01*
X26859268Y-40645926D01*
X26863261Y-40649114D01*
X26872105Y-40660212D01*
X26884885Y-40666376D01*
X26889170Y-40669797D01*
X26894759Y-40673316D01*
X26899696Y-40675703D01*
X26910778Y-40684565D01*
X26924604Y-40687744D01*
X26929204Y-40689968D01*
X26936478Y-40692522D01*
X26941454Y-40693662D01*
X26954234Y-40699826D01*
X26976655Y-40699845D01*
X26977417Y-40699889D01*
X26977899Y-40700000D01*
X41021919Y-40700000D01*
X41022216Y-40699932D01*
X41023036Y-40699887D01*
X41031229Y-40699894D01*
X41031230Y-40699894D01*
X41045417Y-40699906D01*
X41058205Y-40693766D01*
X41063182Y-40692635D01*
X41070471Y-40690089D01*
X41075068Y-40687877D01*
X41088900Y-40684721D01*
X41099995Y-40675879D01*
X41104933Y-40673503D01*
X41110528Y-40669994D01*
X41114822Y-40666578D01*
X41127616Y-40660435D01*
X41136480Y-40649351D01*
X41140478Y-40646171D01*
X41145926Y-40640732D01*
X41149114Y-40636739D01*
X41160212Y-40627895D01*
X41166376Y-40615115D01*
X41169797Y-40610830D01*
X41173316Y-40605241D01*
X41175703Y-40600304D01*
X41184565Y-40589222D01*
X41187744Y-40575396D01*
X41189968Y-40570796D01*
X41192522Y-40563522D01*
X41193662Y-40558546D01*
X41199826Y-40545766D01*
X41199845Y-40523345D01*
X41199889Y-40522583D01*
X41200000Y-40522101D01*
X41200000Y-26478081D01*
X41199958Y-26477899D01*
X44800000Y-26477899D01*
X44800000Y-40521919D01*
X44800068Y-40522216D01*
X44800113Y-40523036D01*
X44800094Y-40545417D01*
X44806234Y-40558205D01*
X44807365Y-40563182D01*
X44809911Y-40570471D01*
X44812123Y-40575068D01*
X44815279Y-40588900D01*
X44824121Y-40599995D01*
X44826497Y-40604933D01*
X44830006Y-40610528D01*
X44833422Y-40614822D01*
X44839565Y-40627616D01*
X44850649Y-40636480D01*
X44853829Y-40640478D01*
X44859268Y-40645926D01*
X44863261Y-40649114D01*
X44872105Y-40660212D01*
X44884885Y-40666376D01*
X44889170Y-40669797D01*
X44894759Y-40673316D01*
X44899696Y-40675703D01*
X44910778Y-40684565D01*
X44924604Y-40687744D01*
X44929204Y-40689968D01*
X44936478Y-40692522D01*
X44941454Y-40693662D01*
X44954234Y-40699826D01*
X44976655Y-40699845D01*
X44977417Y-40699889D01*
X44977899Y-40700000D01*
X59021919Y-40700000D01*
X59022216Y-40699932D01*
X59023036Y-40699887D01*
X59031229Y-40699894D01*
X59031230Y-40699894D01*
X59045417Y-40699906D01*
X59058205Y-40693766D01*
X59063182Y-40692635D01*
X59070471Y-40690089D01*
X59075068Y-40687877D01*
X59088900Y-40684721D01*
X59099995Y-40675879D01*
X59104933Y-40673503D01*
X59110528Y-40669994D01*
X59114822Y-40666578D01*
X59127616Y-40660435D01*
X59136480Y-40649351D01*
X59140478Y-40646171D01*
X59145926Y-40640732D01*
X59149114Y-40636739D01*
X59160212Y-40627895D01*
X59166376Y-40615115D01*
X59169797Y-40610830D01*
X59173316Y-40605241D01*
X59175703Y-40600304D01*
X59184565Y-40589222D01*
X59187744Y-40575396D01*
X59189968Y-40570796D01*
X59192522Y-40563522D01*
X59193662Y-40558546D01*
X59199826Y-40545766D01*
X59199845Y-40523345D01*
X59199889Y-40522583D01*
X59200000Y-40522101D01*
X59200000Y-26478081D01*
X59199958Y-26477899D01*
X62800000Y-26477899D01*
X62800000Y-40521919D01*
X62800068Y-40522216D01*
X62800113Y-40523036D01*
X62800094Y-40545417D01*
X62806234Y-40558205D01*
X62807365Y-40563182D01*
X62809911Y-40570471D01*
X62812123Y-40575068D01*
X62815279Y-40588900D01*
X62824121Y-40599995D01*
X62826497Y-40604933D01*
X62830006Y-40610528D01*
X62833422Y-40614822D01*
X62839565Y-40627616D01*
X62850649Y-40636480D01*
X62853829Y-40640478D01*
X62859268Y-40645926D01*
X62863261Y-40649114D01*
X62872105Y-40660212D01*
X62884885Y-40666376D01*
X62889170Y-40669797D01*
X62894759Y-40673316D01*
X62899696Y-40675703D01*
X62910778Y-40684565D01*
X62924604Y-40687744D01*
X62929204Y-40689968D01*
X62936478Y-40692522D01*
X62941454Y-40693662D01*
X62954234Y-40699826D01*
X62976655Y-40699845D01*
X62977417Y-40699889D01*
X62977899Y-40700000D01*
X77021919Y-40700000D01*
X77022216Y-40699932D01*
X77023036Y-40699887D01*
X77031229Y-40699894D01*
X77031230Y-40699894D01*
X77045417Y-40699906D01*
X77058205Y-40693766D01*
X77063182Y-40692635D01*
X77070471Y-40690089D01*
X77075068Y-40687877D01*
X77088900Y-40684721D01*
X77099995Y-40675879D01*
X77104933Y-40673503D01*
X77110528Y-40669994D01*
X77114822Y-40666578D01*
X77127616Y-40660435D01*
X77136480Y-40649351D01*
X77140478Y-40646171D01*
X77145926Y-40640732D01*
X77149114Y-40636739D01*
X77160212Y-40627895D01*
X77166376Y-40615115D01*
X77169797Y-40610830D01*
X77173316Y-40605241D01*
X77175703Y-40600304D01*
X77184565Y-40589222D01*
X77187744Y-40575396D01*
X77189968Y-40570796D01*
X77192522Y-40563522D01*
X77193662Y-40558546D01*
X77199826Y-40545766D01*
X77199845Y-40523345D01*
X77199889Y-40522583D01*
X77200000Y-40522101D01*
X77200000Y-26478081D01*
X77199958Y-26477899D01*
X80800000Y-26477899D01*
X80800000Y-40521919D01*
X80800068Y-40522216D01*
X80800113Y-40523036D01*
X80800094Y-40545417D01*
X80806234Y-40558205D01*
X80807365Y-40563182D01*
X80809911Y-40570471D01*
X80812123Y-40575068D01*
X80815279Y-40588900D01*
X80824121Y-40599995D01*
X80826497Y-40604933D01*
X80830006Y-40610528D01*
X80833422Y-40614822D01*
X80839565Y-40627616D01*
X80850649Y-40636480D01*
X80853829Y-40640478D01*
X80859268Y-40645926D01*
X80863261Y-40649114D01*
X80872105Y-40660212D01*
X80884885Y-40666376D01*
X80889170Y-40669797D01*
X80894759Y-40673316D01*
X80899696Y-40675703D01*
X80910778Y-40684565D01*
X80924604Y-40687744D01*
X80929204Y-40689968D01*
X80936478Y-40692522D01*
X80941454Y-40693662D01*
X80954234Y-40699826D01*
X80976655Y-40699845D01*
X80977417Y-40699889D01*
X80977899Y-40700000D01*
X95021919Y-40700000D01*
X95022216Y-40699932D01*
X95023036Y-40699887D01*
X95031229Y-40699894D01*
X95031230Y-40699894D01*
X95045417Y-40699906D01*
X95058205Y-40693766D01*
X95063182Y-40692635D01*
X95070471Y-40690089D01*
X95075068Y-40687877D01*
X95088900Y-40684721D01*
X95099995Y-40675879D01*
X95104933Y-40673503D01*
X95110528Y-40669994D01*
X95114822Y-40666578D01*
X95127616Y-40660435D01*
X95136480Y-40649351D01*
X95140478Y-40646171D01*
X95145926Y-40640732D01*
X95149114Y-40636739D01*
X95160212Y-40627895D01*
X95166376Y-40615115D01*
X95169797Y-40610830D01*
X95173316Y-40605241D01*
X95175703Y-40600304D01*
X95184565Y-40589222D01*
X95187744Y-40575396D01*
X95189968Y-40570796D01*
X95192522Y-40563522D01*
X95193662Y-40558546D01*
X95199826Y-40545766D01*
X95199845Y-40523345D01*
X95199889Y-40522583D01*
X95200000Y-40522101D01*
X95200000Y-26478081D01*
X95199958Y-26477899D01*
X98800000Y-26477899D01*
X98800000Y-40521919D01*
X98800068Y-40522216D01*
X98800113Y-40523036D01*
X98800094Y-40545417D01*
X98806234Y-40558205D01*
X98807365Y-40563182D01*
X98809911Y-40570471D01*
X98812123Y-40575068D01*
X98815279Y-40588900D01*
X98824121Y-40599995D01*
X98826497Y-40604933D01*
X98830006Y-40610528D01*
X98833422Y-40614822D01*
X98839565Y-40627616D01*
X98850649Y-40636480D01*
X98853829Y-40640478D01*
X98859268Y-40645926D01*
X98863261Y-40649114D01*
X98872105Y-40660212D01*
X98884885Y-40666376D01*
X98889170Y-40669797D01*
X98894759Y-40673316D01*
X98899696Y-40675703D01*
X98910778Y-40684565D01*
X98924604Y-40687744D01*
X98929204Y-40689968D01*
X98936478Y-40692522D01*
X98941454Y-40693662D01*
X98954234Y-40699826D01*
X98976655Y-40699845D01*
X98977417Y-40699889D01*
X98977899Y-40700000D01*
X113021919Y-40700000D01*
X113022216Y-40699932D01*
X113023036Y-40699887D01*
X113031229Y-40699894D01*
X113031230Y-40699894D01*
X113045417Y-40699906D01*
X113058205Y-40693766D01*
X113063182Y-40692635D01*
X113070471Y-40690089D01*
X113075068Y-40687877D01*
X113088900Y-40684721D01*
X113099995Y-40675879D01*
X113104933Y-40673503D01*
X113110528Y-40669994D01*
X113114822Y-40666578D01*
X113127616Y-40660435D01*
X113136480Y-40649351D01*
X113140478Y-40646171D01*
X113145926Y-40640732D01*
X113149114Y-40636739D01*
X113160212Y-40627895D01*
X113166376Y-40615115D01*
X113169797Y-40610830D01*
X113173316Y-40605241D01*
X113175703Y-40600304D01*
X113184565Y-40589222D01*
X113187744Y-40575396D01*
X113189968Y-40570796D01*
X113192522Y-40563522D01*
X113193662Y-40558546D01*
X113199826Y-40545766D01*
X113199845Y-40523345D01*
X113199889Y-40522583D01*
X113200000Y-40522101D01*
X113200000Y-26478081D01*
X113199958Y-26477899D01*
X116800000Y-26477899D01*
X116800000Y-40521919D01*
X116800068Y-40522216D01*
X116800113Y-40523036D01*
X116800094Y-40545417D01*
X116806234Y-40558205D01*
X116807365Y-40563182D01*
X116809911Y-40570471D01*
X116812123Y-40575068D01*
X116815279Y-40588900D01*
X116824121Y-40599995D01*
X116826497Y-40604933D01*
X116830006Y-40610528D01*
X116833422Y-40614822D01*
X116839565Y-40627616D01*
X116850649Y-40636480D01*
X116853829Y-40640478D01*
X116859268Y-40645926D01*
X116863261Y-40649114D01*
X116872105Y-40660212D01*
X116884885Y-40666376D01*
X116889170Y-40669797D01*
X116894759Y-40673316D01*
X116899696Y-40675703D01*
X116910778Y-40684565D01*
X116924604Y-40687744D01*
X116929204Y-40689968D01*
X116936478Y-40692522D01*
X116941454Y-40693662D01*
X116954234Y-40699826D01*
X116976655Y-40699845D01*
X116977417Y-40699889D01*
X116977899Y-40700000D01*
X131021919Y-40700000D01*
X131022216Y-40699932D01*
X131023036Y-40699887D01*
X131031229Y-40699894D01*
X131031230Y-40699894D01*
X131045417Y-40699906D01*
X131058205Y-40693766D01*
X131063182Y-40692635D01*
X131070471Y-40690089D01*
X131075068Y-40687877D01*
X131088900Y-40684721D01*
X131099995Y-40675879D01*
X131104933Y-40673503D01*
X131110528Y-40669994D01*
X131114822Y-40666578D01*
X131127616Y-40660435D01*
X131136480Y-40649351D01*
X131140478Y-40646171D01*
X131145926Y-40640732D01*
X131149114Y-40636739D01*
X131160212Y-40627895D01*
X131166376Y-40615115D01*
X131169797Y-40610830D01*
X131173316Y-40605241D01*
X131175703Y-40600304D01*
X131184565Y-40589222D01*
X131187744Y-40575396D01*
X131189968Y-40570796D01*
X131192522Y-40563522D01*
X131193662Y-40558546D01*
X131199826Y-40545766D01*
X131199845Y-40523345D01*
X131199889Y-40522583D01*
X131200000Y-40522101D01*
X131200000Y-26478081D01*
X131199958Y-26477899D01*
X134800000Y-26477899D01*
X134800000Y-40521919D01*
X134800068Y-40522216D01*
X134800113Y-40523036D01*
X134800094Y-40545417D01*
X134806234Y-40558205D01*
X134807365Y-40563182D01*
X134809911Y-40570471D01*
X134812123Y-40575068D01*
X134815279Y-40588900D01*
X134824121Y-40599995D01*
X134826497Y-40604933D01*
X134830006Y-40610528D01*
X134833422Y-40614822D01*
X134839565Y-40627616D01*
X134850649Y-40636480D01*
X134853829Y-40640478D01*
X134859268Y-40645926D01*
X134863261Y-40649114D01*
X134872105Y-40660212D01*
X134884885Y-40666376D01*
X134889170Y-40669797D01*
X134894759Y-40673316D01*
X134899696Y-40675703D01*
X134910778Y-40684565D01*
X134924604Y-40687744D01*
X134929204Y-40689968D01*
X134936478Y-40692522D01*
X134941454Y-40693662D01*
X134954234Y-40699826D01*
X134976655Y-40699845D01*
X134977417Y-40699889D01*
X134977899Y-40700000D01*
X149021919Y-40700000D01*
X149022216Y-40699932D01*
X149023036Y-40699887D01*
X149031229Y-40699894D01*
X149031230Y-40699894D01*
X149045417Y-40699906D01*
X149058205Y-40693766D01*
X149063182Y-40692635D01*
X149070471Y-40690089D01*
X149075068Y-40687877D01*
X149088900Y-40684721D01*
X149099995Y-40675879D01*
X149104933Y-40673503D01*
X149110528Y-40669994D01*
X149114822Y-40666578D01*
X149127616Y-40660435D01*
X149136480Y-40649351D01*
X149140478Y-40646171D01*
X149145926Y-40640732D01*
X149149114Y-40636739D01*
X149160212Y-40627895D01*
X149166376Y-40615115D01*
X149169797Y-40610830D01*
X149173316Y-40605241D01*
X149175703Y-40600304D01*
X149184565Y-40589222D01*
X149187744Y-40575396D01*
X149189968Y-40570796D01*
X149192522Y-40563522D01*
X149193662Y-40558546D01*
X149199826Y-40545766D01*
X149199845Y-40523345D01*
X149199889Y-40522583D01*
X149200000Y-40522101D01*
X149200000Y-26478081D01*
X149199958Y-26477899D01*
X152800000Y-26477899D01*
X152800000Y-40521919D01*
X152800068Y-40522216D01*
X152800113Y-40523036D01*
X152800094Y-40545417D01*
X152806234Y-40558205D01*
X152807365Y-40563182D01*
X152809911Y-40570471D01*
X152812123Y-40575068D01*
X152815279Y-40588900D01*
X152824121Y-40599995D01*
X152826497Y-40604933D01*
X152830006Y-40610528D01*
X152833422Y-40614822D01*
X152839565Y-40627616D01*
X152850649Y-40636480D01*
X152853829Y-40640478D01*
X152859268Y-40645926D01*
X152863261Y-40649114D01*
X152872105Y-40660212D01*
X152884885Y-40666376D01*
X152889170Y-40669797D01*
X152894759Y-40673316D01*
X152899696Y-40675703D01*
X152910778Y-40684565D01*
X152924604Y-40687744D01*
X152929204Y-40689968D01*
X152936478Y-40692522D01*
X152941454Y-40693662D01*
X152954234Y-40699826D01*
X152976655Y-40699845D01*
X152977417Y-40699889D01*
X152977899Y-40700000D01*
X167021919Y-40700000D01*
X167022216Y-40699932D01*
X167023036Y-40699887D01*
X167031229Y-40699894D01*
X167031230Y-40699894D01*
X167045417Y-40699906D01*
X167058205Y-40693766D01*
X167063182Y-40692635D01*
X167070471Y-40690089D01*
X167075068Y-40687877D01*
X167088900Y-40684721D01*
X167099995Y-40675879D01*
X167104933Y-40673503D01*
X167110528Y-40669994D01*
X167114822Y-40666578D01*
X167127616Y-40660435D01*
X167136480Y-40649351D01*
X167140478Y-40646171D01*
X167145926Y-40640732D01*
X167149114Y-40636739D01*
X167160212Y-40627895D01*
X167166376Y-40615115D01*
X167169797Y-40610830D01*
X167173316Y-40605241D01*
X167175703Y-40600304D01*
X167184565Y-40589222D01*
X167187744Y-40575396D01*
X167189968Y-40570796D01*
X167192522Y-40563522D01*
X167193662Y-40558546D01*
X167199826Y-40545766D01*
X167199845Y-40523345D01*
X167199889Y-40522583D01*
X167200000Y-40522101D01*
X167200000Y-26478081D01*
X167199958Y-26477899D01*
X170800000Y-26477899D01*
X170800000Y-40521919D01*
X170800068Y-40522216D01*
X170800113Y-40523036D01*
X170800094Y-40545417D01*
X170806234Y-40558205D01*
X170807365Y-40563182D01*
X170809911Y-40570471D01*
X170812123Y-40575068D01*
X170815279Y-40588900D01*
X170824121Y-40599995D01*
X170826497Y-40604933D01*
X170830006Y-40610528D01*
X170833422Y-40614822D01*
X170839565Y-40627616D01*
X170850649Y-40636480D01*
X170853829Y-40640478D01*
X170859268Y-40645926D01*
X170863261Y-40649114D01*
X170872105Y-40660212D01*
X170884885Y-40666376D01*
X170889170Y-40669797D01*
X170894759Y-40673316D01*
X170899696Y-40675703D01*
X170910778Y-40684565D01*
X170924604Y-40687744D01*
X170929204Y-40689968D01*
X170936478Y-40692522D01*
X170941454Y-40693662D01*
X170954234Y-40699826D01*
X170976655Y-40699845D01*
X170977417Y-40699889D01*
X170977899Y-40700000D01*
X185021919Y-40700000D01*
X185022216Y-40699932D01*
X185023036Y-40699887D01*
X185031229Y-40699894D01*
X185031230Y-40699894D01*
X185045417Y-40699906D01*
X185058205Y-40693766D01*
X185063182Y-40692635D01*
X185070471Y-40690089D01*
X185075068Y-40687877D01*
X185088900Y-40684721D01*
X185099995Y-40675879D01*
X185104933Y-40673503D01*
X185110528Y-40669994D01*
X185114822Y-40666578D01*
X185127616Y-40660435D01*
X185136480Y-40649351D01*
X185140478Y-40646171D01*
X185145926Y-40640732D01*
X185149114Y-40636739D01*
X185160212Y-40627895D01*
X185166376Y-40615115D01*
X185169797Y-40610830D01*
X185173316Y-40605241D01*
X185175703Y-40600304D01*
X185184565Y-40589222D01*
X185187744Y-40575396D01*
X185189968Y-40570796D01*
X185192522Y-40563522D01*
X185193662Y-40558546D01*
X185199826Y-40545766D01*
X185199845Y-40523345D01*
X185199889Y-40522583D01*
X185200000Y-40522101D01*
X185200000Y-26478081D01*
X185199958Y-26477899D01*
X188800000Y-26477899D01*
X188800000Y-40521919D01*
X188800068Y-40522216D01*
X188800113Y-40523036D01*
X188800094Y-40545417D01*
X188806234Y-40558205D01*
X188807365Y-40563182D01*
X188809911Y-40570471D01*
X188812123Y-40575068D01*
X188815279Y-40588900D01*
X188824121Y-40599995D01*
X188826497Y-40604933D01*
X188830006Y-40610528D01*
X188833422Y-40614822D01*
X188839565Y-40627616D01*
X188850649Y-40636480D01*
X188853829Y-40640478D01*
X188859268Y-40645926D01*
X188863261Y-40649114D01*
X188872105Y-40660212D01*
X188884885Y-40666376D01*
X188889170Y-40669797D01*
X188894759Y-40673316D01*
X188899696Y-40675703D01*
X188910778Y-40684565D01*
X188924604Y-40687744D01*
X188929204Y-40689968D01*
X188936478Y-40692522D01*
X188941454Y-40693662D01*
X188954234Y-40699826D01*
X188976655Y-40699845D01*
X188977417Y-40699889D01*
X188977899Y-40700000D01*
X203021919Y-40700000D01*
X203022216Y-40699932D01*
X203023036Y-40699887D01*
X203031229Y-40699894D01*
X203031230Y-40699894D01*
X203045417Y-40699906D01*
X203058205Y-40693766D01*
X203063182Y-40692635D01*
X203070471Y-40690089D01*
X203075068Y-40687877D01*
X203088900Y-40684721D01*
X203099995Y-40675879D01*
X203104933Y-40673503D01*
X203110528Y-40669994D01*
X203114822Y-40666578D01*
X203127616Y-40660435D01*
X203136480Y-40649351D01*
X203140478Y-40646171D01*
X203145926Y-40640732D01*
X203149114Y-40636739D01*
X203160212Y-40627895D01*
X203166376Y-40615115D01*
X203169797Y-40610830D01*
X203173316Y-40605241D01*
X203175703Y-40600304D01*
X203184565Y-40589222D01*
X203187744Y-40575396D01*
X203189968Y-40570796D01*
X203192522Y-40563522D01*
X203193662Y-40558546D01*
X203199826Y-40545766D01*
X203199845Y-40523345D01*
X203199889Y-40522583D01*
X203200000Y-40522101D01*
X203200000Y-26478081D01*
X203199958Y-26477899D01*
X206800000Y-26477899D01*
X206800000Y-40521919D01*
X206800068Y-40522216D01*
X206800113Y-40523036D01*
X206800094Y-40545417D01*
X206806234Y-40558205D01*
X206807365Y-40563182D01*
X206809911Y-40570471D01*
X206812123Y-40575068D01*
X206815279Y-40588900D01*
X206824121Y-40599995D01*
X206826497Y-40604933D01*
X206830006Y-40610528D01*
X206833422Y-40614822D01*
X206839565Y-40627616D01*
X206850649Y-40636480D01*
X206853829Y-40640478D01*
X206859268Y-40645926D01*
X206863261Y-40649114D01*
X206872105Y-40660212D01*
X206884885Y-40666376D01*
X206889170Y-40669797D01*
X206894759Y-40673316D01*
X206899696Y-40675703D01*
X206910778Y-40684565D01*
X206924604Y-40687744D01*
X206929204Y-40689968D01*
X206936478Y-40692522D01*
X206941454Y-40693662D01*
X206954234Y-40699826D01*
X206976655Y-40699845D01*
X206977417Y-40699889D01*
X206977899Y-40700000D01*
X221021919Y-40700000D01*
X221022216Y-40699932D01*
X221023036Y-40699887D01*
X221031229Y-40699894D01*
X221031230Y-40699894D01*
X221045417Y-40699906D01*
X221058205Y-40693766D01*
X221063182Y-40692635D01*
X221070471Y-40690089D01*
X221075068Y-40687877D01*
X221088900Y-40684721D01*
X221099995Y-40675879D01*
X221104933Y-40673503D01*
X221110528Y-40669994D01*
X221114822Y-40666578D01*
X221127616Y-40660435D01*
X221136480Y-40649351D01*
X221140478Y-40646171D01*
X221145926Y-40640732D01*
X221149114Y-40636739D01*
X221160212Y-40627895D01*
X221166376Y-40615115D01*
X221169797Y-40610830D01*
X221173316Y-40605241D01*
X221175703Y-40600304D01*
X221184565Y-40589222D01*
X221187744Y-40575396D01*
X221189968Y-40570796D01*
X221192522Y-40563522D01*
X221193662Y-40558546D01*
X221199826Y-40545766D01*
X221199845Y-40523345D01*
X221199889Y-40522583D01*
X221200000Y-40522101D01*
X221200000Y-26478081D01*
X221199958Y-26477899D01*
X224800000Y-26477899D01*
X224800000Y-40521919D01*
X224800068Y-40522216D01*
X224800113Y-40523036D01*
X224800094Y-40545417D01*
X224806234Y-40558205D01*
X224807365Y-40563182D01*
X224809911Y-40570471D01*
X224812123Y-40575068D01*
X224815279Y-40588900D01*
X224824121Y-40599995D01*
X224826497Y-40604933D01*
X224830006Y-40610528D01*
X224833422Y-40614822D01*
X224839565Y-40627616D01*
X224850649Y-40636480D01*
X224853829Y-40640478D01*
X224859268Y-40645926D01*
X224863261Y-40649114D01*
X224872105Y-40660212D01*
X224884885Y-40666376D01*
X224889170Y-40669797D01*
X224894759Y-40673316D01*
X224899696Y-40675703D01*
X224910778Y-40684565D01*
X224924604Y-40687744D01*
X224929204Y-40689968D01*
X224936478Y-40692522D01*
X224941454Y-40693662D01*
X224954234Y-40699826D01*
X224976655Y-40699845D01*
X224977417Y-40699889D01*
X224977899Y-40700000D01*
X239021919Y-40700000D01*
X239022216Y-40699932D01*
X239023036Y-40699887D01*
X239031229Y-40699894D01*
X239031230Y-40699894D01*
X239045417Y-40699906D01*
X239058205Y-40693766D01*
X239063182Y-40692635D01*
X239070471Y-40690089D01*
X239075068Y-40687877D01*
X239088900Y-40684721D01*
X239099995Y-40675879D01*
X239104933Y-40673503D01*
X239110528Y-40669994D01*
X239114822Y-40666578D01*
X239127616Y-40660435D01*
X239136480Y-40649351D01*
X239140478Y-40646171D01*
X239145926Y-40640732D01*
X239149114Y-40636739D01*
X239160212Y-40627895D01*
X239166376Y-40615115D01*
X239169797Y-40610830D01*
X239173316Y-40605241D01*
X239175703Y-40600304D01*
X239184565Y-40589222D01*
X239187744Y-40575396D01*
X239189968Y-40570796D01*
X239192522Y-40563522D01*
X239193662Y-40558546D01*
X239199826Y-40545766D01*
X239199845Y-40523345D01*
X239199889Y-40522583D01*
X239200000Y-40522101D01*
X239200000Y-26478081D01*
X239199932Y-26477784D01*
X239199887Y-26476964D01*
X239199894Y-26468771D01*
X239199894Y-26468770D01*
X239199906Y-26454583D01*
X239193766Y-26441795D01*
X239192635Y-26436818D01*
X239190089Y-26429529D01*
X239187877Y-26424932D01*
X239184721Y-26411100D01*
X239175879Y-26400005D01*
X239173503Y-26395067D01*
X239169994Y-26389472D01*
X239166578Y-26385178D01*
X239160435Y-26372384D01*
X239149351Y-26363520D01*
X239146171Y-26359522D01*
X239140732Y-26354074D01*
X239136739Y-26350886D01*
X239127895Y-26339788D01*
X239115115Y-26333624D01*
X239110830Y-26330203D01*
X239105241Y-26326684D01*
X239100304Y-26324297D01*
X239089222Y-26315435D01*
X239075396Y-26312256D01*
X239070796Y-26310032D01*
X239063522Y-26307478D01*
X239058546Y-26306338D01*
X239045766Y-26300174D01*
X239023345Y-26300155D01*
X239022583Y-26300111D01*
X239022101Y-26300000D01*
X224978081Y-26300000D01*
X224977784Y-26300068D01*
X224976964Y-26300113D01*
X224968771Y-26300106D01*
X224968770Y-26300106D01*
X224954583Y-26300094D01*
X224941795Y-26306234D01*
X224936818Y-26307365D01*
X224929529Y-26309911D01*
X224924932Y-26312123D01*
X224911100Y-26315279D01*
X224900005Y-26324121D01*
X224895067Y-26326497D01*
X224889472Y-26330006D01*
X224885178Y-26333422D01*
X224872384Y-26339565D01*
X224863520Y-26350649D01*
X224859522Y-26353829D01*
X224854074Y-26359268D01*
X224850886Y-26363261D01*
X224839788Y-26372105D01*
X224833624Y-26384885D01*
X224830203Y-26389170D01*
X224826684Y-26394759D01*
X224824297Y-26399696D01*
X224815435Y-26410778D01*
X224812256Y-26424604D01*
X224810032Y-26429204D01*
X224807478Y-26436478D01*
X224806338Y-26441454D01*
X224800174Y-26454234D01*
X224800162Y-26468771D01*
X224800155Y-26476646D01*
X224800111Y-26477417D01*
X224800000Y-26477899D01*
X221199958Y-26477899D01*
X221199932Y-26477784D01*
X221199887Y-26476964D01*
X221199894Y-26468771D01*
X221199894Y-26468770D01*
X221199906Y-26454583D01*
X221193766Y-26441795D01*
X221192635Y-26436818D01*
X221190089Y-26429529D01*
X221187877Y-26424932D01*
X221184721Y-26411100D01*
X221175879Y-26400005D01*
X221173503Y-26395067D01*
X221169994Y-26389472D01*
X221166578Y-26385178D01*
X221160435Y-26372384D01*
X221149351Y-26363520D01*
X221146171Y-26359522D01*
X221140732Y-26354074D01*
X221136739Y-26350886D01*
X221127895Y-26339788D01*
X221115115Y-26333624D01*
X221110830Y-26330203D01*
X221105241Y-26326684D01*
X221100304Y-26324297D01*
X221089222Y-26315435D01*
X221075396Y-26312256D01*
X221070796Y-26310032D01*
X221063522Y-26307478D01*
X221058546Y-26306338D01*
X221045766Y-26300174D01*
X221023345Y-26300155D01*
X221022583Y-26300111D01*
X221022101Y-26300000D01*
X206978081Y-26300000D01*
X206977784Y-26300068D01*
X206976964Y-26300113D01*
X206968771Y-26300106D01*
X206968770Y-26300106D01*
X206954583Y-26300094D01*
X206941795Y-26306234D01*
X206936818Y-26307365D01*
X206929529Y-26309911D01*
X206924932Y-26312123D01*
X206911100Y-26315279D01*
X206900005Y-26324121D01*
X206895067Y-26326497D01*
X206889472Y-26330006D01*
X206885178Y-26333422D01*
X206872384Y-26339565D01*
X206863520Y-26350649D01*
X206859522Y-26353829D01*
X206854074Y-26359268D01*
X206850886Y-26363261D01*
X206839788Y-26372105D01*
X206833624Y-26384885D01*
X206830203Y-26389170D01*
X206826684Y-26394759D01*
X206824297Y-26399696D01*
X206815435Y-26410778D01*
X206812256Y-26424604D01*
X206810032Y-26429204D01*
X206807478Y-26436478D01*
X206806338Y-26441454D01*
X206800174Y-26454234D01*
X206800162Y-26468771D01*
X206800155Y-26476646D01*
X206800111Y-26477417D01*
X206800000Y-26477899D01*
X203199958Y-26477899D01*
X203199932Y-26477784D01*
X203199887Y-26476964D01*
X203199894Y-26468771D01*
X203199894Y-26468770D01*
X203199906Y-26454583D01*
X203193766Y-26441795D01*
X203192635Y-26436818D01*
X203190089Y-26429529D01*
X203187877Y-26424932D01*
X203184721Y-26411100D01*
X203175879Y-26400005D01*
X203173503Y-26395067D01*
X203169994Y-26389472D01*
X203166578Y-26385178D01*
X203160435Y-26372384D01*
X203149351Y-26363520D01*
X203146171Y-26359522D01*
X203140732Y-26354074D01*
X203136739Y-26350886D01*
X203127895Y-26339788D01*
X203115115Y-26333624D01*
X203110830Y-26330203D01*
X203105241Y-26326684D01*
X203100304Y-26324297D01*
X203089222Y-26315435D01*
X203075396Y-26312256D01*
X203070796Y-26310032D01*
X203063522Y-26307478D01*
X203058546Y-26306338D01*
X203045766Y-26300174D01*
X203023345Y-26300155D01*
X203022583Y-26300111D01*
X203022101Y-26300000D01*
X188978081Y-26300000D01*
X188977784Y-26300068D01*
X188976964Y-26300113D01*
X188968771Y-26300106D01*
X188968770Y-26300106D01*
X188954583Y-26300094D01*
X188941795Y-26306234D01*
X188936818Y-26307365D01*
X188929529Y-26309911D01*
X188924932Y-26312123D01*
X188911100Y-26315279D01*
X188900005Y-26324121D01*
X188895067Y-26326497D01*
X188889472Y-26330006D01*
X188885178Y-26333422D01*
X188872384Y-26339565D01*
X188863520Y-26350649D01*
X188859522Y-26353829D01*
X188854074Y-26359268D01*
X188850886Y-26363261D01*
X188839788Y-26372105D01*
X188833624Y-26384885D01*
X188830203Y-26389170D01*
X188826684Y-26394759D01*
X188824297Y-26399696D01*
X188815435Y-26410778D01*
X188812256Y-26424604D01*
X188810032Y-26429204D01*
X188807478Y-26436478D01*
X188806338Y-26441454D01*
X188800174Y-26454234D01*
X188800162Y-26468771D01*
X188800155Y-26476646D01*
X188800111Y-26477417D01*
X188800000Y-26477899D01*
X185199958Y-26477899D01*
X185199932Y-26477784D01*
X185199887Y-26476964D01*
X185199894Y-26468771D01*
X185199894Y-26468770D01*
X185199906Y-26454583D01*
X185193766Y-26441795D01*
X185192635Y-26436818D01*
X185190089Y-26429529D01*
X185187877Y-26424932D01*
X185184721Y-26411100D01*
X185175879Y-26400005D01*
X185173503Y-26395067D01*
X185169994Y-26389472D01*
X185166578Y-26385178D01*
X185160435Y-26372384D01*
X185149351Y-26363520D01*
X185146171Y-26359522D01*
X185140732Y-26354074D01*
X185136739Y-26350886D01*
X185127895Y-26339788D01*
X185115115Y-26333624D01*
X185110830Y-26330203D01*
X185105241Y-26326684D01*
X185100304Y-26324297D01*
X185089222Y-26315435D01*
X185075396Y-26312256D01*
X185070796Y-26310032D01*
X185063522Y-26307478D01*
X185058546Y-26306338D01*
X185045766Y-26300174D01*
X185023345Y-26300155D01*
X185022583Y-26300111D01*
X185022101Y-26300000D01*
X170978081Y-26300000D01*
X170977784Y-26300068D01*
X170976964Y-26300113D01*
X170968771Y-26300106D01*
X170968770Y-26300106D01*
X170954583Y-26300094D01*
X170941795Y-26306234D01*
X170936818Y-26307365D01*
X170929529Y-26309911D01*
X170924932Y-26312123D01*
X170911100Y-26315279D01*
X170900005Y-26324121D01*
X170895067Y-26326497D01*
X170889472Y-26330006D01*
X170885178Y-26333422D01*
X170872384Y-26339565D01*
X170863520Y-26350649D01*
X170859522Y-26353829D01*
X170854074Y-26359268D01*
X170850886Y-26363261D01*
X170839788Y-26372105D01*
X170833624Y-26384885D01*
X170830203Y-26389170D01*
X170826684Y-26394759D01*
X170824297Y-26399696D01*
X170815435Y-26410778D01*
X170812256Y-26424604D01*
X170810032Y-26429204D01*
X170807478Y-26436478D01*
X170806338Y-26441454D01*
X170800174Y-26454234D01*
X170800162Y-26468771D01*
X170800155Y-26476646D01*
X170800111Y-26477417D01*
X170800000Y-26477899D01*
X167199958Y-26477899D01*
X167199932Y-26477784D01*
X167199887Y-26476964D01*
X167199894Y-26468771D01*
X167199894Y-26468770D01*
X167199906Y-26454583D01*
X167193766Y-26441795D01*
X167192635Y-26436818D01*
X167190089Y-26429529D01*
X167187877Y-26424932D01*
X167184721Y-26411100D01*
X167175879Y-26400005D01*
X167173503Y-26395067D01*
X167169994Y-26389472D01*
X167166578Y-26385178D01*
X167160435Y-26372384D01*
X167149351Y-26363520D01*
X167146171Y-26359522D01*
X167140732Y-26354074D01*
X167136739Y-26350886D01*
X167127895Y-26339788D01*
X167115115Y-26333624D01*
X167110830Y-26330203D01*
X167105241Y-26326684D01*
X167100304Y-26324297D01*
X167089222Y-26315435D01*
X167075396Y-26312256D01*
X167070796Y-26310032D01*
X167063522Y-26307478D01*
X167058546Y-26306338D01*
X167045766Y-26300174D01*
X167023345Y-26300155D01*
X167022583Y-26300111D01*
X167022101Y-26300000D01*
X152978081Y-26300000D01*
X152977784Y-26300068D01*
X152976964Y-26300113D01*
X152968771Y-26300106D01*
X152968770Y-26300106D01*
X152954583Y-26300094D01*
X152941795Y-26306234D01*
X152936818Y-26307365D01*
X152929529Y-26309911D01*
X152924932Y-26312123D01*
X152911100Y-26315279D01*
X152900005Y-26324121D01*
X152895067Y-26326497D01*
X152889472Y-26330006D01*
X152885178Y-26333422D01*
X152872384Y-26339565D01*
X152863520Y-26350649D01*
X152859522Y-26353829D01*
X152854074Y-26359268D01*
X152850886Y-26363261D01*
X152839788Y-26372105D01*
X152833624Y-26384885D01*
X152830203Y-26389170D01*
X152826684Y-26394759D01*
X152824297Y-26399696D01*
X152815435Y-26410778D01*
X152812256Y-26424604D01*
X152810032Y-26429204D01*
X152807478Y-26436478D01*
X152806338Y-26441454D01*
X152800174Y-26454234D01*
X152800162Y-26468771D01*
X152800155Y-26476646D01*
X152800111Y-26477417D01*
X152800000Y-26477899D01*
X149199958Y-26477899D01*
X149199932Y-26477784D01*
X149199887Y-26476964D01*
X149199894Y-26468771D01*
X149199894Y-26468770D01*
X149199906Y-26454583D01*
X149193766Y-26441795D01*
X149192635Y-26436818D01*
X149190089Y-26429529D01*
X149187877Y-26424932D01*
X149184721Y-26411100D01*
X149175879Y-26400005D01*
X149173503Y-26395067D01*
X149169994Y-26389472D01*
X149166578Y-26385178D01*
X149160435Y-26372384D01*
X149149351Y-26363520D01*
X149146171Y-26359522D01*
X149140732Y-26354074D01*
X149136739Y-26350886D01*
X149127895Y-26339788D01*
X149115115Y-26333624D01*
X149110830Y-26330203D01*
X149105241Y-26326684D01*
X149100304Y-26324297D01*
X149089222Y-26315435D01*
X149075396Y-26312256D01*
X149070796Y-26310032D01*
X149063522Y-26307478D01*
X149058546Y-26306338D01*
X149045766Y-26300174D01*
X149023345Y-26300155D01*
X149022583Y-26300111D01*
X149022101Y-26300000D01*
X134978081Y-26300000D01*
X134977784Y-26300068D01*
X134976964Y-26300113D01*
X134968771Y-26300106D01*
X134968770Y-26300106D01*
X134954583Y-26300094D01*
X134941795Y-26306234D01*
X134936818Y-26307365D01*
X134929529Y-26309911D01*
X134924932Y-26312123D01*
X134911100Y-26315279D01*
X134900005Y-26324121D01*
X134895067Y-26326497D01*
X134889472Y-26330006D01*
X134885178Y-26333422D01*
X134872384Y-26339565D01*
X134863520Y-26350649D01*
X134859522Y-26353829D01*
X134854074Y-26359268D01*
X134850886Y-26363261D01*
X134839788Y-26372105D01*
X134833624Y-26384885D01*
X134830203Y-26389170D01*
X134826684Y-26394759D01*
X134824297Y-26399696D01*
X134815435Y-26410778D01*
X134812256Y-26424604D01*
X134810032Y-26429204D01*
X134807478Y-26436478D01*
X134806338Y-26441454D01*
X134800174Y-26454234D01*
X134800162Y-26468771D01*
X134800155Y-26476646D01*
X134800111Y-26477417D01*
X134800000Y-26477899D01*
X131199958Y-26477899D01*
X131199932Y-26477784D01*
X131199887Y-26476964D01*
X131199894Y-26468771D01*
X131199894Y-26468770D01*
X131199906Y-26454583D01*
X131193766Y-26441795D01*
X131192635Y-26436818D01*
X131190089Y-26429529D01*
X131187877Y-26424932D01*
X131184721Y-26411100D01*
X131175879Y-26400005D01*
X131173503Y-26395067D01*
X131169994Y-26389472D01*
X131166578Y-26385178D01*
X131160435Y-26372384D01*
X131149351Y-26363520D01*
X131146171Y-26359522D01*
X131140732Y-26354074D01*
X131136739Y-26350886D01*
X131127895Y-26339788D01*
X131115115Y-26333624D01*
X131110830Y-26330203D01*
X131105241Y-26326684D01*
X131100304Y-26324297D01*
X131089222Y-26315435D01*
X131075396Y-26312256D01*
X131070796Y-26310032D01*
X131063522Y-26307478D01*
X131058546Y-26306338D01*
X131045766Y-26300174D01*
X131023345Y-26300155D01*
X131022583Y-26300111D01*
X131022101Y-26300000D01*
X116978081Y-26300000D01*
X116977784Y-26300068D01*
X116976964Y-26300113D01*
X116968771Y-26300106D01*
X116968770Y-26300106D01*
X116954583Y-26300094D01*
X116941795Y-26306234D01*
X116936818Y-26307365D01*
X116929529Y-26309911D01*
X116924932Y-26312123D01*
X116911100Y-26315279D01*
X116900005Y-26324121D01*
X116895067Y-26326497D01*
X116889472Y-26330006D01*
X116885178Y-26333422D01*
X116872384Y-26339565D01*
X116863520Y-26350649D01*
X116859522Y-26353829D01*
X116854074Y-26359268D01*
X116850886Y-26363261D01*
X116839788Y-26372105D01*
X116833624Y-26384885D01*
X116830203Y-26389170D01*
X116826684Y-26394759D01*
X116824297Y-26399696D01*
X116815435Y-26410778D01*
X116812256Y-26424604D01*
X116810032Y-26429204D01*
X116807478Y-26436478D01*
X116806338Y-26441454D01*
X116800174Y-26454234D01*
X116800162Y-26468771D01*
X116800155Y-26476646D01*
X116800111Y-26477417D01*
X116800000Y-26477899D01*
X113199958Y-26477899D01*
X113199932Y-26477784D01*
X113199887Y-26476964D01*
X113199894Y-26468771D01*
X113199894Y-26468770D01*
X113199906Y-26454583D01*
X113193766Y-26441795D01*
X113192635Y-26436818D01*
X113190089Y-26429529D01*
X113187877Y-26424932D01*
X113184721Y-26411100D01*
X113175879Y-26400005D01*
X113173503Y-26395067D01*
X113169994Y-26389472D01*
X113166578Y-26385178D01*
X113160435Y-26372384D01*
X113149351Y-26363520D01*
X113146171Y-26359522D01*
X113140732Y-26354074D01*
X113136739Y-26350886D01*
X113127895Y-26339788D01*
X113115115Y-26333624D01*
X113110830Y-26330203D01*
X113105241Y-26326684D01*
X113100304Y-26324297D01*
X113089222Y-26315435D01*
X113075396Y-26312256D01*
X113070796Y-26310032D01*
X113063522Y-26307478D01*
X113058546Y-26306338D01*
X113045766Y-26300174D01*
X113023345Y-26300155D01*
X113022583Y-26300111D01*
X113022101Y-26300000D01*
X98978081Y-26300000D01*
X98977784Y-26300068D01*
X98976964Y-26300113D01*
X98968771Y-26300106D01*
X98968770Y-26300106D01*
X98954583Y-26300094D01*
X98941795Y-26306234D01*
X98936818Y-26307365D01*
X98929529Y-26309911D01*
X98924932Y-26312123D01*
X98911100Y-26315279D01*
X98900005Y-26324121D01*
X98895067Y-26326497D01*
X98889472Y-26330006D01*
X98885178Y-26333422D01*
X98872384Y-26339565D01*
X98863520Y-26350649D01*
X98859522Y-26353829D01*
X98854074Y-26359268D01*
X98850886Y-26363261D01*
X98839788Y-26372105D01*
X98833624Y-26384885D01*
X98830203Y-26389170D01*
X98826684Y-26394759D01*
X98824297Y-26399696D01*
X98815435Y-26410778D01*
X98812256Y-26424604D01*
X98810032Y-26429204D01*
X98807478Y-26436478D01*
X98806338Y-26441454D01*
X98800174Y-26454234D01*
X98800162Y-26468771D01*
X98800155Y-26476646D01*
X98800111Y-26477417D01*
X98800000Y-26477899D01*
X95199958Y-26477899D01*
X95199932Y-26477784D01*
X95199887Y-26476964D01*
X95199894Y-26468771D01*
X95199894Y-26468770D01*
X95199906Y-26454583D01*
X95193766Y-26441795D01*
X95192635Y-26436818D01*
X95190089Y-26429529D01*
X95187877Y-26424932D01*
X95184721Y-26411100D01*
X95175879Y-26400005D01*
X95173503Y-26395067D01*
X95169994Y-26389472D01*
X95166578Y-26385178D01*
X95160435Y-26372384D01*
X95149351Y-26363520D01*
X95146171Y-26359522D01*
X95140732Y-26354074D01*
X95136739Y-26350886D01*
X95127895Y-26339788D01*
X95115115Y-26333624D01*
X95110830Y-26330203D01*
X95105241Y-26326684D01*
X95100304Y-26324297D01*
X95089222Y-26315435D01*
X95075396Y-26312256D01*
X95070796Y-26310032D01*
X95063522Y-26307478D01*
X95058546Y-26306338D01*
X95045766Y-26300174D01*
X95023345Y-26300155D01*
X95022583Y-26300111D01*
X95022101Y-26300000D01*
X80978081Y-26300000D01*
X80977784Y-26300068D01*
X80976964Y-26300113D01*
X80968771Y-26300106D01*
X80968770Y-26300106D01*
X80954583Y-26300094D01*
X80941795Y-26306234D01*
X80936818Y-26307365D01*
X80929529Y-26309911D01*
X80924932Y-26312123D01*
X80911100Y-26315279D01*
X80900005Y-26324121D01*
X80895067Y-26326497D01*
X80889472Y-26330006D01*
X80885178Y-26333422D01*
X80872384Y-26339565D01*
X80863520Y-26350649D01*
X80859522Y-26353829D01*
X80854074Y-26359268D01*
X80850886Y-26363261D01*
X80839788Y-26372105D01*
X80833624Y-26384885D01*
X80830203Y-26389170D01*
X80826684Y-26394759D01*
X80824297Y-26399696D01*
X80815435Y-26410778D01*
X80812256Y-26424604D01*
X80810032Y-26429204D01*
X80807478Y-26436478D01*
X80806338Y-26441454D01*
X80800174Y-26454234D01*
X80800162Y-26468771D01*
X80800155Y-26476646D01*
X80800111Y-26477417D01*
X80800000Y-26477899D01*
X77199958Y-26477899D01*
X77199932Y-26477784D01*
X77199887Y-26476964D01*
X77199894Y-26468771D01*
X77199894Y-26468770D01*
X77199906Y-26454583D01*
X77193766Y-26441795D01*
X77192635Y-26436818D01*
X77190089Y-26429529D01*
X77187877Y-26424932D01*
X77184721Y-26411100D01*
X77175879Y-26400005D01*
X77173503Y-26395067D01*
X77169994Y-26389472D01*
X77166578Y-26385178D01*
X77160435Y-26372384D01*
X77149351Y-26363520D01*
X77146171Y-26359522D01*
X77140732Y-26354074D01*
X77136739Y-26350886D01*
X77127895Y-26339788D01*
X77115115Y-26333624D01*
X77110830Y-26330203D01*
X77105241Y-26326684D01*
X77100304Y-26324297D01*
X77089222Y-26315435D01*
X77075396Y-26312256D01*
X77070796Y-26310032D01*
X77063522Y-26307478D01*
X77058546Y-26306338D01*
X77045766Y-26300174D01*
X77023345Y-26300155D01*
X77022583Y-26300111D01*
X77022101Y-26300000D01*
X62978081Y-26300000D01*
X62977784Y-26300068D01*
X62976964Y-26300113D01*
X62968771Y-26300106D01*
X62968770Y-26300106D01*
X62954583Y-26300094D01*
X62941795Y-26306234D01*
X62936818Y-26307365D01*
X62929529Y-26309911D01*
X62924932Y-26312123D01*
X62911100Y-26315279D01*
X62900005Y-26324121D01*
X62895067Y-26326497D01*
X62889472Y-26330006D01*
X62885178Y-26333422D01*
X62872384Y-26339565D01*
X62863520Y-26350649D01*
X62859522Y-26353829D01*
X62854074Y-26359268D01*
X62850886Y-26363261D01*
X62839788Y-26372105D01*
X62833624Y-26384885D01*
X62830203Y-26389170D01*
X62826684Y-26394759D01*
X62824297Y-26399696D01*
X62815435Y-26410778D01*
X62812256Y-26424604D01*
X62810032Y-26429204D01*
X62807478Y-26436478D01*
X62806338Y-26441454D01*
X62800174Y-26454234D01*
X62800162Y-26468771D01*
X62800155Y-26476646D01*
X62800111Y-26477417D01*
X62800000Y-26477899D01*
X59199958Y-26477899D01*
X59199932Y-26477784D01*
X59199887Y-26476964D01*
X59199894Y-26468771D01*
X59199894Y-26468770D01*
X59199906Y-26454583D01*
X59193766Y-26441795D01*
X59192635Y-26436818D01*
X59190089Y-26429529D01*
X59187877Y-26424932D01*
X59184721Y-26411100D01*
X59175879Y-26400005D01*
X59173503Y-26395067D01*
X59169994Y-26389472D01*
X59166578Y-26385178D01*
X59160435Y-26372384D01*
X59149351Y-26363520D01*
X59146171Y-26359522D01*
X59140732Y-26354074D01*
X59136739Y-26350886D01*
X59127895Y-26339788D01*
X59115115Y-26333624D01*
X59110830Y-26330203D01*
X59105241Y-26326684D01*
X59100304Y-26324297D01*
X59089222Y-26315435D01*
X59075396Y-26312256D01*
X59070796Y-26310032D01*
X59063522Y-26307478D01*
X59058546Y-26306338D01*
X59045766Y-26300174D01*
X59023345Y-26300155D01*
X59022583Y-26300111D01*
X59022101Y-26300000D01*
X44978081Y-26300000D01*
X44977784Y-26300068D01*
X44976964Y-26300113D01*
X44968771Y-26300106D01*
X44968770Y-26300106D01*
X44954583Y-26300094D01*
X44941795Y-26306234D01*
X44936818Y-26307365D01*
X44929529Y-26309911D01*
X44924932Y-26312123D01*
X44911100Y-26315279D01*
X44900005Y-26324121D01*
X44895067Y-26326497D01*
X44889472Y-26330006D01*
X44885178Y-26333422D01*
X44872384Y-26339565D01*
X44863520Y-26350649D01*
X44859522Y-26353829D01*
X44854074Y-26359268D01*
X44850886Y-26363261D01*
X44839788Y-26372105D01*
X44833624Y-26384885D01*
X44830203Y-26389170D01*
X44826684Y-26394759D01*
X44824297Y-26399696D01*
X44815435Y-26410778D01*
X44812256Y-26424604D01*
X44810032Y-26429204D01*
X44807478Y-26436478D01*
X44806338Y-26441454D01*
X44800174Y-26454234D01*
X44800162Y-26468771D01*
X44800155Y-26476646D01*
X44800111Y-26477417D01*
X44800000Y-26477899D01*
X41199958Y-26477899D01*
X41199932Y-26477784D01*
X41199887Y-26476964D01*
X41199894Y-26468771D01*
X41199894Y-26468770D01*
X41199906Y-26454583D01*
X41193766Y-26441795D01*
X41192635Y-26436818D01*
X41190089Y-26429529D01*
X41187877Y-26424932D01*
X41184721Y-26411100D01*
X41175879Y-26400005D01*
X41173503Y-26395067D01*
X41169994Y-26389472D01*
X41166578Y-26385178D01*
X41160435Y-26372384D01*
X41149351Y-26363520D01*
X41146171Y-26359522D01*
X41140732Y-26354074D01*
X41136739Y-26350886D01*
X41127895Y-26339788D01*
X41115115Y-26333624D01*
X41110830Y-26330203D01*
X41105241Y-26326684D01*
X41100304Y-26324297D01*
X41089222Y-26315435D01*
X41075396Y-26312256D01*
X41070796Y-26310032D01*
X41063522Y-26307478D01*
X41058546Y-26306338D01*
X41045766Y-26300174D01*
X41023345Y-26300155D01*
X41022583Y-26300111D01*
X41022101Y-26300000D01*
X26978081Y-26300000D01*
X26977784Y-26300068D01*
X26976964Y-26300113D01*
X26968771Y-26300106D01*
X26968770Y-26300106D01*
X26954583Y-26300094D01*
X26941795Y-26306234D01*
X26936818Y-26307365D01*
X26929529Y-26309911D01*
X26924932Y-26312123D01*
X26911100Y-26315279D01*
X26900005Y-26324121D01*
X26895067Y-26326497D01*
X26889472Y-26330006D01*
X26885178Y-26333422D01*
X26872384Y-26339565D01*
X26863520Y-26350649D01*
X26859522Y-26353829D01*
X26854074Y-26359268D01*
X26850886Y-26363261D01*
X26839788Y-26372105D01*
X26833624Y-26384885D01*
X26830203Y-26389170D01*
X26826684Y-26394759D01*
X26824297Y-26399696D01*
X26815435Y-26410778D01*
X26812256Y-26424604D01*
X26810032Y-26429204D01*
X26807478Y-26436478D01*
X26806338Y-26441454D01*
X26800174Y-26454234D01*
X26800162Y-26468771D01*
X26800155Y-26476646D01*
X26800111Y-26477417D01*
X26800000Y-26477899D01*
X20200000Y-26477899D01*
X20200000Y-23059191D01*
X20202444Y-23038856D01*
X20202104Y-23038813D01*
X20203001Y-23031741D01*
X20204690Y-23024817D01*
X20205018Y-23000000D01*
X21694500Y-23000000D01*
X21714333Y-23226698D01*
X21773231Y-23446507D01*
X21775553Y-23451488D01*
X21775554Y-23451489D01*
X21867078Y-23647763D01*
X21867081Y-23647768D01*
X21869404Y-23652750D01*
X21999929Y-23839159D01*
X22160841Y-24000071D01*
X22165349Y-24003228D01*
X22165352Y-24003230D01*
X22342741Y-24127439D01*
X22347250Y-24130596D01*
X22352232Y-24132919D01*
X22352237Y-24132922D01*
X22548511Y-24224446D01*
X22553493Y-24226769D01*
X22558801Y-24228191D01*
X22558803Y-24228192D01*
X22626664Y-24246375D01*
X22773302Y-24285667D01*
X23000000Y-24305500D01*
X23226698Y-24285667D01*
X23373336Y-24246375D01*
X23441197Y-24228192D01*
X23441199Y-24228191D01*
X23446507Y-24226769D01*
X23451489Y-24224446D01*
X23647763Y-24132922D01*
X23647768Y-24132919D01*
X23652750Y-24130596D01*
X23657259Y-24127439D01*
X23834648Y-24003230D01*
X23834651Y-24003228D01*
X23839159Y-24000071D01*
X24000071Y-23839159D01*
X24130596Y-23652750D01*
X24132919Y-23647768D01*
X24132922Y-23647763D01*
X24224446Y-23451489D01*
X24224447Y-23451488D01*
X24226769Y-23446507D01*
X24285667Y-23226698D01*
X24305500Y-23000000D01*
X241694500Y-23000000D01*
X241714333Y-23226698D01*
X241773231Y-23446507D01*
X241775553Y-23451488D01*
X241775554Y-23451489D01*
X241867078Y-23647763D01*
X241867081Y-23647768D01*
X241869404Y-23652750D01*
X241999929Y-23839159D01*
X242160841Y-24000071D01*
X242165349Y-24003228D01*
X242165352Y-24003230D01*
X242342741Y-24127439D01*
X242347250Y-24130596D01*
X242352232Y-24132919D01*
X242352237Y-24132922D01*
X242548511Y-24224446D01*
X242553493Y-24226769D01*
X242558801Y-24228191D01*
X242558803Y-24228192D01*
X242626664Y-24246375D01*
X242773302Y-24285667D01*
X243000000Y-24305500D01*
X243226698Y-24285667D01*
X243373336Y-24246375D01*
X243441197Y-24228192D01*
X243441199Y-24228191D01*
X243446507Y-24226769D01*
X243451489Y-24224446D01*
X243647763Y-24132922D01*
X243647768Y-24132919D01*
X243652750Y-24130596D01*
X243657259Y-24127439D01*
X243834648Y-24003230D01*
X243834651Y-24003228D01*
X243839159Y-24000071D01*
X244000071Y-23839159D01*
X244130596Y-23652750D01*
X244132919Y-23647768D01*
X244132922Y-23647763D01*
X244224446Y-23451489D01*
X244224447Y-23451488D01*
X244226769Y-23446507D01*
X244285667Y-23226698D01*
X244305500Y-23000000D01*
X244285667Y-22773302D01*
X244230811Y-22568579D01*
X244228192Y-22558803D01*
X244228191Y-22558801D01*
X244226769Y-22553493D01*
X244199506Y-22495028D01*
X244132922Y-22352237D01*
X244132919Y-22352232D01*
X244130596Y-22347250D01*
X244127439Y-22342741D01*
X244003230Y-22165352D01*
X244003228Y-22165349D01*
X244000071Y-22160841D01*
X243839159Y-21999929D01*
X243834651Y-21996772D01*
X243834648Y-21996770D01*
X243657259Y-21872561D01*
X243657257Y-21872560D01*
X243652750Y-21869404D01*
X243647768Y-21867081D01*
X243647763Y-21867078D01*
X243451489Y-21775554D01*
X243451488Y-21775553D01*
X243446507Y-21773231D01*
X243441199Y-21771809D01*
X243441197Y-21771808D01*
X243373165Y-21753579D01*
X243226698Y-21714333D01*
X243000000Y-21694500D01*
X242773302Y-21714333D01*
X242626835Y-21753579D01*
X242558803Y-21771808D01*
X242558801Y-21771809D01*
X242553493Y-21773231D01*
X242548512Y-21775553D01*
X242548511Y-21775554D01*
X242352237Y-21867078D01*
X242352232Y-21867081D01*
X242347250Y-21869404D01*
X242342743Y-21872560D01*
X242342741Y-21872561D01*
X242165352Y-21996770D01*
X242165349Y-21996772D01*
X242160841Y-21999929D01*
X241999929Y-22160841D01*
X241996772Y-22165349D01*
X241996770Y-22165352D01*
X241872561Y-22342741D01*
X241869404Y-22347250D01*
X241867081Y-22352232D01*
X241867078Y-22352237D01*
X241800494Y-22495028D01*
X241773231Y-22553493D01*
X241771809Y-22558801D01*
X241771808Y-22558803D01*
X241769189Y-22568579D01*
X241714333Y-22773302D01*
X241694500Y-23000000D01*
X24305500Y-23000000D01*
X24285667Y-22773302D01*
X24230811Y-22568579D01*
X24228192Y-22558803D01*
X24228191Y-22558801D01*
X24226769Y-22553493D01*
X24199506Y-22495028D01*
X24132922Y-22352237D01*
X24132919Y-22352232D01*
X24130596Y-22347250D01*
X24127439Y-22342741D01*
X24003230Y-22165352D01*
X24003228Y-22165349D01*
X24000071Y-22160841D01*
X23839159Y-21999929D01*
X23834651Y-21996772D01*
X23834648Y-21996770D01*
X23657259Y-21872561D01*
X23657257Y-21872560D01*
X23652750Y-21869404D01*
X23647768Y-21867081D01*
X23647763Y-21867078D01*
X23451489Y-21775554D01*
X23451488Y-21775553D01*
X23446507Y-21773231D01*
X23441199Y-21771809D01*
X23441197Y-21771808D01*
X23373165Y-21753579D01*
X23226698Y-21714333D01*
X23000000Y-21694500D01*
X22773302Y-21714333D01*
X22626835Y-21753579D01*
X22558803Y-21771808D01*
X22558801Y-21771809D01*
X22553493Y-21773231D01*
X22548512Y-21775553D01*
X22548511Y-21775554D01*
X22352237Y-21867078D01*
X22352232Y-21867081D01*
X22347250Y-21869404D01*
X22342743Y-21872560D01*
X22342741Y-21872561D01*
X22165352Y-21996770D01*
X22165349Y-21996772D01*
X22160841Y-21999929D01*
X21999929Y-22160841D01*
X21996772Y-22165349D01*
X21996770Y-22165352D01*
X21872561Y-22342741D01*
X21869404Y-22347250D01*
X21867081Y-22352232D01*
X21867078Y-22352237D01*
X21800494Y-22495028D01*
X21773231Y-22553493D01*
X21771809Y-22558801D01*
X21771808Y-22558803D01*
X21769189Y-22568579D01*
X21714333Y-22773302D01*
X21694500Y-23000000D01*
X20205018Y-23000000D01*
X20206429Y-22893169D01*
X20206614Y-22887831D01*
X20210812Y-22813082D01*
X20211406Y-22806042D01*
X20238164Y-22568557D01*
X20239149Y-22561580D01*
X20249279Y-22501960D01*
X20250652Y-22495062D01*
X20303836Y-22262046D01*
X20305601Y-22255204D01*
X20312751Y-22230386D01*
X20322338Y-22197106D01*
X20324469Y-22190420D01*
X20403412Y-21964816D01*
X20405932Y-21958214D01*
X20429068Y-21902359D01*
X20431955Y-21895908D01*
X20535638Y-21680608D01*
X20538874Y-21674344D01*
X20568143Y-21621385D01*
X20571702Y-21615353D01*
X20698851Y-21412995D01*
X20702774Y-21407123D01*
X20737777Y-21357791D01*
X20742028Y-21352144D01*
X20891029Y-21165304D01*
X20895588Y-21159905D01*
X20935870Y-21114829D01*
X20940726Y-21109693D01*
X21109701Y-20940718D01*
X21114828Y-20935870D01*
X21159930Y-20895564D01*
X21165308Y-20891023D01*
X21201108Y-20862474D01*
X21352140Y-20742030D01*
X21357787Y-20737780D01*
X21407119Y-20702777D01*
X21412995Y-20698851D01*
X21413000Y-20698848D01*
X21615333Y-20571713D01*
X21621373Y-20568150D01*
X21674345Y-20538873D01*
X21680606Y-20535639D01*
X21737141Y-20508413D01*
X21895937Y-20431941D01*
X21902339Y-20429076D01*
X21944699Y-20411530D01*
X21958217Y-20405931D01*
X21964818Y-20403412D01*
X22190394Y-20324479D01*
X22197128Y-20322332D01*
X22255220Y-20305596D01*
X22262063Y-20303831D01*
X22495028Y-20250658D01*
X22501960Y-20249279D01*
X22561580Y-20239149D01*
X22568574Y-20238162D01*
X22630310Y-20231206D01*
X22806057Y-20211405D01*
X22813099Y-20210811D01*
X22887793Y-20206616D01*
X22893194Y-20206429D01*
X22899100Y-20206351D01*
X23024625Y-20204693D01*
X23031501Y-20203029D01*
X23038514Y-20202145D01*
X23038552Y-20202445D01*
X23059044Y-20200000D01*
X242940809Y-20200000D01*
X242961144Y-20202444D01*
G37*
%TD.AperFunction*%
M02*
