M48
; DRILL file {KiCad (5.99.0-9650-gad505e29c0)} date 03/23/21 23:02:51
; FORMAT={-:-/ absolute / inch / decimal}
; #@! TF.CreationDate,2021-03-23T23:02:51-07:00
; #@! TF.GenerationSoftware,Kicad,Pcbnew,(5.99.0-9650-gad505e29c0)
; #@! TF.FileFunction,Plated,1,2,PTH
FMAT,2
INCH
; #@! TA.AperFunction,ViaDrill
T1C0.0157
; #@! TA.AperFunction,ComponentDrill
T2C0.0236
; #@! TA.AperFunction,ComponentDrill
T3C0.0472
%
G90
G05
T1
; via hole
X3.7992Y-2.9705
X4.5079Y-2.9705
X4.561Y-3.2402
X4.6457Y-2.9921
X4.6467Y-3.185
X4.8583Y-3.1693
X4.9094Y-3.4469
X4.9547Y-2.9321
X5.1181Y-1.4016
X5.1319Y-1.6024
X5.1457Y-1.0344
X5.188Y-2.9429
X5.1929Y-1.4016
X5.2047Y-1.626
X5.252Y-1.6929
X5.3091Y-2.2736
X5.3268Y-1.0335
X5.5423Y-2.2736
X5.8406Y-1.6024
X5.9252Y-3.2673
X6.0276Y-3.4016
X6.6319Y-2.9705
X7.3425Y-3.1024
X8.0512Y-2.9705
T3
; pad hole
X1.1417Y-1.4685
X1.2303Y-2.1378
X1.2303Y-3.4764
X1.3386Y-1.5512
X1.4075Y-2.8071
X1.4272Y-2.2205
X1.4272Y-3.5591
X1.6043Y-2.8898
X1.8504Y-1.4685
X2.0276Y-2.1378
X2.0276Y-3.4764
X2.0472Y-1.5512
X2.2244Y-2.2205
X2.2244Y-3.5591
X2.3819Y-2.8071
X2.5591Y-1.4685
X2.5787Y-2.8898
X2.7362Y-2.1378
X2.7362Y-3.4764
X2.7559Y-1.5512
X2.9331Y-2.2205
X2.9331Y-3.5591
X3.0906Y-2.8071
X3.2677Y-1.4685
X3.2874Y-2.8898
X3.4449Y-2.1378
X3.4646Y-1.5512
X3.6417Y-2.2205
X3.7992Y-2.8071
X3.9764Y-1.4685
X3.9961Y-2.8898
X4.1535Y-2.1378
X4.1732Y-1.5512
X4.3504Y-2.2205
X4.5079Y-2.8071
X4.685Y-1.4685
X4.7047Y-2.8898
X4.8622Y-2.1378
X4.8819Y-1.5512
X5.0591Y-2.2205
X5.2165Y-2.8071
X5.3051Y-3.4764
X5.3937Y-1.4685
X5.4134Y-2.8898
X5.502Y-3.5591
X5.5709Y-2.1378
X5.5906Y-1.5512
X5.7677Y-2.2205
X5.9252Y-2.8071
X6.1024Y-1.4685
X6.122Y-2.8898
X6.2795Y-2.1378
X6.2992Y-1.5512
X6.4764Y-2.2205
X6.6339Y-2.8071
X6.811Y-1.4685
X6.8307Y-2.8898
X6.9882Y-2.1378
X7.0079Y-1.5512
X7.185Y-2.2205
X7.3425Y-2.8071
X7.5197Y-1.4685
X7.5394Y-2.8898
X7.6969Y-2.1378
X7.7165Y-1.5512
X7.8937Y-2.2205
X7.9626Y-3.4764
X8.0512Y-2.8071
X8.1594Y-3.5591
X8.2283Y-1.4685
X8.248Y-2.8898
X8.4252Y-1.5512
X8.6713Y-2.1378
X8.8484Y-2.8071
X8.8484Y-3.4764
X8.8681Y-2.2205
X8.937Y-1.4685
X9.0453Y-2.8898
X9.0453Y-3.5591
X9.1339Y-1.5512
T2
; pad hole
G00X5.0661Y-0.914
M15
G01X5.0661Y-0.9376
M16
G05
G00X5.0661Y-1.0687
M15
G01X5.0661Y-1.112
M16
G05
G00X5.4063Y-0.914
M15
G01X5.4063Y-0.9376
M16
G05
G00X5.4063Y-1.0687
M15
G01X5.4063Y-1.112
M16
G05
T0
M30
