%TF.GenerationSoftware,KiCad,Pcbnew,(5.99.0-9650-gad505e29c0)*%
%TF.CreationDate,2021-03-23T23:02:50-07:00*%
%TF.ProjectId,Choc40,43686f63-3430-42e6-9b69-6361645f7063,rev?*%
%TF.SameCoordinates,Original*%
%TF.FileFunction,Soldermask,Bot*%
%TF.FilePolarity,Negative*%
%FSLAX46Y46*%
G04 Gerber Fmt 4.6, Leading zero omitted, Abs format (unit mm)*
G04 Created by KiCad (PCBNEW (5.99.0-9650-gad505e29c0)) date 2021-03-23 23:02:50*
%MOMM*%
%LPD*%
G01*
G04 APERTURE LIST*
G04 Aperture macros list*
%AMRoundRect*
0 Rectangle with rounded corners*
0 $1 Rounding radius*
0 $2 $3 $4 $5 $6 $7 $8 $9 X,Y pos of 4 corners*
0 Add a 4 corners polygon primitive as box body*
4,1,4,$2,$3,$4,$5,$6,$7,$8,$9,$2,$3,0*
0 Add four circle primitives for the rounded corners*
1,1,$1+$1,$2,$3*
1,1,$1+$1,$4,$5*
1,1,$1+$1,$6,$7*
1,1,$1+$1,$8,$9*
0 Add four rect primitives between the rounded corners*
20,1,$1+$1,$2,$3,$4,$5,0*
20,1,$1+$1,$4,$5,$6,$7,0*
20,1,$1+$1,$6,$7,$8,$9,0*
20,1,$1+$1,$8,$9,$2,$3,0*%
G04 Aperture macros list end*
%ADD10C,1.700000*%
%ADD11C,3.400000*%
%ADD12C,2.000000*%
%ADD13R,0.900000X1.200000*%
%ADD14C,0.650000*%
%ADD15R,0.600000X1.450000*%
%ADD16R,0.300000X1.450000*%
%ADD17RoundRect,0.218750X0.256250X-0.218750X0.256250X0.218750X-0.256250X0.218750X-0.256250X-0.218750X0*%
%ADD18RoundRect,0.218750X0.218750X0.256250X-0.218750X0.256250X-0.218750X-0.256250X0.218750X-0.256250X0*%
%ADD19RoundRect,0.218750X-0.218750X-0.256250X0.218750X-0.256250X0.218750X0.256250X-0.218750X0.256250X0*%
%ADD20RoundRect,0.218750X-0.256250X0.218750X-0.256250X-0.218750X0.256250X-0.218750X0.256250X0.218750X0*%
%ADD21R,1.400000X1.200000*%
%ADD22R,1.400000X1.000000*%
%ADD23RoundRect,0.250000X0.625000X-0.375000X0.625000X0.375000X-0.625000X0.375000X-0.625000X-0.375000X0*%
%ADD24R,1.800000X1.100000*%
%ADD25R,1.900000X0.400000*%
%ADD26RoundRect,0.062500X0.375000X0.062500X-0.375000X0.062500X-0.375000X-0.062500X0.375000X-0.062500X0*%
%ADD27RoundRect,0.062500X0.062500X0.375000X-0.062500X0.375000X-0.062500X-0.375000X0.062500X-0.375000X0*%
%ADD28RoundRect,0.249999X1.300001X1.300001X-1.300001X1.300001X-1.300001X-1.300001X1.300001X-1.300001X0*%
G04 APERTURE END LIST*
D10*
%TO.C,SW1*%
X28500000Y-33500000D03*
X39500000Y-33500000D03*
D11*
X34000000Y-33500000D03*
D12*
X34000000Y-39400000D03*
X29000000Y-37300000D03*
%TD*%
D10*
%TO.C,SW39*%
X201750000Y-84500000D03*
D11*
X207250000Y-84500000D03*
D10*
X212750000Y-84500000D03*
D12*
X207250000Y-90400000D03*
X202250000Y-88300000D03*
%TD*%
D10*
%TO.C,SW27*%
X96000000Y-67500000D03*
D11*
X101500000Y-67500000D03*
D10*
X107000000Y-67500000D03*
D12*
X101500000Y-73400000D03*
X96500000Y-71300000D03*
%TD*%
D10*
%TO.C,SW32*%
X197000000Y-67500000D03*
D11*
X191500000Y-67500000D03*
D10*
X186000000Y-67500000D03*
D12*
X191500000Y-73400000D03*
X186500000Y-71300000D03*
%TD*%
D10*
%TO.C,SW7*%
X147500000Y-33500000D03*
X136500000Y-33500000D03*
D11*
X142000000Y-33500000D03*
D12*
X142000000Y-39400000D03*
X137000000Y-37300000D03*
%TD*%
D11*
%TO.C,SW4*%
X88000000Y-33500000D03*
D10*
X82500000Y-33500000D03*
X93500000Y-33500000D03*
D12*
X88000000Y-39400000D03*
X83000000Y-37300000D03*
%TD*%
D11*
%TO.C,SW12*%
X232000000Y-33500000D03*
D10*
X237500000Y-33500000D03*
X226500000Y-33500000D03*
D12*
X232000000Y-39400000D03*
X227000000Y-37300000D03*
%TD*%
D11*
%TO.C,SW40*%
X229750000Y-84500000D03*
D10*
X224250000Y-84500000D03*
X235250000Y-84500000D03*
D12*
X229750000Y-90400000D03*
X224750000Y-88300000D03*
%TD*%
D11*
%TO.C,SW33a1*%
X209500000Y-67500000D03*
D10*
X204000000Y-67500000D03*
X215000000Y-67500000D03*
D12*
X209500000Y-73400000D03*
X204500000Y-71300000D03*
%TD*%
D10*
%TO.C,SW11*%
X208500000Y-33500000D03*
X219500000Y-33500000D03*
D11*
X214000000Y-33500000D03*
D12*
X214000000Y-39400000D03*
X209000000Y-37300000D03*
%TD*%
D10*
%TO.C,SW37*%
X80000000Y-84500000D03*
X69000000Y-84500000D03*
D11*
X74500000Y-84500000D03*
D12*
X74500000Y-90400000D03*
X69500000Y-88300000D03*
%TD*%
D10*
%TO.C,SW17*%
X105000000Y-50500000D03*
X116000000Y-50500000D03*
D11*
X110500000Y-50500000D03*
D12*
X110500000Y-56400000D03*
X105500000Y-54300000D03*
%TD*%
D10*
%TO.C,SW5*%
X100500000Y-33500000D03*
X111500000Y-33500000D03*
D11*
X106000000Y-33500000D03*
D12*
X106000000Y-39400000D03*
X101000000Y-37300000D03*
%TD*%
D11*
%TO.C,SW30*%
X155500000Y-67500000D03*
D10*
X150000000Y-67500000D03*
X161000000Y-67500000D03*
D12*
X155500000Y-73400000D03*
X150500000Y-71300000D03*
%TD*%
D10*
%TO.C,SW35*%
X30750000Y-84500000D03*
D11*
X36250000Y-84500000D03*
D10*
X41750000Y-84500000D03*
D12*
X36250000Y-90400000D03*
X31250000Y-88300000D03*
%TD*%
D10*
%TO.C,SW20*%
X159000000Y-50500000D03*
D11*
X164500000Y-50500000D03*
D10*
X170000000Y-50500000D03*
D12*
X164500000Y-56400000D03*
X159500000Y-54300000D03*
%TD*%
D10*
%TO.C,SW21*%
X177000000Y-50500000D03*
X188000000Y-50500000D03*
D11*
X182500000Y-50500000D03*
D12*
X182500000Y-56400000D03*
X177500000Y-54300000D03*
%TD*%
D10*
%TO.C,SW18*%
X123000000Y-50500000D03*
D11*
X128500000Y-50500000D03*
D10*
X134000000Y-50500000D03*
D12*
X128500000Y-56400000D03*
X123500000Y-54300000D03*
%TD*%
D10*
%TO.C,SW26*%
X78000000Y-67500000D03*
X89000000Y-67500000D03*
D11*
X83500000Y-67500000D03*
D12*
X83500000Y-73400000D03*
X78500000Y-71300000D03*
%TD*%
D10*
%TO.C,SW23*%
X230750000Y-50500000D03*
X219750000Y-50500000D03*
D11*
X225250000Y-50500000D03*
D12*
X225250000Y-56400000D03*
X220250000Y-54300000D03*
%TD*%
D10*
%TO.C,SW36*%
X62000000Y-84500000D03*
D11*
X56500000Y-84500000D03*
D10*
X51000000Y-84500000D03*
D12*
X56500000Y-90400000D03*
X51500000Y-88300000D03*
%TD*%
D10*
%TO.C,SW31*%
X168000000Y-67500000D03*
X179000000Y-67500000D03*
D11*
X173500000Y-67500000D03*
D12*
X173500000Y-73400000D03*
X168500000Y-71300000D03*
%TD*%
D11*
%TO.C,SW15*%
X74500000Y-50500000D03*
D10*
X69000000Y-50500000D03*
X80000000Y-50500000D03*
D12*
X74500000Y-56400000D03*
X69500000Y-54300000D03*
%TD*%
D10*
%TO.C,SW13*%
X41750000Y-50500000D03*
X30750000Y-50500000D03*
D11*
X36250000Y-50500000D03*
D12*
X36250000Y-56400000D03*
X31250000Y-54300000D03*
%TD*%
D10*
%TO.C,SW29*%
X132000000Y-67500000D03*
X143000000Y-67500000D03*
D11*
X137500000Y-67500000D03*
D12*
X137500000Y-73400000D03*
X132500000Y-71300000D03*
%TD*%
D10*
%TO.C,SW9*%
X172500000Y-33500000D03*
D11*
X178000000Y-33500000D03*
D10*
X183500000Y-33500000D03*
D12*
X178000000Y-39400000D03*
X173000000Y-37300000D03*
%TD*%
D11*
%TO.C,SW8*%
X160000000Y-33500000D03*
D10*
X154500000Y-33500000D03*
X165500000Y-33500000D03*
D12*
X160000000Y-39400000D03*
X155000000Y-37300000D03*
%TD*%
D11*
%TO.C,SW25*%
X65500000Y-67500000D03*
D10*
X71000000Y-67500000D03*
X60000000Y-67500000D03*
D12*
X65500000Y-73400000D03*
X60500000Y-71300000D03*
%TD*%
D10*
%TO.C,SW16*%
X98000000Y-50500000D03*
X87000000Y-50500000D03*
D11*
X92500000Y-50500000D03*
D12*
X92500000Y-56400000D03*
X87500000Y-54300000D03*
%TD*%
D10*
%TO.C,SW3*%
X64500000Y-33500000D03*
D11*
X70000000Y-33500000D03*
D10*
X75500000Y-33500000D03*
D12*
X70000000Y-39400000D03*
X65000000Y-37300000D03*
%TD*%
D11*
%TO.C,SW2*%
X52000000Y-33500000D03*
D10*
X57500000Y-33500000D03*
X46500000Y-33500000D03*
D12*
X52000000Y-39400000D03*
X47000000Y-37300000D03*
%TD*%
D11*
%TO.C,SW34a1*%
X229750000Y-67500000D03*
D10*
X235250000Y-67500000D03*
X224250000Y-67500000D03*
D12*
X229750000Y-73400000D03*
X224750000Y-71300000D03*
%TD*%
D10*
%TO.C,SW24*%
X46250000Y-67500000D03*
X35250000Y-67500000D03*
D11*
X40750000Y-67500000D03*
D12*
X40750000Y-73400000D03*
X35750000Y-71300000D03*
%TD*%
D11*
%TO.C,SW38*%
X139750000Y-84500000D03*
D10*
X134250000Y-84500000D03*
X145250000Y-84500000D03*
D12*
X139750000Y-90400000D03*
X134750000Y-88300000D03*
%TD*%
D10*
%TO.C,SW28*%
X114000000Y-67500000D03*
D11*
X119500000Y-67500000D03*
D10*
X125000000Y-67500000D03*
D12*
X119500000Y-73400000D03*
X114500000Y-71300000D03*
%TD*%
D11*
%TO.C,SW14*%
X56500000Y-50500000D03*
D10*
X62000000Y-50500000D03*
X51000000Y-50500000D03*
D12*
X56500000Y-56400000D03*
X51500000Y-54300000D03*
%TD*%
D10*
%TO.C,SW22*%
X195000000Y-50500000D03*
D11*
X200500000Y-50500000D03*
D10*
X206000000Y-50500000D03*
D12*
X200500000Y-56400000D03*
X195500000Y-54300000D03*
%TD*%
D11*
%TO.C,SW10*%
X196000000Y-33500000D03*
D10*
X190500000Y-33500000D03*
X201500000Y-33500000D03*
D12*
X196000000Y-39400000D03*
X191000000Y-37300000D03*
%TD*%
D10*
%TO.C,SW19*%
X152000000Y-50500000D03*
D11*
X146500000Y-50500000D03*
D10*
X141000000Y-50500000D03*
D12*
X146500000Y-56400000D03*
X141500000Y-54300000D03*
%TD*%
D11*
%TO.C,SW6*%
X124000000Y-33500000D03*
D10*
X129500000Y-33500000D03*
X118500000Y-33500000D03*
D12*
X124000000Y-39400000D03*
X119000000Y-37300000D03*
%TD*%
D13*
%TO.C,D34*%
X236150000Y-73400000D03*
X232850000Y-73400000D03*
%TD*%
D14*
%TO.C,USB1*%
X135890000Y-27165000D03*
X130110000Y-27165000D03*
D15*
X129775000Y-28610000D03*
X130550000Y-28610000D03*
D16*
X131250000Y-28610000D03*
X131750000Y-28610000D03*
X132250000Y-28610000D03*
X132750000Y-28610000D03*
X133250000Y-28610000D03*
X133750000Y-28610000D03*
X134250000Y-28610000D03*
X134750000Y-28610000D03*
D15*
X135450000Y-28610000D03*
X136225000Y-28610000D03*
%TD*%
D13*
%TO.C,D33*%
X215850000Y-73400000D03*
X212550000Y-73400000D03*
%TD*%
%TO.C,D21*%
X188850000Y-56400000D03*
X185550000Y-56400000D03*
%TD*%
%TO.C,D12*%
X238350000Y-39400000D03*
X235050000Y-39400000D03*
%TD*%
%TO.C,D11*%
X220350000Y-39400000D03*
X217050000Y-39400000D03*
%TD*%
%TO.C,D20*%
X170850000Y-56400000D03*
X167550000Y-56400000D03*
%TD*%
%TO.C,D13*%
X42600000Y-56400000D03*
X39300000Y-56400000D03*
%TD*%
D17*
%TO.C,C4*%
X121250000Y-79287500D03*
X121250000Y-77712500D03*
%TD*%
D13*
%TO.C,D18*%
X134850000Y-56400000D03*
X131550000Y-56400000D03*
%TD*%
D17*
%TO.C,R3*%
X132200000Y-40187500D03*
X132200000Y-38612500D03*
%TD*%
D13*
%TO.C,D31*%
X179850000Y-73400000D03*
X176550000Y-73400000D03*
%TD*%
D18*
%TO.C,R5*%
X124787500Y-26500000D03*
X123212500Y-26500000D03*
%TD*%
D13*
%TO.C,D8*%
X166350000Y-39400000D03*
X163050000Y-39400000D03*
%TD*%
D19*
%TO.C,C5*%
X123212500Y-28250000D03*
X124787500Y-28250000D03*
%TD*%
D13*
%TO.C,D29*%
X143850000Y-73400000D03*
X140550000Y-73400000D03*
%TD*%
D19*
%TO.C,R7*%
X141212500Y-28250000D03*
X142787500Y-28250000D03*
%TD*%
D13*
%TO.C,D2*%
X58350000Y-39400000D03*
X55050000Y-39400000D03*
%TD*%
%TO.C,D38*%
X146050000Y-90400000D03*
X142750000Y-90400000D03*
%TD*%
%TO.C,D16*%
X98850000Y-56400000D03*
X95550000Y-56400000D03*
%TD*%
%TO.C,D14*%
X62850000Y-56400000D03*
X59550000Y-56400000D03*
%TD*%
%TO.C,D26*%
X89850000Y-73400000D03*
X86550000Y-73400000D03*
%TD*%
D17*
%TO.C,R2*%
X133800000Y-40187500D03*
X133800000Y-38612500D03*
%TD*%
D13*
%TO.C,D36*%
X62850000Y-90400000D03*
X59550000Y-90400000D03*
%TD*%
D17*
%TO.C,R4*%
X119250000Y-91162500D03*
X119250000Y-89587500D03*
%TD*%
D13*
%TO.C,D6*%
X130350000Y-39400000D03*
X127050000Y-39400000D03*
%TD*%
%TO.C,D15*%
X80850000Y-56400000D03*
X77550000Y-56400000D03*
%TD*%
%TO.C,D17*%
X116850000Y-56400000D03*
X113550000Y-56400000D03*
%TD*%
D20*
%TO.C,R1*%
X154225000Y-84812500D03*
X154225000Y-86387500D03*
%TD*%
D19*
%TO.C,C2*%
X124712500Y-86400000D03*
X126287500Y-86400000D03*
%TD*%
D13*
%TO.C,D27*%
X107850000Y-73400000D03*
X104550000Y-73400000D03*
%TD*%
D21*
%TO.C,D41*%
X131900000Y-34270000D03*
D22*
X131900000Y-32550000D03*
X134100000Y-32550000D03*
X134100000Y-34450000D03*
%TD*%
D17*
%TO.C,C1*%
X118200000Y-79287500D03*
X118200000Y-77712500D03*
%TD*%
D13*
%TO.C,D23*%
X231650000Y-56400000D03*
X228350000Y-56400000D03*
%TD*%
%TO.C,D1*%
X40350000Y-39400000D03*
X37050000Y-39400000D03*
%TD*%
%TO.C,D24*%
X47050000Y-73400000D03*
X43750000Y-73400000D03*
%TD*%
%TO.C,D3*%
X76350000Y-39400000D03*
X73050000Y-39400000D03*
%TD*%
D23*
%TO.C,F1*%
X139000000Y-34900000D03*
X139000000Y-32100000D03*
%TD*%
D13*
%TO.C,D39*%
X213650000Y-90400000D03*
X210350000Y-90400000D03*
%TD*%
%TO.C,D37*%
X80850000Y-90400000D03*
X77550000Y-90400000D03*
%TD*%
%TO.C,D28*%
X125850000Y-73400000D03*
X122550000Y-73400000D03*
%TD*%
D24*
%TO.C,SW99*%
X163100000Y-82650000D03*
X156900000Y-86350000D03*
X163100000Y-86350000D03*
X156900000Y-82650000D03*
%TD*%
D13*
%TO.C,D22*%
X206850000Y-56400000D03*
X203550000Y-56400000D03*
%TD*%
%TO.C,D35*%
X42650000Y-90400000D03*
X39350000Y-90400000D03*
%TD*%
%TO.C,D4*%
X94350000Y-39400000D03*
X91050000Y-39400000D03*
%TD*%
D25*
%TO.C,Y1*%
X125500000Y-81800000D03*
X125500000Y-83000000D03*
X125500000Y-84200000D03*
%TD*%
D13*
%TO.C,D5*%
X112350000Y-39400000D03*
X109050000Y-39400000D03*
%TD*%
%TO.C,D40*%
X236250000Y-90400000D03*
X232950000Y-90400000D03*
%TD*%
%TO.C,D7*%
X148350000Y-39400000D03*
X145050000Y-39400000D03*
%TD*%
%TO.C,D19*%
X152850000Y-56400000D03*
X149550000Y-56400000D03*
%TD*%
%TO.C,D25*%
X71850000Y-73400000D03*
X68550000Y-73400000D03*
%TD*%
D19*
%TO.C,R6*%
X141212500Y-26500000D03*
X142787500Y-26500000D03*
%TD*%
D13*
%TO.C,D30*%
X161850000Y-73400000D03*
X158550000Y-73400000D03*
%TD*%
%TO.C,D10*%
X202350000Y-39400000D03*
X199050000Y-39400000D03*
%TD*%
D26*
%TO.C,U1*%
X121937500Y-82750000D03*
X121937500Y-83250000D03*
X121937500Y-83750000D03*
X121937500Y-84250000D03*
X121937500Y-84750000D03*
X121937500Y-85250000D03*
X121937500Y-85750000D03*
X121937500Y-86250000D03*
D27*
X121250000Y-86937500D03*
X120750000Y-86937500D03*
X120250000Y-86937500D03*
X119750000Y-86937500D03*
X119250000Y-86937500D03*
X118750000Y-86937500D03*
X118250000Y-86937500D03*
X117750000Y-86937500D03*
D26*
X117062500Y-86250000D03*
X117062500Y-85750000D03*
X117062500Y-85250000D03*
X117062500Y-84750000D03*
X117062500Y-84250000D03*
X117062500Y-83750000D03*
X117062500Y-83250000D03*
X117062500Y-82750000D03*
D27*
X117750000Y-82062500D03*
X118250000Y-82062500D03*
X118750000Y-82062500D03*
X119250000Y-82062500D03*
X119750000Y-82062500D03*
X120250000Y-82062500D03*
X120750000Y-82062500D03*
X121250000Y-82062500D03*
D28*
X119500000Y-84500000D03*
%TD*%
D19*
%TO.C,C3*%
X123412500Y-79250000D03*
X124987500Y-79250000D03*
%TD*%
D13*
%TO.C,D32*%
X197850000Y-73400000D03*
X194550000Y-73400000D03*
%TD*%
%TO.C,D9*%
X184350000Y-39400000D03*
X181050000Y-39400000D03*
%TD*%
M02*
