%TF.GenerationSoftware,KiCad,Pcbnew,(5.99.0-9650-gad505e29c0)*%
%TF.CreationDate,2021-03-23T23:02:50-07:00*%
%TF.ProjectId,Choc40,43686f63-3430-42e6-9b69-6361645f7063,rev?*%
%TF.SameCoordinates,Original*%
%TF.FileFunction,AssemblyDrawing,Bot*%
%FSLAX46Y46*%
G04 Gerber Fmt 4.6, Leading zero omitted, Abs format (unit mm)*
G04 Created by KiCad (PCBNEW (5.99.0-9650-gad505e29c0)) date 2021-03-23 23:02:50*
%MOMM*%
%LPD*%
G01*
G04 APERTURE LIST*
%ADD10C,0.150000*%
%ADD11C,0.060000*%
%ADD12C,0.075000*%
%ADD13C,0.120000*%
%ADD14C,0.030000*%
%ADD15C,0.080000*%
%ADD16C,0.100000*%
G04 APERTURE END LIST*
D10*
%TO.C,D34*%
X237261904Y-75952380D02*
X237261904Y-74952380D01*
X237023809Y-74952380D01*
X236880952Y-75000000D01*
X236785714Y-75095238D01*
X236738095Y-75190476D01*
X236690476Y-75380952D01*
X236690476Y-75523809D01*
X236738095Y-75714285D01*
X236785714Y-75809523D01*
X236880952Y-75904761D01*
X237023809Y-75952380D01*
X237261904Y-75952380D01*
X236500000Y-76047619D02*
X235738095Y-76047619D01*
X235547619Y-75904761D02*
X235404761Y-75952380D01*
X235166666Y-75952380D01*
X235071428Y-75904761D01*
X235023809Y-75857142D01*
X234976190Y-75761904D01*
X234976190Y-75666666D01*
X235023809Y-75571428D01*
X235071428Y-75523809D01*
X235166666Y-75476190D01*
X235357142Y-75428571D01*
X235452380Y-75380952D01*
X235500000Y-75333333D01*
X235547619Y-75238095D01*
X235547619Y-75142857D01*
X235500000Y-75047619D01*
X235452380Y-75000000D01*
X235357142Y-74952380D01*
X235119047Y-74952380D01*
X234976190Y-75000000D01*
X234547619Y-75952380D02*
X234547619Y-75285714D01*
X234547619Y-75380952D02*
X234500000Y-75333333D01*
X234404761Y-75285714D01*
X234261904Y-75285714D01*
X234166666Y-75333333D01*
X234119047Y-75428571D01*
X234119047Y-75952380D01*
X234119047Y-75428571D02*
X234071428Y-75333333D01*
X233976190Y-75285714D01*
X233833333Y-75285714D01*
X233738095Y-75333333D01*
X233690476Y-75428571D01*
X233690476Y-75952380D01*
X232785714Y-75952380D02*
X232785714Y-75428571D01*
X232833333Y-75333333D01*
X232928571Y-75285714D01*
X233119047Y-75285714D01*
X233214285Y-75333333D01*
X232785714Y-75904761D02*
X232880952Y-75952380D01*
X233119047Y-75952380D01*
X233214285Y-75904761D01*
X233261904Y-75809523D01*
X233261904Y-75714285D01*
X233214285Y-75619047D01*
X233119047Y-75571428D01*
X232880952Y-75571428D01*
X232785714Y-75523809D01*
X232166666Y-75952380D02*
X232261904Y-75904761D01*
X232309523Y-75809523D01*
X232309523Y-74952380D01*
X231642857Y-75952380D02*
X231738095Y-75904761D01*
X231785714Y-75809523D01*
X231785714Y-74952380D01*
X235714285Y-71852380D02*
X235714285Y-70852380D01*
X235476190Y-70852380D01*
X235333333Y-70900000D01*
X235238095Y-70995238D01*
X235190476Y-71090476D01*
X235142857Y-71280952D01*
X235142857Y-71423809D01*
X235190476Y-71614285D01*
X235238095Y-71709523D01*
X235333333Y-71804761D01*
X235476190Y-71852380D01*
X235714285Y-71852380D01*
X234809523Y-70852380D02*
X234190476Y-70852380D01*
X234523809Y-71233333D01*
X234380952Y-71233333D01*
X234285714Y-71280952D01*
X234238095Y-71328571D01*
X234190476Y-71423809D01*
X234190476Y-71661904D01*
X234238095Y-71757142D01*
X234285714Y-71804761D01*
X234380952Y-71852380D01*
X234666666Y-71852380D01*
X234761904Y-71804761D01*
X234809523Y-71757142D01*
X233333333Y-71185714D02*
X233333333Y-71852380D01*
X233571428Y-70804761D02*
X233809523Y-71519047D01*
X233190476Y-71519047D01*
%TO.C,D33*%
X216961904Y-75952380D02*
X216961904Y-74952380D01*
X216723809Y-74952380D01*
X216580952Y-75000000D01*
X216485714Y-75095238D01*
X216438095Y-75190476D01*
X216390476Y-75380952D01*
X216390476Y-75523809D01*
X216438095Y-75714285D01*
X216485714Y-75809523D01*
X216580952Y-75904761D01*
X216723809Y-75952380D01*
X216961904Y-75952380D01*
X216200000Y-76047619D02*
X215438095Y-76047619D01*
X215247619Y-75904761D02*
X215104761Y-75952380D01*
X214866666Y-75952380D01*
X214771428Y-75904761D01*
X214723809Y-75857142D01*
X214676190Y-75761904D01*
X214676190Y-75666666D01*
X214723809Y-75571428D01*
X214771428Y-75523809D01*
X214866666Y-75476190D01*
X215057142Y-75428571D01*
X215152380Y-75380952D01*
X215200000Y-75333333D01*
X215247619Y-75238095D01*
X215247619Y-75142857D01*
X215200000Y-75047619D01*
X215152380Y-75000000D01*
X215057142Y-74952380D01*
X214819047Y-74952380D01*
X214676190Y-75000000D01*
X214247619Y-75952380D02*
X214247619Y-75285714D01*
X214247619Y-75380952D02*
X214200000Y-75333333D01*
X214104761Y-75285714D01*
X213961904Y-75285714D01*
X213866666Y-75333333D01*
X213819047Y-75428571D01*
X213819047Y-75952380D01*
X213819047Y-75428571D02*
X213771428Y-75333333D01*
X213676190Y-75285714D01*
X213533333Y-75285714D01*
X213438095Y-75333333D01*
X213390476Y-75428571D01*
X213390476Y-75952380D01*
X212485714Y-75952380D02*
X212485714Y-75428571D01*
X212533333Y-75333333D01*
X212628571Y-75285714D01*
X212819047Y-75285714D01*
X212914285Y-75333333D01*
X212485714Y-75904761D02*
X212580952Y-75952380D01*
X212819047Y-75952380D01*
X212914285Y-75904761D01*
X212961904Y-75809523D01*
X212961904Y-75714285D01*
X212914285Y-75619047D01*
X212819047Y-75571428D01*
X212580952Y-75571428D01*
X212485714Y-75523809D01*
X211866666Y-75952380D02*
X211961904Y-75904761D01*
X212009523Y-75809523D01*
X212009523Y-74952380D01*
X211342857Y-75952380D02*
X211438095Y-75904761D01*
X211485714Y-75809523D01*
X211485714Y-74952380D01*
X215414285Y-71852380D02*
X215414285Y-70852380D01*
X215176190Y-70852380D01*
X215033333Y-70900000D01*
X214938095Y-70995238D01*
X214890476Y-71090476D01*
X214842857Y-71280952D01*
X214842857Y-71423809D01*
X214890476Y-71614285D01*
X214938095Y-71709523D01*
X215033333Y-71804761D01*
X215176190Y-71852380D01*
X215414285Y-71852380D01*
X214509523Y-70852380D02*
X213890476Y-70852380D01*
X214223809Y-71233333D01*
X214080952Y-71233333D01*
X213985714Y-71280952D01*
X213938095Y-71328571D01*
X213890476Y-71423809D01*
X213890476Y-71661904D01*
X213938095Y-71757142D01*
X213985714Y-71804761D01*
X214080952Y-71852380D01*
X214366666Y-71852380D01*
X214461904Y-71804761D01*
X214509523Y-71757142D01*
X213557142Y-70852380D02*
X212938095Y-70852380D01*
X213271428Y-71233333D01*
X213128571Y-71233333D01*
X213033333Y-71280952D01*
X212985714Y-71328571D01*
X212938095Y-71423809D01*
X212938095Y-71661904D01*
X212985714Y-71757142D01*
X213033333Y-71804761D01*
X213128571Y-71852380D01*
X213414285Y-71852380D01*
X213509523Y-71804761D01*
X213557142Y-71757142D01*
%TO.C,D21*%
X189961904Y-58952380D02*
X189961904Y-57952380D01*
X189723809Y-57952380D01*
X189580952Y-58000000D01*
X189485714Y-58095238D01*
X189438095Y-58190476D01*
X189390476Y-58380952D01*
X189390476Y-58523809D01*
X189438095Y-58714285D01*
X189485714Y-58809523D01*
X189580952Y-58904761D01*
X189723809Y-58952380D01*
X189961904Y-58952380D01*
X189200000Y-59047619D02*
X188438095Y-59047619D01*
X188247619Y-58904761D02*
X188104761Y-58952380D01*
X187866666Y-58952380D01*
X187771428Y-58904761D01*
X187723809Y-58857142D01*
X187676190Y-58761904D01*
X187676190Y-58666666D01*
X187723809Y-58571428D01*
X187771428Y-58523809D01*
X187866666Y-58476190D01*
X188057142Y-58428571D01*
X188152380Y-58380952D01*
X188200000Y-58333333D01*
X188247619Y-58238095D01*
X188247619Y-58142857D01*
X188200000Y-58047619D01*
X188152380Y-58000000D01*
X188057142Y-57952380D01*
X187819047Y-57952380D01*
X187676190Y-58000000D01*
X187247619Y-58952380D02*
X187247619Y-58285714D01*
X187247619Y-58380952D02*
X187200000Y-58333333D01*
X187104761Y-58285714D01*
X186961904Y-58285714D01*
X186866666Y-58333333D01*
X186819047Y-58428571D01*
X186819047Y-58952380D01*
X186819047Y-58428571D02*
X186771428Y-58333333D01*
X186676190Y-58285714D01*
X186533333Y-58285714D01*
X186438095Y-58333333D01*
X186390476Y-58428571D01*
X186390476Y-58952380D01*
X185485714Y-58952380D02*
X185485714Y-58428571D01*
X185533333Y-58333333D01*
X185628571Y-58285714D01*
X185819047Y-58285714D01*
X185914285Y-58333333D01*
X185485714Y-58904761D02*
X185580952Y-58952380D01*
X185819047Y-58952380D01*
X185914285Y-58904761D01*
X185961904Y-58809523D01*
X185961904Y-58714285D01*
X185914285Y-58619047D01*
X185819047Y-58571428D01*
X185580952Y-58571428D01*
X185485714Y-58523809D01*
X184866666Y-58952380D02*
X184961904Y-58904761D01*
X185009523Y-58809523D01*
X185009523Y-57952380D01*
X184342857Y-58952380D02*
X184438095Y-58904761D01*
X184485714Y-58809523D01*
X184485714Y-57952380D01*
X188414285Y-54852380D02*
X188414285Y-53852380D01*
X188176190Y-53852380D01*
X188033333Y-53900000D01*
X187938095Y-53995238D01*
X187890476Y-54090476D01*
X187842857Y-54280952D01*
X187842857Y-54423809D01*
X187890476Y-54614285D01*
X187938095Y-54709523D01*
X188033333Y-54804761D01*
X188176190Y-54852380D01*
X188414285Y-54852380D01*
X187461904Y-53947619D02*
X187414285Y-53900000D01*
X187319047Y-53852380D01*
X187080952Y-53852380D01*
X186985714Y-53900000D01*
X186938095Y-53947619D01*
X186890476Y-54042857D01*
X186890476Y-54138095D01*
X186938095Y-54280952D01*
X187509523Y-54852380D01*
X186890476Y-54852380D01*
X185938095Y-54852380D02*
X186509523Y-54852380D01*
X186223809Y-54852380D02*
X186223809Y-53852380D01*
X186319047Y-53995238D01*
X186414285Y-54090476D01*
X186509523Y-54138095D01*
%TO.C,D12*%
X239461904Y-41952380D02*
X239461904Y-40952380D01*
X239223809Y-40952380D01*
X239080952Y-41000000D01*
X238985714Y-41095238D01*
X238938095Y-41190476D01*
X238890476Y-41380952D01*
X238890476Y-41523809D01*
X238938095Y-41714285D01*
X238985714Y-41809523D01*
X239080952Y-41904761D01*
X239223809Y-41952380D01*
X239461904Y-41952380D01*
X238700000Y-42047619D02*
X237938095Y-42047619D01*
X237747619Y-41904761D02*
X237604761Y-41952380D01*
X237366666Y-41952380D01*
X237271428Y-41904761D01*
X237223809Y-41857142D01*
X237176190Y-41761904D01*
X237176190Y-41666666D01*
X237223809Y-41571428D01*
X237271428Y-41523809D01*
X237366666Y-41476190D01*
X237557142Y-41428571D01*
X237652380Y-41380952D01*
X237700000Y-41333333D01*
X237747619Y-41238095D01*
X237747619Y-41142857D01*
X237700000Y-41047619D01*
X237652380Y-41000000D01*
X237557142Y-40952380D01*
X237319047Y-40952380D01*
X237176190Y-41000000D01*
X236747619Y-41952380D02*
X236747619Y-41285714D01*
X236747619Y-41380952D02*
X236700000Y-41333333D01*
X236604761Y-41285714D01*
X236461904Y-41285714D01*
X236366666Y-41333333D01*
X236319047Y-41428571D01*
X236319047Y-41952380D01*
X236319047Y-41428571D02*
X236271428Y-41333333D01*
X236176190Y-41285714D01*
X236033333Y-41285714D01*
X235938095Y-41333333D01*
X235890476Y-41428571D01*
X235890476Y-41952380D01*
X234985714Y-41952380D02*
X234985714Y-41428571D01*
X235033333Y-41333333D01*
X235128571Y-41285714D01*
X235319047Y-41285714D01*
X235414285Y-41333333D01*
X234985714Y-41904761D02*
X235080952Y-41952380D01*
X235319047Y-41952380D01*
X235414285Y-41904761D01*
X235461904Y-41809523D01*
X235461904Y-41714285D01*
X235414285Y-41619047D01*
X235319047Y-41571428D01*
X235080952Y-41571428D01*
X234985714Y-41523809D01*
X234366666Y-41952380D02*
X234461904Y-41904761D01*
X234509523Y-41809523D01*
X234509523Y-40952380D01*
X233842857Y-41952380D02*
X233938095Y-41904761D01*
X233985714Y-41809523D01*
X233985714Y-40952380D01*
X237914285Y-37852380D02*
X237914285Y-36852380D01*
X237676190Y-36852380D01*
X237533333Y-36900000D01*
X237438095Y-36995238D01*
X237390476Y-37090476D01*
X237342857Y-37280952D01*
X237342857Y-37423809D01*
X237390476Y-37614285D01*
X237438095Y-37709523D01*
X237533333Y-37804761D01*
X237676190Y-37852380D01*
X237914285Y-37852380D01*
X236390476Y-37852380D02*
X236961904Y-37852380D01*
X236676190Y-37852380D02*
X236676190Y-36852380D01*
X236771428Y-36995238D01*
X236866666Y-37090476D01*
X236961904Y-37138095D01*
X236009523Y-36947619D02*
X235961904Y-36900000D01*
X235866666Y-36852380D01*
X235628571Y-36852380D01*
X235533333Y-36900000D01*
X235485714Y-36947619D01*
X235438095Y-37042857D01*
X235438095Y-37138095D01*
X235485714Y-37280952D01*
X236057142Y-37852380D01*
X235438095Y-37852380D01*
%TO.C,D11*%
X221461904Y-41952380D02*
X221461904Y-40952380D01*
X221223809Y-40952380D01*
X221080952Y-41000000D01*
X220985714Y-41095238D01*
X220938095Y-41190476D01*
X220890476Y-41380952D01*
X220890476Y-41523809D01*
X220938095Y-41714285D01*
X220985714Y-41809523D01*
X221080952Y-41904761D01*
X221223809Y-41952380D01*
X221461904Y-41952380D01*
X220700000Y-42047619D02*
X219938095Y-42047619D01*
X219747619Y-41904761D02*
X219604761Y-41952380D01*
X219366666Y-41952380D01*
X219271428Y-41904761D01*
X219223809Y-41857142D01*
X219176190Y-41761904D01*
X219176190Y-41666666D01*
X219223809Y-41571428D01*
X219271428Y-41523809D01*
X219366666Y-41476190D01*
X219557142Y-41428571D01*
X219652380Y-41380952D01*
X219700000Y-41333333D01*
X219747619Y-41238095D01*
X219747619Y-41142857D01*
X219700000Y-41047619D01*
X219652380Y-41000000D01*
X219557142Y-40952380D01*
X219319047Y-40952380D01*
X219176190Y-41000000D01*
X218747619Y-41952380D02*
X218747619Y-41285714D01*
X218747619Y-41380952D02*
X218700000Y-41333333D01*
X218604761Y-41285714D01*
X218461904Y-41285714D01*
X218366666Y-41333333D01*
X218319047Y-41428571D01*
X218319047Y-41952380D01*
X218319047Y-41428571D02*
X218271428Y-41333333D01*
X218176190Y-41285714D01*
X218033333Y-41285714D01*
X217938095Y-41333333D01*
X217890476Y-41428571D01*
X217890476Y-41952380D01*
X216985714Y-41952380D02*
X216985714Y-41428571D01*
X217033333Y-41333333D01*
X217128571Y-41285714D01*
X217319047Y-41285714D01*
X217414285Y-41333333D01*
X216985714Y-41904761D02*
X217080952Y-41952380D01*
X217319047Y-41952380D01*
X217414285Y-41904761D01*
X217461904Y-41809523D01*
X217461904Y-41714285D01*
X217414285Y-41619047D01*
X217319047Y-41571428D01*
X217080952Y-41571428D01*
X216985714Y-41523809D01*
X216366666Y-41952380D02*
X216461904Y-41904761D01*
X216509523Y-41809523D01*
X216509523Y-40952380D01*
X215842857Y-41952380D02*
X215938095Y-41904761D01*
X215985714Y-41809523D01*
X215985714Y-40952380D01*
X219914285Y-37852380D02*
X219914285Y-36852380D01*
X219676190Y-36852380D01*
X219533333Y-36900000D01*
X219438095Y-36995238D01*
X219390476Y-37090476D01*
X219342857Y-37280952D01*
X219342857Y-37423809D01*
X219390476Y-37614285D01*
X219438095Y-37709523D01*
X219533333Y-37804761D01*
X219676190Y-37852380D01*
X219914285Y-37852380D01*
X218390476Y-37852380D02*
X218961904Y-37852380D01*
X218676190Y-37852380D02*
X218676190Y-36852380D01*
X218771428Y-36995238D01*
X218866666Y-37090476D01*
X218961904Y-37138095D01*
X217438095Y-37852380D02*
X218009523Y-37852380D01*
X217723809Y-37852380D02*
X217723809Y-36852380D01*
X217819047Y-36995238D01*
X217914285Y-37090476D01*
X218009523Y-37138095D01*
%TO.C,D20*%
X171961904Y-58952380D02*
X171961904Y-57952380D01*
X171723809Y-57952380D01*
X171580952Y-58000000D01*
X171485714Y-58095238D01*
X171438095Y-58190476D01*
X171390476Y-58380952D01*
X171390476Y-58523809D01*
X171438095Y-58714285D01*
X171485714Y-58809523D01*
X171580952Y-58904761D01*
X171723809Y-58952380D01*
X171961904Y-58952380D01*
X171200000Y-59047619D02*
X170438095Y-59047619D01*
X170247619Y-58904761D02*
X170104761Y-58952380D01*
X169866666Y-58952380D01*
X169771428Y-58904761D01*
X169723809Y-58857142D01*
X169676190Y-58761904D01*
X169676190Y-58666666D01*
X169723809Y-58571428D01*
X169771428Y-58523809D01*
X169866666Y-58476190D01*
X170057142Y-58428571D01*
X170152380Y-58380952D01*
X170200000Y-58333333D01*
X170247619Y-58238095D01*
X170247619Y-58142857D01*
X170200000Y-58047619D01*
X170152380Y-58000000D01*
X170057142Y-57952380D01*
X169819047Y-57952380D01*
X169676190Y-58000000D01*
X169247619Y-58952380D02*
X169247619Y-58285714D01*
X169247619Y-58380952D02*
X169200000Y-58333333D01*
X169104761Y-58285714D01*
X168961904Y-58285714D01*
X168866666Y-58333333D01*
X168819047Y-58428571D01*
X168819047Y-58952380D01*
X168819047Y-58428571D02*
X168771428Y-58333333D01*
X168676190Y-58285714D01*
X168533333Y-58285714D01*
X168438095Y-58333333D01*
X168390476Y-58428571D01*
X168390476Y-58952380D01*
X167485714Y-58952380D02*
X167485714Y-58428571D01*
X167533333Y-58333333D01*
X167628571Y-58285714D01*
X167819047Y-58285714D01*
X167914285Y-58333333D01*
X167485714Y-58904761D02*
X167580952Y-58952380D01*
X167819047Y-58952380D01*
X167914285Y-58904761D01*
X167961904Y-58809523D01*
X167961904Y-58714285D01*
X167914285Y-58619047D01*
X167819047Y-58571428D01*
X167580952Y-58571428D01*
X167485714Y-58523809D01*
X166866666Y-58952380D02*
X166961904Y-58904761D01*
X167009523Y-58809523D01*
X167009523Y-57952380D01*
X166342857Y-58952380D02*
X166438095Y-58904761D01*
X166485714Y-58809523D01*
X166485714Y-57952380D01*
X170414285Y-54852380D02*
X170414285Y-53852380D01*
X170176190Y-53852380D01*
X170033333Y-53900000D01*
X169938095Y-53995238D01*
X169890476Y-54090476D01*
X169842857Y-54280952D01*
X169842857Y-54423809D01*
X169890476Y-54614285D01*
X169938095Y-54709523D01*
X170033333Y-54804761D01*
X170176190Y-54852380D01*
X170414285Y-54852380D01*
X169461904Y-53947619D02*
X169414285Y-53900000D01*
X169319047Y-53852380D01*
X169080952Y-53852380D01*
X168985714Y-53900000D01*
X168938095Y-53947619D01*
X168890476Y-54042857D01*
X168890476Y-54138095D01*
X168938095Y-54280952D01*
X169509523Y-54852380D01*
X168890476Y-54852380D01*
X168271428Y-53852380D02*
X168176190Y-53852380D01*
X168080952Y-53900000D01*
X168033333Y-53947619D01*
X167985714Y-54042857D01*
X167938095Y-54233333D01*
X167938095Y-54471428D01*
X167985714Y-54661904D01*
X168033333Y-54757142D01*
X168080952Y-54804761D01*
X168176190Y-54852380D01*
X168271428Y-54852380D01*
X168366666Y-54804761D01*
X168414285Y-54757142D01*
X168461904Y-54661904D01*
X168509523Y-54471428D01*
X168509523Y-54233333D01*
X168461904Y-54042857D01*
X168414285Y-53947619D01*
X168366666Y-53900000D01*
X168271428Y-53852380D01*
%TO.C,D13*%
X43711904Y-58952380D02*
X43711904Y-57952380D01*
X43473809Y-57952380D01*
X43330952Y-58000000D01*
X43235714Y-58095238D01*
X43188095Y-58190476D01*
X43140476Y-58380952D01*
X43140476Y-58523809D01*
X43188095Y-58714285D01*
X43235714Y-58809523D01*
X43330952Y-58904761D01*
X43473809Y-58952380D01*
X43711904Y-58952380D01*
X42950000Y-59047619D02*
X42188095Y-59047619D01*
X41997619Y-58904761D02*
X41854761Y-58952380D01*
X41616666Y-58952380D01*
X41521428Y-58904761D01*
X41473809Y-58857142D01*
X41426190Y-58761904D01*
X41426190Y-58666666D01*
X41473809Y-58571428D01*
X41521428Y-58523809D01*
X41616666Y-58476190D01*
X41807142Y-58428571D01*
X41902380Y-58380952D01*
X41950000Y-58333333D01*
X41997619Y-58238095D01*
X41997619Y-58142857D01*
X41950000Y-58047619D01*
X41902380Y-58000000D01*
X41807142Y-57952380D01*
X41569047Y-57952380D01*
X41426190Y-58000000D01*
X40997619Y-58952380D02*
X40997619Y-58285714D01*
X40997619Y-58380952D02*
X40950000Y-58333333D01*
X40854761Y-58285714D01*
X40711904Y-58285714D01*
X40616666Y-58333333D01*
X40569047Y-58428571D01*
X40569047Y-58952380D01*
X40569047Y-58428571D02*
X40521428Y-58333333D01*
X40426190Y-58285714D01*
X40283333Y-58285714D01*
X40188095Y-58333333D01*
X40140476Y-58428571D01*
X40140476Y-58952380D01*
X39235714Y-58952380D02*
X39235714Y-58428571D01*
X39283333Y-58333333D01*
X39378571Y-58285714D01*
X39569047Y-58285714D01*
X39664285Y-58333333D01*
X39235714Y-58904761D02*
X39330952Y-58952380D01*
X39569047Y-58952380D01*
X39664285Y-58904761D01*
X39711904Y-58809523D01*
X39711904Y-58714285D01*
X39664285Y-58619047D01*
X39569047Y-58571428D01*
X39330952Y-58571428D01*
X39235714Y-58523809D01*
X38616666Y-58952380D02*
X38711904Y-58904761D01*
X38759523Y-58809523D01*
X38759523Y-57952380D01*
X38092857Y-58952380D02*
X38188095Y-58904761D01*
X38235714Y-58809523D01*
X38235714Y-57952380D01*
X42164285Y-54852380D02*
X42164285Y-53852380D01*
X41926190Y-53852380D01*
X41783333Y-53900000D01*
X41688095Y-53995238D01*
X41640476Y-54090476D01*
X41592857Y-54280952D01*
X41592857Y-54423809D01*
X41640476Y-54614285D01*
X41688095Y-54709523D01*
X41783333Y-54804761D01*
X41926190Y-54852380D01*
X42164285Y-54852380D01*
X40640476Y-54852380D02*
X41211904Y-54852380D01*
X40926190Y-54852380D02*
X40926190Y-53852380D01*
X41021428Y-53995238D01*
X41116666Y-54090476D01*
X41211904Y-54138095D01*
X40307142Y-53852380D02*
X39688095Y-53852380D01*
X40021428Y-54233333D01*
X39878571Y-54233333D01*
X39783333Y-54280952D01*
X39735714Y-54328571D01*
X39688095Y-54423809D01*
X39688095Y-54661904D01*
X39735714Y-54757142D01*
X39783333Y-54804761D01*
X39878571Y-54852380D01*
X40164285Y-54852380D01*
X40259523Y-54804761D01*
X40307142Y-54757142D01*
%TO.C,C4*%
X120272380Y-77428571D02*
X120272380Y-76857142D01*
X120272380Y-77142857D02*
X119272380Y-77142857D01*
X119415238Y-77047619D01*
X119510476Y-76952380D01*
X119558095Y-76857142D01*
X119272380Y-78047619D02*
X119272380Y-78142857D01*
X119320000Y-78238095D01*
X119367619Y-78285714D01*
X119462857Y-78333333D01*
X119653333Y-78380952D01*
X119891428Y-78380952D01*
X120081904Y-78333333D01*
X120177142Y-78285714D01*
X120224761Y-78238095D01*
X120272380Y-78142857D01*
X120272380Y-78047619D01*
X120224761Y-77952380D01*
X120177142Y-77904761D01*
X120081904Y-77857142D01*
X119891428Y-77809523D01*
X119653333Y-77809523D01*
X119462857Y-77857142D01*
X119367619Y-77904761D01*
X119320000Y-77952380D01*
X119272380Y-78047619D01*
X119605714Y-79238095D02*
X120272380Y-79238095D01*
X119605714Y-78809523D02*
X120129523Y-78809523D01*
X120224761Y-78857142D01*
X120272380Y-78952380D01*
X120272380Y-79095238D01*
X120224761Y-79190476D01*
X120177142Y-79238095D01*
X119748571Y-80047619D02*
X119748571Y-79714285D01*
X120272380Y-79714285D02*
X119272380Y-79714285D01*
X119272380Y-80190476D01*
D11*
X121392857Y-78433333D02*
X121411904Y-78414285D01*
X121430952Y-78357142D01*
X121430952Y-78319047D01*
X121411904Y-78261904D01*
X121373809Y-78223809D01*
X121335714Y-78204761D01*
X121259523Y-78185714D01*
X121202380Y-78185714D01*
X121126190Y-78204761D01*
X121088095Y-78223809D01*
X121050000Y-78261904D01*
X121030952Y-78319047D01*
X121030952Y-78357142D01*
X121050000Y-78414285D01*
X121069047Y-78433333D01*
X121164285Y-78776190D02*
X121430952Y-78776190D01*
X121011904Y-78680952D02*
X121297619Y-78585714D01*
X121297619Y-78833333D01*
D10*
%TO.C,D18*%
X135961904Y-58952380D02*
X135961904Y-57952380D01*
X135723809Y-57952380D01*
X135580952Y-58000000D01*
X135485714Y-58095238D01*
X135438095Y-58190476D01*
X135390476Y-58380952D01*
X135390476Y-58523809D01*
X135438095Y-58714285D01*
X135485714Y-58809523D01*
X135580952Y-58904761D01*
X135723809Y-58952380D01*
X135961904Y-58952380D01*
X135200000Y-59047619D02*
X134438095Y-59047619D01*
X134247619Y-58904761D02*
X134104761Y-58952380D01*
X133866666Y-58952380D01*
X133771428Y-58904761D01*
X133723809Y-58857142D01*
X133676190Y-58761904D01*
X133676190Y-58666666D01*
X133723809Y-58571428D01*
X133771428Y-58523809D01*
X133866666Y-58476190D01*
X134057142Y-58428571D01*
X134152380Y-58380952D01*
X134200000Y-58333333D01*
X134247619Y-58238095D01*
X134247619Y-58142857D01*
X134200000Y-58047619D01*
X134152380Y-58000000D01*
X134057142Y-57952380D01*
X133819047Y-57952380D01*
X133676190Y-58000000D01*
X133247619Y-58952380D02*
X133247619Y-58285714D01*
X133247619Y-58380952D02*
X133200000Y-58333333D01*
X133104761Y-58285714D01*
X132961904Y-58285714D01*
X132866666Y-58333333D01*
X132819047Y-58428571D01*
X132819047Y-58952380D01*
X132819047Y-58428571D02*
X132771428Y-58333333D01*
X132676190Y-58285714D01*
X132533333Y-58285714D01*
X132438095Y-58333333D01*
X132390476Y-58428571D01*
X132390476Y-58952380D01*
X131485714Y-58952380D02*
X131485714Y-58428571D01*
X131533333Y-58333333D01*
X131628571Y-58285714D01*
X131819047Y-58285714D01*
X131914285Y-58333333D01*
X131485714Y-58904761D02*
X131580952Y-58952380D01*
X131819047Y-58952380D01*
X131914285Y-58904761D01*
X131961904Y-58809523D01*
X131961904Y-58714285D01*
X131914285Y-58619047D01*
X131819047Y-58571428D01*
X131580952Y-58571428D01*
X131485714Y-58523809D01*
X130866666Y-58952380D02*
X130961904Y-58904761D01*
X131009523Y-58809523D01*
X131009523Y-57952380D01*
X130342857Y-58952380D02*
X130438095Y-58904761D01*
X130485714Y-58809523D01*
X130485714Y-57952380D01*
X134414285Y-54852380D02*
X134414285Y-53852380D01*
X134176190Y-53852380D01*
X134033333Y-53900000D01*
X133938095Y-53995238D01*
X133890476Y-54090476D01*
X133842857Y-54280952D01*
X133842857Y-54423809D01*
X133890476Y-54614285D01*
X133938095Y-54709523D01*
X134033333Y-54804761D01*
X134176190Y-54852380D01*
X134414285Y-54852380D01*
X132890476Y-54852380D02*
X133461904Y-54852380D01*
X133176190Y-54852380D02*
X133176190Y-53852380D01*
X133271428Y-53995238D01*
X133366666Y-54090476D01*
X133461904Y-54138095D01*
X132319047Y-54280952D02*
X132414285Y-54233333D01*
X132461904Y-54185714D01*
X132509523Y-54090476D01*
X132509523Y-54042857D01*
X132461904Y-53947619D01*
X132414285Y-53900000D01*
X132319047Y-53852380D01*
X132128571Y-53852380D01*
X132033333Y-53900000D01*
X131985714Y-53947619D01*
X131938095Y-54042857D01*
X131938095Y-54090476D01*
X131985714Y-54185714D01*
X132033333Y-54233333D01*
X132128571Y-54280952D01*
X132319047Y-54280952D01*
X132414285Y-54328571D01*
X132461904Y-54376190D01*
X132509523Y-54471428D01*
X132509523Y-54661904D01*
X132461904Y-54757142D01*
X132414285Y-54804761D01*
X132319047Y-54852380D01*
X132128571Y-54852380D01*
X132033333Y-54804761D01*
X131985714Y-54757142D01*
X131938095Y-54661904D01*
X131938095Y-54471428D01*
X131985714Y-54376190D01*
X132033333Y-54328571D01*
X132128571Y-54280952D01*
%TO.C,R3*%
X130317619Y-38638095D02*
X130270000Y-38685714D01*
X130222380Y-38780952D01*
X130222380Y-39019047D01*
X130270000Y-39114285D01*
X130317619Y-39161904D01*
X130412857Y-39209523D01*
X130508095Y-39209523D01*
X130650952Y-39161904D01*
X131222380Y-38590476D01*
X131222380Y-39209523D01*
X130317619Y-39590476D02*
X130270000Y-39638095D01*
X130222380Y-39733333D01*
X130222380Y-39971428D01*
X130270000Y-40066666D01*
X130317619Y-40114285D01*
X130412857Y-40161904D01*
X130508095Y-40161904D01*
X130650952Y-40114285D01*
X131222380Y-39542857D01*
X131222380Y-40161904D01*
D11*
X132380952Y-39333333D02*
X132190476Y-39200000D01*
X132380952Y-39104761D02*
X131980952Y-39104761D01*
X131980952Y-39257142D01*
X132000000Y-39295238D01*
X132019047Y-39314285D01*
X132057142Y-39333333D01*
X132114285Y-39333333D01*
X132152380Y-39314285D01*
X132171428Y-39295238D01*
X132190476Y-39257142D01*
X132190476Y-39104761D01*
X131980952Y-39466666D02*
X131980952Y-39714285D01*
X132133333Y-39580952D01*
X132133333Y-39638095D01*
X132152380Y-39676190D01*
X132171428Y-39695238D01*
X132209523Y-39714285D01*
X132304761Y-39714285D01*
X132342857Y-39695238D01*
X132361904Y-39676190D01*
X132380952Y-39638095D01*
X132380952Y-39523809D01*
X132361904Y-39485714D01*
X132342857Y-39466666D01*
D10*
%TO.C,D31*%
X180961904Y-75952380D02*
X180961904Y-74952380D01*
X180723809Y-74952380D01*
X180580952Y-75000000D01*
X180485714Y-75095238D01*
X180438095Y-75190476D01*
X180390476Y-75380952D01*
X180390476Y-75523809D01*
X180438095Y-75714285D01*
X180485714Y-75809523D01*
X180580952Y-75904761D01*
X180723809Y-75952380D01*
X180961904Y-75952380D01*
X180200000Y-76047619D02*
X179438095Y-76047619D01*
X179247619Y-75904761D02*
X179104761Y-75952380D01*
X178866666Y-75952380D01*
X178771428Y-75904761D01*
X178723809Y-75857142D01*
X178676190Y-75761904D01*
X178676190Y-75666666D01*
X178723809Y-75571428D01*
X178771428Y-75523809D01*
X178866666Y-75476190D01*
X179057142Y-75428571D01*
X179152380Y-75380952D01*
X179200000Y-75333333D01*
X179247619Y-75238095D01*
X179247619Y-75142857D01*
X179200000Y-75047619D01*
X179152380Y-75000000D01*
X179057142Y-74952380D01*
X178819047Y-74952380D01*
X178676190Y-75000000D01*
X178247619Y-75952380D02*
X178247619Y-75285714D01*
X178247619Y-75380952D02*
X178200000Y-75333333D01*
X178104761Y-75285714D01*
X177961904Y-75285714D01*
X177866666Y-75333333D01*
X177819047Y-75428571D01*
X177819047Y-75952380D01*
X177819047Y-75428571D02*
X177771428Y-75333333D01*
X177676190Y-75285714D01*
X177533333Y-75285714D01*
X177438095Y-75333333D01*
X177390476Y-75428571D01*
X177390476Y-75952380D01*
X176485714Y-75952380D02*
X176485714Y-75428571D01*
X176533333Y-75333333D01*
X176628571Y-75285714D01*
X176819047Y-75285714D01*
X176914285Y-75333333D01*
X176485714Y-75904761D02*
X176580952Y-75952380D01*
X176819047Y-75952380D01*
X176914285Y-75904761D01*
X176961904Y-75809523D01*
X176961904Y-75714285D01*
X176914285Y-75619047D01*
X176819047Y-75571428D01*
X176580952Y-75571428D01*
X176485714Y-75523809D01*
X175866666Y-75952380D02*
X175961904Y-75904761D01*
X176009523Y-75809523D01*
X176009523Y-74952380D01*
X175342857Y-75952380D02*
X175438095Y-75904761D01*
X175485714Y-75809523D01*
X175485714Y-74952380D01*
X179414285Y-71852380D02*
X179414285Y-70852380D01*
X179176190Y-70852380D01*
X179033333Y-70900000D01*
X178938095Y-70995238D01*
X178890476Y-71090476D01*
X178842857Y-71280952D01*
X178842857Y-71423809D01*
X178890476Y-71614285D01*
X178938095Y-71709523D01*
X179033333Y-71804761D01*
X179176190Y-71852380D01*
X179414285Y-71852380D01*
X178509523Y-70852380D02*
X177890476Y-70852380D01*
X178223809Y-71233333D01*
X178080952Y-71233333D01*
X177985714Y-71280952D01*
X177938095Y-71328571D01*
X177890476Y-71423809D01*
X177890476Y-71661904D01*
X177938095Y-71757142D01*
X177985714Y-71804761D01*
X178080952Y-71852380D01*
X178366666Y-71852380D01*
X178461904Y-71804761D01*
X178509523Y-71757142D01*
X176938095Y-71852380D02*
X177509523Y-71852380D01*
X177223809Y-71852380D02*
X177223809Y-70852380D01*
X177319047Y-70995238D01*
X177414285Y-71090476D01*
X177509523Y-71138095D01*
%TO.C,R5*%
X124642857Y-27382380D02*
X125119047Y-27382380D01*
X125166666Y-27858571D01*
X125119047Y-27810952D01*
X125023809Y-27763333D01*
X124785714Y-27763333D01*
X124690476Y-27810952D01*
X124642857Y-27858571D01*
X124595238Y-27953809D01*
X124595238Y-28191904D01*
X124642857Y-28287142D01*
X124690476Y-28334761D01*
X124785714Y-28382380D01*
X125023809Y-28382380D01*
X125119047Y-28334761D01*
X125166666Y-28287142D01*
X124166666Y-28382380D02*
X124166666Y-27382380D01*
X124071428Y-28001428D02*
X123785714Y-28382380D01*
X123785714Y-27715714D02*
X124166666Y-28096666D01*
X122833333Y-28382380D02*
X123404761Y-28382380D01*
X123119047Y-28382380D02*
X123119047Y-27382380D01*
X123214285Y-27525238D01*
X123309523Y-27620476D01*
X123404761Y-27668095D01*
D11*
X124066666Y-26680952D02*
X124200000Y-26490476D01*
X124295238Y-26680952D02*
X124295238Y-26280952D01*
X124142857Y-26280952D01*
X124104761Y-26300000D01*
X124085714Y-26319047D01*
X124066666Y-26357142D01*
X124066666Y-26414285D01*
X124085714Y-26452380D01*
X124104761Y-26471428D01*
X124142857Y-26490476D01*
X124295238Y-26490476D01*
X123704761Y-26280952D02*
X123895238Y-26280952D01*
X123914285Y-26471428D01*
X123895238Y-26452380D01*
X123857142Y-26433333D01*
X123761904Y-26433333D01*
X123723809Y-26452380D01*
X123704761Y-26471428D01*
X123685714Y-26509523D01*
X123685714Y-26604761D01*
X123704761Y-26642857D01*
X123723809Y-26661904D01*
X123761904Y-26680952D01*
X123857142Y-26680952D01*
X123895238Y-26661904D01*
X123914285Y-26642857D01*
D10*
%TO.C,D8*%
X167461904Y-41952380D02*
X167461904Y-40952380D01*
X167223809Y-40952380D01*
X167080952Y-41000000D01*
X166985714Y-41095238D01*
X166938095Y-41190476D01*
X166890476Y-41380952D01*
X166890476Y-41523809D01*
X166938095Y-41714285D01*
X166985714Y-41809523D01*
X167080952Y-41904761D01*
X167223809Y-41952380D01*
X167461904Y-41952380D01*
X166700000Y-42047619D02*
X165938095Y-42047619D01*
X165747619Y-41904761D02*
X165604761Y-41952380D01*
X165366666Y-41952380D01*
X165271428Y-41904761D01*
X165223809Y-41857142D01*
X165176190Y-41761904D01*
X165176190Y-41666666D01*
X165223809Y-41571428D01*
X165271428Y-41523809D01*
X165366666Y-41476190D01*
X165557142Y-41428571D01*
X165652380Y-41380952D01*
X165700000Y-41333333D01*
X165747619Y-41238095D01*
X165747619Y-41142857D01*
X165700000Y-41047619D01*
X165652380Y-41000000D01*
X165557142Y-40952380D01*
X165319047Y-40952380D01*
X165176190Y-41000000D01*
X164747619Y-41952380D02*
X164747619Y-41285714D01*
X164747619Y-41380952D02*
X164700000Y-41333333D01*
X164604761Y-41285714D01*
X164461904Y-41285714D01*
X164366666Y-41333333D01*
X164319047Y-41428571D01*
X164319047Y-41952380D01*
X164319047Y-41428571D02*
X164271428Y-41333333D01*
X164176190Y-41285714D01*
X164033333Y-41285714D01*
X163938095Y-41333333D01*
X163890476Y-41428571D01*
X163890476Y-41952380D01*
X162985714Y-41952380D02*
X162985714Y-41428571D01*
X163033333Y-41333333D01*
X163128571Y-41285714D01*
X163319047Y-41285714D01*
X163414285Y-41333333D01*
X162985714Y-41904761D02*
X163080952Y-41952380D01*
X163319047Y-41952380D01*
X163414285Y-41904761D01*
X163461904Y-41809523D01*
X163461904Y-41714285D01*
X163414285Y-41619047D01*
X163319047Y-41571428D01*
X163080952Y-41571428D01*
X162985714Y-41523809D01*
X162366666Y-41952380D02*
X162461904Y-41904761D01*
X162509523Y-41809523D01*
X162509523Y-40952380D01*
X161842857Y-41952380D02*
X161938095Y-41904761D01*
X161985714Y-41809523D01*
X161985714Y-40952380D01*
X165438095Y-37852380D02*
X165438095Y-36852380D01*
X165200000Y-36852380D01*
X165057142Y-36900000D01*
X164961904Y-36995238D01*
X164914285Y-37090476D01*
X164866666Y-37280952D01*
X164866666Y-37423809D01*
X164914285Y-37614285D01*
X164961904Y-37709523D01*
X165057142Y-37804761D01*
X165200000Y-37852380D01*
X165438095Y-37852380D01*
X164295238Y-37280952D02*
X164390476Y-37233333D01*
X164438095Y-37185714D01*
X164485714Y-37090476D01*
X164485714Y-37042857D01*
X164438095Y-36947619D01*
X164390476Y-36900000D01*
X164295238Y-36852380D01*
X164104761Y-36852380D01*
X164009523Y-36900000D01*
X163961904Y-36947619D01*
X163914285Y-37042857D01*
X163914285Y-37090476D01*
X163961904Y-37185714D01*
X164009523Y-37233333D01*
X164104761Y-37280952D01*
X164295238Y-37280952D01*
X164390476Y-37328571D01*
X164438095Y-37376190D01*
X164485714Y-37471428D01*
X164485714Y-37661904D01*
X164438095Y-37757142D01*
X164390476Y-37804761D01*
X164295238Y-37852380D01*
X164104761Y-37852380D01*
X164009523Y-37804761D01*
X163961904Y-37757142D01*
X163914285Y-37661904D01*
X163914285Y-37471428D01*
X163961904Y-37376190D01*
X164009523Y-37328571D01*
X164104761Y-37280952D01*
%TO.C,C5*%
X124976190Y-26605714D02*
X124976190Y-27272380D01*
X125214285Y-26224761D02*
X125452380Y-26939047D01*
X124833333Y-26939047D01*
X124452380Y-27177142D02*
X124404761Y-27224761D01*
X124452380Y-27272380D01*
X124500000Y-27224761D01*
X124452380Y-27177142D01*
X124452380Y-27272380D01*
X124071428Y-26272380D02*
X123404761Y-26272380D01*
X123833333Y-27272380D01*
X123023809Y-26605714D02*
X123023809Y-27272380D01*
X123023809Y-26700952D02*
X122976190Y-26653333D01*
X122880952Y-26605714D01*
X122738095Y-26605714D01*
X122642857Y-26653333D01*
X122595238Y-26748571D01*
X122595238Y-27272380D01*
D11*
X124066666Y-28392857D02*
X124085714Y-28411904D01*
X124142857Y-28430952D01*
X124180952Y-28430952D01*
X124238095Y-28411904D01*
X124276190Y-28373809D01*
X124295238Y-28335714D01*
X124314285Y-28259523D01*
X124314285Y-28202380D01*
X124295238Y-28126190D01*
X124276190Y-28088095D01*
X124238095Y-28050000D01*
X124180952Y-28030952D01*
X124142857Y-28030952D01*
X124085714Y-28050000D01*
X124066666Y-28069047D01*
X123704761Y-28030952D02*
X123895238Y-28030952D01*
X123914285Y-28221428D01*
X123895238Y-28202380D01*
X123857142Y-28183333D01*
X123761904Y-28183333D01*
X123723809Y-28202380D01*
X123704761Y-28221428D01*
X123685714Y-28259523D01*
X123685714Y-28354761D01*
X123704761Y-28392857D01*
X123723809Y-28411904D01*
X123761904Y-28430952D01*
X123857142Y-28430952D01*
X123895238Y-28411904D01*
X123914285Y-28392857D01*
D10*
%TO.C,D29*%
X144961904Y-75952380D02*
X144961904Y-74952380D01*
X144723809Y-74952380D01*
X144580952Y-75000000D01*
X144485714Y-75095238D01*
X144438095Y-75190476D01*
X144390476Y-75380952D01*
X144390476Y-75523809D01*
X144438095Y-75714285D01*
X144485714Y-75809523D01*
X144580952Y-75904761D01*
X144723809Y-75952380D01*
X144961904Y-75952380D01*
X144200000Y-76047619D02*
X143438095Y-76047619D01*
X143247619Y-75904761D02*
X143104761Y-75952380D01*
X142866666Y-75952380D01*
X142771428Y-75904761D01*
X142723809Y-75857142D01*
X142676190Y-75761904D01*
X142676190Y-75666666D01*
X142723809Y-75571428D01*
X142771428Y-75523809D01*
X142866666Y-75476190D01*
X143057142Y-75428571D01*
X143152380Y-75380952D01*
X143200000Y-75333333D01*
X143247619Y-75238095D01*
X143247619Y-75142857D01*
X143200000Y-75047619D01*
X143152380Y-75000000D01*
X143057142Y-74952380D01*
X142819047Y-74952380D01*
X142676190Y-75000000D01*
X142247619Y-75952380D02*
X142247619Y-75285714D01*
X142247619Y-75380952D02*
X142200000Y-75333333D01*
X142104761Y-75285714D01*
X141961904Y-75285714D01*
X141866666Y-75333333D01*
X141819047Y-75428571D01*
X141819047Y-75952380D01*
X141819047Y-75428571D02*
X141771428Y-75333333D01*
X141676190Y-75285714D01*
X141533333Y-75285714D01*
X141438095Y-75333333D01*
X141390476Y-75428571D01*
X141390476Y-75952380D01*
X140485714Y-75952380D02*
X140485714Y-75428571D01*
X140533333Y-75333333D01*
X140628571Y-75285714D01*
X140819047Y-75285714D01*
X140914285Y-75333333D01*
X140485714Y-75904761D02*
X140580952Y-75952380D01*
X140819047Y-75952380D01*
X140914285Y-75904761D01*
X140961904Y-75809523D01*
X140961904Y-75714285D01*
X140914285Y-75619047D01*
X140819047Y-75571428D01*
X140580952Y-75571428D01*
X140485714Y-75523809D01*
X139866666Y-75952380D02*
X139961904Y-75904761D01*
X140009523Y-75809523D01*
X140009523Y-74952380D01*
X139342857Y-75952380D02*
X139438095Y-75904761D01*
X139485714Y-75809523D01*
X139485714Y-74952380D01*
X143414285Y-71852380D02*
X143414285Y-70852380D01*
X143176190Y-70852380D01*
X143033333Y-70900000D01*
X142938095Y-70995238D01*
X142890476Y-71090476D01*
X142842857Y-71280952D01*
X142842857Y-71423809D01*
X142890476Y-71614285D01*
X142938095Y-71709523D01*
X143033333Y-71804761D01*
X143176190Y-71852380D01*
X143414285Y-71852380D01*
X142461904Y-70947619D02*
X142414285Y-70900000D01*
X142319047Y-70852380D01*
X142080952Y-70852380D01*
X141985714Y-70900000D01*
X141938095Y-70947619D01*
X141890476Y-71042857D01*
X141890476Y-71138095D01*
X141938095Y-71280952D01*
X142509523Y-71852380D01*
X141890476Y-71852380D01*
X141414285Y-71852380D02*
X141223809Y-71852380D01*
X141128571Y-71804761D01*
X141080952Y-71757142D01*
X140985714Y-71614285D01*
X140938095Y-71423809D01*
X140938095Y-71042857D01*
X140985714Y-70947619D01*
X141033333Y-70900000D01*
X141128571Y-70852380D01*
X141319047Y-70852380D01*
X141414285Y-70900000D01*
X141461904Y-70947619D01*
X141509523Y-71042857D01*
X141509523Y-71280952D01*
X141461904Y-71376190D01*
X141414285Y-71423809D01*
X141319047Y-71471428D01*
X141128571Y-71471428D01*
X141033333Y-71423809D01*
X140985714Y-71376190D01*
X140938095Y-71280952D01*
%TO.C,R7*%
X142285714Y-27272380D02*
X142857142Y-27272380D01*
X142571428Y-27272380D02*
X142571428Y-26272380D01*
X142666666Y-26415238D01*
X142761904Y-26510476D01*
X142857142Y-26558095D01*
X141857142Y-27272380D02*
X141857142Y-26272380D01*
X141523809Y-26986666D01*
X141190476Y-26272380D01*
X141190476Y-27272380D01*
D11*
X142066666Y-28430952D02*
X142200000Y-28240476D01*
X142295238Y-28430952D02*
X142295238Y-28030952D01*
X142142857Y-28030952D01*
X142104761Y-28050000D01*
X142085714Y-28069047D01*
X142066666Y-28107142D01*
X142066666Y-28164285D01*
X142085714Y-28202380D01*
X142104761Y-28221428D01*
X142142857Y-28240476D01*
X142295238Y-28240476D01*
X141933333Y-28030952D02*
X141666666Y-28030952D01*
X141838095Y-28430952D01*
D10*
%TO.C,D2*%
X59461904Y-41952380D02*
X59461904Y-40952380D01*
X59223809Y-40952380D01*
X59080952Y-41000000D01*
X58985714Y-41095238D01*
X58938095Y-41190476D01*
X58890476Y-41380952D01*
X58890476Y-41523809D01*
X58938095Y-41714285D01*
X58985714Y-41809523D01*
X59080952Y-41904761D01*
X59223809Y-41952380D01*
X59461904Y-41952380D01*
X58700000Y-42047619D02*
X57938095Y-42047619D01*
X57747619Y-41904761D02*
X57604761Y-41952380D01*
X57366666Y-41952380D01*
X57271428Y-41904761D01*
X57223809Y-41857142D01*
X57176190Y-41761904D01*
X57176190Y-41666666D01*
X57223809Y-41571428D01*
X57271428Y-41523809D01*
X57366666Y-41476190D01*
X57557142Y-41428571D01*
X57652380Y-41380952D01*
X57700000Y-41333333D01*
X57747619Y-41238095D01*
X57747619Y-41142857D01*
X57700000Y-41047619D01*
X57652380Y-41000000D01*
X57557142Y-40952380D01*
X57319047Y-40952380D01*
X57176190Y-41000000D01*
X56747619Y-41952380D02*
X56747619Y-41285714D01*
X56747619Y-41380952D02*
X56700000Y-41333333D01*
X56604761Y-41285714D01*
X56461904Y-41285714D01*
X56366666Y-41333333D01*
X56319047Y-41428571D01*
X56319047Y-41952380D01*
X56319047Y-41428571D02*
X56271428Y-41333333D01*
X56176190Y-41285714D01*
X56033333Y-41285714D01*
X55938095Y-41333333D01*
X55890476Y-41428571D01*
X55890476Y-41952380D01*
X54985714Y-41952380D02*
X54985714Y-41428571D01*
X55033333Y-41333333D01*
X55128571Y-41285714D01*
X55319047Y-41285714D01*
X55414285Y-41333333D01*
X54985714Y-41904761D02*
X55080952Y-41952380D01*
X55319047Y-41952380D01*
X55414285Y-41904761D01*
X55461904Y-41809523D01*
X55461904Y-41714285D01*
X55414285Y-41619047D01*
X55319047Y-41571428D01*
X55080952Y-41571428D01*
X54985714Y-41523809D01*
X54366666Y-41952380D02*
X54461904Y-41904761D01*
X54509523Y-41809523D01*
X54509523Y-40952380D01*
X53842857Y-41952380D02*
X53938095Y-41904761D01*
X53985714Y-41809523D01*
X53985714Y-40952380D01*
X57438095Y-37852380D02*
X57438095Y-36852380D01*
X57200000Y-36852380D01*
X57057142Y-36900000D01*
X56961904Y-36995238D01*
X56914285Y-37090476D01*
X56866666Y-37280952D01*
X56866666Y-37423809D01*
X56914285Y-37614285D01*
X56961904Y-37709523D01*
X57057142Y-37804761D01*
X57200000Y-37852380D01*
X57438095Y-37852380D01*
X56485714Y-36947619D02*
X56438095Y-36900000D01*
X56342857Y-36852380D01*
X56104761Y-36852380D01*
X56009523Y-36900000D01*
X55961904Y-36947619D01*
X55914285Y-37042857D01*
X55914285Y-37138095D01*
X55961904Y-37280952D01*
X56533333Y-37852380D01*
X55914285Y-37852380D01*
%TO.C,D38*%
X147161904Y-92952380D02*
X147161904Y-91952380D01*
X146923809Y-91952380D01*
X146780952Y-92000000D01*
X146685714Y-92095238D01*
X146638095Y-92190476D01*
X146590476Y-92380952D01*
X146590476Y-92523809D01*
X146638095Y-92714285D01*
X146685714Y-92809523D01*
X146780952Y-92904761D01*
X146923809Y-92952380D01*
X147161904Y-92952380D01*
X146400000Y-93047619D02*
X145638095Y-93047619D01*
X145447619Y-92904761D02*
X145304761Y-92952380D01*
X145066666Y-92952380D01*
X144971428Y-92904761D01*
X144923809Y-92857142D01*
X144876190Y-92761904D01*
X144876190Y-92666666D01*
X144923809Y-92571428D01*
X144971428Y-92523809D01*
X145066666Y-92476190D01*
X145257142Y-92428571D01*
X145352380Y-92380952D01*
X145400000Y-92333333D01*
X145447619Y-92238095D01*
X145447619Y-92142857D01*
X145400000Y-92047619D01*
X145352380Y-92000000D01*
X145257142Y-91952380D01*
X145019047Y-91952380D01*
X144876190Y-92000000D01*
X144447619Y-92952380D02*
X144447619Y-92285714D01*
X144447619Y-92380952D02*
X144400000Y-92333333D01*
X144304761Y-92285714D01*
X144161904Y-92285714D01*
X144066666Y-92333333D01*
X144019047Y-92428571D01*
X144019047Y-92952380D01*
X144019047Y-92428571D02*
X143971428Y-92333333D01*
X143876190Y-92285714D01*
X143733333Y-92285714D01*
X143638095Y-92333333D01*
X143590476Y-92428571D01*
X143590476Y-92952380D01*
X142685714Y-92952380D02*
X142685714Y-92428571D01*
X142733333Y-92333333D01*
X142828571Y-92285714D01*
X143019047Y-92285714D01*
X143114285Y-92333333D01*
X142685714Y-92904761D02*
X142780952Y-92952380D01*
X143019047Y-92952380D01*
X143114285Y-92904761D01*
X143161904Y-92809523D01*
X143161904Y-92714285D01*
X143114285Y-92619047D01*
X143019047Y-92571428D01*
X142780952Y-92571428D01*
X142685714Y-92523809D01*
X142066666Y-92952380D02*
X142161904Y-92904761D01*
X142209523Y-92809523D01*
X142209523Y-91952380D01*
X141542857Y-92952380D02*
X141638095Y-92904761D01*
X141685714Y-92809523D01*
X141685714Y-91952380D01*
X145614285Y-88852380D02*
X145614285Y-87852380D01*
X145376190Y-87852380D01*
X145233333Y-87900000D01*
X145138095Y-87995238D01*
X145090476Y-88090476D01*
X145042857Y-88280952D01*
X145042857Y-88423809D01*
X145090476Y-88614285D01*
X145138095Y-88709523D01*
X145233333Y-88804761D01*
X145376190Y-88852380D01*
X145614285Y-88852380D01*
X144709523Y-87852380D02*
X144090476Y-87852380D01*
X144423809Y-88233333D01*
X144280952Y-88233333D01*
X144185714Y-88280952D01*
X144138095Y-88328571D01*
X144090476Y-88423809D01*
X144090476Y-88661904D01*
X144138095Y-88757142D01*
X144185714Y-88804761D01*
X144280952Y-88852380D01*
X144566666Y-88852380D01*
X144661904Y-88804761D01*
X144709523Y-88757142D01*
X143519047Y-88280952D02*
X143614285Y-88233333D01*
X143661904Y-88185714D01*
X143709523Y-88090476D01*
X143709523Y-88042857D01*
X143661904Y-87947619D01*
X143614285Y-87900000D01*
X143519047Y-87852380D01*
X143328571Y-87852380D01*
X143233333Y-87900000D01*
X143185714Y-87947619D01*
X143138095Y-88042857D01*
X143138095Y-88090476D01*
X143185714Y-88185714D01*
X143233333Y-88233333D01*
X143328571Y-88280952D01*
X143519047Y-88280952D01*
X143614285Y-88328571D01*
X143661904Y-88376190D01*
X143709523Y-88471428D01*
X143709523Y-88661904D01*
X143661904Y-88757142D01*
X143614285Y-88804761D01*
X143519047Y-88852380D01*
X143328571Y-88852380D01*
X143233333Y-88804761D01*
X143185714Y-88757142D01*
X143138095Y-88661904D01*
X143138095Y-88471428D01*
X143185714Y-88376190D01*
X143233333Y-88328571D01*
X143328571Y-88280952D01*
%TO.C,D16*%
X99961904Y-58952380D02*
X99961904Y-57952380D01*
X99723809Y-57952380D01*
X99580952Y-58000000D01*
X99485714Y-58095238D01*
X99438095Y-58190476D01*
X99390476Y-58380952D01*
X99390476Y-58523809D01*
X99438095Y-58714285D01*
X99485714Y-58809523D01*
X99580952Y-58904761D01*
X99723809Y-58952380D01*
X99961904Y-58952380D01*
X99200000Y-59047619D02*
X98438095Y-59047619D01*
X98247619Y-58904761D02*
X98104761Y-58952380D01*
X97866666Y-58952380D01*
X97771428Y-58904761D01*
X97723809Y-58857142D01*
X97676190Y-58761904D01*
X97676190Y-58666666D01*
X97723809Y-58571428D01*
X97771428Y-58523809D01*
X97866666Y-58476190D01*
X98057142Y-58428571D01*
X98152380Y-58380952D01*
X98200000Y-58333333D01*
X98247619Y-58238095D01*
X98247619Y-58142857D01*
X98200000Y-58047619D01*
X98152380Y-58000000D01*
X98057142Y-57952380D01*
X97819047Y-57952380D01*
X97676190Y-58000000D01*
X97247619Y-58952380D02*
X97247619Y-58285714D01*
X97247619Y-58380952D02*
X97200000Y-58333333D01*
X97104761Y-58285714D01*
X96961904Y-58285714D01*
X96866666Y-58333333D01*
X96819047Y-58428571D01*
X96819047Y-58952380D01*
X96819047Y-58428571D02*
X96771428Y-58333333D01*
X96676190Y-58285714D01*
X96533333Y-58285714D01*
X96438095Y-58333333D01*
X96390476Y-58428571D01*
X96390476Y-58952380D01*
X95485714Y-58952380D02*
X95485714Y-58428571D01*
X95533333Y-58333333D01*
X95628571Y-58285714D01*
X95819047Y-58285714D01*
X95914285Y-58333333D01*
X95485714Y-58904761D02*
X95580952Y-58952380D01*
X95819047Y-58952380D01*
X95914285Y-58904761D01*
X95961904Y-58809523D01*
X95961904Y-58714285D01*
X95914285Y-58619047D01*
X95819047Y-58571428D01*
X95580952Y-58571428D01*
X95485714Y-58523809D01*
X94866666Y-58952380D02*
X94961904Y-58904761D01*
X95009523Y-58809523D01*
X95009523Y-57952380D01*
X94342857Y-58952380D02*
X94438095Y-58904761D01*
X94485714Y-58809523D01*
X94485714Y-57952380D01*
X98414285Y-54852380D02*
X98414285Y-53852380D01*
X98176190Y-53852380D01*
X98033333Y-53900000D01*
X97938095Y-53995238D01*
X97890476Y-54090476D01*
X97842857Y-54280952D01*
X97842857Y-54423809D01*
X97890476Y-54614285D01*
X97938095Y-54709523D01*
X98033333Y-54804761D01*
X98176190Y-54852380D01*
X98414285Y-54852380D01*
X96890476Y-54852380D02*
X97461904Y-54852380D01*
X97176190Y-54852380D02*
X97176190Y-53852380D01*
X97271428Y-53995238D01*
X97366666Y-54090476D01*
X97461904Y-54138095D01*
X96033333Y-53852380D02*
X96223809Y-53852380D01*
X96319047Y-53900000D01*
X96366666Y-53947619D01*
X96461904Y-54090476D01*
X96509523Y-54280952D01*
X96509523Y-54661904D01*
X96461904Y-54757142D01*
X96414285Y-54804761D01*
X96319047Y-54852380D01*
X96128571Y-54852380D01*
X96033333Y-54804761D01*
X95985714Y-54757142D01*
X95938095Y-54661904D01*
X95938095Y-54423809D01*
X95985714Y-54328571D01*
X96033333Y-54280952D01*
X96128571Y-54233333D01*
X96319047Y-54233333D01*
X96414285Y-54280952D01*
X96461904Y-54328571D01*
X96509523Y-54423809D01*
%TO.C,D14*%
X63961904Y-58952380D02*
X63961904Y-57952380D01*
X63723809Y-57952380D01*
X63580952Y-58000000D01*
X63485714Y-58095238D01*
X63438095Y-58190476D01*
X63390476Y-58380952D01*
X63390476Y-58523809D01*
X63438095Y-58714285D01*
X63485714Y-58809523D01*
X63580952Y-58904761D01*
X63723809Y-58952380D01*
X63961904Y-58952380D01*
X63200000Y-59047619D02*
X62438095Y-59047619D01*
X62247619Y-58904761D02*
X62104761Y-58952380D01*
X61866666Y-58952380D01*
X61771428Y-58904761D01*
X61723809Y-58857142D01*
X61676190Y-58761904D01*
X61676190Y-58666666D01*
X61723809Y-58571428D01*
X61771428Y-58523809D01*
X61866666Y-58476190D01*
X62057142Y-58428571D01*
X62152380Y-58380952D01*
X62200000Y-58333333D01*
X62247619Y-58238095D01*
X62247619Y-58142857D01*
X62200000Y-58047619D01*
X62152380Y-58000000D01*
X62057142Y-57952380D01*
X61819047Y-57952380D01*
X61676190Y-58000000D01*
X61247619Y-58952380D02*
X61247619Y-58285714D01*
X61247619Y-58380952D02*
X61200000Y-58333333D01*
X61104761Y-58285714D01*
X60961904Y-58285714D01*
X60866666Y-58333333D01*
X60819047Y-58428571D01*
X60819047Y-58952380D01*
X60819047Y-58428571D02*
X60771428Y-58333333D01*
X60676190Y-58285714D01*
X60533333Y-58285714D01*
X60438095Y-58333333D01*
X60390476Y-58428571D01*
X60390476Y-58952380D01*
X59485714Y-58952380D02*
X59485714Y-58428571D01*
X59533333Y-58333333D01*
X59628571Y-58285714D01*
X59819047Y-58285714D01*
X59914285Y-58333333D01*
X59485714Y-58904761D02*
X59580952Y-58952380D01*
X59819047Y-58952380D01*
X59914285Y-58904761D01*
X59961904Y-58809523D01*
X59961904Y-58714285D01*
X59914285Y-58619047D01*
X59819047Y-58571428D01*
X59580952Y-58571428D01*
X59485714Y-58523809D01*
X58866666Y-58952380D02*
X58961904Y-58904761D01*
X59009523Y-58809523D01*
X59009523Y-57952380D01*
X58342857Y-58952380D02*
X58438095Y-58904761D01*
X58485714Y-58809523D01*
X58485714Y-57952380D01*
X62414285Y-54852380D02*
X62414285Y-53852380D01*
X62176190Y-53852380D01*
X62033333Y-53900000D01*
X61938095Y-53995238D01*
X61890476Y-54090476D01*
X61842857Y-54280952D01*
X61842857Y-54423809D01*
X61890476Y-54614285D01*
X61938095Y-54709523D01*
X62033333Y-54804761D01*
X62176190Y-54852380D01*
X62414285Y-54852380D01*
X60890476Y-54852380D02*
X61461904Y-54852380D01*
X61176190Y-54852380D02*
X61176190Y-53852380D01*
X61271428Y-53995238D01*
X61366666Y-54090476D01*
X61461904Y-54138095D01*
X60033333Y-54185714D02*
X60033333Y-54852380D01*
X60271428Y-53804761D02*
X60509523Y-54519047D01*
X59890476Y-54519047D01*
%TO.C,D26*%
X90961904Y-75952380D02*
X90961904Y-74952380D01*
X90723809Y-74952380D01*
X90580952Y-75000000D01*
X90485714Y-75095238D01*
X90438095Y-75190476D01*
X90390476Y-75380952D01*
X90390476Y-75523809D01*
X90438095Y-75714285D01*
X90485714Y-75809523D01*
X90580952Y-75904761D01*
X90723809Y-75952380D01*
X90961904Y-75952380D01*
X90200000Y-76047619D02*
X89438095Y-76047619D01*
X89247619Y-75904761D02*
X89104761Y-75952380D01*
X88866666Y-75952380D01*
X88771428Y-75904761D01*
X88723809Y-75857142D01*
X88676190Y-75761904D01*
X88676190Y-75666666D01*
X88723809Y-75571428D01*
X88771428Y-75523809D01*
X88866666Y-75476190D01*
X89057142Y-75428571D01*
X89152380Y-75380952D01*
X89200000Y-75333333D01*
X89247619Y-75238095D01*
X89247619Y-75142857D01*
X89200000Y-75047619D01*
X89152380Y-75000000D01*
X89057142Y-74952380D01*
X88819047Y-74952380D01*
X88676190Y-75000000D01*
X88247619Y-75952380D02*
X88247619Y-75285714D01*
X88247619Y-75380952D02*
X88200000Y-75333333D01*
X88104761Y-75285714D01*
X87961904Y-75285714D01*
X87866666Y-75333333D01*
X87819047Y-75428571D01*
X87819047Y-75952380D01*
X87819047Y-75428571D02*
X87771428Y-75333333D01*
X87676190Y-75285714D01*
X87533333Y-75285714D01*
X87438095Y-75333333D01*
X87390476Y-75428571D01*
X87390476Y-75952380D01*
X86485714Y-75952380D02*
X86485714Y-75428571D01*
X86533333Y-75333333D01*
X86628571Y-75285714D01*
X86819047Y-75285714D01*
X86914285Y-75333333D01*
X86485714Y-75904761D02*
X86580952Y-75952380D01*
X86819047Y-75952380D01*
X86914285Y-75904761D01*
X86961904Y-75809523D01*
X86961904Y-75714285D01*
X86914285Y-75619047D01*
X86819047Y-75571428D01*
X86580952Y-75571428D01*
X86485714Y-75523809D01*
X85866666Y-75952380D02*
X85961904Y-75904761D01*
X86009523Y-75809523D01*
X86009523Y-74952380D01*
X85342857Y-75952380D02*
X85438095Y-75904761D01*
X85485714Y-75809523D01*
X85485714Y-74952380D01*
X89414285Y-71852380D02*
X89414285Y-70852380D01*
X89176190Y-70852380D01*
X89033333Y-70900000D01*
X88938095Y-70995238D01*
X88890476Y-71090476D01*
X88842857Y-71280952D01*
X88842857Y-71423809D01*
X88890476Y-71614285D01*
X88938095Y-71709523D01*
X89033333Y-71804761D01*
X89176190Y-71852380D01*
X89414285Y-71852380D01*
X88461904Y-70947619D02*
X88414285Y-70900000D01*
X88319047Y-70852380D01*
X88080952Y-70852380D01*
X87985714Y-70900000D01*
X87938095Y-70947619D01*
X87890476Y-71042857D01*
X87890476Y-71138095D01*
X87938095Y-71280952D01*
X88509523Y-71852380D01*
X87890476Y-71852380D01*
X87033333Y-70852380D02*
X87223809Y-70852380D01*
X87319047Y-70900000D01*
X87366666Y-70947619D01*
X87461904Y-71090476D01*
X87509523Y-71280952D01*
X87509523Y-71661904D01*
X87461904Y-71757142D01*
X87414285Y-71804761D01*
X87319047Y-71852380D01*
X87128571Y-71852380D01*
X87033333Y-71804761D01*
X86985714Y-71757142D01*
X86938095Y-71661904D01*
X86938095Y-71423809D01*
X86985714Y-71328571D01*
X87033333Y-71280952D01*
X87128571Y-71233333D01*
X87319047Y-71233333D01*
X87414285Y-71280952D01*
X87461904Y-71328571D01*
X87509523Y-71423809D01*
%TO.C,R2*%
X131917619Y-38638095D02*
X131870000Y-38685714D01*
X131822380Y-38780952D01*
X131822380Y-39019047D01*
X131870000Y-39114285D01*
X131917619Y-39161904D01*
X132012857Y-39209523D01*
X132108095Y-39209523D01*
X132250952Y-39161904D01*
X132822380Y-38590476D01*
X132822380Y-39209523D01*
X131917619Y-39590476D02*
X131870000Y-39638095D01*
X131822380Y-39733333D01*
X131822380Y-39971428D01*
X131870000Y-40066666D01*
X131917619Y-40114285D01*
X132012857Y-40161904D01*
X132108095Y-40161904D01*
X132250952Y-40114285D01*
X132822380Y-39542857D01*
X132822380Y-40161904D01*
D11*
X133980952Y-39333333D02*
X133790476Y-39200000D01*
X133980952Y-39104761D02*
X133580952Y-39104761D01*
X133580952Y-39257142D01*
X133600000Y-39295238D01*
X133619047Y-39314285D01*
X133657142Y-39333333D01*
X133714285Y-39333333D01*
X133752380Y-39314285D01*
X133771428Y-39295238D01*
X133790476Y-39257142D01*
X133790476Y-39104761D01*
X133619047Y-39485714D02*
X133600000Y-39504761D01*
X133580952Y-39542857D01*
X133580952Y-39638095D01*
X133600000Y-39676190D01*
X133619047Y-39695238D01*
X133657142Y-39714285D01*
X133695238Y-39714285D01*
X133752380Y-39695238D01*
X133980952Y-39466666D01*
X133980952Y-39714285D01*
D10*
%TO.C,D36*%
X63961904Y-92952380D02*
X63961904Y-91952380D01*
X63723809Y-91952380D01*
X63580952Y-92000000D01*
X63485714Y-92095238D01*
X63438095Y-92190476D01*
X63390476Y-92380952D01*
X63390476Y-92523809D01*
X63438095Y-92714285D01*
X63485714Y-92809523D01*
X63580952Y-92904761D01*
X63723809Y-92952380D01*
X63961904Y-92952380D01*
X63200000Y-93047619D02*
X62438095Y-93047619D01*
X62247619Y-92904761D02*
X62104761Y-92952380D01*
X61866666Y-92952380D01*
X61771428Y-92904761D01*
X61723809Y-92857142D01*
X61676190Y-92761904D01*
X61676190Y-92666666D01*
X61723809Y-92571428D01*
X61771428Y-92523809D01*
X61866666Y-92476190D01*
X62057142Y-92428571D01*
X62152380Y-92380952D01*
X62200000Y-92333333D01*
X62247619Y-92238095D01*
X62247619Y-92142857D01*
X62200000Y-92047619D01*
X62152380Y-92000000D01*
X62057142Y-91952380D01*
X61819047Y-91952380D01*
X61676190Y-92000000D01*
X61247619Y-92952380D02*
X61247619Y-92285714D01*
X61247619Y-92380952D02*
X61200000Y-92333333D01*
X61104761Y-92285714D01*
X60961904Y-92285714D01*
X60866666Y-92333333D01*
X60819047Y-92428571D01*
X60819047Y-92952380D01*
X60819047Y-92428571D02*
X60771428Y-92333333D01*
X60676190Y-92285714D01*
X60533333Y-92285714D01*
X60438095Y-92333333D01*
X60390476Y-92428571D01*
X60390476Y-92952380D01*
X59485714Y-92952380D02*
X59485714Y-92428571D01*
X59533333Y-92333333D01*
X59628571Y-92285714D01*
X59819047Y-92285714D01*
X59914285Y-92333333D01*
X59485714Y-92904761D02*
X59580952Y-92952380D01*
X59819047Y-92952380D01*
X59914285Y-92904761D01*
X59961904Y-92809523D01*
X59961904Y-92714285D01*
X59914285Y-92619047D01*
X59819047Y-92571428D01*
X59580952Y-92571428D01*
X59485714Y-92523809D01*
X58866666Y-92952380D02*
X58961904Y-92904761D01*
X59009523Y-92809523D01*
X59009523Y-91952380D01*
X58342857Y-92952380D02*
X58438095Y-92904761D01*
X58485714Y-92809523D01*
X58485714Y-91952380D01*
X62414285Y-88852380D02*
X62414285Y-87852380D01*
X62176190Y-87852380D01*
X62033333Y-87900000D01*
X61938095Y-87995238D01*
X61890476Y-88090476D01*
X61842857Y-88280952D01*
X61842857Y-88423809D01*
X61890476Y-88614285D01*
X61938095Y-88709523D01*
X62033333Y-88804761D01*
X62176190Y-88852380D01*
X62414285Y-88852380D01*
X61509523Y-87852380D02*
X60890476Y-87852380D01*
X61223809Y-88233333D01*
X61080952Y-88233333D01*
X60985714Y-88280952D01*
X60938095Y-88328571D01*
X60890476Y-88423809D01*
X60890476Y-88661904D01*
X60938095Y-88757142D01*
X60985714Y-88804761D01*
X61080952Y-88852380D01*
X61366666Y-88852380D01*
X61461904Y-88804761D01*
X61509523Y-88757142D01*
X60033333Y-87852380D02*
X60223809Y-87852380D01*
X60319047Y-87900000D01*
X60366666Y-87947619D01*
X60461904Y-88090476D01*
X60509523Y-88280952D01*
X60509523Y-88661904D01*
X60461904Y-88757142D01*
X60414285Y-88804761D01*
X60319047Y-88852380D01*
X60128571Y-88852380D01*
X60033333Y-88804761D01*
X59985714Y-88757142D01*
X59938095Y-88661904D01*
X59938095Y-88423809D01*
X59985714Y-88328571D01*
X60033333Y-88280952D01*
X60128571Y-88233333D01*
X60319047Y-88233333D01*
X60414285Y-88280952D01*
X60461904Y-88328571D01*
X60509523Y-88423809D01*
%TO.C,R4*%
X118272380Y-89779761D02*
X118272380Y-89208333D01*
X118272380Y-89494047D02*
X117272380Y-89494047D01*
X117415238Y-89398809D01*
X117510476Y-89303571D01*
X117558095Y-89208333D01*
X117272380Y-90398809D02*
X117272380Y-90494047D01*
X117320000Y-90589285D01*
X117367619Y-90636904D01*
X117462857Y-90684523D01*
X117653333Y-90732142D01*
X117891428Y-90732142D01*
X118081904Y-90684523D01*
X118177142Y-90636904D01*
X118224761Y-90589285D01*
X118272380Y-90494047D01*
X118272380Y-90398809D01*
X118224761Y-90303571D01*
X118177142Y-90255952D01*
X118081904Y-90208333D01*
X117891428Y-90160714D01*
X117653333Y-90160714D01*
X117462857Y-90208333D01*
X117367619Y-90255952D01*
X117320000Y-90303571D01*
X117272380Y-90398809D01*
X118272380Y-91160714D02*
X117272380Y-91160714D01*
X117891428Y-91255952D02*
X118272380Y-91541666D01*
X117605714Y-91541666D02*
X117986666Y-91160714D01*
D11*
X119430952Y-90308333D02*
X119240476Y-90175000D01*
X119430952Y-90079761D02*
X119030952Y-90079761D01*
X119030952Y-90232142D01*
X119050000Y-90270238D01*
X119069047Y-90289285D01*
X119107142Y-90308333D01*
X119164285Y-90308333D01*
X119202380Y-90289285D01*
X119221428Y-90270238D01*
X119240476Y-90232142D01*
X119240476Y-90079761D01*
X119164285Y-90651190D02*
X119430952Y-90651190D01*
X119011904Y-90555952D02*
X119297619Y-90460714D01*
X119297619Y-90708333D01*
D10*
%TO.C,D6*%
X131461904Y-41952380D02*
X131461904Y-40952380D01*
X131223809Y-40952380D01*
X131080952Y-41000000D01*
X130985714Y-41095238D01*
X130938095Y-41190476D01*
X130890476Y-41380952D01*
X130890476Y-41523809D01*
X130938095Y-41714285D01*
X130985714Y-41809523D01*
X131080952Y-41904761D01*
X131223809Y-41952380D01*
X131461904Y-41952380D01*
X130700000Y-42047619D02*
X129938095Y-42047619D01*
X129747619Y-41904761D02*
X129604761Y-41952380D01*
X129366666Y-41952380D01*
X129271428Y-41904761D01*
X129223809Y-41857142D01*
X129176190Y-41761904D01*
X129176190Y-41666666D01*
X129223809Y-41571428D01*
X129271428Y-41523809D01*
X129366666Y-41476190D01*
X129557142Y-41428571D01*
X129652380Y-41380952D01*
X129700000Y-41333333D01*
X129747619Y-41238095D01*
X129747619Y-41142857D01*
X129700000Y-41047619D01*
X129652380Y-41000000D01*
X129557142Y-40952380D01*
X129319047Y-40952380D01*
X129176190Y-41000000D01*
X128747619Y-41952380D02*
X128747619Y-41285714D01*
X128747619Y-41380952D02*
X128700000Y-41333333D01*
X128604761Y-41285714D01*
X128461904Y-41285714D01*
X128366666Y-41333333D01*
X128319047Y-41428571D01*
X128319047Y-41952380D01*
X128319047Y-41428571D02*
X128271428Y-41333333D01*
X128176190Y-41285714D01*
X128033333Y-41285714D01*
X127938095Y-41333333D01*
X127890476Y-41428571D01*
X127890476Y-41952380D01*
X126985714Y-41952380D02*
X126985714Y-41428571D01*
X127033333Y-41333333D01*
X127128571Y-41285714D01*
X127319047Y-41285714D01*
X127414285Y-41333333D01*
X126985714Y-41904761D02*
X127080952Y-41952380D01*
X127319047Y-41952380D01*
X127414285Y-41904761D01*
X127461904Y-41809523D01*
X127461904Y-41714285D01*
X127414285Y-41619047D01*
X127319047Y-41571428D01*
X127080952Y-41571428D01*
X126985714Y-41523809D01*
X126366666Y-41952380D02*
X126461904Y-41904761D01*
X126509523Y-41809523D01*
X126509523Y-40952380D01*
X125842857Y-41952380D02*
X125938095Y-41904761D01*
X125985714Y-41809523D01*
X125985714Y-40952380D01*
X129438095Y-37852380D02*
X129438095Y-36852380D01*
X129200000Y-36852380D01*
X129057142Y-36900000D01*
X128961904Y-36995238D01*
X128914285Y-37090476D01*
X128866666Y-37280952D01*
X128866666Y-37423809D01*
X128914285Y-37614285D01*
X128961904Y-37709523D01*
X129057142Y-37804761D01*
X129200000Y-37852380D01*
X129438095Y-37852380D01*
X128009523Y-36852380D02*
X128200000Y-36852380D01*
X128295238Y-36900000D01*
X128342857Y-36947619D01*
X128438095Y-37090476D01*
X128485714Y-37280952D01*
X128485714Y-37661904D01*
X128438095Y-37757142D01*
X128390476Y-37804761D01*
X128295238Y-37852380D01*
X128104761Y-37852380D01*
X128009523Y-37804761D01*
X127961904Y-37757142D01*
X127914285Y-37661904D01*
X127914285Y-37423809D01*
X127961904Y-37328571D01*
X128009523Y-37280952D01*
X128104761Y-37233333D01*
X128295238Y-37233333D01*
X128390476Y-37280952D01*
X128438095Y-37328571D01*
X128485714Y-37423809D01*
%TO.C,D15*%
X81961904Y-58952380D02*
X81961904Y-57952380D01*
X81723809Y-57952380D01*
X81580952Y-58000000D01*
X81485714Y-58095238D01*
X81438095Y-58190476D01*
X81390476Y-58380952D01*
X81390476Y-58523809D01*
X81438095Y-58714285D01*
X81485714Y-58809523D01*
X81580952Y-58904761D01*
X81723809Y-58952380D01*
X81961904Y-58952380D01*
X81200000Y-59047619D02*
X80438095Y-59047619D01*
X80247619Y-58904761D02*
X80104761Y-58952380D01*
X79866666Y-58952380D01*
X79771428Y-58904761D01*
X79723809Y-58857142D01*
X79676190Y-58761904D01*
X79676190Y-58666666D01*
X79723809Y-58571428D01*
X79771428Y-58523809D01*
X79866666Y-58476190D01*
X80057142Y-58428571D01*
X80152380Y-58380952D01*
X80200000Y-58333333D01*
X80247619Y-58238095D01*
X80247619Y-58142857D01*
X80200000Y-58047619D01*
X80152380Y-58000000D01*
X80057142Y-57952380D01*
X79819047Y-57952380D01*
X79676190Y-58000000D01*
X79247619Y-58952380D02*
X79247619Y-58285714D01*
X79247619Y-58380952D02*
X79200000Y-58333333D01*
X79104761Y-58285714D01*
X78961904Y-58285714D01*
X78866666Y-58333333D01*
X78819047Y-58428571D01*
X78819047Y-58952380D01*
X78819047Y-58428571D02*
X78771428Y-58333333D01*
X78676190Y-58285714D01*
X78533333Y-58285714D01*
X78438095Y-58333333D01*
X78390476Y-58428571D01*
X78390476Y-58952380D01*
X77485714Y-58952380D02*
X77485714Y-58428571D01*
X77533333Y-58333333D01*
X77628571Y-58285714D01*
X77819047Y-58285714D01*
X77914285Y-58333333D01*
X77485714Y-58904761D02*
X77580952Y-58952380D01*
X77819047Y-58952380D01*
X77914285Y-58904761D01*
X77961904Y-58809523D01*
X77961904Y-58714285D01*
X77914285Y-58619047D01*
X77819047Y-58571428D01*
X77580952Y-58571428D01*
X77485714Y-58523809D01*
X76866666Y-58952380D02*
X76961904Y-58904761D01*
X77009523Y-58809523D01*
X77009523Y-57952380D01*
X76342857Y-58952380D02*
X76438095Y-58904761D01*
X76485714Y-58809523D01*
X76485714Y-57952380D01*
X80414285Y-54852380D02*
X80414285Y-53852380D01*
X80176190Y-53852380D01*
X80033333Y-53900000D01*
X79938095Y-53995238D01*
X79890476Y-54090476D01*
X79842857Y-54280952D01*
X79842857Y-54423809D01*
X79890476Y-54614285D01*
X79938095Y-54709523D01*
X80033333Y-54804761D01*
X80176190Y-54852380D01*
X80414285Y-54852380D01*
X78890476Y-54852380D02*
X79461904Y-54852380D01*
X79176190Y-54852380D02*
X79176190Y-53852380D01*
X79271428Y-53995238D01*
X79366666Y-54090476D01*
X79461904Y-54138095D01*
X77985714Y-53852380D02*
X78461904Y-53852380D01*
X78509523Y-54328571D01*
X78461904Y-54280952D01*
X78366666Y-54233333D01*
X78128571Y-54233333D01*
X78033333Y-54280952D01*
X77985714Y-54328571D01*
X77938095Y-54423809D01*
X77938095Y-54661904D01*
X77985714Y-54757142D01*
X78033333Y-54804761D01*
X78128571Y-54852380D01*
X78366666Y-54852380D01*
X78461904Y-54804761D01*
X78509523Y-54757142D01*
%TO.C,D17*%
X117961904Y-58952380D02*
X117961904Y-57952380D01*
X117723809Y-57952380D01*
X117580952Y-58000000D01*
X117485714Y-58095238D01*
X117438095Y-58190476D01*
X117390476Y-58380952D01*
X117390476Y-58523809D01*
X117438095Y-58714285D01*
X117485714Y-58809523D01*
X117580952Y-58904761D01*
X117723809Y-58952380D01*
X117961904Y-58952380D01*
X117200000Y-59047619D02*
X116438095Y-59047619D01*
X116247619Y-58904761D02*
X116104761Y-58952380D01*
X115866666Y-58952380D01*
X115771428Y-58904761D01*
X115723809Y-58857142D01*
X115676190Y-58761904D01*
X115676190Y-58666666D01*
X115723809Y-58571428D01*
X115771428Y-58523809D01*
X115866666Y-58476190D01*
X116057142Y-58428571D01*
X116152380Y-58380952D01*
X116200000Y-58333333D01*
X116247619Y-58238095D01*
X116247619Y-58142857D01*
X116200000Y-58047619D01*
X116152380Y-58000000D01*
X116057142Y-57952380D01*
X115819047Y-57952380D01*
X115676190Y-58000000D01*
X115247619Y-58952380D02*
X115247619Y-58285714D01*
X115247619Y-58380952D02*
X115200000Y-58333333D01*
X115104761Y-58285714D01*
X114961904Y-58285714D01*
X114866666Y-58333333D01*
X114819047Y-58428571D01*
X114819047Y-58952380D01*
X114819047Y-58428571D02*
X114771428Y-58333333D01*
X114676190Y-58285714D01*
X114533333Y-58285714D01*
X114438095Y-58333333D01*
X114390476Y-58428571D01*
X114390476Y-58952380D01*
X113485714Y-58952380D02*
X113485714Y-58428571D01*
X113533333Y-58333333D01*
X113628571Y-58285714D01*
X113819047Y-58285714D01*
X113914285Y-58333333D01*
X113485714Y-58904761D02*
X113580952Y-58952380D01*
X113819047Y-58952380D01*
X113914285Y-58904761D01*
X113961904Y-58809523D01*
X113961904Y-58714285D01*
X113914285Y-58619047D01*
X113819047Y-58571428D01*
X113580952Y-58571428D01*
X113485714Y-58523809D01*
X112866666Y-58952380D02*
X112961904Y-58904761D01*
X113009523Y-58809523D01*
X113009523Y-57952380D01*
X112342857Y-58952380D02*
X112438095Y-58904761D01*
X112485714Y-58809523D01*
X112485714Y-57952380D01*
X116414285Y-54852380D02*
X116414285Y-53852380D01*
X116176190Y-53852380D01*
X116033333Y-53900000D01*
X115938095Y-53995238D01*
X115890476Y-54090476D01*
X115842857Y-54280952D01*
X115842857Y-54423809D01*
X115890476Y-54614285D01*
X115938095Y-54709523D01*
X116033333Y-54804761D01*
X116176190Y-54852380D01*
X116414285Y-54852380D01*
X114890476Y-54852380D02*
X115461904Y-54852380D01*
X115176190Y-54852380D02*
X115176190Y-53852380D01*
X115271428Y-53995238D01*
X115366666Y-54090476D01*
X115461904Y-54138095D01*
X114557142Y-53852380D02*
X113890476Y-53852380D01*
X114319047Y-54852380D01*
%TO.C,R1*%
X156107380Y-85004761D02*
X156107380Y-84433333D01*
X156107380Y-84719047D02*
X155107380Y-84719047D01*
X155250238Y-84623809D01*
X155345476Y-84528571D01*
X155393095Y-84433333D01*
X155107380Y-85623809D02*
X155107380Y-85719047D01*
X155155000Y-85814285D01*
X155202619Y-85861904D01*
X155297857Y-85909523D01*
X155488333Y-85957142D01*
X155726428Y-85957142D01*
X155916904Y-85909523D01*
X156012142Y-85861904D01*
X156059761Y-85814285D01*
X156107380Y-85719047D01*
X156107380Y-85623809D01*
X156059761Y-85528571D01*
X156012142Y-85480952D01*
X155916904Y-85433333D01*
X155726428Y-85385714D01*
X155488333Y-85385714D01*
X155297857Y-85433333D01*
X155202619Y-85480952D01*
X155155000Y-85528571D01*
X155107380Y-85623809D01*
X156107380Y-86385714D02*
X155107380Y-86385714D01*
X155726428Y-86480952D02*
X156107380Y-86766666D01*
X155440714Y-86766666D02*
X155821666Y-86385714D01*
D11*
X154405952Y-85533333D02*
X154215476Y-85400000D01*
X154405952Y-85304761D02*
X154005952Y-85304761D01*
X154005952Y-85457142D01*
X154025000Y-85495238D01*
X154044047Y-85514285D01*
X154082142Y-85533333D01*
X154139285Y-85533333D01*
X154177380Y-85514285D01*
X154196428Y-85495238D01*
X154215476Y-85457142D01*
X154215476Y-85304761D01*
X154405952Y-85914285D02*
X154405952Y-85685714D01*
X154405952Y-85800000D02*
X154005952Y-85800000D01*
X154063095Y-85761904D01*
X154101190Y-85723809D01*
X154120238Y-85685714D01*
D10*
%TO.C,C2*%
X127142857Y-84422380D02*
X127047619Y-84422380D01*
X126952380Y-84470000D01*
X126904761Y-84517619D01*
X126857142Y-84612857D01*
X126809523Y-84803333D01*
X126809523Y-85041428D01*
X126857142Y-85231904D01*
X126904761Y-85327142D01*
X126952380Y-85374761D01*
X127047619Y-85422380D01*
X127142857Y-85422380D01*
X127238095Y-85374761D01*
X127285714Y-85327142D01*
X127333333Y-85231904D01*
X127380952Y-85041428D01*
X127380952Y-84803333D01*
X127333333Y-84612857D01*
X127285714Y-84517619D01*
X127238095Y-84470000D01*
X127142857Y-84422380D01*
X126380952Y-85327142D02*
X126333333Y-85374761D01*
X126380952Y-85422380D01*
X126428571Y-85374761D01*
X126380952Y-85327142D01*
X126380952Y-85422380D01*
X125380952Y-85422380D02*
X125952380Y-85422380D01*
X125666666Y-85422380D02*
X125666666Y-84422380D01*
X125761904Y-84565238D01*
X125857142Y-84660476D01*
X125952380Y-84708095D01*
X124523809Y-84755714D02*
X124523809Y-85422380D01*
X124952380Y-84755714D02*
X124952380Y-85279523D01*
X124904761Y-85374761D01*
X124809523Y-85422380D01*
X124666666Y-85422380D01*
X124571428Y-85374761D01*
X124523809Y-85327142D01*
X123714285Y-84898571D02*
X124047619Y-84898571D01*
X124047619Y-85422380D02*
X124047619Y-84422380D01*
X123571428Y-84422380D01*
D11*
X125566666Y-86542857D02*
X125585714Y-86561904D01*
X125642857Y-86580952D01*
X125680952Y-86580952D01*
X125738095Y-86561904D01*
X125776190Y-86523809D01*
X125795238Y-86485714D01*
X125814285Y-86409523D01*
X125814285Y-86352380D01*
X125795238Y-86276190D01*
X125776190Y-86238095D01*
X125738095Y-86200000D01*
X125680952Y-86180952D01*
X125642857Y-86180952D01*
X125585714Y-86200000D01*
X125566666Y-86219047D01*
X125414285Y-86219047D02*
X125395238Y-86200000D01*
X125357142Y-86180952D01*
X125261904Y-86180952D01*
X125223809Y-86200000D01*
X125204761Y-86219047D01*
X125185714Y-86257142D01*
X125185714Y-86295238D01*
X125204761Y-86352380D01*
X125433333Y-86580952D01*
X125185714Y-86580952D01*
D10*
%TO.C,D27*%
X108961904Y-75952380D02*
X108961904Y-74952380D01*
X108723809Y-74952380D01*
X108580952Y-75000000D01*
X108485714Y-75095238D01*
X108438095Y-75190476D01*
X108390476Y-75380952D01*
X108390476Y-75523809D01*
X108438095Y-75714285D01*
X108485714Y-75809523D01*
X108580952Y-75904761D01*
X108723809Y-75952380D01*
X108961904Y-75952380D01*
X108200000Y-76047619D02*
X107438095Y-76047619D01*
X107247619Y-75904761D02*
X107104761Y-75952380D01*
X106866666Y-75952380D01*
X106771428Y-75904761D01*
X106723809Y-75857142D01*
X106676190Y-75761904D01*
X106676190Y-75666666D01*
X106723809Y-75571428D01*
X106771428Y-75523809D01*
X106866666Y-75476190D01*
X107057142Y-75428571D01*
X107152380Y-75380952D01*
X107200000Y-75333333D01*
X107247619Y-75238095D01*
X107247619Y-75142857D01*
X107200000Y-75047619D01*
X107152380Y-75000000D01*
X107057142Y-74952380D01*
X106819047Y-74952380D01*
X106676190Y-75000000D01*
X106247619Y-75952380D02*
X106247619Y-75285714D01*
X106247619Y-75380952D02*
X106200000Y-75333333D01*
X106104761Y-75285714D01*
X105961904Y-75285714D01*
X105866666Y-75333333D01*
X105819047Y-75428571D01*
X105819047Y-75952380D01*
X105819047Y-75428571D02*
X105771428Y-75333333D01*
X105676190Y-75285714D01*
X105533333Y-75285714D01*
X105438095Y-75333333D01*
X105390476Y-75428571D01*
X105390476Y-75952380D01*
X104485714Y-75952380D02*
X104485714Y-75428571D01*
X104533333Y-75333333D01*
X104628571Y-75285714D01*
X104819047Y-75285714D01*
X104914285Y-75333333D01*
X104485714Y-75904761D02*
X104580952Y-75952380D01*
X104819047Y-75952380D01*
X104914285Y-75904761D01*
X104961904Y-75809523D01*
X104961904Y-75714285D01*
X104914285Y-75619047D01*
X104819047Y-75571428D01*
X104580952Y-75571428D01*
X104485714Y-75523809D01*
X103866666Y-75952380D02*
X103961904Y-75904761D01*
X104009523Y-75809523D01*
X104009523Y-74952380D01*
X103342857Y-75952380D02*
X103438095Y-75904761D01*
X103485714Y-75809523D01*
X103485714Y-74952380D01*
X107414285Y-71852380D02*
X107414285Y-70852380D01*
X107176190Y-70852380D01*
X107033333Y-70900000D01*
X106938095Y-70995238D01*
X106890476Y-71090476D01*
X106842857Y-71280952D01*
X106842857Y-71423809D01*
X106890476Y-71614285D01*
X106938095Y-71709523D01*
X107033333Y-71804761D01*
X107176190Y-71852380D01*
X107414285Y-71852380D01*
X106461904Y-70947619D02*
X106414285Y-70900000D01*
X106319047Y-70852380D01*
X106080952Y-70852380D01*
X105985714Y-70900000D01*
X105938095Y-70947619D01*
X105890476Y-71042857D01*
X105890476Y-71138095D01*
X105938095Y-71280952D01*
X106509523Y-71852380D01*
X105890476Y-71852380D01*
X105557142Y-70852380D02*
X104890476Y-70852380D01*
X105319047Y-71852380D01*
%TO.C,D41*%
X137220000Y-31472380D02*
X137220000Y-30472380D01*
X136839047Y-30472380D01*
X136743809Y-30520000D01*
X136696190Y-30567619D01*
X136648571Y-30662857D01*
X136648571Y-30805714D01*
X136696190Y-30900952D01*
X136743809Y-30948571D01*
X136839047Y-30996190D01*
X137220000Y-30996190D01*
X135648571Y-31472380D02*
X135981904Y-30996190D01*
X136220000Y-31472380D02*
X136220000Y-30472380D01*
X135839047Y-30472380D01*
X135743809Y-30520000D01*
X135696190Y-30567619D01*
X135648571Y-30662857D01*
X135648571Y-30805714D01*
X135696190Y-30900952D01*
X135743809Y-30948571D01*
X135839047Y-30996190D01*
X136220000Y-30996190D01*
X135362857Y-30472380D02*
X134791428Y-30472380D01*
X135077142Y-31472380D02*
X135077142Y-30472380D01*
X133886666Y-31472380D02*
X134220000Y-30996190D01*
X134458095Y-31472380D02*
X134458095Y-30472380D01*
X134077142Y-30472380D01*
X133981904Y-30520000D01*
X133934285Y-30567619D01*
X133886666Y-30662857D01*
X133886666Y-30805714D01*
X133934285Y-30900952D01*
X133981904Y-30948571D01*
X134077142Y-30996190D01*
X134458095Y-30996190D01*
X132981904Y-30472380D02*
X133458095Y-30472380D01*
X133505714Y-30948571D01*
X133458095Y-30900952D01*
X133362857Y-30853333D01*
X133124761Y-30853333D01*
X133029523Y-30900952D01*
X132981904Y-30948571D01*
X132934285Y-31043809D01*
X132934285Y-31281904D01*
X132981904Y-31377142D01*
X133029523Y-31424761D01*
X133124761Y-31472380D01*
X133362857Y-31472380D01*
X133458095Y-31424761D01*
X133505714Y-31377142D01*
X132648571Y-30472380D02*
X132315238Y-31472380D01*
X131981904Y-30472380D01*
X131458095Y-30472380D02*
X131362857Y-30472380D01*
X131267619Y-30520000D01*
X131220000Y-30567619D01*
X131172380Y-30662857D01*
X131124761Y-30853333D01*
X131124761Y-31091428D01*
X131172380Y-31281904D01*
X131220000Y-31377142D01*
X131267619Y-31424761D01*
X131362857Y-31472380D01*
X131458095Y-31472380D01*
X131553333Y-31424761D01*
X131600952Y-31377142D01*
X131648571Y-31281904D01*
X131696190Y-31091428D01*
X131696190Y-30853333D01*
X131648571Y-30662857D01*
X131600952Y-30567619D01*
X131553333Y-30520000D01*
X131458095Y-30472380D01*
X130696190Y-30472380D02*
X130696190Y-31281904D01*
X130648571Y-31377142D01*
X130600952Y-31424761D01*
X130505714Y-31472380D01*
X130315238Y-31472380D01*
X130220000Y-31424761D01*
X130172380Y-31377142D01*
X130124761Y-31281904D01*
X130124761Y-30472380D01*
X129696190Y-30567619D02*
X129648571Y-30520000D01*
X129553333Y-30472380D01*
X129315238Y-30472380D01*
X129220000Y-30520000D01*
X129172380Y-30567619D01*
X129124761Y-30662857D01*
X129124761Y-30758095D01*
X129172380Y-30900952D01*
X129743809Y-31472380D01*
X129124761Y-31472380D01*
X128791428Y-30472380D02*
X128124761Y-31472380D01*
X128124761Y-30472380D02*
X128791428Y-31472380D01*
D12*
X133226190Y-32892857D02*
X132726190Y-32892857D01*
X132726190Y-33011904D01*
X132750000Y-33083333D01*
X132797619Y-33130952D01*
X132845238Y-33154761D01*
X132940476Y-33178571D01*
X133011904Y-33178571D01*
X133107142Y-33154761D01*
X133154761Y-33130952D01*
X133202380Y-33083333D01*
X133226190Y-33011904D01*
X133226190Y-32892857D01*
X132892857Y-33607142D02*
X133226190Y-33607142D01*
X132702380Y-33488095D02*
X133059523Y-33369047D01*
X133059523Y-33678571D01*
X133226190Y-34130952D02*
X133226190Y-33845238D01*
X133226190Y-33988095D02*
X132726190Y-33988095D01*
X132797619Y-33940476D01*
X132845238Y-33892857D01*
X132869047Y-33845238D01*
D10*
%TO.C,C1*%
X117222380Y-77904761D02*
X117222380Y-77333333D01*
X117222380Y-77619047D02*
X116222380Y-77619047D01*
X116365238Y-77523809D01*
X116460476Y-77428571D01*
X116508095Y-77333333D01*
X116555714Y-78761904D02*
X117222380Y-78761904D01*
X116555714Y-78333333D02*
X117079523Y-78333333D01*
X117174761Y-78380952D01*
X117222380Y-78476190D01*
X117222380Y-78619047D01*
X117174761Y-78714285D01*
X117127142Y-78761904D01*
X116698571Y-79571428D02*
X116698571Y-79238095D01*
X117222380Y-79238095D02*
X116222380Y-79238095D01*
X116222380Y-79714285D01*
D11*
X118342857Y-78433333D02*
X118361904Y-78414285D01*
X118380952Y-78357142D01*
X118380952Y-78319047D01*
X118361904Y-78261904D01*
X118323809Y-78223809D01*
X118285714Y-78204761D01*
X118209523Y-78185714D01*
X118152380Y-78185714D01*
X118076190Y-78204761D01*
X118038095Y-78223809D01*
X118000000Y-78261904D01*
X117980952Y-78319047D01*
X117980952Y-78357142D01*
X118000000Y-78414285D01*
X118019047Y-78433333D01*
X118380952Y-78814285D02*
X118380952Y-78585714D01*
X118380952Y-78700000D02*
X117980952Y-78700000D01*
X118038095Y-78661904D01*
X118076190Y-78623809D01*
X118095238Y-78585714D01*
D10*
%TO.C,D23*%
X232761904Y-58952380D02*
X232761904Y-57952380D01*
X232523809Y-57952380D01*
X232380952Y-58000000D01*
X232285714Y-58095238D01*
X232238095Y-58190476D01*
X232190476Y-58380952D01*
X232190476Y-58523809D01*
X232238095Y-58714285D01*
X232285714Y-58809523D01*
X232380952Y-58904761D01*
X232523809Y-58952380D01*
X232761904Y-58952380D01*
X232000000Y-59047619D02*
X231238095Y-59047619D01*
X231047619Y-58904761D02*
X230904761Y-58952380D01*
X230666666Y-58952380D01*
X230571428Y-58904761D01*
X230523809Y-58857142D01*
X230476190Y-58761904D01*
X230476190Y-58666666D01*
X230523809Y-58571428D01*
X230571428Y-58523809D01*
X230666666Y-58476190D01*
X230857142Y-58428571D01*
X230952380Y-58380952D01*
X231000000Y-58333333D01*
X231047619Y-58238095D01*
X231047619Y-58142857D01*
X231000000Y-58047619D01*
X230952380Y-58000000D01*
X230857142Y-57952380D01*
X230619047Y-57952380D01*
X230476190Y-58000000D01*
X230047619Y-58952380D02*
X230047619Y-58285714D01*
X230047619Y-58380952D02*
X230000000Y-58333333D01*
X229904761Y-58285714D01*
X229761904Y-58285714D01*
X229666666Y-58333333D01*
X229619047Y-58428571D01*
X229619047Y-58952380D01*
X229619047Y-58428571D02*
X229571428Y-58333333D01*
X229476190Y-58285714D01*
X229333333Y-58285714D01*
X229238095Y-58333333D01*
X229190476Y-58428571D01*
X229190476Y-58952380D01*
X228285714Y-58952380D02*
X228285714Y-58428571D01*
X228333333Y-58333333D01*
X228428571Y-58285714D01*
X228619047Y-58285714D01*
X228714285Y-58333333D01*
X228285714Y-58904761D02*
X228380952Y-58952380D01*
X228619047Y-58952380D01*
X228714285Y-58904761D01*
X228761904Y-58809523D01*
X228761904Y-58714285D01*
X228714285Y-58619047D01*
X228619047Y-58571428D01*
X228380952Y-58571428D01*
X228285714Y-58523809D01*
X227666666Y-58952380D02*
X227761904Y-58904761D01*
X227809523Y-58809523D01*
X227809523Y-57952380D01*
X227142857Y-58952380D02*
X227238095Y-58904761D01*
X227285714Y-58809523D01*
X227285714Y-57952380D01*
X231214285Y-54852380D02*
X231214285Y-53852380D01*
X230976190Y-53852380D01*
X230833333Y-53900000D01*
X230738095Y-53995238D01*
X230690476Y-54090476D01*
X230642857Y-54280952D01*
X230642857Y-54423809D01*
X230690476Y-54614285D01*
X230738095Y-54709523D01*
X230833333Y-54804761D01*
X230976190Y-54852380D01*
X231214285Y-54852380D01*
X230261904Y-53947619D02*
X230214285Y-53900000D01*
X230119047Y-53852380D01*
X229880952Y-53852380D01*
X229785714Y-53900000D01*
X229738095Y-53947619D01*
X229690476Y-54042857D01*
X229690476Y-54138095D01*
X229738095Y-54280952D01*
X230309523Y-54852380D01*
X229690476Y-54852380D01*
X229357142Y-53852380D02*
X228738095Y-53852380D01*
X229071428Y-54233333D01*
X228928571Y-54233333D01*
X228833333Y-54280952D01*
X228785714Y-54328571D01*
X228738095Y-54423809D01*
X228738095Y-54661904D01*
X228785714Y-54757142D01*
X228833333Y-54804761D01*
X228928571Y-54852380D01*
X229214285Y-54852380D01*
X229309523Y-54804761D01*
X229357142Y-54757142D01*
%TO.C,D1*%
X41461904Y-41952380D02*
X41461904Y-40952380D01*
X41223809Y-40952380D01*
X41080952Y-41000000D01*
X40985714Y-41095238D01*
X40938095Y-41190476D01*
X40890476Y-41380952D01*
X40890476Y-41523809D01*
X40938095Y-41714285D01*
X40985714Y-41809523D01*
X41080952Y-41904761D01*
X41223809Y-41952380D01*
X41461904Y-41952380D01*
X40700000Y-42047619D02*
X39938095Y-42047619D01*
X39747619Y-41904761D02*
X39604761Y-41952380D01*
X39366666Y-41952380D01*
X39271428Y-41904761D01*
X39223809Y-41857142D01*
X39176190Y-41761904D01*
X39176190Y-41666666D01*
X39223809Y-41571428D01*
X39271428Y-41523809D01*
X39366666Y-41476190D01*
X39557142Y-41428571D01*
X39652380Y-41380952D01*
X39700000Y-41333333D01*
X39747619Y-41238095D01*
X39747619Y-41142857D01*
X39700000Y-41047619D01*
X39652380Y-41000000D01*
X39557142Y-40952380D01*
X39319047Y-40952380D01*
X39176190Y-41000000D01*
X38747619Y-41952380D02*
X38747619Y-41285714D01*
X38747619Y-41380952D02*
X38700000Y-41333333D01*
X38604761Y-41285714D01*
X38461904Y-41285714D01*
X38366666Y-41333333D01*
X38319047Y-41428571D01*
X38319047Y-41952380D01*
X38319047Y-41428571D02*
X38271428Y-41333333D01*
X38176190Y-41285714D01*
X38033333Y-41285714D01*
X37938095Y-41333333D01*
X37890476Y-41428571D01*
X37890476Y-41952380D01*
X36985714Y-41952380D02*
X36985714Y-41428571D01*
X37033333Y-41333333D01*
X37128571Y-41285714D01*
X37319047Y-41285714D01*
X37414285Y-41333333D01*
X36985714Y-41904761D02*
X37080952Y-41952380D01*
X37319047Y-41952380D01*
X37414285Y-41904761D01*
X37461904Y-41809523D01*
X37461904Y-41714285D01*
X37414285Y-41619047D01*
X37319047Y-41571428D01*
X37080952Y-41571428D01*
X36985714Y-41523809D01*
X36366666Y-41952380D02*
X36461904Y-41904761D01*
X36509523Y-41809523D01*
X36509523Y-40952380D01*
X35842857Y-41952380D02*
X35938095Y-41904761D01*
X35985714Y-41809523D01*
X35985714Y-40952380D01*
X39438095Y-37852380D02*
X39438095Y-36852380D01*
X39200000Y-36852380D01*
X39057142Y-36900000D01*
X38961904Y-36995238D01*
X38914285Y-37090476D01*
X38866666Y-37280952D01*
X38866666Y-37423809D01*
X38914285Y-37614285D01*
X38961904Y-37709523D01*
X39057142Y-37804761D01*
X39200000Y-37852380D01*
X39438095Y-37852380D01*
X37914285Y-37852380D02*
X38485714Y-37852380D01*
X38200000Y-37852380D02*
X38200000Y-36852380D01*
X38295238Y-36995238D01*
X38390476Y-37090476D01*
X38485714Y-37138095D01*
%TO.C,D24*%
X48161904Y-75952380D02*
X48161904Y-74952380D01*
X47923809Y-74952380D01*
X47780952Y-75000000D01*
X47685714Y-75095238D01*
X47638095Y-75190476D01*
X47590476Y-75380952D01*
X47590476Y-75523809D01*
X47638095Y-75714285D01*
X47685714Y-75809523D01*
X47780952Y-75904761D01*
X47923809Y-75952380D01*
X48161904Y-75952380D01*
X47400000Y-76047619D02*
X46638095Y-76047619D01*
X46447619Y-75904761D02*
X46304761Y-75952380D01*
X46066666Y-75952380D01*
X45971428Y-75904761D01*
X45923809Y-75857142D01*
X45876190Y-75761904D01*
X45876190Y-75666666D01*
X45923809Y-75571428D01*
X45971428Y-75523809D01*
X46066666Y-75476190D01*
X46257142Y-75428571D01*
X46352380Y-75380952D01*
X46400000Y-75333333D01*
X46447619Y-75238095D01*
X46447619Y-75142857D01*
X46400000Y-75047619D01*
X46352380Y-75000000D01*
X46257142Y-74952380D01*
X46019047Y-74952380D01*
X45876190Y-75000000D01*
X45447619Y-75952380D02*
X45447619Y-75285714D01*
X45447619Y-75380952D02*
X45400000Y-75333333D01*
X45304761Y-75285714D01*
X45161904Y-75285714D01*
X45066666Y-75333333D01*
X45019047Y-75428571D01*
X45019047Y-75952380D01*
X45019047Y-75428571D02*
X44971428Y-75333333D01*
X44876190Y-75285714D01*
X44733333Y-75285714D01*
X44638095Y-75333333D01*
X44590476Y-75428571D01*
X44590476Y-75952380D01*
X43685714Y-75952380D02*
X43685714Y-75428571D01*
X43733333Y-75333333D01*
X43828571Y-75285714D01*
X44019047Y-75285714D01*
X44114285Y-75333333D01*
X43685714Y-75904761D02*
X43780952Y-75952380D01*
X44019047Y-75952380D01*
X44114285Y-75904761D01*
X44161904Y-75809523D01*
X44161904Y-75714285D01*
X44114285Y-75619047D01*
X44019047Y-75571428D01*
X43780952Y-75571428D01*
X43685714Y-75523809D01*
X43066666Y-75952380D02*
X43161904Y-75904761D01*
X43209523Y-75809523D01*
X43209523Y-74952380D01*
X42542857Y-75952380D02*
X42638095Y-75904761D01*
X42685714Y-75809523D01*
X42685714Y-74952380D01*
X46614285Y-71852380D02*
X46614285Y-70852380D01*
X46376190Y-70852380D01*
X46233333Y-70900000D01*
X46138095Y-70995238D01*
X46090476Y-71090476D01*
X46042857Y-71280952D01*
X46042857Y-71423809D01*
X46090476Y-71614285D01*
X46138095Y-71709523D01*
X46233333Y-71804761D01*
X46376190Y-71852380D01*
X46614285Y-71852380D01*
X45661904Y-70947619D02*
X45614285Y-70900000D01*
X45519047Y-70852380D01*
X45280952Y-70852380D01*
X45185714Y-70900000D01*
X45138095Y-70947619D01*
X45090476Y-71042857D01*
X45090476Y-71138095D01*
X45138095Y-71280952D01*
X45709523Y-71852380D01*
X45090476Y-71852380D01*
X44233333Y-71185714D02*
X44233333Y-71852380D01*
X44471428Y-70804761D02*
X44709523Y-71519047D01*
X44090476Y-71519047D01*
%TO.C,D3*%
X77461904Y-41952380D02*
X77461904Y-40952380D01*
X77223809Y-40952380D01*
X77080952Y-41000000D01*
X76985714Y-41095238D01*
X76938095Y-41190476D01*
X76890476Y-41380952D01*
X76890476Y-41523809D01*
X76938095Y-41714285D01*
X76985714Y-41809523D01*
X77080952Y-41904761D01*
X77223809Y-41952380D01*
X77461904Y-41952380D01*
X76700000Y-42047619D02*
X75938095Y-42047619D01*
X75747619Y-41904761D02*
X75604761Y-41952380D01*
X75366666Y-41952380D01*
X75271428Y-41904761D01*
X75223809Y-41857142D01*
X75176190Y-41761904D01*
X75176190Y-41666666D01*
X75223809Y-41571428D01*
X75271428Y-41523809D01*
X75366666Y-41476190D01*
X75557142Y-41428571D01*
X75652380Y-41380952D01*
X75700000Y-41333333D01*
X75747619Y-41238095D01*
X75747619Y-41142857D01*
X75700000Y-41047619D01*
X75652380Y-41000000D01*
X75557142Y-40952380D01*
X75319047Y-40952380D01*
X75176190Y-41000000D01*
X74747619Y-41952380D02*
X74747619Y-41285714D01*
X74747619Y-41380952D02*
X74700000Y-41333333D01*
X74604761Y-41285714D01*
X74461904Y-41285714D01*
X74366666Y-41333333D01*
X74319047Y-41428571D01*
X74319047Y-41952380D01*
X74319047Y-41428571D02*
X74271428Y-41333333D01*
X74176190Y-41285714D01*
X74033333Y-41285714D01*
X73938095Y-41333333D01*
X73890476Y-41428571D01*
X73890476Y-41952380D01*
X72985714Y-41952380D02*
X72985714Y-41428571D01*
X73033333Y-41333333D01*
X73128571Y-41285714D01*
X73319047Y-41285714D01*
X73414285Y-41333333D01*
X72985714Y-41904761D02*
X73080952Y-41952380D01*
X73319047Y-41952380D01*
X73414285Y-41904761D01*
X73461904Y-41809523D01*
X73461904Y-41714285D01*
X73414285Y-41619047D01*
X73319047Y-41571428D01*
X73080952Y-41571428D01*
X72985714Y-41523809D01*
X72366666Y-41952380D02*
X72461904Y-41904761D01*
X72509523Y-41809523D01*
X72509523Y-40952380D01*
X71842857Y-41952380D02*
X71938095Y-41904761D01*
X71985714Y-41809523D01*
X71985714Y-40952380D01*
X75438095Y-37852380D02*
X75438095Y-36852380D01*
X75200000Y-36852380D01*
X75057142Y-36900000D01*
X74961904Y-36995238D01*
X74914285Y-37090476D01*
X74866666Y-37280952D01*
X74866666Y-37423809D01*
X74914285Y-37614285D01*
X74961904Y-37709523D01*
X75057142Y-37804761D01*
X75200000Y-37852380D01*
X75438095Y-37852380D01*
X74533333Y-36852380D02*
X73914285Y-36852380D01*
X74247619Y-37233333D01*
X74104761Y-37233333D01*
X74009523Y-37280952D01*
X73961904Y-37328571D01*
X73914285Y-37423809D01*
X73914285Y-37661904D01*
X73961904Y-37757142D01*
X74009523Y-37804761D01*
X74104761Y-37852380D01*
X74390476Y-37852380D01*
X74485714Y-37804761D01*
X74533333Y-37757142D01*
%TO.C,F1*%
X136632380Y-31690476D02*
X136632380Y-31214285D01*
X137108571Y-31166666D01*
X137060952Y-31214285D01*
X137013333Y-31309523D01*
X137013333Y-31547619D01*
X137060952Y-31642857D01*
X137108571Y-31690476D01*
X137203809Y-31738095D01*
X137441904Y-31738095D01*
X137537142Y-31690476D01*
X137584761Y-31642857D01*
X137632380Y-31547619D01*
X137632380Y-31309523D01*
X137584761Y-31214285D01*
X137537142Y-31166666D01*
X136632380Y-32357142D02*
X136632380Y-32452380D01*
X136680000Y-32547619D01*
X136727619Y-32595238D01*
X136822857Y-32642857D01*
X137013333Y-32690476D01*
X137251428Y-32690476D01*
X137441904Y-32642857D01*
X137537142Y-32595238D01*
X137584761Y-32547619D01*
X137632380Y-32452380D01*
X137632380Y-32357142D01*
X137584761Y-32261904D01*
X137537142Y-32214285D01*
X137441904Y-32166666D01*
X137251428Y-32119047D01*
X137013333Y-32119047D01*
X136822857Y-32166666D01*
X136727619Y-32214285D01*
X136680000Y-32261904D01*
X136632380Y-32357142D01*
X136632380Y-33309523D02*
X136632380Y-33404761D01*
X136680000Y-33500000D01*
X136727619Y-33547619D01*
X136822857Y-33595238D01*
X137013333Y-33642857D01*
X137251428Y-33642857D01*
X137441904Y-33595238D01*
X137537142Y-33547619D01*
X137584761Y-33500000D01*
X137632380Y-33404761D01*
X137632380Y-33309523D01*
X137584761Y-33214285D01*
X137537142Y-33166666D01*
X137441904Y-33119047D01*
X137251428Y-33071428D01*
X137013333Y-33071428D01*
X136822857Y-33119047D01*
X136727619Y-33166666D01*
X136680000Y-33214285D01*
X136632380Y-33309523D01*
X137632380Y-34071428D02*
X136965714Y-34071428D01*
X137060952Y-34071428D02*
X137013333Y-34119047D01*
X136965714Y-34214285D01*
X136965714Y-34357142D01*
X137013333Y-34452380D01*
X137108571Y-34500000D01*
X137632380Y-34500000D01*
X137108571Y-34500000D02*
X137013333Y-34547619D01*
X136965714Y-34642857D01*
X136965714Y-34785714D01*
X137013333Y-34880952D01*
X137108571Y-34928571D01*
X137632380Y-34928571D01*
X137346666Y-35357142D02*
X137346666Y-35833333D01*
X137632380Y-35261904D02*
X136632380Y-35595238D01*
X137632380Y-35928571D01*
D13*
X138942857Y-33233333D02*
X138942857Y-32966666D01*
X139361904Y-32966666D02*
X138561904Y-32966666D01*
X138561904Y-33347619D01*
X139361904Y-34071428D02*
X139361904Y-33614285D01*
X139361904Y-33842857D02*
X138561904Y-33842857D01*
X138676190Y-33766666D01*
X138752380Y-33690476D01*
X138790476Y-33614285D01*
D10*
%TO.C,D39*%
X214761904Y-92952380D02*
X214761904Y-91952380D01*
X214523809Y-91952380D01*
X214380952Y-92000000D01*
X214285714Y-92095238D01*
X214238095Y-92190476D01*
X214190476Y-92380952D01*
X214190476Y-92523809D01*
X214238095Y-92714285D01*
X214285714Y-92809523D01*
X214380952Y-92904761D01*
X214523809Y-92952380D01*
X214761904Y-92952380D01*
X214000000Y-93047619D02*
X213238095Y-93047619D01*
X213047619Y-92904761D02*
X212904761Y-92952380D01*
X212666666Y-92952380D01*
X212571428Y-92904761D01*
X212523809Y-92857142D01*
X212476190Y-92761904D01*
X212476190Y-92666666D01*
X212523809Y-92571428D01*
X212571428Y-92523809D01*
X212666666Y-92476190D01*
X212857142Y-92428571D01*
X212952380Y-92380952D01*
X213000000Y-92333333D01*
X213047619Y-92238095D01*
X213047619Y-92142857D01*
X213000000Y-92047619D01*
X212952380Y-92000000D01*
X212857142Y-91952380D01*
X212619047Y-91952380D01*
X212476190Y-92000000D01*
X212047619Y-92952380D02*
X212047619Y-92285714D01*
X212047619Y-92380952D02*
X212000000Y-92333333D01*
X211904761Y-92285714D01*
X211761904Y-92285714D01*
X211666666Y-92333333D01*
X211619047Y-92428571D01*
X211619047Y-92952380D01*
X211619047Y-92428571D02*
X211571428Y-92333333D01*
X211476190Y-92285714D01*
X211333333Y-92285714D01*
X211238095Y-92333333D01*
X211190476Y-92428571D01*
X211190476Y-92952380D01*
X210285714Y-92952380D02*
X210285714Y-92428571D01*
X210333333Y-92333333D01*
X210428571Y-92285714D01*
X210619047Y-92285714D01*
X210714285Y-92333333D01*
X210285714Y-92904761D02*
X210380952Y-92952380D01*
X210619047Y-92952380D01*
X210714285Y-92904761D01*
X210761904Y-92809523D01*
X210761904Y-92714285D01*
X210714285Y-92619047D01*
X210619047Y-92571428D01*
X210380952Y-92571428D01*
X210285714Y-92523809D01*
X209666666Y-92952380D02*
X209761904Y-92904761D01*
X209809523Y-92809523D01*
X209809523Y-91952380D01*
X209142857Y-92952380D02*
X209238095Y-92904761D01*
X209285714Y-92809523D01*
X209285714Y-91952380D01*
X213214285Y-88852380D02*
X213214285Y-87852380D01*
X212976190Y-87852380D01*
X212833333Y-87900000D01*
X212738095Y-87995238D01*
X212690476Y-88090476D01*
X212642857Y-88280952D01*
X212642857Y-88423809D01*
X212690476Y-88614285D01*
X212738095Y-88709523D01*
X212833333Y-88804761D01*
X212976190Y-88852380D01*
X213214285Y-88852380D01*
X212309523Y-87852380D02*
X211690476Y-87852380D01*
X212023809Y-88233333D01*
X211880952Y-88233333D01*
X211785714Y-88280952D01*
X211738095Y-88328571D01*
X211690476Y-88423809D01*
X211690476Y-88661904D01*
X211738095Y-88757142D01*
X211785714Y-88804761D01*
X211880952Y-88852380D01*
X212166666Y-88852380D01*
X212261904Y-88804761D01*
X212309523Y-88757142D01*
X211214285Y-88852380D02*
X211023809Y-88852380D01*
X210928571Y-88804761D01*
X210880952Y-88757142D01*
X210785714Y-88614285D01*
X210738095Y-88423809D01*
X210738095Y-88042857D01*
X210785714Y-87947619D01*
X210833333Y-87900000D01*
X210928571Y-87852380D01*
X211119047Y-87852380D01*
X211214285Y-87900000D01*
X211261904Y-87947619D01*
X211309523Y-88042857D01*
X211309523Y-88280952D01*
X211261904Y-88376190D01*
X211214285Y-88423809D01*
X211119047Y-88471428D01*
X210928571Y-88471428D01*
X210833333Y-88423809D01*
X210785714Y-88376190D01*
X210738095Y-88280952D01*
%TO.C,D37*%
X81961904Y-92952380D02*
X81961904Y-91952380D01*
X81723809Y-91952380D01*
X81580952Y-92000000D01*
X81485714Y-92095238D01*
X81438095Y-92190476D01*
X81390476Y-92380952D01*
X81390476Y-92523809D01*
X81438095Y-92714285D01*
X81485714Y-92809523D01*
X81580952Y-92904761D01*
X81723809Y-92952380D01*
X81961904Y-92952380D01*
X81200000Y-93047619D02*
X80438095Y-93047619D01*
X80247619Y-92904761D02*
X80104761Y-92952380D01*
X79866666Y-92952380D01*
X79771428Y-92904761D01*
X79723809Y-92857142D01*
X79676190Y-92761904D01*
X79676190Y-92666666D01*
X79723809Y-92571428D01*
X79771428Y-92523809D01*
X79866666Y-92476190D01*
X80057142Y-92428571D01*
X80152380Y-92380952D01*
X80200000Y-92333333D01*
X80247619Y-92238095D01*
X80247619Y-92142857D01*
X80200000Y-92047619D01*
X80152380Y-92000000D01*
X80057142Y-91952380D01*
X79819047Y-91952380D01*
X79676190Y-92000000D01*
X79247619Y-92952380D02*
X79247619Y-92285714D01*
X79247619Y-92380952D02*
X79200000Y-92333333D01*
X79104761Y-92285714D01*
X78961904Y-92285714D01*
X78866666Y-92333333D01*
X78819047Y-92428571D01*
X78819047Y-92952380D01*
X78819047Y-92428571D02*
X78771428Y-92333333D01*
X78676190Y-92285714D01*
X78533333Y-92285714D01*
X78438095Y-92333333D01*
X78390476Y-92428571D01*
X78390476Y-92952380D01*
X77485714Y-92952380D02*
X77485714Y-92428571D01*
X77533333Y-92333333D01*
X77628571Y-92285714D01*
X77819047Y-92285714D01*
X77914285Y-92333333D01*
X77485714Y-92904761D02*
X77580952Y-92952380D01*
X77819047Y-92952380D01*
X77914285Y-92904761D01*
X77961904Y-92809523D01*
X77961904Y-92714285D01*
X77914285Y-92619047D01*
X77819047Y-92571428D01*
X77580952Y-92571428D01*
X77485714Y-92523809D01*
X76866666Y-92952380D02*
X76961904Y-92904761D01*
X77009523Y-92809523D01*
X77009523Y-91952380D01*
X76342857Y-92952380D02*
X76438095Y-92904761D01*
X76485714Y-92809523D01*
X76485714Y-91952380D01*
X80414285Y-88852380D02*
X80414285Y-87852380D01*
X80176190Y-87852380D01*
X80033333Y-87900000D01*
X79938095Y-87995238D01*
X79890476Y-88090476D01*
X79842857Y-88280952D01*
X79842857Y-88423809D01*
X79890476Y-88614285D01*
X79938095Y-88709523D01*
X80033333Y-88804761D01*
X80176190Y-88852380D01*
X80414285Y-88852380D01*
X79509523Y-87852380D02*
X78890476Y-87852380D01*
X79223809Y-88233333D01*
X79080952Y-88233333D01*
X78985714Y-88280952D01*
X78938095Y-88328571D01*
X78890476Y-88423809D01*
X78890476Y-88661904D01*
X78938095Y-88757142D01*
X78985714Y-88804761D01*
X79080952Y-88852380D01*
X79366666Y-88852380D01*
X79461904Y-88804761D01*
X79509523Y-88757142D01*
X78557142Y-87852380D02*
X77890476Y-87852380D01*
X78319047Y-88852380D01*
%TO.C,D28*%
X126961904Y-75952380D02*
X126961904Y-74952380D01*
X126723809Y-74952380D01*
X126580952Y-75000000D01*
X126485714Y-75095238D01*
X126438095Y-75190476D01*
X126390476Y-75380952D01*
X126390476Y-75523809D01*
X126438095Y-75714285D01*
X126485714Y-75809523D01*
X126580952Y-75904761D01*
X126723809Y-75952380D01*
X126961904Y-75952380D01*
X126200000Y-76047619D02*
X125438095Y-76047619D01*
X125247619Y-75904761D02*
X125104761Y-75952380D01*
X124866666Y-75952380D01*
X124771428Y-75904761D01*
X124723809Y-75857142D01*
X124676190Y-75761904D01*
X124676190Y-75666666D01*
X124723809Y-75571428D01*
X124771428Y-75523809D01*
X124866666Y-75476190D01*
X125057142Y-75428571D01*
X125152380Y-75380952D01*
X125200000Y-75333333D01*
X125247619Y-75238095D01*
X125247619Y-75142857D01*
X125200000Y-75047619D01*
X125152380Y-75000000D01*
X125057142Y-74952380D01*
X124819047Y-74952380D01*
X124676190Y-75000000D01*
X124247619Y-75952380D02*
X124247619Y-75285714D01*
X124247619Y-75380952D02*
X124200000Y-75333333D01*
X124104761Y-75285714D01*
X123961904Y-75285714D01*
X123866666Y-75333333D01*
X123819047Y-75428571D01*
X123819047Y-75952380D01*
X123819047Y-75428571D02*
X123771428Y-75333333D01*
X123676190Y-75285714D01*
X123533333Y-75285714D01*
X123438095Y-75333333D01*
X123390476Y-75428571D01*
X123390476Y-75952380D01*
X122485714Y-75952380D02*
X122485714Y-75428571D01*
X122533333Y-75333333D01*
X122628571Y-75285714D01*
X122819047Y-75285714D01*
X122914285Y-75333333D01*
X122485714Y-75904761D02*
X122580952Y-75952380D01*
X122819047Y-75952380D01*
X122914285Y-75904761D01*
X122961904Y-75809523D01*
X122961904Y-75714285D01*
X122914285Y-75619047D01*
X122819047Y-75571428D01*
X122580952Y-75571428D01*
X122485714Y-75523809D01*
X121866666Y-75952380D02*
X121961904Y-75904761D01*
X122009523Y-75809523D01*
X122009523Y-74952380D01*
X121342857Y-75952380D02*
X121438095Y-75904761D01*
X121485714Y-75809523D01*
X121485714Y-74952380D01*
X125414285Y-71852380D02*
X125414285Y-70852380D01*
X125176190Y-70852380D01*
X125033333Y-70900000D01*
X124938095Y-70995238D01*
X124890476Y-71090476D01*
X124842857Y-71280952D01*
X124842857Y-71423809D01*
X124890476Y-71614285D01*
X124938095Y-71709523D01*
X125033333Y-71804761D01*
X125176190Y-71852380D01*
X125414285Y-71852380D01*
X124461904Y-70947619D02*
X124414285Y-70900000D01*
X124319047Y-70852380D01*
X124080952Y-70852380D01*
X123985714Y-70900000D01*
X123938095Y-70947619D01*
X123890476Y-71042857D01*
X123890476Y-71138095D01*
X123938095Y-71280952D01*
X124509523Y-71852380D01*
X123890476Y-71852380D01*
X123319047Y-71280952D02*
X123414285Y-71233333D01*
X123461904Y-71185714D01*
X123509523Y-71090476D01*
X123509523Y-71042857D01*
X123461904Y-70947619D01*
X123414285Y-70900000D01*
X123319047Y-70852380D01*
X123128571Y-70852380D01*
X123033333Y-70900000D01*
X122985714Y-70947619D01*
X122938095Y-71042857D01*
X122938095Y-71090476D01*
X122985714Y-71185714D01*
X123033333Y-71233333D01*
X123128571Y-71280952D01*
X123319047Y-71280952D01*
X123414285Y-71328571D01*
X123461904Y-71376190D01*
X123509523Y-71471428D01*
X123509523Y-71661904D01*
X123461904Y-71757142D01*
X123414285Y-71804761D01*
X123319047Y-71852380D01*
X123128571Y-71852380D01*
X123033333Y-71804761D01*
X122985714Y-71757142D01*
X122938095Y-71661904D01*
X122938095Y-71471428D01*
X122985714Y-71376190D01*
X123033333Y-71328571D01*
X123128571Y-71280952D01*
%TO.C,SW99*%
X163047619Y-88968761D02*
X162904761Y-89016380D01*
X162666666Y-89016380D01*
X162571428Y-88968761D01*
X162523809Y-88921142D01*
X162476190Y-88825904D01*
X162476190Y-88730666D01*
X162523809Y-88635428D01*
X162571428Y-88587809D01*
X162666666Y-88540190D01*
X162857142Y-88492571D01*
X162952380Y-88444952D01*
X163000000Y-88397333D01*
X163047619Y-88302095D01*
X163047619Y-88206857D01*
X163000000Y-88111619D01*
X162952380Y-88064000D01*
X162857142Y-88016380D01*
X162619047Y-88016380D01*
X162476190Y-88064000D01*
X162142857Y-88016380D02*
X161904761Y-89016380D01*
X161714285Y-88302095D01*
X161523809Y-89016380D01*
X161285714Y-88016380D01*
X161142857Y-89111619D02*
X160380952Y-89111619D01*
X160142857Y-89016380D02*
X160142857Y-88016380D01*
X159761904Y-88016380D01*
X159666666Y-88064000D01*
X159619047Y-88111619D01*
X159571428Y-88206857D01*
X159571428Y-88349714D01*
X159619047Y-88444952D01*
X159666666Y-88492571D01*
X159761904Y-88540190D01*
X160142857Y-88540190D01*
X158714285Y-88349714D02*
X158714285Y-89016380D01*
X159142857Y-88349714D02*
X159142857Y-88873523D01*
X159095238Y-88968761D01*
X159000000Y-89016380D01*
X158857142Y-89016380D01*
X158761904Y-88968761D01*
X158714285Y-88921142D01*
X158285714Y-88968761D02*
X158190476Y-89016380D01*
X158000000Y-89016380D01*
X157904761Y-88968761D01*
X157857142Y-88873523D01*
X157857142Y-88825904D01*
X157904761Y-88730666D01*
X158000000Y-88683047D01*
X158142857Y-88683047D01*
X158238095Y-88635428D01*
X158285714Y-88540190D01*
X158285714Y-88492571D01*
X158238095Y-88397333D01*
X158142857Y-88349714D01*
X158000000Y-88349714D01*
X157904761Y-88397333D01*
X157428571Y-89016380D02*
X157428571Y-88016380D01*
X157000000Y-89016380D02*
X157000000Y-88492571D01*
X157047619Y-88397333D01*
X157142857Y-88349714D01*
X157285714Y-88349714D01*
X157380952Y-88397333D01*
X157428571Y-88444952D01*
%TO.C,D22*%
X207961904Y-58952380D02*
X207961904Y-57952380D01*
X207723809Y-57952380D01*
X207580952Y-58000000D01*
X207485714Y-58095238D01*
X207438095Y-58190476D01*
X207390476Y-58380952D01*
X207390476Y-58523809D01*
X207438095Y-58714285D01*
X207485714Y-58809523D01*
X207580952Y-58904761D01*
X207723809Y-58952380D01*
X207961904Y-58952380D01*
X207200000Y-59047619D02*
X206438095Y-59047619D01*
X206247619Y-58904761D02*
X206104761Y-58952380D01*
X205866666Y-58952380D01*
X205771428Y-58904761D01*
X205723809Y-58857142D01*
X205676190Y-58761904D01*
X205676190Y-58666666D01*
X205723809Y-58571428D01*
X205771428Y-58523809D01*
X205866666Y-58476190D01*
X206057142Y-58428571D01*
X206152380Y-58380952D01*
X206200000Y-58333333D01*
X206247619Y-58238095D01*
X206247619Y-58142857D01*
X206200000Y-58047619D01*
X206152380Y-58000000D01*
X206057142Y-57952380D01*
X205819047Y-57952380D01*
X205676190Y-58000000D01*
X205247619Y-58952380D02*
X205247619Y-58285714D01*
X205247619Y-58380952D02*
X205200000Y-58333333D01*
X205104761Y-58285714D01*
X204961904Y-58285714D01*
X204866666Y-58333333D01*
X204819047Y-58428571D01*
X204819047Y-58952380D01*
X204819047Y-58428571D02*
X204771428Y-58333333D01*
X204676190Y-58285714D01*
X204533333Y-58285714D01*
X204438095Y-58333333D01*
X204390476Y-58428571D01*
X204390476Y-58952380D01*
X203485714Y-58952380D02*
X203485714Y-58428571D01*
X203533333Y-58333333D01*
X203628571Y-58285714D01*
X203819047Y-58285714D01*
X203914285Y-58333333D01*
X203485714Y-58904761D02*
X203580952Y-58952380D01*
X203819047Y-58952380D01*
X203914285Y-58904761D01*
X203961904Y-58809523D01*
X203961904Y-58714285D01*
X203914285Y-58619047D01*
X203819047Y-58571428D01*
X203580952Y-58571428D01*
X203485714Y-58523809D01*
X202866666Y-58952380D02*
X202961904Y-58904761D01*
X203009523Y-58809523D01*
X203009523Y-57952380D01*
X202342857Y-58952380D02*
X202438095Y-58904761D01*
X202485714Y-58809523D01*
X202485714Y-57952380D01*
X206414285Y-54852380D02*
X206414285Y-53852380D01*
X206176190Y-53852380D01*
X206033333Y-53900000D01*
X205938095Y-53995238D01*
X205890476Y-54090476D01*
X205842857Y-54280952D01*
X205842857Y-54423809D01*
X205890476Y-54614285D01*
X205938095Y-54709523D01*
X206033333Y-54804761D01*
X206176190Y-54852380D01*
X206414285Y-54852380D01*
X205461904Y-53947619D02*
X205414285Y-53900000D01*
X205319047Y-53852380D01*
X205080952Y-53852380D01*
X204985714Y-53900000D01*
X204938095Y-53947619D01*
X204890476Y-54042857D01*
X204890476Y-54138095D01*
X204938095Y-54280952D01*
X205509523Y-54852380D01*
X204890476Y-54852380D01*
X204509523Y-53947619D02*
X204461904Y-53900000D01*
X204366666Y-53852380D01*
X204128571Y-53852380D01*
X204033333Y-53900000D01*
X203985714Y-53947619D01*
X203938095Y-54042857D01*
X203938095Y-54138095D01*
X203985714Y-54280952D01*
X204557142Y-54852380D01*
X203938095Y-54852380D01*
%TO.C,D35*%
X43761904Y-92952380D02*
X43761904Y-91952380D01*
X43523809Y-91952380D01*
X43380952Y-92000000D01*
X43285714Y-92095238D01*
X43238095Y-92190476D01*
X43190476Y-92380952D01*
X43190476Y-92523809D01*
X43238095Y-92714285D01*
X43285714Y-92809523D01*
X43380952Y-92904761D01*
X43523809Y-92952380D01*
X43761904Y-92952380D01*
X43000000Y-93047619D02*
X42238095Y-93047619D01*
X42047619Y-92904761D02*
X41904761Y-92952380D01*
X41666666Y-92952380D01*
X41571428Y-92904761D01*
X41523809Y-92857142D01*
X41476190Y-92761904D01*
X41476190Y-92666666D01*
X41523809Y-92571428D01*
X41571428Y-92523809D01*
X41666666Y-92476190D01*
X41857142Y-92428571D01*
X41952380Y-92380952D01*
X42000000Y-92333333D01*
X42047619Y-92238095D01*
X42047619Y-92142857D01*
X42000000Y-92047619D01*
X41952380Y-92000000D01*
X41857142Y-91952380D01*
X41619047Y-91952380D01*
X41476190Y-92000000D01*
X41047619Y-92952380D02*
X41047619Y-92285714D01*
X41047619Y-92380952D02*
X41000000Y-92333333D01*
X40904761Y-92285714D01*
X40761904Y-92285714D01*
X40666666Y-92333333D01*
X40619047Y-92428571D01*
X40619047Y-92952380D01*
X40619047Y-92428571D02*
X40571428Y-92333333D01*
X40476190Y-92285714D01*
X40333333Y-92285714D01*
X40238095Y-92333333D01*
X40190476Y-92428571D01*
X40190476Y-92952380D01*
X39285714Y-92952380D02*
X39285714Y-92428571D01*
X39333333Y-92333333D01*
X39428571Y-92285714D01*
X39619047Y-92285714D01*
X39714285Y-92333333D01*
X39285714Y-92904761D02*
X39380952Y-92952380D01*
X39619047Y-92952380D01*
X39714285Y-92904761D01*
X39761904Y-92809523D01*
X39761904Y-92714285D01*
X39714285Y-92619047D01*
X39619047Y-92571428D01*
X39380952Y-92571428D01*
X39285714Y-92523809D01*
X38666666Y-92952380D02*
X38761904Y-92904761D01*
X38809523Y-92809523D01*
X38809523Y-91952380D01*
X38142857Y-92952380D02*
X38238095Y-92904761D01*
X38285714Y-92809523D01*
X38285714Y-91952380D01*
X42214285Y-88852380D02*
X42214285Y-87852380D01*
X41976190Y-87852380D01*
X41833333Y-87900000D01*
X41738095Y-87995238D01*
X41690476Y-88090476D01*
X41642857Y-88280952D01*
X41642857Y-88423809D01*
X41690476Y-88614285D01*
X41738095Y-88709523D01*
X41833333Y-88804761D01*
X41976190Y-88852380D01*
X42214285Y-88852380D01*
X41309523Y-87852380D02*
X40690476Y-87852380D01*
X41023809Y-88233333D01*
X40880952Y-88233333D01*
X40785714Y-88280952D01*
X40738095Y-88328571D01*
X40690476Y-88423809D01*
X40690476Y-88661904D01*
X40738095Y-88757142D01*
X40785714Y-88804761D01*
X40880952Y-88852380D01*
X41166666Y-88852380D01*
X41261904Y-88804761D01*
X41309523Y-88757142D01*
X39785714Y-87852380D02*
X40261904Y-87852380D01*
X40309523Y-88328571D01*
X40261904Y-88280952D01*
X40166666Y-88233333D01*
X39928571Y-88233333D01*
X39833333Y-88280952D01*
X39785714Y-88328571D01*
X39738095Y-88423809D01*
X39738095Y-88661904D01*
X39785714Y-88757142D01*
X39833333Y-88804761D01*
X39928571Y-88852380D01*
X40166666Y-88852380D01*
X40261904Y-88804761D01*
X40309523Y-88757142D01*
%TO.C,D4*%
X95461904Y-41952380D02*
X95461904Y-40952380D01*
X95223809Y-40952380D01*
X95080952Y-41000000D01*
X94985714Y-41095238D01*
X94938095Y-41190476D01*
X94890476Y-41380952D01*
X94890476Y-41523809D01*
X94938095Y-41714285D01*
X94985714Y-41809523D01*
X95080952Y-41904761D01*
X95223809Y-41952380D01*
X95461904Y-41952380D01*
X94700000Y-42047619D02*
X93938095Y-42047619D01*
X93747619Y-41904761D02*
X93604761Y-41952380D01*
X93366666Y-41952380D01*
X93271428Y-41904761D01*
X93223809Y-41857142D01*
X93176190Y-41761904D01*
X93176190Y-41666666D01*
X93223809Y-41571428D01*
X93271428Y-41523809D01*
X93366666Y-41476190D01*
X93557142Y-41428571D01*
X93652380Y-41380952D01*
X93700000Y-41333333D01*
X93747619Y-41238095D01*
X93747619Y-41142857D01*
X93700000Y-41047619D01*
X93652380Y-41000000D01*
X93557142Y-40952380D01*
X93319047Y-40952380D01*
X93176190Y-41000000D01*
X92747619Y-41952380D02*
X92747619Y-41285714D01*
X92747619Y-41380952D02*
X92700000Y-41333333D01*
X92604761Y-41285714D01*
X92461904Y-41285714D01*
X92366666Y-41333333D01*
X92319047Y-41428571D01*
X92319047Y-41952380D01*
X92319047Y-41428571D02*
X92271428Y-41333333D01*
X92176190Y-41285714D01*
X92033333Y-41285714D01*
X91938095Y-41333333D01*
X91890476Y-41428571D01*
X91890476Y-41952380D01*
X90985714Y-41952380D02*
X90985714Y-41428571D01*
X91033333Y-41333333D01*
X91128571Y-41285714D01*
X91319047Y-41285714D01*
X91414285Y-41333333D01*
X90985714Y-41904761D02*
X91080952Y-41952380D01*
X91319047Y-41952380D01*
X91414285Y-41904761D01*
X91461904Y-41809523D01*
X91461904Y-41714285D01*
X91414285Y-41619047D01*
X91319047Y-41571428D01*
X91080952Y-41571428D01*
X90985714Y-41523809D01*
X90366666Y-41952380D02*
X90461904Y-41904761D01*
X90509523Y-41809523D01*
X90509523Y-40952380D01*
X89842857Y-41952380D02*
X89938095Y-41904761D01*
X89985714Y-41809523D01*
X89985714Y-40952380D01*
X93438095Y-37852380D02*
X93438095Y-36852380D01*
X93200000Y-36852380D01*
X93057142Y-36900000D01*
X92961904Y-36995238D01*
X92914285Y-37090476D01*
X92866666Y-37280952D01*
X92866666Y-37423809D01*
X92914285Y-37614285D01*
X92961904Y-37709523D01*
X93057142Y-37804761D01*
X93200000Y-37852380D01*
X93438095Y-37852380D01*
X92009523Y-37185714D02*
X92009523Y-37852380D01*
X92247619Y-36804761D02*
X92485714Y-37519047D01*
X91866666Y-37519047D01*
D14*
%TO.C,Y1*%
X127390476Y-81914285D02*
X127295238Y-81847619D01*
X127390476Y-81800000D02*
X127190476Y-81800000D01*
X127190476Y-81876190D01*
X127200000Y-81895238D01*
X127209523Y-81904761D01*
X127228571Y-81914285D01*
X127257142Y-81914285D01*
X127276190Y-81904761D01*
X127285714Y-81895238D01*
X127295238Y-81876190D01*
X127295238Y-81800000D01*
X127380952Y-82076190D02*
X127390476Y-82057142D01*
X127390476Y-82019047D01*
X127380952Y-82000000D01*
X127361904Y-81990476D01*
X127285714Y-81990476D01*
X127266666Y-82000000D01*
X127257142Y-82019047D01*
X127257142Y-82057142D01*
X127266666Y-82076190D01*
X127285714Y-82085714D01*
X127304761Y-82085714D01*
X127323809Y-81990476D01*
X127380952Y-82161904D02*
X127390476Y-82180952D01*
X127390476Y-82219047D01*
X127380952Y-82238095D01*
X127361904Y-82247619D01*
X127352380Y-82247619D01*
X127333333Y-82238095D01*
X127323809Y-82219047D01*
X127323809Y-82190476D01*
X127314285Y-82171428D01*
X127295238Y-82161904D01*
X127285714Y-82161904D01*
X127266666Y-82171428D01*
X127257142Y-82190476D01*
X127257142Y-82219047D01*
X127266666Y-82238095D01*
X127390476Y-82361904D02*
X127380952Y-82342857D01*
X127371428Y-82333333D01*
X127352380Y-82323809D01*
X127295238Y-82323809D01*
X127276190Y-82333333D01*
X127266666Y-82342857D01*
X127257142Y-82361904D01*
X127257142Y-82390476D01*
X127266666Y-82409523D01*
X127276190Y-82419047D01*
X127295238Y-82428571D01*
X127352380Y-82428571D01*
X127371428Y-82419047D01*
X127380952Y-82409523D01*
X127390476Y-82390476D01*
X127390476Y-82361904D01*
X127257142Y-82514285D02*
X127390476Y-82514285D01*
X127276190Y-82514285D02*
X127266666Y-82523809D01*
X127257142Y-82542857D01*
X127257142Y-82571428D01*
X127266666Y-82590476D01*
X127285714Y-82600000D01*
X127390476Y-82600000D01*
X127390476Y-82780952D02*
X127285714Y-82780952D01*
X127266666Y-82771428D01*
X127257142Y-82752380D01*
X127257142Y-82714285D01*
X127266666Y-82695238D01*
X127380952Y-82780952D02*
X127390476Y-82761904D01*
X127390476Y-82714285D01*
X127380952Y-82695238D01*
X127361904Y-82685714D01*
X127342857Y-82685714D01*
X127323809Y-82695238D01*
X127314285Y-82714285D01*
X127314285Y-82761904D01*
X127304761Y-82780952D01*
X127257142Y-82847619D02*
X127257142Y-82923809D01*
X127190476Y-82876190D02*
X127361904Y-82876190D01*
X127380952Y-82885714D01*
X127390476Y-82904761D01*
X127390476Y-82923809D01*
X127390476Y-83019047D02*
X127380952Y-83000000D01*
X127371428Y-82990476D01*
X127352380Y-82980952D01*
X127295238Y-82980952D01*
X127276190Y-82990476D01*
X127266666Y-83000000D01*
X127257142Y-83019047D01*
X127257142Y-83047619D01*
X127266666Y-83066666D01*
X127276190Y-83076190D01*
X127295238Y-83085714D01*
X127352380Y-83085714D01*
X127371428Y-83076190D01*
X127380952Y-83066666D01*
X127390476Y-83047619D01*
X127390476Y-83019047D01*
X127390476Y-83171428D02*
X127257142Y-83171428D01*
X127295238Y-83171428D02*
X127276190Y-83180952D01*
X127266666Y-83190476D01*
X127257142Y-83209523D01*
X127257142Y-83228571D01*
X127409523Y-83247619D02*
X127409523Y-83400000D01*
X127380952Y-83438095D02*
X127390476Y-83466666D01*
X127390476Y-83514285D01*
X127380952Y-83533333D01*
X127371428Y-83542857D01*
X127352380Y-83552380D01*
X127333333Y-83552380D01*
X127314285Y-83542857D01*
X127304761Y-83533333D01*
X127295238Y-83514285D01*
X127285714Y-83476190D01*
X127276190Y-83457142D01*
X127266666Y-83447619D01*
X127247619Y-83438095D01*
X127228571Y-83438095D01*
X127209523Y-83447619D01*
X127200000Y-83457142D01*
X127190476Y-83476190D01*
X127190476Y-83523809D01*
X127200000Y-83552380D01*
X127390476Y-83638095D02*
X127257142Y-83638095D01*
X127276190Y-83638095D02*
X127266666Y-83647619D01*
X127257142Y-83666666D01*
X127257142Y-83695238D01*
X127266666Y-83714285D01*
X127285714Y-83723809D01*
X127390476Y-83723809D01*
X127285714Y-83723809D02*
X127266666Y-83733333D01*
X127257142Y-83752380D01*
X127257142Y-83780952D01*
X127266666Y-83800000D01*
X127285714Y-83809523D01*
X127390476Y-83809523D01*
X127390476Y-83990476D02*
X127285714Y-83990476D01*
X127266666Y-83980952D01*
X127257142Y-83961904D01*
X127257142Y-83923809D01*
X127266666Y-83904761D01*
X127380952Y-83990476D02*
X127390476Y-83971428D01*
X127390476Y-83923809D01*
X127380952Y-83904761D01*
X127361904Y-83895238D01*
X127342857Y-83895238D01*
X127323809Y-83904761D01*
X127314285Y-83923809D01*
X127314285Y-83971428D01*
X127304761Y-83990476D01*
X127390476Y-84114285D02*
X127380952Y-84095238D01*
X127361904Y-84085714D01*
X127190476Y-84085714D01*
X127390476Y-84219047D02*
X127380952Y-84200000D01*
X127361904Y-84190476D01*
X127190476Y-84190476D01*
D15*
X125435714Y-82814285D02*
X125721428Y-82814285D01*
X125121428Y-82614285D02*
X125435714Y-82814285D01*
X125121428Y-83014285D01*
X125721428Y-83528571D02*
X125721428Y-83185714D01*
X125721428Y-83357142D02*
X125121428Y-83357142D01*
X125207142Y-83300000D01*
X125264285Y-83242857D01*
X125292857Y-83185714D01*
D10*
%TO.C,D5*%
X113461904Y-41952380D02*
X113461904Y-40952380D01*
X113223809Y-40952380D01*
X113080952Y-41000000D01*
X112985714Y-41095238D01*
X112938095Y-41190476D01*
X112890476Y-41380952D01*
X112890476Y-41523809D01*
X112938095Y-41714285D01*
X112985714Y-41809523D01*
X113080952Y-41904761D01*
X113223809Y-41952380D01*
X113461904Y-41952380D01*
X112700000Y-42047619D02*
X111938095Y-42047619D01*
X111747619Y-41904761D02*
X111604761Y-41952380D01*
X111366666Y-41952380D01*
X111271428Y-41904761D01*
X111223809Y-41857142D01*
X111176190Y-41761904D01*
X111176190Y-41666666D01*
X111223809Y-41571428D01*
X111271428Y-41523809D01*
X111366666Y-41476190D01*
X111557142Y-41428571D01*
X111652380Y-41380952D01*
X111700000Y-41333333D01*
X111747619Y-41238095D01*
X111747619Y-41142857D01*
X111700000Y-41047619D01*
X111652380Y-41000000D01*
X111557142Y-40952380D01*
X111319047Y-40952380D01*
X111176190Y-41000000D01*
X110747619Y-41952380D02*
X110747619Y-41285714D01*
X110747619Y-41380952D02*
X110700000Y-41333333D01*
X110604761Y-41285714D01*
X110461904Y-41285714D01*
X110366666Y-41333333D01*
X110319047Y-41428571D01*
X110319047Y-41952380D01*
X110319047Y-41428571D02*
X110271428Y-41333333D01*
X110176190Y-41285714D01*
X110033333Y-41285714D01*
X109938095Y-41333333D01*
X109890476Y-41428571D01*
X109890476Y-41952380D01*
X108985714Y-41952380D02*
X108985714Y-41428571D01*
X109033333Y-41333333D01*
X109128571Y-41285714D01*
X109319047Y-41285714D01*
X109414285Y-41333333D01*
X108985714Y-41904761D02*
X109080952Y-41952380D01*
X109319047Y-41952380D01*
X109414285Y-41904761D01*
X109461904Y-41809523D01*
X109461904Y-41714285D01*
X109414285Y-41619047D01*
X109319047Y-41571428D01*
X109080952Y-41571428D01*
X108985714Y-41523809D01*
X108366666Y-41952380D02*
X108461904Y-41904761D01*
X108509523Y-41809523D01*
X108509523Y-40952380D01*
X107842857Y-41952380D02*
X107938095Y-41904761D01*
X107985714Y-41809523D01*
X107985714Y-40952380D01*
X111438095Y-37852380D02*
X111438095Y-36852380D01*
X111200000Y-36852380D01*
X111057142Y-36900000D01*
X110961904Y-36995238D01*
X110914285Y-37090476D01*
X110866666Y-37280952D01*
X110866666Y-37423809D01*
X110914285Y-37614285D01*
X110961904Y-37709523D01*
X111057142Y-37804761D01*
X111200000Y-37852380D01*
X111438095Y-37852380D01*
X109961904Y-36852380D02*
X110438095Y-36852380D01*
X110485714Y-37328571D01*
X110438095Y-37280952D01*
X110342857Y-37233333D01*
X110104761Y-37233333D01*
X110009523Y-37280952D01*
X109961904Y-37328571D01*
X109914285Y-37423809D01*
X109914285Y-37661904D01*
X109961904Y-37757142D01*
X110009523Y-37804761D01*
X110104761Y-37852380D01*
X110342857Y-37852380D01*
X110438095Y-37804761D01*
X110485714Y-37757142D01*
%TO.C,D40*%
X237361904Y-92952380D02*
X237361904Y-91952380D01*
X237123809Y-91952380D01*
X236980952Y-92000000D01*
X236885714Y-92095238D01*
X236838095Y-92190476D01*
X236790476Y-92380952D01*
X236790476Y-92523809D01*
X236838095Y-92714285D01*
X236885714Y-92809523D01*
X236980952Y-92904761D01*
X237123809Y-92952380D01*
X237361904Y-92952380D01*
X236600000Y-93047619D02*
X235838095Y-93047619D01*
X235647619Y-92904761D02*
X235504761Y-92952380D01*
X235266666Y-92952380D01*
X235171428Y-92904761D01*
X235123809Y-92857142D01*
X235076190Y-92761904D01*
X235076190Y-92666666D01*
X235123809Y-92571428D01*
X235171428Y-92523809D01*
X235266666Y-92476190D01*
X235457142Y-92428571D01*
X235552380Y-92380952D01*
X235600000Y-92333333D01*
X235647619Y-92238095D01*
X235647619Y-92142857D01*
X235600000Y-92047619D01*
X235552380Y-92000000D01*
X235457142Y-91952380D01*
X235219047Y-91952380D01*
X235076190Y-92000000D01*
X234647619Y-92952380D02*
X234647619Y-92285714D01*
X234647619Y-92380952D02*
X234600000Y-92333333D01*
X234504761Y-92285714D01*
X234361904Y-92285714D01*
X234266666Y-92333333D01*
X234219047Y-92428571D01*
X234219047Y-92952380D01*
X234219047Y-92428571D02*
X234171428Y-92333333D01*
X234076190Y-92285714D01*
X233933333Y-92285714D01*
X233838095Y-92333333D01*
X233790476Y-92428571D01*
X233790476Y-92952380D01*
X232885714Y-92952380D02*
X232885714Y-92428571D01*
X232933333Y-92333333D01*
X233028571Y-92285714D01*
X233219047Y-92285714D01*
X233314285Y-92333333D01*
X232885714Y-92904761D02*
X232980952Y-92952380D01*
X233219047Y-92952380D01*
X233314285Y-92904761D01*
X233361904Y-92809523D01*
X233361904Y-92714285D01*
X233314285Y-92619047D01*
X233219047Y-92571428D01*
X232980952Y-92571428D01*
X232885714Y-92523809D01*
X232266666Y-92952380D02*
X232361904Y-92904761D01*
X232409523Y-92809523D01*
X232409523Y-91952380D01*
X231742857Y-92952380D02*
X231838095Y-92904761D01*
X231885714Y-92809523D01*
X231885714Y-91952380D01*
X235814285Y-88852380D02*
X235814285Y-87852380D01*
X235576190Y-87852380D01*
X235433333Y-87900000D01*
X235338095Y-87995238D01*
X235290476Y-88090476D01*
X235242857Y-88280952D01*
X235242857Y-88423809D01*
X235290476Y-88614285D01*
X235338095Y-88709523D01*
X235433333Y-88804761D01*
X235576190Y-88852380D01*
X235814285Y-88852380D01*
X234385714Y-88185714D02*
X234385714Y-88852380D01*
X234623809Y-87804761D02*
X234861904Y-88519047D01*
X234242857Y-88519047D01*
X233671428Y-87852380D02*
X233576190Y-87852380D01*
X233480952Y-87900000D01*
X233433333Y-87947619D01*
X233385714Y-88042857D01*
X233338095Y-88233333D01*
X233338095Y-88471428D01*
X233385714Y-88661904D01*
X233433333Y-88757142D01*
X233480952Y-88804761D01*
X233576190Y-88852380D01*
X233671428Y-88852380D01*
X233766666Y-88804761D01*
X233814285Y-88757142D01*
X233861904Y-88661904D01*
X233909523Y-88471428D01*
X233909523Y-88233333D01*
X233861904Y-88042857D01*
X233814285Y-87947619D01*
X233766666Y-87900000D01*
X233671428Y-87852380D01*
%TO.C,D7*%
X149461904Y-41952380D02*
X149461904Y-40952380D01*
X149223809Y-40952380D01*
X149080952Y-41000000D01*
X148985714Y-41095238D01*
X148938095Y-41190476D01*
X148890476Y-41380952D01*
X148890476Y-41523809D01*
X148938095Y-41714285D01*
X148985714Y-41809523D01*
X149080952Y-41904761D01*
X149223809Y-41952380D01*
X149461904Y-41952380D01*
X148700000Y-42047619D02*
X147938095Y-42047619D01*
X147747619Y-41904761D02*
X147604761Y-41952380D01*
X147366666Y-41952380D01*
X147271428Y-41904761D01*
X147223809Y-41857142D01*
X147176190Y-41761904D01*
X147176190Y-41666666D01*
X147223809Y-41571428D01*
X147271428Y-41523809D01*
X147366666Y-41476190D01*
X147557142Y-41428571D01*
X147652380Y-41380952D01*
X147700000Y-41333333D01*
X147747619Y-41238095D01*
X147747619Y-41142857D01*
X147700000Y-41047619D01*
X147652380Y-41000000D01*
X147557142Y-40952380D01*
X147319047Y-40952380D01*
X147176190Y-41000000D01*
X146747619Y-41952380D02*
X146747619Y-41285714D01*
X146747619Y-41380952D02*
X146700000Y-41333333D01*
X146604761Y-41285714D01*
X146461904Y-41285714D01*
X146366666Y-41333333D01*
X146319047Y-41428571D01*
X146319047Y-41952380D01*
X146319047Y-41428571D02*
X146271428Y-41333333D01*
X146176190Y-41285714D01*
X146033333Y-41285714D01*
X145938095Y-41333333D01*
X145890476Y-41428571D01*
X145890476Y-41952380D01*
X144985714Y-41952380D02*
X144985714Y-41428571D01*
X145033333Y-41333333D01*
X145128571Y-41285714D01*
X145319047Y-41285714D01*
X145414285Y-41333333D01*
X144985714Y-41904761D02*
X145080952Y-41952380D01*
X145319047Y-41952380D01*
X145414285Y-41904761D01*
X145461904Y-41809523D01*
X145461904Y-41714285D01*
X145414285Y-41619047D01*
X145319047Y-41571428D01*
X145080952Y-41571428D01*
X144985714Y-41523809D01*
X144366666Y-41952380D02*
X144461904Y-41904761D01*
X144509523Y-41809523D01*
X144509523Y-40952380D01*
X143842857Y-41952380D02*
X143938095Y-41904761D01*
X143985714Y-41809523D01*
X143985714Y-40952380D01*
X147438095Y-37852380D02*
X147438095Y-36852380D01*
X147200000Y-36852380D01*
X147057142Y-36900000D01*
X146961904Y-36995238D01*
X146914285Y-37090476D01*
X146866666Y-37280952D01*
X146866666Y-37423809D01*
X146914285Y-37614285D01*
X146961904Y-37709523D01*
X147057142Y-37804761D01*
X147200000Y-37852380D01*
X147438095Y-37852380D01*
X146533333Y-36852380D02*
X145866666Y-36852380D01*
X146295238Y-37852380D01*
%TO.C,D19*%
X153961904Y-58952380D02*
X153961904Y-57952380D01*
X153723809Y-57952380D01*
X153580952Y-58000000D01*
X153485714Y-58095238D01*
X153438095Y-58190476D01*
X153390476Y-58380952D01*
X153390476Y-58523809D01*
X153438095Y-58714285D01*
X153485714Y-58809523D01*
X153580952Y-58904761D01*
X153723809Y-58952380D01*
X153961904Y-58952380D01*
X153200000Y-59047619D02*
X152438095Y-59047619D01*
X152247619Y-58904761D02*
X152104761Y-58952380D01*
X151866666Y-58952380D01*
X151771428Y-58904761D01*
X151723809Y-58857142D01*
X151676190Y-58761904D01*
X151676190Y-58666666D01*
X151723809Y-58571428D01*
X151771428Y-58523809D01*
X151866666Y-58476190D01*
X152057142Y-58428571D01*
X152152380Y-58380952D01*
X152200000Y-58333333D01*
X152247619Y-58238095D01*
X152247619Y-58142857D01*
X152200000Y-58047619D01*
X152152380Y-58000000D01*
X152057142Y-57952380D01*
X151819047Y-57952380D01*
X151676190Y-58000000D01*
X151247619Y-58952380D02*
X151247619Y-58285714D01*
X151247619Y-58380952D02*
X151200000Y-58333333D01*
X151104761Y-58285714D01*
X150961904Y-58285714D01*
X150866666Y-58333333D01*
X150819047Y-58428571D01*
X150819047Y-58952380D01*
X150819047Y-58428571D02*
X150771428Y-58333333D01*
X150676190Y-58285714D01*
X150533333Y-58285714D01*
X150438095Y-58333333D01*
X150390476Y-58428571D01*
X150390476Y-58952380D01*
X149485714Y-58952380D02*
X149485714Y-58428571D01*
X149533333Y-58333333D01*
X149628571Y-58285714D01*
X149819047Y-58285714D01*
X149914285Y-58333333D01*
X149485714Y-58904761D02*
X149580952Y-58952380D01*
X149819047Y-58952380D01*
X149914285Y-58904761D01*
X149961904Y-58809523D01*
X149961904Y-58714285D01*
X149914285Y-58619047D01*
X149819047Y-58571428D01*
X149580952Y-58571428D01*
X149485714Y-58523809D01*
X148866666Y-58952380D02*
X148961904Y-58904761D01*
X149009523Y-58809523D01*
X149009523Y-57952380D01*
X148342857Y-58952380D02*
X148438095Y-58904761D01*
X148485714Y-58809523D01*
X148485714Y-57952380D01*
X152414285Y-54852380D02*
X152414285Y-53852380D01*
X152176190Y-53852380D01*
X152033333Y-53900000D01*
X151938095Y-53995238D01*
X151890476Y-54090476D01*
X151842857Y-54280952D01*
X151842857Y-54423809D01*
X151890476Y-54614285D01*
X151938095Y-54709523D01*
X152033333Y-54804761D01*
X152176190Y-54852380D01*
X152414285Y-54852380D01*
X150890476Y-54852380D02*
X151461904Y-54852380D01*
X151176190Y-54852380D02*
X151176190Y-53852380D01*
X151271428Y-53995238D01*
X151366666Y-54090476D01*
X151461904Y-54138095D01*
X150414285Y-54852380D02*
X150223809Y-54852380D01*
X150128571Y-54804761D01*
X150080952Y-54757142D01*
X149985714Y-54614285D01*
X149938095Y-54423809D01*
X149938095Y-54042857D01*
X149985714Y-53947619D01*
X150033333Y-53900000D01*
X150128571Y-53852380D01*
X150319047Y-53852380D01*
X150414285Y-53900000D01*
X150461904Y-53947619D01*
X150509523Y-54042857D01*
X150509523Y-54280952D01*
X150461904Y-54376190D01*
X150414285Y-54423809D01*
X150319047Y-54471428D01*
X150128571Y-54471428D01*
X150033333Y-54423809D01*
X149985714Y-54376190D01*
X149938095Y-54280952D01*
%TO.C,D25*%
X72961904Y-75952380D02*
X72961904Y-74952380D01*
X72723809Y-74952380D01*
X72580952Y-75000000D01*
X72485714Y-75095238D01*
X72438095Y-75190476D01*
X72390476Y-75380952D01*
X72390476Y-75523809D01*
X72438095Y-75714285D01*
X72485714Y-75809523D01*
X72580952Y-75904761D01*
X72723809Y-75952380D01*
X72961904Y-75952380D01*
X72200000Y-76047619D02*
X71438095Y-76047619D01*
X71247619Y-75904761D02*
X71104761Y-75952380D01*
X70866666Y-75952380D01*
X70771428Y-75904761D01*
X70723809Y-75857142D01*
X70676190Y-75761904D01*
X70676190Y-75666666D01*
X70723809Y-75571428D01*
X70771428Y-75523809D01*
X70866666Y-75476190D01*
X71057142Y-75428571D01*
X71152380Y-75380952D01*
X71200000Y-75333333D01*
X71247619Y-75238095D01*
X71247619Y-75142857D01*
X71200000Y-75047619D01*
X71152380Y-75000000D01*
X71057142Y-74952380D01*
X70819047Y-74952380D01*
X70676190Y-75000000D01*
X70247619Y-75952380D02*
X70247619Y-75285714D01*
X70247619Y-75380952D02*
X70200000Y-75333333D01*
X70104761Y-75285714D01*
X69961904Y-75285714D01*
X69866666Y-75333333D01*
X69819047Y-75428571D01*
X69819047Y-75952380D01*
X69819047Y-75428571D02*
X69771428Y-75333333D01*
X69676190Y-75285714D01*
X69533333Y-75285714D01*
X69438095Y-75333333D01*
X69390476Y-75428571D01*
X69390476Y-75952380D01*
X68485714Y-75952380D02*
X68485714Y-75428571D01*
X68533333Y-75333333D01*
X68628571Y-75285714D01*
X68819047Y-75285714D01*
X68914285Y-75333333D01*
X68485714Y-75904761D02*
X68580952Y-75952380D01*
X68819047Y-75952380D01*
X68914285Y-75904761D01*
X68961904Y-75809523D01*
X68961904Y-75714285D01*
X68914285Y-75619047D01*
X68819047Y-75571428D01*
X68580952Y-75571428D01*
X68485714Y-75523809D01*
X67866666Y-75952380D02*
X67961904Y-75904761D01*
X68009523Y-75809523D01*
X68009523Y-74952380D01*
X67342857Y-75952380D02*
X67438095Y-75904761D01*
X67485714Y-75809523D01*
X67485714Y-74952380D01*
X71414285Y-71852380D02*
X71414285Y-70852380D01*
X71176190Y-70852380D01*
X71033333Y-70900000D01*
X70938095Y-70995238D01*
X70890476Y-71090476D01*
X70842857Y-71280952D01*
X70842857Y-71423809D01*
X70890476Y-71614285D01*
X70938095Y-71709523D01*
X71033333Y-71804761D01*
X71176190Y-71852380D01*
X71414285Y-71852380D01*
X70461904Y-70947619D02*
X70414285Y-70900000D01*
X70319047Y-70852380D01*
X70080952Y-70852380D01*
X69985714Y-70900000D01*
X69938095Y-70947619D01*
X69890476Y-71042857D01*
X69890476Y-71138095D01*
X69938095Y-71280952D01*
X70509523Y-71852380D01*
X69890476Y-71852380D01*
X68985714Y-70852380D02*
X69461904Y-70852380D01*
X69509523Y-71328571D01*
X69461904Y-71280952D01*
X69366666Y-71233333D01*
X69128571Y-71233333D01*
X69033333Y-71280952D01*
X68985714Y-71328571D01*
X68938095Y-71423809D01*
X68938095Y-71661904D01*
X68985714Y-71757142D01*
X69033333Y-71804761D01*
X69128571Y-71852380D01*
X69366666Y-71852380D01*
X69461904Y-71804761D01*
X69509523Y-71757142D01*
%TO.C,R6*%
X142642857Y-24522380D02*
X143119047Y-24522380D01*
X143166666Y-24998571D01*
X143119047Y-24950952D01*
X143023809Y-24903333D01*
X142785714Y-24903333D01*
X142690476Y-24950952D01*
X142642857Y-24998571D01*
X142595238Y-25093809D01*
X142595238Y-25331904D01*
X142642857Y-25427142D01*
X142690476Y-25474761D01*
X142785714Y-25522380D01*
X143023809Y-25522380D01*
X143119047Y-25474761D01*
X143166666Y-25427142D01*
X142166666Y-25522380D02*
X142166666Y-24522380D01*
X142071428Y-25141428D02*
X141785714Y-25522380D01*
X141785714Y-24855714D02*
X142166666Y-25236666D01*
X140833333Y-25522380D02*
X141404761Y-25522380D01*
X141119047Y-25522380D02*
X141119047Y-24522380D01*
X141214285Y-24665238D01*
X141309523Y-24760476D01*
X141404761Y-24808095D01*
D11*
X142066666Y-26680952D02*
X142200000Y-26490476D01*
X142295238Y-26680952D02*
X142295238Y-26280952D01*
X142142857Y-26280952D01*
X142104761Y-26300000D01*
X142085714Y-26319047D01*
X142066666Y-26357142D01*
X142066666Y-26414285D01*
X142085714Y-26452380D01*
X142104761Y-26471428D01*
X142142857Y-26490476D01*
X142295238Y-26490476D01*
X141723809Y-26280952D02*
X141800000Y-26280952D01*
X141838095Y-26300000D01*
X141857142Y-26319047D01*
X141895238Y-26376190D01*
X141914285Y-26452380D01*
X141914285Y-26604761D01*
X141895238Y-26642857D01*
X141876190Y-26661904D01*
X141838095Y-26680952D01*
X141761904Y-26680952D01*
X141723809Y-26661904D01*
X141704761Y-26642857D01*
X141685714Y-26604761D01*
X141685714Y-26509523D01*
X141704761Y-26471428D01*
X141723809Y-26452380D01*
X141761904Y-26433333D01*
X141838095Y-26433333D01*
X141876190Y-26452380D01*
X141895238Y-26471428D01*
X141914285Y-26509523D01*
D10*
%TO.C,D30*%
X162961904Y-75952380D02*
X162961904Y-74952380D01*
X162723809Y-74952380D01*
X162580952Y-75000000D01*
X162485714Y-75095238D01*
X162438095Y-75190476D01*
X162390476Y-75380952D01*
X162390476Y-75523809D01*
X162438095Y-75714285D01*
X162485714Y-75809523D01*
X162580952Y-75904761D01*
X162723809Y-75952380D01*
X162961904Y-75952380D01*
X162200000Y-76047619D02*
X161438095Y-76047619D01*
X161247619Y-75904761D02*
X161104761Y-75952380D01*
X160866666Y-75952380D01*
X160771428Y-75904761D01*
X160723809Y-75857142D01*
X160676190Y-75761904D01*
X160676190Y-75666666D01*
X160723809Y-75571428D01*
X160771428Y-75523809D01*
X160866666Y-75476190D01*
X161057142Y-75428571D01*
X161152380Y-75380952D01*
X161200000Y-75333333D01*
X161247619Y-75238095D01*
X161247619Y-75142857D01*
X161200000Y-75047619D01*
X161152380Y-75000000D01*
X161057142Y-74952380D01*
X160819047Y-74952380D01*
X160676190Y-75000000D01*
X160247619Y-75952380D02*
X160247619Y-75285714D01*
X160247619Y-75380952D02*
X160200000Y-75333333D01*
X160104761Y-75285714D01*
X159961904Y-75285714D01*
X159866666Y-75333333D01*
X159819047Y-75428571D01*
X159819047Y-75952380D01*
X159819047Y-75428571D02*
X159771428Y-75333333D01*
X159676190Y-75285714D01*
X159533333Y-75285714D01*
X159438095Y-75333333D01*
X159390476Y-75428571D01*
X159390476Y-75952380D01*
X158485714Y-75952380D02*
X158485714Y-75428571D01*
X158533333Y-75333333D01*
X158628571Y-75285714D01*
X158819047Y-75285714D01*
X158914285Y-75333333D01*
X158485714Y-75904761D02*
X158580952Y-75952380D01*
X158819047Y-75952380D01*
X158914285Y-75904761D01*
X158961904Y-75809523D01*
X158961904Y-75714285D01*
X158914285Y-75619047D01*
X158819047Y-75571428D01*
X158580952Y-75571428D01*
X158485714Y-75523809D01*
X157866666Y-75952380D02*
X157961904Y-75904761D01*
X158009523Y-75809523D01*
X158009523Y-74952380D01*
X157342857Y-75952380D02*
X157438095Y-75904761D01*
X157485714Y-75809523D01*
X157485714Y-74952380D01*
X161414285Y-71852380D02*
X161414285Y-70852380D01*
X161176190Y-70852380D01*
X161033333Y-70900000D01*
X160938095Y-70995238D01*
X160890476Y-71090476D01*
X160842857Y-71280952D01*
X160842857Y-71423809D01*
X160890476Y-71614285D01*
X160938095Y-71709523D01*
X161033333Y-71804761D01*
X161176190Y-71852380D01*
X161414285Y-71852380D01*
X160509523Y-70852380D02*
X159890476Y-70852380D01*
X160223809Y-71233333D01*
X160080952Y-71233333D01*
X159985714Y-71280952D01*
X159938095Y-71328571D01*
X159890476Y-71423809D01*
X159890476Y-71661904D01*
X159938095Y-71757142D01*
X159985714Y-71804761D01*
X160080952Y-71852380D01*
X160366666Y-71852380D01*
X160461904Y-71804761D01*
X160509523Y-71757142D01*
X159271428Y-70852380D02*
X159176190Y-70852380D01*
X159080952Y-70900000D01*
X159033333Y-70947619D01*
X158985714Y-71042857D01*
X158938095Y-71233333D01*
X158938095Y-71471428D01*
X158985714Y-71661904D01*
X159033333Y-71757142D01*
X159080952Y-71804761D01*
X159176190Y-71852380D01*
X159271428Y-71852380D01*
X159366666Y-71804761D01*
X159414285Y-71757142D01*
X159461904Y-71661904D01*
X159509523Y-71471428D01*
X159509523Y-71233333D01*
X159461904Y-71042857D01*
X159414285Y-70947619D01*
X159366666Y-70900000D01*
X159271428Y-70852380D01*
%TO.C,D10*%
X203461904Y-41952380D02*
X203461904Y-40952380D01*
X203223809Y-40952380D01*
X203080952Y-41000000D01*
X202985714Y-41095238D01*
X202938095Y-41190476D01*
X202890476Y-41380952D01*
X202890476Y-41523809D01*
X202938095Y-41714285D01*
X202985714Y-41809523D01*
X203080952Y-41904761D01*
X203223809Y-41952380D01*
X203461904Y-41952380D01*
X202700000Y-42047619D02*
X201938095Y-42047619D01*
X201747619Y-41904761D02*
X201604761Y-41952380D01*
X201366666Y-41952380D01*
X201271428Y-41904761D01*
X201223809Y-41857142D01*
X201176190Y-41761904D01*
X201176190Y-41666666D01*
X201223809Y-41571428D01*
X201271428Y-41523809D01*
X201366666Y-41476190D01*
X201557142Y-41428571D01*
X201652380Y-41380952D01*
X201700000Y-41333333D01*
X201747619Y-41238095D01*
X201747619Y-41142857D01*
X201700000Y-41047619D01*
X201652380Y-41000000D01*
X201557142Y-40952380D01*
X201319047Y-40952380D01*
X201176190Y-41000000D01*
X200747619Y-41952380D02*
X200747619Y-41285714D01*
X200747619Y-41380952D02*
X200700000Y-41333333D01*
X200604761Y-41285714D01*
X200461904Y-41285714D01*
X200366666Y-41333333D01*
X200319047Y-41428571D01*
X200319047Y-41952380D01*
X200319047Y-41428571D02*
X200271428Y-41333333D01*
X200176190Y-41285714D01*
X200033333Y-41285714D01*
X199938095Y-41333333D01*
X199890476Y-41428571D01*
X199890476Y-41952380D01*
X198985714Y-41952380D02*
X198985714Y-41428571D01*
X199033333Y-41333333D01*
X199128571Y-41285714D01*
X199319047Y-41285714D01*
X199414285Y-41333333D01*
X198985714Y-41904761D02*
X199080952Y-41952380D01*
X199319047Y-41952380D01*
X199414285Y-41904761D01*
X199461904Y-41809523D01*
X199461904Y-41714285D01*
X199414285Y-41619047D01*
X199319047Y-41571428D01*
X199080952Y-41571428D01*
X198985714Y-41523809D01*
X198366666Y-41952380D02*
X198461904Y-41904761D01*
X198509523Y-41809523D01*
X198509523Y-40952380D01*
X197842857Y-41952380D02*
X197938095Y-41904761D01*
X197985714Y-41809523D01*
X197985714Y-40952380D01*
X201914285Y-37852380D02*
X201914285Y-36852380D01*
X201676190Y-36852380D01*
X201533333Y-36900000D01*
X201438095Y-36995238D01*
X201390476Y-37090476D01*
X201342857Y-37280952D01*
X201342857Y-37423809D01*
X201390476Y-37614285D01*
X201438095Y-37709523D01*
X201533333Y-37804761D01*
X201676190Y-37852380D01*
X201914285Y-37852380D01*
X200390476Y-37852380D02*
X200961904Y-37852380D01*
X200676190Y-37852380D02*
X200676190Y-36852380D01*
X200771428Y-36995238D01*
X200866666Y-37090476D01*
X200961904Y-37138095D01*
X199771428Y-36852380D02*
X199676190Y-36852380D01*
X199580952Y-36900000D01*
X199533333Y-36947619D01*
X199485714Y-37042857D01*
X199438095Y-37233333D01*
X199438095Y-37471428D01*
X199485714Y-37661904D01*
X199533333Y-37757142D01*
X199580952Y-37804761D01*
X199676190Y-37852380D01*
X199771428Y-37852380D01*
X199866666Y-37804761D01*
X199914285Y-37757142D01*
X199961904Y-37661904D01*
X200009523Y-37471428D01*
X200009523Y-37233333D01*
X199961904Y-37042857D01*
X199914285Y-36947619D01*
X199866666Y-36900000D01*
X199771428Y-36852380D01*
%TO.C,U1*%
X125785714Y-88486666D02*
X125309523Y-88486666D01*
X125880952Y-88772380D02*
X125547619Y-87772380D01*
X125214285Y-88772380D01*
X125023809Y-87772380D02*
X124452380Y-87772380D01*
X124738095Y-88772380D02*
X124738095Y-87772380D01*
X124119047Y-88772380D02*
X124119047Y-88105714D01*
X124119047Y-88200952D02*
X124071428Y-88153333D01*
X123976190Y-88105714D01*
X123833333Y-88105714D01*
X123738095Y-88153333D01*
X123690476Y-88248571D01*
X123690476Y-88772380D01*
X123690476Y-88248571D02*
X123642857Y-88153333D01*
X123547619Y-88105714D01*
X123404761Y-88105714D01*
X123309523Y-88153333D01*
X123261904Y-88248571D01*
X123261904Y-88772380D01*
X122404761Y-88724761D02*
X122500000Y-88772380D01*
X122690476Y-88772380D01*
X122785714Y-88724761D01*
X122833333Y-88629523D01*
X122833333Y-88248571D01*
X122785714Y-88153333D01*
X122690476Y-88105714D01*
X122500000Y-88105714D01*
X122404761Y-88153333D01*
X122357142Y-88248571D01*
X122357142Y-88343809D01*
X122833333Y-88439047D01*
X121500000Y-88105714D02*
X121500000Y-88915238D01*
X121547619Y-89010476D01*
X121595238Y-89058095D01*
X121690476Y-89105714D01*
X121833333Y-89105714D01*
X121928571Y-89058095D01*
X121500000Y-88724761D02*
X121595238Y-88772380D01*
X121785714Y-88772380D01*
X121880952Y-88724761D01*
X121928571Y-88677142D01*
X121976190Y-88581904D01*
X121976190Y-88296190D01*
X121928571Y-88200952D01*
X121880952Y-88153333D01*
X121785714Y-88105714D01*
X121595238Y-88105714D01*
X121500000Y-88153333D01*
X120595238Y-88772380D02*
X120595238Y-88248571D01*
X120642857Y-88153333D01*
X120738095Y-88105714D01*
X120928571Y-88105714D01*
X121023809Y-88153333D01*
X120595238Y-88724761D02*
X120690476Y-88772380D01*
X120928571Y-88772380D01*
X121023809Y-88724761D01*
X121071428Y-88629523D01*
X121071428Y-88534285D01*
X121023809Y-88439047D01*
X120928571Y-88391428D01*
X120690476Y-88391428D01*
X120595238Y-88343809D01*
X120214285Y-87772380D02*
X119595238Y-87772380D01*
X119928571Y-88153333D01*
X119785714Y-88153333D01*
X119690476Y-88200952D01*
X119642857Y-88248571D01*
X119595238Y-88343809D01*
X119595238Y-88581904D01*
X119642857Y-88677142D01*
X119690476Y-88724761D01*
X119785714Y-88772380D01*
X120071428Y-88772380D01*
X120166666Y-88724761D01*
X120214285Y-88677142D01*
X119214285Y-87867619D02*
X119166666Y-87820000D01*
X119071428Y-87772380D01*
X118833333Y-87772380D01*
X118738095Y-87820000D01*
X118690476Y-87867619D01*
X118642857Y-87962857D01*
X118642857Y-88058095D01*
X118690476Y-88200952D01*
X119261904Y-88772380D01*
X118642857Y-88772380D01*
X118214285Y-87772380D02*
X118214285Y-88581904D01*
X118166666Y-88677142D01*
X118119047Y-88724761D01*
X118023809Y-88772380D01*
X117833333Y-88772380D01*
X117738095Y-88724761D01*
X117690476Y-88677142D01*
X117642857Y-88581904D01*
X117642857Y-87772380D01*
X117214285Y-87867619D02*
X117166666Y-87820000D01*
X117071428Y-87772380D01*
X116833333Y-87772380D01*
X116738095Y-87820000D01*
X116690476Y-87867619D01*
X116642857Y-87962857D01*
X116642857Y-88058095D01*
X116690476Y-88200952D01*
X117261904Y-88772380D01*
X116642857Y-88772380D01*
X116214285Y-88391428D02*
X115452380Y-88391428D01*
X114976190Y-88772380D02*
X114976190Y-87772380D01*
X114642857Y-88486666D01*
X114309523Y-87772380D01*
X114309523Y-88772380D01*
X113833333Y-87772380D02*
X113833333Y-88581904D01*
X113785714Y-88677142D01*
X113738095Y-88724761D01*
X113642857Y-88772380D01*
X113452380Y-88772380D01*
X113357142Y-88724761D01*
X113309523Y-88677142D01*
X113261904Y-88581904D01*
X113261904Y-87772380D01*
X120261904Y-83952380D02*
X120261904Y-84761904D01*
X120214285Y-84857142D01*
X120166666Y-84904761D01*
X120071428Y-84952380D01*
X119880952Y-84952380D01*
X119785714Y-84904761D01*
X119738095Y-84857142D01*
X119690476Y-84761904D01*
X119690476Y-83952380D01*
X118690476Y-84952380D02*
X119261904Y-84952380D01*
X118976190Y-84952380D02*
X118976190Y-83952380D01*
X119071428Y-84095238D01*
X119166666Y-84190476D01*
X119261904Y-84238095D01*
%TO.C,C3*%
X125842857Y-77272380D02*
X125747619Y-77272380D01*
X125652380Y-77320000D01*
X125604761Y-77367619D01*
X125557142Y-77462857D01*
X125509523Y-77653333D01*
X125509523Y-77891428D01*
X125557142Y-78081904D01*
X125604761Y-78177142D01*
X125652380Y-78224761D01*
X125747619Y-78272380D01*
X125842857Y-78272380D01*
X125938095Y-78224761D01*
X125985714Y-78177142D01*
X126033333Y-78081904D01*
X126080952Y-77891428D01*
X126080952Y-77653333D01*
X126033333Y-77462857D01*
X125985714Y-77367619D01*
X125938095Y-77320000D01*
X125842857Y-77272380D01*
X125080952Y-78177142D02*
X125033333Y-78224761D01*
X125080952Y-78272380D01*
X125128571Y-78224761D01*
X125080952Y-78177142D01*
X125080952Y-78272380D01*
X124080952Y-78272380D02*
X124652380Y-78272380D01*
X124366666Y-78272380D02*
X124366666Y-77272380D01*
X124461904Y-77415238D01*
X124557142Y-77510476D01*
X124652380Y-77558095D01*
X123223809Y-77605714D02*
X123223809Y-78272380D01*
X123652380Y-77605714D02*
X123652380Y-78129523D01*
X123604761Y-78224761D01*
X123509523Y-78272380D01*
X123366666Y-78272380D01*
X123271428Y-78224761D01*
X123223809Y-78177142D01*
X122414285Y-77748571D02*
X122747619Y-77748571D01*
X122747619Y-78272380D02*
X122747619Y-77272380D01*
X122271428Y-77272380D01*
D11*
X124266666Y-79392857D02*
X124285714Y-79411904D01*
X124342857Y-79430952D01*
X124380952Y-79430952D01*
X124438095Y-79411904D01*
X124476190Y-79373809D01*
X124495238Y-79335714D01*
X124514285Y-79259523D01*
X124514285Y-79202380D01*
X124495238Y-79126190D01*
X124476190Y-79088095D01*
X124438095Y-79050000D01*
X124380952Y-79030952D01*
X124342857Y-79030952D01*
X124285714Y-79050000D01*
X124266666Y-79069047D01*
X124133333Y-79030952D02*
X123885714Y-79030952D01*
X124019047Y-79183333D01*
X123961904Y-79183333D01*
X123923809Y-79202380D01*
X123904761Y-79221428D01*
X123885714Y-79259523D01*
X123885714Y-79354761D01*
X123904761Y-79392857D01*
X123923809Y-79411904D01*
X123961904Y-79430952D01*
X124076190Y-79430952D01*
X124114285Y-79411904D01*
X124133333Y-79392857D01*
D10*
%TO.C,D32*%
X198961904Y-75952380D02*
X198961904Y-74952380D01*
X198723809Y-74952380D01*
X198580952Y-75000000D01*
X198485714Y-75095238D01*
X198438095Y-75190476D01*
X198390476Y-75380952D01*
X198390476Y-75523809D01*
X198438095Y-75714285D01*
X198485714Y-75809523D01*
X198580952Y-75904761D01*
X198723809Y-75952380D01*
X198961904Y-75952380D01*
X198200000Y-76047619D02*
X197438095Y-76047619D01*
X197247619Y-75904761D02*
X197104761Y-75952380D01*
X196866666Y-75952380D01*
X196771428Y-75904761D01*
X196723809Y-75857142D01*
X196676190Y-75761904D01*
X196676190Y-75666666D01*
X196723809Y-75571428D01*
X196771428Y-75523809D01*
X196866666Y-75476190D01*
X197057142Y-75428571D01*
X197152380Y-75380952D01*
X197200000Y-75333333D01*
X197247619Y-75238095D01*
X197247619Y-75142857D01*
X197200000Y-75047619D01*
X197152380Y-75000000D01*
X197057142Y-74952380D01*
X196819047Y-74952380D01*
X196676190Y-75000000D01*
X196247619Y-75952380D02*
X196247619Y-75285714D01*
X196247619Y-75380952D02*
X196200000Y-75333333D01*
X196104761Y-75285714D01*
X195961904Y-75285714D01*
X195866666Y-75333333D01*
X195819047Y-75428571D01*
X195819047Y-75952380D01*
X195819047Y-75428571D02*
X195771428Y-75333333D01*
X195676190Y-75285714D01*
X195533333Y-75285714D01*
X195438095Y-75333333D01*
X195390476Y-75428571D01*
X195390476Y-75952380D01*
X194485714Y-75952380D02*
X194485714Y-75428571D01*
X194533333Y-75333333D01*
X194628571Y-75285714D01*
X194819047Y-75285714D01*
X194914285Y-75333333D01*
X194485714Y-75904761D02*
X194580952Y-75952380D01*
X194819047Y-75952380D01*
X194914285Y-75904761D01*
X194961904Y-75809523D01*
X194961904Y-75714285D01*
X194914285Y-75619047D01*
X194819047Y-75571428D01*
X194580952Y-75571428D01*
X194485714Y-75523809D01*
X193866666Y-75952380D02*
X193961904Y-75904761D01*
X194009523Y-75809523D01*
X194009523Y-74952380D01*
X193342857Y-75952380D02*
X193438095Y-75904761D01*
X193485714Y-75809523D01*
X193485714Y-74952380D01*
X197414285Y-71852380D02*
X197414285Y-70852380D01*
X197176190Y-70852380D01*
X197033333Y-70900000D01*
X196938095Y-70995238D01*
X196890476Y-71090476D01*
X196842857Y-71280952D01*
X196842857Y-71423809D01*
X196890476Y-71614285D01*
X196938095Y-71709523D01*
X197033333Y-71804761D01*
X197176190Y-71852380D01*
X197414285Y-71852380D01*
X196509523Y-70852380D02*
X195890476Y-70852380D01*
X196223809Y-71233333D01*
X196080952Y-71233333D01*
X195985714Y-71280952D01*
X195938095Y-71328571D01*
X195890476Y-71423809D01*
X195890476Y-71661904D01*
X195938095Y-71757142D01*
X195985714Y-71804761D01*
X196080952Y-71852380D01*
X196366666Y-71852380D01*
X196461904Y-71804761D01*
X196509523Y-71757142D01*
X195509523Y-70947619D02*
X195461904Y-70900000D01*
X195366666Y-70852380D01*
X195128571Y-70852380D01*
X195033333Y-70900000D01*
X194985714Y-70947619D01*
X194938095Y-71042857D01*
X194938095Y-71138095D01*
X194985714Y-71280952D01*
X195557142Y-71852380D01*
X194938095Y-71852380D01*
%TO.C,D9*%
X185461904Y-41952380D02*
X185461904Y-40952380D01*
X185223809Y-40952380D01*
X185080952Y-41000000D01*
X184985714Y-41095238D01*
X184938095Y-41190476D01*
X184890476Y-41380952D01*
X184890476Y-41523809D01*
X184938095Y-41714285D01*
X184985714Y-41809523D01*
X185080952Y-41904761D01*
X185223809Y-41952380D01*
X185461904Y-41952380D01*
X184700000Y-42047619D02*
X183938095Y-42047619D01*
X183747619Y-41904761D02*
X183604761Y-41952380D01*
X183366666Y-41952380D01*
X183271428Y-41904761D01*
X183223809Y-41857142D01*
X183176190Y-41761904D01*
X183176190Y-41666666D01*
X183223809Y-41571428D01*
X183271428Y-41523809D01*
X183366666Y-41476190D01*
X183557142Y-41428571D01*
X183652380Y-41380952D01*
X183700000Y-41333333D01*
X183747619Y-41238095D01*
X183747619Y-41142857D01*
X183700000Y-41047619D01*
X183652380Y-41000000D01*
X183557142Y-40952380D01*
X183319047Y-40952380D01*
X183176190Y-41000000D01*
X182747619Y-41952380D02*
X182747619Y-41285714D01*
X182747619Y-41380952D02*
X182700000Y-41333333D01*
X182604761Y-41285714D01*
X182461904Y-41285714D01*
X182366666Y-41333333D01*
X182319047Y-41428571D01*
X182319047Y-41952380D01*
X182319047Y-41428571D02*
X182271428Y-41333333D01*
X182176190Y-41285714D01*
X182033333Y-41285714D01*
X181938095Y-41333333D01*
X181890476Y-41428571D01*
X181890476Y-41952380D01*
X180985714Y-41952380D02*
X180985714Y-41428571D01*
X181033333Y-41333333D01*
X181128571Y-41285714D01*
X181319047Y-41285714D01*
X181414285Y-41333333D01*
X180985714Y-41904761D02*
X181080952Y-41952380D01*
X181319047Y-41952380D01*
X181414285Y-41904761D01*
X181461904Y-41809523D01*
X181461904Y-41714285D01*
X181414285Y-41619047D01*
X181319047Y-41571428D01*
X181080952Y-41571428D01*
X180985714Y-41523809D01*
X180366666Y-41952380D02*
X180461904Y-41904761D01*
X180509523Y-41809523D01*
X180509523Y-40952380D01*
X179842857Y-41952380D02*
X179938095Y-41904761D01*
X179985714Y-41809523D01*
X179985714Y-40952380D01*
X183438095Y-37852380D02*
X183438095Y-36852380D01*
X183200000Y-36852380D01*
X183057142Y-36900000D01*
X182961904Y-36995238D01*
X182914285Y-37090476D01*
X182866666Y-37280952D01*
X182866666Y-37423809D01*
X182914285Y-37614285D01*
X182961904Y-37709523D01*
X183057142Y-37804761D01*
X183200000Y-37852380D01*
X183438095Y-37852380D01*
X182390476Y-37852380D02*
X182200000Y-37852380D01*
X182104761Y-37804761D01*
X182057142Y-37757142D01*
X181961904Y-37614285D01*
X181914285Y-37423809D01*
X181914285Y-37042857D01*
X181961904Y-36947619D01*
X182009523Y-36900000D01*
X182104761Y-36852380D01*
X182295238Y-36852380D01*
X182390476Y-36900000D01*
X182438095Y-36947619D01*
X182485714Y-37042857D01*
X182485714Y-37280952D01*
X182438095Y-37376190D01*
X182390476Y-37423809D01*
X182295238Y-37471428D01*
X182104761Y-37471428D01*
X182009523Y-37423809D01*
X181961904Y-37376190D01*
X181914285Y-37280952D01*
D16*
%TO.C,D34*%
X235250000Y-73400000D02*
X234850000Y-73400000D01*
X234250000Y-73400000D02*
X233750000Y-73400000D01*
X234250000Y-73800000D02*
X234850000Y-73400000D01*
X235900000Y-74300000D02*
X235900000Y-72500000D01*
X234850000Y-73400000D02*
X234250000Y-73000000D01*
X233100000Y-72500000D02*
X233100000Y-74300000D01*
X234250000Y-73000000D02*
X234250000Y-73800000D01*
X234850000Y-73400000D02*
X234850000Y-72850000D01*
X235900000Y-72500000D02*
X233100000Y-72500000D01*
X234850000Y-73400000D02*
X234850000Y-73950000D01*
X233100000Y-74300000D02*
X235900000Y-74300000D01*
%TO.C,D33*%
X212800000Y-74300000D02*
X215600000Y-74300000D01*
X213950000Y-73000000D02*
X213950000Y-73800000D01*
X214550000Y-73400000D02*
X213950000Y-73000000D01*
X215600000Y-72500000D02*
X212800000Y-72500000D01*
X213950000Y-73400000D02*
X213450000Y-73400000D01*
X215600000Y-74300000D02*
X215600000Y-72500000D01*
X212800000Y-72500000D02*
X212800000Y-74300000D01*
X213950000Y-73800000D02*
X214550000Y-73400000D01*
X214950000Y-73400000D02*
X214550000Y-73400000D01*
X214550000Y-73400000D02*
X214550000Y-72850000D01*
X214550000Y-73400000D02*
X214550000Y-73950000D01*
%TO.C,D21*%
X187550000Y-56400000D02*
X186950000Y-56000000D01*
X188600000Y-57300000D02*
X188600000Y-55500000D01*
X188600000Y-55500000D02*
X185800000Y-55500000D01*
X185800000Y-57300000D02*
X188600000Y-57300000D01*
X185800000Y-55500000D02*
X185800000Y-57300000D01*
X186950000Y-56400000D02*
X186450000Y-56400000D01*
X187950000Y-56400000D02*
X187550000Y-56400000D01*
X186950000Y-56800000D02*
X187550000Y-56400000D01*
X186950000Y-56000000D02*
X186950000Y-56800000D01*
X187550000Y-56400000D02*
X187550000Y-56950000D01*
X187550000Y-56400000D02*
X187550000Y-55850000D01*
%TO.C,D12*%
X236450000Y-39800000D02*
X237050000Y-39400000D01*
X237050000Y-39400000D02*
X236450000Y-39000000D01*
X236450000Y-39000000D02*
X236450000Y-39800000D01*
X235300000Y-38500000D02*
X235300000Y-40300000D01*
X238100000Y-38500000D02*
X235300000Y-38500000D01*
X237450000Y-39400000D02*
X237050000Y-39400000D01*
X237050000Y-39400000D02*
X237050000Y-38850000D01*
X237050000Y-39400000D02*
X237050000Y-39950000D01*
X236450000Y-39400000D02*
X235950000Y-39400000D01*
X238100000Y-40300000D02*
X238100000Y-38500000D01*
X235300000Y-40300000D02*
X238100000Y-40300000D01*
%TO.C,D11*%
X217300000Y-38500000D02*
X217300000Y-40300000D01*
X218450000Y-39000000D02*
X218450000Y-39800000D01*
X219050000Y-39400000D02*
X218450000Y-39000000D01*
X219050000Y-39400000D02*
X219050000Y-38850000D01*
X220100000Y-38500000D02*
X217300000Y-38500000D01*
X218450000Y-39400000D02*
X217950000Y-39400000D01*
X217300000Y-40300000D02*
X220100000Y-40300000D01*
X218450000Y-39800000D02*
X219050000Y-39400000D01*
X219050000Y-39400000D02*
X219050000Y-39950000D01*
X220100000Y-40300000D02*
X220100000Y-38500000D01*
X219450000Y-39400000D02*
X219050000Y-39400000D01*
%TO.C,D20*%
X168950000Y-56400000D02*
X168450000Y-56400000D01*
X169550000Y-56400000D02*
X169550000Y-56950000D01*
X167800000Y-57300000D02*
X170600000Y-57300000D01*
X169950000Y-56400000D02*
X169550000Y-56400000D01*
X168950000Y-56800000D02*
X169550000Y-56400000D01*
X167800000Y-55500000D02*
X167800000Y-57300000D01*
X169550000Y-56400000D02*
X169550000Y-55850000D01*
X170600000Y-57300000D02*
X170600000Y-55500000D01*
X168950000Y-56000000D02*
X168950000Y-56800000D01*
X169550000Y-56400000D02*
X168950000Y-56000000D01*
X170600000Y-55500000D02*
X167800000Y-55500000D01*
%TO.C,D13*%
X39550000Y-57300000D02*
X42350000Y-57300000D01*
X40700000Y-56400000D02*
X40200000Y-56400000D01*
X42350000Y-57300000D02*
X42350000Y-55500000D01*
X39550000Y-55500000D02*
X39550000Y-57300000D01*
X40700000Y-56800000D02*
X41300000Y-56400000D01*
X41700000Y-56400000D02*
X41300000Y-56400000D01*
X42350000Y-55500000D02*
X39550000Y-55500000D01*
X41300000Y-56400000D02*
X41300000Y-55850000D01*
X41300000Y-56400000D02*
X40700000Y-56000000D01*
X41300000Y-56400000D02*
X41300000Y-56950000D01*
X40700000Y-56000000D02*
X40700000Y-56800000D01*
%TO.C,C4*%
X121650000Y-79300000D02*
X121650000Y-77700000D01*
X121650000Y-77700000D02*
X120850000Y-77700000D01*
X120850000Y-77700000D02*
X120850000Y-79300000D01*
X120850000Y-79300000D02*
X121650000Y-79300000D01*
%TO.C,D18*%
X132950000Y-56000000D02*
X132950000Y-56800000D01*
X133950000Y-56400000D02*
X133550000Y-56400000D01*
X131800000Y-55500000D02*
X131800000Y-57300000D01*
X132950000Y-56800000D02*
X133550000Y-56400000D01*
X133550000Y-56400000D02*
X133550000Y-55850000D01*
X133550000Y-56400000D02*
X133550000Y-56950000D01*
X132950000Y-56400000D02*
X132450000Y-56400000D01*
X133550000Y-56400000D02*
X132950000Y-56000000D01*
X134600000Y-55500000D02*
X131800000Y-55500000D01*
X134600000Y-57300000D02*
X134600000Y-55500000D01*
X131800000Y-57300000D02*
X134600000Y-57300000D01*
%TO.C,R3*%
X131800000Y-40200000D02*
X132600000Y-40200000D01*
X132600000Y-40200000D02*
X132600000Y-38600000D01*
X131800000Y-38600000D02*
X131800000Y-40200000D01*
X132600000Y-38600000D02*
X131800000Y-38600000D01*
%TO.C,D31*%
X177950000Y-73000000D02*
X177950000Y-73800000D01*
X178550000Y-73400000D02*
X178550000Y-72850000D01*
X179600000Y-74300000D02*
X179600000Y-72500000D01*
X177950000Y-73400000D02*
X177450000Y-73400000D01*
X178550000Y-73400000D02*
X178550000Y-73950000D01*
X176800000Y-72500000D02*
X176800000Y-74300000D01*
X177950000Y-73800000D02*
X178550000Y-73400000D01*
X179600000Y-72500000D02*
X176800000Y-72500000D01*
X178950000Y-73400000D02*
X178550000Y-73400000D01*
X176800000Y-74300000D02*
X179600000Y-74300000D01*
X178550000Y-73400000D02*
X177950000Y-73000000D01*
%TO.C,R5*%
X124800000Y-26100000D02*
X123200000Y-26100000D01*
X124800000Y-26900000D02*
X124800000Y-26100000D01*
X123200000Y-26100000D02*
X123200000Y-26900000D01*
X123200000Y-26900000D02*
X124800000Y-26900000D01*
%TO.C,D8*%
X163300000Y-38500000D02*
X163300000Y-40300000D01*
X164450000Y-39800000D02*
X165050000Y-39400000D01*
X166100000Y-38500000D02*
X163300000Y-38500000D01*
X166100000Y-40300000D02*
X166100000Y-38500000D01*
X164450000Y-39000000D02*
X164450000Y-39800000D01*
X164450000Y-39400000D02*
X163950000Y-39400000D01*
X163300000Y-40300000D02*
X166100000Y-40300000D01*
X165050000Y-39400000D02*
X165050000Y-39950000D01*
X165050000Y-39400000D02*
X165050000Y-38850000D01*
X165450000Y-39400000D02*
X165050000Y-39400000D01*
X165050000Y-39400000D02*
X164450000Y-39000000D01*
%TO.C,C5*%
X123200000Y-27850000D02*
X123200000Y-28650000D01*
X123200000Y-28650000D02*
X124800000Y-28650000D01*
X124800000Y-28650000D02*
X124800000Y-27850000D01*
X124800000Y-27850000D02*
X123200000Y-27850000D01*
%TO.C,D29*%
X142550000Y-73400000D02*
X141950000Y-73000000D01*
X143600000Y-74300000D02*
X143600000Y-72500000D01*
X141950000Y-73000000D02*
X141950000Y-73800000D01*
X141950000Y-73800000D02*
X142550000Y-73400000D01*
X142550000Y-73400000D02*
X142550000Y-72850000D01*
X142550000Y-73400000D02*
X142550000Y-73950000D01*
X142950000Y-73400000D02*
X142550000Y-73400000D01*
X140800000Y-72500000D02*
X140800000Y-74300000D01*
X140800000Y-74300000D02*
X143600000Y-74300000D01*
X143600000Y-72500000D02*
X140800000Y-72500000D01*
X141950000Y-73400000D02*
X141450000Y-73400000D01*
%TO.C,R7*%
X142800000Y-27850000D02*
X141200000Y-27850000D01*
X141200000Y-28650000D02*
X142800000Y-28650000D01*
X142800000Y-28650000D02*
X142800000Y-27850000D01*
X141200000Y-27850000D02*
X141200000Y-28650000D01*
%TO.C,D2*%
X55300000Y-38500000D02*
X55300000Y-40300000D01*
X57050000Y-39400000D02*
X56450000Y-39000000D01*
X58100000Y-40300000D02*
X58100000Y-38500000D01*
X55300000Y-40300000D02*
X58100000Y-40300000D01*
X56450000Y-39000000D02*
X56450000Y-39800000D01*
X57050000Y-39400000D02*
X57050000Y-38850000D01*
X56450000Y-39400000D02*
X55950000Y-39400000D01*
X58100000Y-38500000D02*
X55300000Y-38500000D01*
X57450000Y-39400000D02*
X57050000Y-39400000D01*
X56450000Y-39800000D02*
X57050000Y-39400000D01*
X57050000Y-39400000D02*
X57050000Y-39950000D01*
%TO.C,D38*%
X144150000Y-90400000D02*
X143650000Y-90400000D01*
X144750000Y-90400000D02*
X144150000Y-90000000D01*
X144150000Y-90000000D02*
X144150000Y-90800000D01*
X143000000Y-89500000D02*
X143000000Y-91300000D01*
X145800000Y-91300000D02*
X145800000Y-89500000D01*
X143000000Y-91300000D02*
X145800000Y-91300000D01*
X144750000Y-90400000D02*
X144750000Y-90950000D01*
X145150000Y-90400000D02*
X144750000Y-90400000D01*
X145800000Y-89500000D02*
X143000000Y-89500000D01*
X144150000Y-90800000D02*
X144750000Y-90400000D01*
X144750000Y-90400000D02*
X144750000Y-89850000D01*
%TO.C,D16*%
X96950000Y-56000000D02*
X96950000Y-56800000D01*
X96950000Y-56800000D02*
X97550000Y-56400000D01*
X97950000Y-56400000D02*
X97550000Y-56400000D01*
X97550000Y-56400000D02*
X97550000Y-55850000D01*
X98600000Y-57300000D02*
X98600000Y-55500000D01*
X98600000Y-55500000D02*
X95800000Y-55500000D01*
X97550000Y-56400000D02*
X97550000Y-56950000D01*
X97550000Y-56400000D02*
X96950000Y-56000000D01*
X96950000Y-56400000D02*
X96450000Y-56400000D01*
X95800000Y-57300000D02*
X98600000Y-57300000D01*
X95800000Y-55500000D02*
X95800000Y-57300000D01*
%TO.C,D14*%
X59800000Y-55500000D02*
X59800000Y-57300000D01*
X60950000Y-56400000D02*
X60450000Y-56400000D01*
X60950000Y-56800000D02*
X61550000Y-56400000D01*
X59800000Y-57300000D02*
X62600000Y-57300000D01*
X61950000Y-56400000D02*
X61550000Y-56400000D01*
X60950000Y-56000000D02*
X60950000Y-56800000D01*
X62600000Y-57300000D02*
X62600000Y-55500000D01*
X61550000Y-56400000D02*
X61550000Y-55850000D01*
X61550000Y-56400000D02*
X61550000Y-56950000D01*
X62600000Y-55500000D02*
X59800000Y-55500000D01*
X61550000Y-56400000D02*
X60950000Y-56000000D01*
%TO.C,D26*%
X88950000Y-73400000D02*
X88550000Y-73400000D01*
X89600000Y-72500000D02*
X86800000Y-72500000D01*
X87950000Y-73000000D02*
X87950000Y-73800000D01*
X87950000Y-73400000D02*
X87450000Y-73400000D01*
X86800000Y-72500000D02*
X86800000Y-74300000D01*
X86800000Y-74300000D02*
X89600000Y-74300000D01*
X88550000Y-73400000D02*
X87950000Y-73000000D01*
X88550000Y-73400000D02*
X88550000Y-72850000D01*
X87950000Y-73800000D02*
X88550000Y-73400000D01*
X89600000Y-74300000D02*
X89600000Y-72500000D01*
X88550000Y-73400000D02*
X88550000Y-73950000D01*
%TO.C,R2*%
X134200000Y-40200000D02*
X134200000Y-38600000D01*
X133400000Y-40200000D02*
X134200000Y-40200000D01*
X133400000Y-38600000D02*
X133400000Y-40200000D01*
X134200000Y-38600000D02*
X133400000Y-38600000D01*
%TO.C,D36*%
X60950000Y-90400000D02*
X60450000Y-90400000D01*
X61950000Y-90400000D02*
X61550000Y-90400000D01*
X61550000Y-90400000D02*
X60950000Y-90000000D01*
X60950000Y-90000000D02*
X60950000Y-90800000D01*
X59800000Y-89500000D02*
X59800000Y-91300000D01*
X61550000Y-90400000D02*
X61550000Y-89850000D01*
X59800000Y-91300000D02*
X62600000Y-91300000D01*
X62600000Y-91300000D02*
X62600000Y-89500000D01*
X60950000Y-90800000D02*
X61550000Y-90400000D01*
X62600000Y-89500000D02*
X59800000Y-89500000D01*
X61550000Y-90400000D02*
X61550000Y-90950000D01*
%TO.C,R4*%
X119650000Y-91175000D02*
X119650000Y-89575000D01*
X118850000Y-89575000D02*
X118850000Y-91175000D01*
X119650000Y-89575000D02*
X118850000Y-89575000D01*
X118850000Y-91175000D02*
X119650000Y-91175000D01*
%TO.C,D6*%
X127300000Y-40300000D02*
X130100000Y-40300000D01*
X129450000Y-39400000D02*
X129050000Y-39400000D01*
X129050000Y-39400000D02*
X129050000Y-38850000D01*
X128450000Y-39000000D02*
X128450000Y-39800000D01*
X127300000Y-38500000D02*
X127300000Y-40300000D01*
X129050000Y-39400000D02*
X129050000Y-39950000D01*
X128450000Y-39800000D02*
X129050000Y-39400000D01*
X128450000Y-39400000D02*
X127950000Y-39400000D01*
X130100000Y-40300000D02*
X130100000Y-38500000D01*
X130100000Y-38500000D02*
X127300000Y-38500000D01*
X129050000Y-39400000D02*
X128450000Y-39000000D01*
%TO.C,D15*%
X80600000Y-57300000D02*
X80600000Y-55500000D01*
X78950000Y-56800000D02*
X79550000Y-56400000D01*
X79550000Y-56400000D02*
X78950000Y-56000000D01*
X77800000Y-55500000D02*
X77800000Y-57300000D01*
X79550000Y-56400000D02*
X79550000Y-56950000D01*
X78950000Y-56000000D02*
X78950000Y-56800000D01*
X77800000Y-57300000D02*
X80600000Y-57300000D01*
X78950000Y-56400000D02*
X78450000Y-56400000D01*
X80600000Y-55500000D02*
X77800000Y-55500000D01*
X79950000Y-56400000D02*
X79550000Y-56400000D01*
X79550000Y-56400000D02*
X79550000Y-55850000D01*
%TO.C,D17*%
X115550000Y-56400000D02*
X115550000Y-56950000D01*
X116600000Y-57300000D02*
X116600000Y-55500000D01*
X116600000Y-55500000D02*
X113800000Y-55500000D01*
X115550000Y-56400000D02*
X115550000Y-55850000D01*
X115550000Y-56400000D02*
X114950000Y-56000000D01*
X113800000Y-55500000D02*
X113800000Y-57300000D01*
X114950000Y-56000000D02*
X114950000Y-56800000D01*
X114950000Y-56400000D02*
X114450000Y-56400000D01*
X113800000Y-57300000D02*
X116600000Y-57300000D01*
X115950000Y-56400000D02*
X115550000Y-56400000D01*
X114950000Y-56800000D02*
X115550000Y-56400000D01*
%TO.C,R1*%
X153825000Y-84800000D02*
X153825000Y-86400000D01*
X154625000Y-86400000D02*
X154625000Y-84800000D01*
X154625000Y-84800000D02*
X153825000Y-84800000D01*
X153825000Y-86400000D02*
X154625000Y-86400000D01*
%TO.C,C2*%
X124700000Y-86000000D02*
X124700000Y-86800000D01*
X126300000Y-86800000D02*
X126300000Y-86000000D01*
X126300000Y-86000000D02*
X124700000Y-86000000D01*
X124700000Y-86800000D02*
X126300000Y-86800000D01*
%TO.C,D27*%
X105950000Y-73800000D02*
X106550000Y-73400000D01*
X107600000Y-74300000D02*
X107600000Y-72500000D01*
X106550000Y-73400000D02*
X106550000Y-72850000D01*
X105950000Y-73000000D02*
X105950000Y-73800000D01*
X104800000Y-72500000D02*
X104800000Y-74300000D01*
X104800000Y-74300000D02*
X107600000Y-74300000D01*
X106550000Y-73400000D02*
X105950000Y-73000000D01*
X106950000Y-73400000D02*
X106550000Y-73400000D01*
X105950000Y-73400000D02*
X105450000Y-73400000D01*
X107600000Y-72500000D02*
X104800000Y-72500000D01*
X106550000Y-73400000D02*
X106550000Y-73950000D01*
%TO.C,D41*%
X134200000Y-35000000D02*
X134200000Y-32000000D01*
X132300000Y-35000000D02*
X134200000Y-35000000D01*
X131800000Y-34500000D02*
X132300000Y-35000000D01*
X134200000Y-32000000D02*
X131800000Y-32000000D01*
X131800000Y-32000000D02*
X131800000Y-34500000D01*
%TO.C,C1*%
X118600000Y-79300000D02*
X118600000Y-77700000D01*
X117800000Y-77700000D02*
X117800000Y-79300000D01*
X118600000Y-77700000D02*
X117800000Y-77700000D01*
X117800000Y-79300000D02*
X118600000Y-79300000D01*
%TO.C,D23*%
X229750000Y-56000000D02*
X229750000Y-56800000D01*
X228600000Y-55500000D02*
X228600000Y-57300000D01*
X230350000Y-56400000D02*
X230350000Y-55850000D01*
X229750000Y-56400000D02*
X229250000Y-56400000D01*
X230750000Y-56400000D02*
X230350000Y-56400000D01*
X231400000Y-57300000D02*
X231400000Y-55500000D01*
X228600000Y-57300000D02*
X231400000Y-57300000D01*
X230350000Y-56400000D02*
X229750000Y-56000000D01*
X230350000Y-56400000D02*
X230350000Y-56950000D01*
X229750000Y-56800000D02*
X230350000Y-56400000D01*
X231400000Y-55500000D02*
X228600000Y-55500000D01*
%TO.C,D1*%
X38450000Y-39000000D02*
X38450000Y-39800000D01*
X40100000Y-40300000D02*
X40100000Y-38500000D01*
X40100000Y-38500000D02*
X37300000Y-38500000D01*
X39050000Y-39400000D02*
X39050000Y-38850000D01*
X38450000Y-39800000D02*
X39050000Y-39400000D01*
X39050000Y-39400000D02*
X38450000Y-39000000D01*
X38450000Y-39400000D02*
X37950000Y-39400000D01*
X37300000Y-38500000D02*
X37300000Y-40300000D01*
X39450000Y-39400000D02*
X39050000Y-39400000D01*
X37300000Y-40300000D02*
X40100000Y-40300000D01*
X39050000Y-39400000D02*
X39050000Y-39950000D01*
%TO.C,D24*%
X45750000Y-73400000D02*
X45150000Y-73000000D01*
X45750000Y-73400000D02*
X45750000Y-73950000D01*
X46800000Y-74300000D02*
X46800000Y-72500000D01*
X45750000Y-73400000D02*
X45750000Y-72850000D01*
X44000000Y-72500000D02*
X44000000Y-74300000D01*
X46800000Y-72500000D02*
X44000000Y-72500000D01*
X45150000Y-73400000D02*
X44650000Y-73400000D01*
X45150000Y-73000000D02*
X45150000Y-73800000D01*
X46150000Y-73400000D02*
X45750000Y-73400000D01*
X44000000Y-74300000D02*
X46800000Y-74300000D01*
X45150000Y-73800000D02*
X45750000Y-73400000D01*
%TO.C,D3*%
X74450000Y-39400000D02*
X73950000Y-39400000D01*
X75050000Y-39400000D02*
X74450000Y-39000000D01*
X73300000Y-40300000D02*
X76100000Y-40300000D01*
X73300000Y-38500000D02*
X73300000Y-40300000D01*
X74450000Y-39800000D02*
X75050000Y-39400000D01*
X74450000Y-39000000D02*
X74450000Y-39800000D01*
X75050000Y-39400000D02*
X75050000Y-39950000D01*
X76100000Y-40300000D02*
X76100000Y-38500000D01*
X75450000Y-39400000D02*
X75050000Y-39400000D01*
X75050000Y-39400000D02*
X75050000Y-38850000D01*
X76100000Y-38500000D02*
X73300000Y-38500000D01*
%TO.C,F1*%
X138200000Y-31900000D02*
X138200000Y-35100000D01*
X139800000Y-31900000D02*
X138200000Y-31900000D01*
X138200000Y-35100000D02*
X139800000Y-35100000D01*
X139800000Y-35100000D02*
X139800000Y-31900000D01*
%TO.C,D39*%
X212350000Y-90400000D02*
X212350000Y-90950000D01*
X213400000Y-89500000D02*
X210600000Y-89500000D01*
X213400000Y-91300000D02*
X213400000Y-89500000D01*
X210600000Y-89500000D02*
X210600000Y-91300000D01*
X212750000Y-90400000D02*
X212350000Y-90400000D01*
X212350000Y-90400000D02*
X212350000Y-89850000D01*
X211750000Y-90800000D02*
X212350000Y-90400000D01*
X211750000Y-90400000D02*
X211250000Y-90400000D01*
X210600000Y-91300000D02*
X213400000Y-91300000D01*
X211750000Y-90000000D02*
X211750000Y-90800000D01*
X212350000Y-90400000D02*
X211750000Y-90000000D01*
%TO.C,D37*%
X77800000Y-91300000D02*
X80600000Y-91300000D01*
X79550000Y-90400000D02*
X79550000Y-89850000D01*
X78950000Y-90000000D02*
X78950000Y-90800000D01*
X77800000Y-89500000D02*
X77800000Y-91300000D01*
X79550000Y-90400000D02*
X78950000Y-90000000D01*
X79950000Y-90400000D02*
X79550000Y-90400000D01*
X80600000Y-89500000D02*
X77800000Y-89500000D01*
X79550000Y-90400000D02*
X79550000Y-90950000D01*
X78950000Y-90400000D02*
X78450000Y-90400000D01*
X78950000Y-90800000D02*
X79550000Y-90400000D01*
X80600000Y-91300000D02*
X80600000Y-89500000D01*
%TO.C,D28*%
X122800000Y-72500000D02*
X122800000Y-74300000D01*
X123950000Y-73000000D02*
X123950000Y-73800000D01*
X122800000Y-74300000D02*
X125600000Y-74300000D01*
X123950000Y-73400000D02*
X123450000Y-73400000D01*
X125600000Y-72500000D02*
X122800000Y-72500000D01*
X124550000Y-73400000D02*
X123950000Y-73000000D01*
X123950000Y-73800000D02*
X124550000Y-73400000D01*
X124550000Y-73400000D02*
X124550000Y-73950000D01*
X125600000Y-74300000D02*
X125600000Y-72500000D01*
X124950000Y-73400000D02*
X124550000Y-73400000D01*
X124550000Y-73400000D02*
X124550000Y-72850000D01*
D10*
%TO.C,SW99*%
X155800000Y-83400000D02*
X157400000Y-83400000D01*
X162600000Y-85600000D02*
X162600000Y-83400000D01*
X157400000Y-83400000D02*
X158900000Y-81900000D01*
X162600000Y-85600000D02*
X161100000Y-87100000D01*
X157400000Y-85600000D02*
X155800000Y-85600000D01*
X155800000Y-85600000D02*
X155800000Y-87100000D01*
X162600000Y-83400000D02*
X161100000Y-81900000D01*
X164200000Y-81900000D02*
X155800000Y-81900000D01*
X162600000Y-83400000D02*
X164200000Y-83400000D01*
X164200000Y-87100000D02*
X164200000Y-85700000D01*
X164200000Y-85600000D02*
X162600000Y-85600000D01*
X164200000Y-83400000D02*
X164200000Y-81900000D01*
X157400000Y-85600000D02*
X158900000Y-87100000D01*
X157400000Y-83400000D02*
X157400000Y-85600000D01*
X155800000Y-81900000D02*
X155800000Y-83400000D01*
X155800000Y-87100000D02*
X164200000Y-87100000D01*
X161000000Y-84500000D02*
G75*
G03*
X161000000Y-84500000I-1000000J0D01*
G01*
D16*
%TO.C,D22*%
X206600000Y-57300000D02*
X206600000Y-55500000D01*
X206600000Y-55500000D02*
X203800000Y-55500000D01*
X205550000Y-56400000D02*
X205550000Y-56950000D01*
X205550000Y-56400000D02*
X205550000Y-55850000D01*
X203800000Y-55500000D02*
X203800000Y-57300000D01*
X204950000Y-56400000D02*
X204450000Y-56400000D01*
X205550000Y-56400000D02*
X204950000Y-56000000D01*
X204950000Y-56800000D02*
X205550000Y-56400000D01*
X204950000Y-56000000D02*
X204950000Y-56800000D01*
X205950000Y-56400000D02*
X205550000Y-56400000D01*
X203800000Y-57300000D02*
X206600000Y-57300000D01*
%TO.C,D35*%
X40750000Y-90800000D02*
X41350000Y-90400000D01*
X42400000Y-91300000D02*
X42400000Y-89500000D01*
X41350000Y-90400000D02*
X41350000Y-89850000D01*
X42400000Y-89500000D02*
X39600000Y-89500000D01*
X41350000Y-90400000D02*
X41350000Y-90950000D01*
X39600000Y-89500000D02*
X39600000Y-91300000D01*
X40750000Y-90400000D02*
X40250000Y-90400000D01*
X41750000Y-90400000D02*
X41350000Y-90400000D01*
X39600000Y-91300000D02*
X42400000Y-91300000D01*
X40750000Y-90000000D02*
X40750000Y-90800000D01*
X41350000Y-90400000D02*
X40750000Y-90000000D01*
%TO.C,D4*%
X93050000Y-39400000D02*
X92450000Y-39000000D01*
X93050000Y-39400000D02*
X93050000Y-39950000D01*
X92450000Y-39400000D02*
X91950000Y-39400000D01*
X94100000Y-40300000D02*
X94100000Y-38500000D01*
X91300000Y-40300000D02*
X94100000Y-40300000D01*
X94100000Y-38500000D02*
X91300000Y-38500000D01*
X91300000Y-38500000D02*
X91300000Y-40300000D01*
X92450000Y-39000000D02*
X92450000Y-39800000D01*
X92450000Y-39800000D02*
X93050000Y-39400000D01*
X93450000Y-39400000D02*
X93050000Y-39400000D01*
X93050000Y-39400000D02*
X93050000Y-38850000D01*
%TO.C,Y1*%
X126300000Y-84500000D02*
X124700000Y-84500000D01*
X125800000Y-81500000D02*
X124700000Y-81500000D01*
X126300000Y-82000000D02*
X126300000Y-84500000D01*
X126300000Y-82000000D02*
X125800000Y-81500000D01*
X124700000Y-84500000D02*
X124700000Y-81500000D01*
%TO.C,D5*%
X111450000Y-39400000D02*
X111050000Y-39400000D01*
X111050000Y-39400000D02*
X111050000Y-38850000D01*
X111050000Y-39400000D02*
X111050000Y-39950000D01*
X112100000Y-38500000D02*
X109300000Y-38500000D01*
X112100000Y-40300000D02*
X112100000Y-38500000D01*
X110450000Y-39000000D02*
X110450000Y-39800000D01*
X109300000Y-40300000D02*
X112100000Y-40300000D01*
X110450000Y-39800000D02*
X111050000Y-39400000D01*
X110450000Y-39400000D02*
X109950000Y-39400000D01*
X109300000Y-38500000D02*
X109300000Y-40300000D01*
X111050000Y-39400000D02*
X110450000Y-39000000D01*
%TO.C,D40*%
X234950000Y-90400000D02*
X234950000Y-89850000D01*
X235350000Y-90400000D02*
X234950000Y-90400000D01*
X236000000Y-89500000D02*
X233200000Y-89500000D01*
X233200000Y-91300000D02*
X236000000Y-91300000D01*
X234950000Y-90400000D02*
X234350000Y-90000000D01*
X234350000Y-90000000D02*
X234350000Y-90800000D01*
X234350000Y-90400000D02*
X233850000Y-90400000D01*
X233200000Y-89500000D02*
X233200000Y-91300000D01*
X236000000Y-91300000D02*
X236000000Y-89500000D01*
X234350000Y-90800000D02*
X234950000Y-90400000D01*
X234950000Y-90400000D02*
X234950000Y-90950000D01*
%TO.C,D7*%
X145300000Y-38500000D02*
X145300000Y-40300000D01*
X147050000Y-39400000D02*
X146450000Y-39000000D01*
X146450000Y-39800000D02*
X147050000Y-39400000D01*
X148100000Y-38500000D02*
X145300000Y-38500000D01*
X146450000Y-39000000D02*
X146450000Y-39800000D01*
X148100000Y-40300000D02*
X148100000Y-38500000D01*
X147050000Y-39400000D02*
X147050000Y-39950000D01*
X147450000Y-39400000D02*
X147050000Y-39400000D01*
X147050000Y-39400000D02*
X147050000Y-38850000D01*
X145300000Y-40300000D02*
X148100000Y-40300000D01*
X146450000Y-39400000D02*
X145950000Y-39400000D01*
%TO.C,D19*%
X151550000Y-56400000D02*
X150950000Y-56000000D01*
X149800000Y-55500000D02*
X149800000Y-57300000D01*
X151950000Y-56400000D02*
X151550000Y-56400000D01*
X152600000Y-57300000D02*
X152600000Y-55500000D01*
X149800000Y-57300000D02*
X152600000Y-57300000D01*
X151550000Y-56400000D02*
X151550000Y-55850000D01*
X150950000Y-56800000D02*
X151550000Y-56400000D01*
X150950000Y-56000000D02*
X150950000Y-56800000D01*
X151550000Y-56400000D02*
X151550000Y-56950000D01*
X152600000Y-55500000D02*
X149800000Y-55500000D01*
X150950000Y-56400000D02*
X150450000Y-56400000D01*
%TO.C,D25*%
X69950000Y-73000000D02*
X69950000Y-73800000D01*
X70950000Y-73400000D02*
X70550000Y-73400000D01*
X68800000Y-74300000D02*
X71600000Y-74300000D01*
X70550000Y-73400000D02*
X70550000Y-72850000D01*
X68800000Y-72500000D02*
X68800000Y-74300000D01*
X69950000Y-73400000D02*
X69450000Y-73400000D01*
X69950000Y-73800000D02*
X70550000Y-73400000D01*
X71600000Y-72500000D02*
X68800000Y-72500000D01*
X70550000Y-73400000D02*
X69950000Y-73000000D01*
X71600000Y-74300000D02*
X71600000Y-72500000D01*
X70550000Y-73400000D02*
X70550000Y-73950000D01*
%TO.C,R6*%
X142800000Y-26900000D02*
X142800000Y-26100000D01*
X141200000Y-26900000D02*
X142800000Y-26900000D01*
X141200000Y-26100000D02*
X141200000Y-26900000D01*
X142800000Y-26100000D02*
X141200000Y-26100000D01*
%TO.C,D30*%
X161600000Y-72500000D02*
X158800000Y-72500000D01*
X160550000Y-73400000D02*
X159950000Y-73000000D01*
X159950000Y-73800000D02*
X160550000Y-73400000D01*
X158800000Y-72500000D02*
X158800000Y-74300000D01*
X158800000Y-74300000D02*
X161600000Y-74300000D01*
X159950000Y-73000000D02*
X159950000Y-73800000D01*
X159950000Y-73400000D02*
X159450000Y-73400000D01*
X160950000Y-73400000D02*
X160550000Y-73400000D01*
X160550000Y-73400000D02*
X160550000Y-72850000D01*
X161600000Y-74300000D02*
X161600000Y-72500000D01*
X160550000Y-73400000D02*
X160550000Y-73950000D01*
%TO.C,D10*%
X202100000Y-38500000D02*
X199300000Y-38500000D01*
X200450000Y-39800000D02*
X201050000Y-39400000D01*
X199300000Y-38500000D02*
X199300000Y-40300000D01*
X201050000Y-39400000D02*
X201050000Y-38850000D01*
X201050000Y-39400000D02*
X201050000Y-39950000D01*
X201050000Y-39400000D02*
X200450000Y-39000000D01*
X200450000Y-39000000D02*
X200450000Y-39800000D01*
X200450000Y-39400000D02*
X199950000Y-39400000D01*
X199300000Y-40300000D02*
X202100000Y-40300000D01*
X202100000Y-40300000D02*
X202100000Y-38500000D01*
X201450000Y-39400000D02*
X201050000Y-39400000D01*
%TO.C,U1*%
X121000000Y-82000000D02*
X117000000Y-82000000D01*
X122000000Y-87000000D02*
X122000000Y-83000000D01*
X122000000Y-83000000D02*
X121000000Y-82000000D01*
X117000000Y-82000000D02*
X117000000Y-87000000D01*
X117000000Y-87000000D02*
X122000000Y-87000000D01*
%TO.C,C3*%
X125000000Y-78850000D02*
X123400000Y-78850000D01*
X125000000Y-79650000D02*
X125000000Y-78850000D01*
X123400000Y-78850000D02*
X123400000Y-79650000D01*
X123400000Y-79650000D02*
X125000000Y-79650000D01*
%TO.C,D32*%
X194800000Y-74300000D02*
X197600000Y-74300000D01*
X195950000Y-73800000D02*
X196550000Y-73400000D01*
X196550000Y-73400000D02*
X196550000Y-73950000D01*
X194800000Y-72500000D02*
X194800000Y-74300000D01*
X197600000Y-74300000D02*
X197600000Y-72500000D01*
X197600000Y-72500000D02*
X194800000Y-72500000D01*
X196550000Y-73400000D02*
X195950000Y-73000000D01*
X196950000Y-73400000D02*
X196550000Y-73400000D01*
X196550000Y-73400000D02*
X196550000Y-72850000D01*
X195950000Y-73000000D02*
X195950000Y-73800000D01*
X195950000Y-73400000D02*
X195450000Y-73400000D01*
%TO.C,D9*%
X184100000Y-40300000D02*
X184100000Y-38500000D01*
X182450000Y-39800000D02*
X183050000Y-39400000D01*
X183050000Y-39400000D02*
X183050000Y-39950000D01*
X183050000Y-39400000D02*
X183050000Y-38850000D01*
X181300000Y-40300000D02*
X184100000Y-40300000D01*
X181300000Y-38500000D02*
X181300000Y-40300000D01*
X183050000Y-39400000D02*
X182450000Y-39000000D01*
X182450000Y-39400000D02*
X181950000Y-39400000D01*
X183450000Y-39400000D02*
X183050000Y-39400000D01*
X184100000Y-38500000D02*
X181300000Y-38500000D01*
X182450000Y-39000000D02*
X182450000Y-39800000D01*
%TD*%
M02*
