%TF.GenerationSoftware,KiCad,Pcbnew,(5.99.0-9650-gad505e29c0)*%
%TF.CreationDate,2021-03-23T23:02:50-07:00*%
%TF.ProjectId,Choc40,43686f63-3430-42e6-9b69-6361645f7063,rev?*%
%TF.SameCoordinates,Original*%
%TF.FileFunction,Soldermask,Top*%
%TF.FilePolarity,Negative*%
%FSLAX46Y46*%
G04 Gerber Fmt 4.6, Leading zero omitted, Abs format (unit mm)*
G04 Created by KiCad (PCBNEW (5.99.0-9650-gad505e29c0)) date 2021-03-23 23:02:50*
%MOMM*%
%LPD*%
G01*
G04 APERTURE LIST*
%ADD10C,1.700000*%
%ADD11C,3.400000*%
%ADD12C,2.000000*%
%ADD13C,0.650000*%
%ADD14O,1.000000X1.600000*%
%ADD15O,1.000000X2.100000*%
G04 APERTURE END LIST*
D10*
%TO.C,SW1*%
X28500000Y-33500000D03*
X39500000Y-33500000D03*
D11*
X34000000Y-33500000D03*
D12*
X34000000Y-39400000D03*
X29000000Y-37300000D03*
%TD*%
D10*
%TO.C,SW39*%
X201750000Y-84500000D03*
D11*
X207250000Y-84500000D03*
D10*
X212750000Y-84500000D03*
D12*
X207250000Y-90400000D03*
X202250000Y-88300000D03*
%TD*%
D10*
%TO.C,SW27*%
X96000000Y-67500000D03*
D11*
X101500000Y-67500000D03*
D10*
X107000000Y-67500000D03*
D12*
X101500000Y-73400000D03*
X96500000Y-71300000D03*
%TD*%
D10*
%TO.C,SW32*%
X197000000Y-67500000D03*
D11*
X191500000Y-67500000D03*
D10*
X186000000Y-67500000D03*
D12*
X191500000Y-73400000D03*
X186500000Y-71300000D03*
%TD*%
D10*
%TO.C,SW7*%
X147500000Y-33500000D03*
X136500000Y-33500000D03*
D11*
X142000000Y-33500000D03*
D12*
X142000000Y-39400000D03*
X137000000Y-37300000D03*
%TD*%
D11*
%TO.C,SW4*%
X88000000Y-33500000D03*
D10*
X82500000Y-33500000D03*
X93500000Y-33500000D03*
D12*
X88000000Y-39400000D03*
X83000000Y-37300000D03*
%TD*%
D11*
%TO.C,SW12*%
X232000000Y-33500000D03*
D10*
X237500000Y-33500000D03*
X226500000Y-33500000D03*
D12*
X232000000Y-39400000D03*
X227000000Y-37300000D03*
%TD*%
D11*
%TO.C,SW40*%
X229750000Y-84500000D03*
D10*
X224250000Y-84500000D03*
X235250000Y-84500000D03*
D12*
X229750000Y-90400000D03*
X224750000Y-88300000D03*
%TD*%
D11*
%TO.C,SW33a1*%
X209500000Y-67500000D03*
D10*
X204000000Y-67500000D03*
X215000000Y-67500000D03*
D12*
X209500000Y-73400000D03*
X204500000Y-71300000D03*
%TD*%
D10*
%TO.C,SW11*%
X208500000Y-33500000D03*
X219500000Y-33500000D03*
D11*
X214000000Y-33500000D03*
D12*
X214000000Y-39400000D03*
X209000000Y-37300000D03*
%TD*%
D10*
%TO.C,SW37*%
X80000000Y-84500000D03*
X69000000Y-84500000D03*
D11*
X74500000Y-84500000D03*
D12*
X74500000Y-90400000D03*
X69500000Y-88300000D03*
%TD*%
D10*
%TO.C,SW17*%
X105000000Y-50500000D03*
X116000000Y-50500000D03*
D11*
X110500000Y-50500000D03*
D12*
X110500000Y-56400000D03*
X105500000Y-54300000D03*
%TD*%
D10*
%TO.C,SW5*%
X100500000Y-33500000D03*
X111500000Y-33500000D03*
D11*
X106000000Y-33500000D03*
D12*
X106000000Y-39400000D03*
X101000000Y-37300000D03*
%TD*%
D11*
%TO.C,SW30*%
X155500000Y-67500000D03*
D10*
X150000000Y-67500000D03*
X161000000Y-67500000D03*
D12*
X155500000Y-73400000D03*
X150500000Y-71300000D03*
%TD*%
D10*
%TO.C,SW35*%
X30750000Y-84500000D03*
D11*
X36250000Y-84500000D03*
D10*
X41750000Y-84500000D03*
D12*
X36250000Y-90400000D03*
X31250000Y-88300000D03*
%TD*%
D10*
%TO.C,SW20*%
X159000000Y-50500000D03*
D11*
X164500000Y-50500000D03*
D10*
X170000000Y-50500000D03*
D12*
X164500000Y-56400000D03*
X159500000Y-54300000D03*
%TD*%
D10*
%TO.C,SW21*%
X177000000Y-50500000D03*
X188000000Y-50500000D03*
D11*
X182500000Y-50500000D03*
D12*
X182500000Y-56400000D03*
X177500000Y-54300000D03*
%TD*%
D10*
%TO.C,SW18*%
X123000000Y-50500000D03*
D11*
X128500000Y-50500000D03*
D10*
X134000000Y-50500000D03*
D12*
X128500000Y-56400000D03*
X123500000Y-54300000D03*
%TD*%
D10*
%TO.C,SW26*%
X78000000Y-67500000D03*
X89000000Y-67500000D03*
D11*
X83500000Y-67500000D03*
D12*
X83500000Y-73400000D03*
X78500000Y-71300000D03*
%TD*%
D10*
%TO.C,SW23*%
X230750000Y-50500000D03*
X219750000Y-50500000D03*
D11*
X225250000Y-50500000D03*
D12*
X225250000Y-56400000D03*
X220250000Y-54300000D03*
%TD*%
D10*
%TO.C,SW36*%
X62000000Y-84500000D03*
D11*
X56500000Y-84500000D03*
D10*
X51000000Y-84500000D03*
D12*
X56500000Y-90400000D03*
X51500000Y-88300000D03*
%TD*%
D10*
%TO.C,SW31*%
X168000000Y-67500000D03*
X179000000Y-67500000D03*
D11*
X173500000Y-67500000D03*
D12*
X173500000Y-73400000D03*
X168500000Y-71300000D03*
%TD*%
D11*
%TO.C,SW15*%
X74500000Y-50500000D03*
D10*
X69000000Y-50500000D03*
X80000000Y-50500000D03*
D12*
X74500000Y-56400000D03*
X69500000Y-54300000D03*
%TD*%
D10*
%TO.C,SW13*%
X41750000Y-50500000D03*
X30750000Y-50500000D03*
D11*
X36250000Y-50500000D03*
D12*
X36250000Y-56400000D03*
X31250000Y-54300000D03*
%TD*%
D10*
%TO.C,SW29*%
X132000000Y-67500000D03*
X143000000Y-67500000D03*
D11*
X137500000Y-67500000D03*
D12*
X137500000Y-73400000D03*
X132500000Y-71300000D03*
%TD*%
D10*
%TO.C,SW9*%
X172500000Y-33500000D03*
D11*
X178000000Y-33500000D03*
D10*
X183500000Y-33500000D03*
D12*
X178000000Y-39400000D03*
X173000000Y-37300000D03*
%TD*%
D11*
%TO.C,SW8*%
X160000000Y-33500000D03*
D10*
X154500000Y-33500000D03*
X165500000Y-33500000D03*
D12*
X160000000Y-39400000D03*
X155000000Y-37300000D03*
%TD*%
D11*
%TO.C,SW25*%
X65500000Y-67500000D03*
D10*
X71000000Y-67500000D03*
X60000000Y-67500000D03*
D12*
X65500000Y-73400000D03*
X60500000Y-71300000D03*
%TD*%
D10*
%TO.C,SW16*%
X98000000Y-50500000D03*
X87000000Y-50500000D03*
D11*
X92500000Y-50500000D03*
D12*
X92500000Y-56400000D03*
X87500000Y-54300000D03*
%TD*%
D10*
%TO.C,SW3*%
X64500000Y-33500000D03*
D11*
X70000000Y-33500000D03*
D10*
X75500000Y-33500000D03*
D12*
X70000000Y-39400000D03*
X65000000Y-37300000D03*
%TD*%
D11*
%TO.C,SW2*%
X52000000Y-33500000D03*
D10*
X57500000Y-33500000D03*
X46500000Y-33500000D03*
D12*
X52000000Y-39400000D03*
X47000000Y-37300000D03*
%TD*%
D11*
%TO.C,SW34a1*%
X229750000Y-67500000D03*
D10*
X235250000Y-67500000D03*
X224250000Y-67500000D03*
D12*
X229750000Y-73400000D03*
X224750000Y-71300000D03*
%TD*%
D10*
%TO.C,SW24*%
X46250000Y-67500000D03*
X35250000Y-67500000D03*
D11*
X40750000Y-67500000D03*
D12*
X40750000Y-73400000D03*
X35750000Y-71300000D03*
%TD*%
D11*
%TO.C,SW38*%
X139750000Y-84500000D03*
D10*
X134250000Y-84500000D03*
X145250000Y-84500000D03*
D12*
X139750000Y-90400000D03*
X134750000Y-88300000D03*
%TD*%
D10*
%TO.C,SW28*%
X114000000Y-67500000D03*
D11*
X119500000Y-67500000D03*
D10*
X125000000Y-67500000D03*
D12*
X119500000Y-73400000D03*
X114500000Y-71300000D03*
%TD*%
D11*
%TO.C,SW14*%
X56500000Y-50500000D03*
D10*
X62000000Y-50500000D03*
X51000000Y-50500000D03*
D12*
X56500000Y-56400000D03*
X51500000Y-54300000D03*
%TD*%
D10*
%TO.C,SW22*%
X195000000Y-50500000D03*
D11*
X200500000Y-50500000D03*
D10*
X206000000Y-50500000D03*
D12*
X200500000Y-56400000D03*
X195500000Y-54300000D03*
%TD*%
D11*
%TO.C,SW10*%
X196000000Y-33500000D03*
D10*
X190500000Y-33500000D03*
X201500000Y-33500000D03*
D12*
X196000000Y-39400000D03*
X191000000Y-37300000D03*
%TD*%
D10*
%TO.C,SW19*%
X152000000Y-50500000D03*
D11*
X146500000Y-50500000D03*
D10*
X141000000Y-50500000D03*
D12*
X146500000Y-56400000D03*
X141500000Y-54300000D03*
%TD*%
D11*
%TO.C,SW6*%
X124000000Y-33500000D03*
D10*
X129500000Y-33500000D03*
X118500000Y-33500000D03*
D12*
X124000000Y-39400000D03*
X119000000Y-37300000D03*
%TD*%
D13*
%TO.C,USB1*%
X135890000Y-27165000D03*
X130110000Y-27165000D03*
D14*
X137320000Y-23515000D03*
D15*
X128680000Y-27695000D03*
D14*
X128680000Y-23515000D03*
D15*
X137320000Y-27695000D03*
%TD*%
M02*
