M48
; DRILL file {KiCad (5.99.0-9650-gad505e29c0)} date 03/23/21 23:02:51
; FORMAT={-:-/ absolute / inch / decimal}
; #@! TF.CreationDate,2021-03-23T23:02:51-07:00
; #@! TF.GenerationSoftware,Kicad,Pcbnew,(5.99.0-9650-gad505e29c0)
; #@! TF.FileFunction,NonPlated,1,2,NPTH
FMAT,2
INCH
; #@! TA.AperFunction,MechanicalDrill
T1C0.0256
; #@! TA.AperFunction,MechanicalDrill
T2C0.0669
; #@! TA.AperFunction,MechanicalDrill
T3C0.1339
%
G90
G05
T1
; mechanical
X5.1224Y-1.0695
X5.35Y-1.0695
T2
X1.122Y-1.3189
X1.2106Y-1.9882
X1.2106Y-3.3268
X1.3878Y-2.6575
X1.5551Y-1.3189
X1.6437Y-1.9882
X1.6437Y-3.3268
X1.8209Y-2.6575
X1.8307Y-1.3189
X2.0079Y-1.9882
X2.0079Y-3.3268
X2.2638Y-1.3189
X2.3622Y-2.6575
X2.4409Y-1.9882
X2.4409Y-3.3268
X2.5394Y-1.3189
X2.7165Y-1.9882
X2.7165Y-3.3268
X2.7953Y-2.6575
X2.9724Y-1.3189
X3.0709Y-2.6575
X3.1496Y-1.9882
X3.1496Y-3.3268
X3.248Y-1.3189
X3.4252Y-1.9882
X3.5039Y-2.6575
X3.6811Y-1.3189
X3.7795Y-2.6575
X3.8583Y-1.9882
X3.9567Y-1.3189
X4.1339Y-1.9882
X4.2126Y-2.6575
X4.3898Y-1.3189
X4.4882Y-2.6575
X4.5669Y-1.9882
X4.6654Y-1.3189
X4.8425Y-1.9882
X4.9213Y-2.6575
X5.0984Y-1.3189
X5.1969Y-2.6575
X5.2756Y-1.9882
X5.2854Y-3.3268
X5.374Y-1.3189
X5.5512Y-1.9882
X5.6299Y-2.6575
X5.7185Y-3.3268
X5.8071Y-1.3189
X5.9055Y-2.6575
X5.9843Y-1.9882
X6.0827Y-1.3189
X6.2598Y-1.9882
X6.3386Y-2.6575
X6.5157Y-1.3189
X6.6142Y-2.6575
X6.6929Y-1.9882
X6.7913Y-1.3189
X6.9685Y-1.9882
X7.0472Y-2.6575
X7.2244Y-1.3189
X7.3228Y-2.6575
X7.4016Y-1.9882
X7.5Y-1.3189
X7.6772Y-1.9882
X7.7559Y-2.6575
X7.9331Y-1.3189
X7.9429Y-3.3268
X8.0315Y-2.6575
X8.1102Y-1.9882
X8.2087Y-1.3189
X8.376Y-3.3268
X8.4646Y-2.6575
X8.6417Y-1.3189
X8.6516Y-1.9882
X8.8287Y-2.6575
X8.8287Y-3.3268
X8.9173Y-1.3189
X9.0846Y-1.9882
X9.2618Y-2.6575
X9.2618Y-3.3268
X9.3504Y-1.3189
T3
X1.3386Y-1.3189
X1.4272Y-1.9882
X1.4272Y-3.3268
X1.6043Y-2.6575
X2.0472Y-1.3189
X2.2244Y-1.9882
X2.2244Y-3.3268
X2.5787Y-2.6575
X2.7559Y-1.3189
X2.9331Y-1.9882
X2.9331Y-3.3268
X3.2874Y-2.6575
X3.4646Y-1.3189
X3.6417Y-1.9882
X3.9961Y-2.6575
X4.1732Y-1.3189
X4.3504Y-1.9882
X4.7047Y-2.6575
X4.8819Y-1.3189
X5.0591Y-1.9882
X5.4134Y-2.6575
X5.502Y-3.3268
X5.5906Y-1.3189
X5.7677Y-1.9882
X6.122Y-2.6575
X6.2992Y-1.3189
X6.4764Y-1.9882
X6.8307Y-2.6575
X7.0079Y-1.3189
X7.185Y-1.9882
X7.5394Y-2.6575
X7.7165Y-1.3189
X7.8937Y-1.9882
X8.1594Y-3.3268
X8.248Y-2.6575
X8.4252Y-1.3189
X8.8681Y-1.9882
X9.0453Y-2.6575
X9.0453Y-3.3268
X9.1339Y-1.3189
T0
M30
