%TF.GenerationSoftware,KiCad,Pcbnew,(5.99.0-9650-gad505e29c0)*%
%TF.CreationDate,2021-03-23T23:03:28-07:00*%
%TF.ProjectId,Choc40-bottom_plate,43686f63-3430-42d6-926f-74746f6d5f70,rev?*%
%TF.SameCoordinates,Original*%
%TF.FileFunction,Copper,L1,Top*%
%TF.FilePolarity,Positive*%
%FSLAX46Y46*%
G04 Gerber Fmt 4.6, Leading zero omitted, Abs format (unit mm)*
G04 Created by KiCad (PCBNEW (5.99.0-9650-gad505e29c0)) date 2021-03-23 23:03:28*
%MOMM*%
%LPD*%
G01*
G04 APERTURE LIST*
G04 APERTURE END LIST*
%TA.AperFunction,NonConductor*%
G36*
X242961144Y-20202444D02*
G01*
X242961187Y-20202104D01*
X242968259Y-20203001D01*
X242975183Y-20204690D01*
X243106831Y-20206429D01*
X243112169Y-20206614D01*
X243157355Y-20209151D01*
X243186918Y-20210812D01*
X243193958Y-20211406D01*
X243431443Y-20238164D01*
X243438412Y-20239148D01*
X243498023Y-20249276D01*
X243504938Y-20250652D01*
X243737954Y-20303836D01*
X243744796Y-20305601D01*
X243769614Y-20312751D01*
X243802894Y-20322338D01*
X243809580Y-20324469D01*
X244016094Y-20396732D01*
X244035184Y-20403412D01*
X244041786Y-20405932D01*
X244097641Y-20429068D01*
X244104092Y-20431955D01*
X244319392Y-20535638D01*
X244325656Y-20538874D01*
X244378615Y-20568143D01*
X244384647Y-20571702D01*
X244552493Y-20677166D01*
X244587000Y-20698848D01*
X244592877Y-20702774D01*
X244642209Y-20737777D01*
X244647856Y-20742028D01*
X244834696Y-20891029D01*
X244840095Y-20895588D01*
X244885171Y-20935870D01*
X244890307Y-20940726D01*
X245059282Y-21109701D01*
X245064122Y-21114819D01*
X245104436Y-21159930D01*
X245108977Y-21165308D01*
X245257970Y-21352140D01*
X245262220Y-21357787D01*
X245297223Y-21407119D01*
X245301145Y-21412989D01*
X245428285Y-21615330D01*
X245431850Y-21621373D01*
X245461127Y-21674345D01*
X245464361Y-21680606D01*
X245568059Y-21895937D01*
X245570924Y-21902339D01*
X245588470Y-21944699D01*
X245594069Y-21958217D01*
X245596588Y-21964818D01*
X245675521Y-22190394D01*
X245677668Y-22197128D01*
X245694404Y-22255220D01*
X245696169Y-22262063D01*
X245749342Y-22495028D01*
X245750721Y-22501960D01*
X245760851Y-22561580D01*
X245761839Y-22568579D01*
X245788595Y-22806057D01*
X245789189Y-22813099D01*
X245793384Y-22887793D01*
X245793571Y-22893194D01*
X245795307Y-23024625D01*
X245796971Y-23031501D01*
X245797855Y-23038514D01*
X245797555Y-23038552D01*
X245800000Y-23059044D01*
X245800000Y-94940809D01*
X245797556Y-94961144D01*
X245797896Y-94961187D01*
X245796999Y-94968259D01*
X245795310Y-94975183D01*
X245793571Y-95106831D01*
X245793386Y-95112169D01*
X245791169Y-95151643D01*
X245789188Y-95186915D01*
X245788594Y-95193955D01*
X245761837Y-95431433D01*
X245760849Y-95438432D01*
X245750724Y-95498022D01*
X245749345Y-95504952D01*
X245715612Y-95652750D01*
X245696165Y-95737951D01*
X245694402Y-95744786D01*
X245694402Y-95744789D01*
X245694400Y-95744795D01*
X245677663Y-95802890D01*
X245675516Y-95809623D01*
X245596596Y-96035165D01*
X245594087Y-96041740D01*
X245570933Y-96097639D01*
X245568049Y-96104084D01*
X245464364Y-96319386D01*
X245461120Y-96325664D01*
X245431862Y-96378603D01*
X245428271Y-96384691D01*
X245301141Y-96587017D01*
X245297214Y-96592894D01*
X245262229Y-96642200D01*
X245257980Y-96647847D01*
X245108979Y-96834688D01*
X245104419Y-96840087D01*
X245064130Y-96885171D01*
X245059274Y-96890307D01*
X244890299Y-97059282D01*
X244885181Y-97064122D01*
X244840070Y-97104436D01*
X244834691Y-97108977D01*
X244647855Y-97257973D01*
X244642211Y-97262221D01*
X244614995Y-97281533D01*
X244592875Y-97297228D01*
X244587030Y-97301133D01*
X244384692Y-97428271D01*
X244384676Y-97428281D01*
X244378606Y-97431862D01*
X244345618Y-97450093D01*
X244325663Y-97461122D01*
X244319386Y-97464365D01*
X244104091Y-97568046D01*
X244097641Y-97570932D01*
X244041769Y-97594075D01*
X244035174Y-97596592D01*
X243947747Y-97627184D01*
X243809603Y-97675522D01*
X243802889Y-97677663D01*
X243786880Y-97682275D01*
X243744789Y-97694401D01*
X243737947Y-97696166D01*
X243504971Y-97749342D01*
X243498039Y-97750721D01*
X243438420Y-97760851D01*
X243431426Y-97761838D01*
X243369690Y-97768794D01*
X243193943Y-97788595D01*
X243186901Y-97789189D01*
X243112207Y-97793384D01*
X243106806Y-97793571D01*
X243100900Y-97793649D01*
X242975375Y-97795307D01*
X242968499Y-97796971D01*
X242961486Y-97797855D01*
X242961448Y-97797555D01*
X242940956Y-97800000D01*
X23059191Y-97800000D01*
X23038856Y-97797556D01*
X23038813Y-97797896D01*
X23031741Y-97796999D01*
X23024817Y-97795310D01*
X22893169Y-97793571D01*
X22887831Y-97793386D01*
X22848357Y-97791169D01*
X22813085Y-97789188D01*
X22806045Y-97788594D01*
X22568567Y-97761837D01*
X22561568Y-97760849D01*
X22501978Y-97750724D01*
X22495046Y-97749345D01*
X22495033Y-97749342D01*
X22262043Y-97696163D01*
X22255209Y-97694401D01*
X22197103Y-97677661D01*
X22190377Y-97675516D01*
X21964835Y-97596596D01*
X21958260Y-97594087D01*
X21902350Y-97570928D01*
X21895916Y-97568049D01*
X21680614Y-97464364D01*
X21674336Y-97461120D01*
X21621397Y-97431862D01*
X21615309Y-97428271D01*
X21412983Y-97301141D01*
X21407106Y-97297214D01*
X21357800Y-97262229D01*
X21352153Y-97257980D01*
X21165312Y-97108979D01*
X21159913Y-97104419D01*
X21114829Y-97064130D01*
X21109693Y-97059274D01*
X20940718Y-96890299D01*
X20935869Y-96885171D01*
X20895564Y-96840070D01*
X20891023Y-96834691D01*
X20742027Y-96647855D01*
X20737779Y-96642211D01*
X20718467Y-96614995D01*
X20702772Y-96592875D01*
X20698867Y-96587030D01*
X20571717Y-96384672D01*
X20568136Y-96378603D01*
X20549907Y-96345618D01*
X20538878Y-96325663D01*
X20535635Y-96319386D01*
X20431954Y-96104091D01*
X20429067Y-96097639D01*
X20405928Y-96041777D01*
X20403408Y-96035174D01*
X20324480Y-95809611D01*
X20322333Y-95802876D01*
X20305599Y-95744789D01*
X20303834Y-95737947D01*
X20250658Y-95504971D01*
X20249279Y-95498039D01*
X20239149Y-95438420D01*
X20238161Y-95431421D01*
X20211405Y-95193943D01*
X20210811Y-95186901D01*
X20206616Y-95112207D01*
X20206429Y-95106806D01*
X20206351Y-95100900D01*
X20205018Y-95000000D01*
X21694500Y-95000000D01*
X21714333Y-95226698D01*
X21773231Y-95446507D01*
X21775553Y-95451488D01*
X21775554Y-95451489D01*
X21867078Y-95647763D01*
X21867081Y-95647768D01*
X21869404Y-95652750D01*
X21872560Y-95657257D01*
X21872561Y-95657259D01*
X21979248Y-95809623D01*
X21999929Y-95839159D01*
X22160841Y-96000071D01*
X22165349Y-96003228D01*
X22165352Y-96003230D01*
X22309387Y-96104084D01*
X22347250Y-96130596D01*
X22352232Y-96132919D01*
X22352237Y-96132922D01*
X22548511Y-96224446D01*
X22553493Y-96226769D01*
X22558801Y-96228191D01*
X22558803Y-96228192D01*
X22626122Y-96246230D01*
X22773302Y-96285667D01*
X23000000Y-96305500D01*
X23226698Y-96285667D01*
X23373878Y-96246230D01*
X23441197Y-96228192D01*
X23441199Y-96228191D01*
X23446507Y-96226769D01*
X23451489Y-96224446D01*
X23647763Y-96132922D01*
X23647768Y-96132919D01*
X23652750Y-96130596D01*
X23690613Y-96104084D01*
X23834648Y-96003230D01*
X23834651Y-96003228D01*
X23839159Y-96000071D01*
X24000071Y-95839159D01*
X24020753Y-95809623D01*
X24127439Y-95657259D01*
X24127440Y-95657257D01*
X24130596Y-95652750D01*
X24132919Y-95647768D01*
X24132922Y-95647763D01*
X24224446Y-95451489D01*
X24224447Y-95451488D01*
X24226769Y-95446507D01*
X24285667Y-95226698D01*
X24305500Y-95000000D01*
X241694500Y-95000000D01*
X241714333Y-95226698D01*
X241773231Y-95446507D01*
X241775553Y-95451488D01*
X241775554Y-95451489D01*
X241867078Y-95647763D01*
X241867081Y-95647768D01*
X241869404Y-95652750D01*
X241872560Y-95657257D01*
X241872561Y-95657259D01*
X241979248Y-95809623D01*
X241999929Y-95839159D01*
X242160841Y-96000071D01*
X242165349Y-96003228D01*
X242165352Y-96003230D01*
X242309387Y-96104084D01*
X242347250Y-96130596D01*
X242352232Y-96132919D01*
X242352237Y-96132922D01*
X242548511Y-96224446D01*
X242553493Y-96226769D01*
X242558801Y-96228191D01*
X242558803Y-96228192D01*
X242626122Y-96246230D01*
X242773302Y-96285667D01*
X243000000Y-96305500D01*
X243226698Y-96285667D01*
X243373878Y-96246230D01*
X243441197Y-96228192D01*
X243441199Y-96228191D01*
X243446507Y-96226769D01*
X243451489Y-96224446D01*
X243647763Y-96132922D01*
X243647768Y-96132919D01*
X243652750Y-96130596D01*
X243690613Y-96104084D01*
X243834648Y-96003230D01*
X243834651Y-96003228D01*
X243839159Y-96000071D01*
X244000071Y-95839159D01*
X244020753Y-95809623D01*
X244127439Y-95657259D01*
X244127440Y-95657257D01*
X244130596Y-95652750D01*
X244132919Y-95647768D01*
X244132922Y-95647763D01*
X244224446Y-95451489D01*
X244224447Y-95451488D01*
X244226769Y-95446507D01*
X244285667Y-95226698D01*
X244305500Y-95000000D01*
X244285667Y-94773302D01*
X244226769Y-94553493D01*
X244224446Y-94548511D01*
X244132922Y-94352237D01*
X244132919Y-94352232D01*
X244130596Y-94347250D01*
X244000071Y-94160841D01*
X243839159Y-93999929D01*
X243834651Y-93996772D01*
X243834648Y-93996770D01*
X243657259Y-93872561D01*
X243657257Y-93872560D01*
X243652750Y-93869404D01*
X243647768Y-93867081D01*
X243647763Y-93867078D01*
X243451489Y-93775554D01*
X243451488Y-93775553D01*
X243446507Y-93773231D01*
X243441199Y-93771809D01*
X243441197Y-93771808D01*
X243373336Y-93753625D01*
X243226698Y-93714333D01*
X243000000Y-93694500D01*
X242773302Y-93714333D01*
X242626664Y-93753625D01*
X242558803Y-93771808D01*
X242558801Y-93771809D01*
X242553493Y-93773231D01*
X242548512Y-93775553D01*
X242548511Y-93775554D01*
X242352237Y-93867078D01*
X242352232Y-93867081D01*
X242347250Y-93869404D01*
X242342743Y-93872560D01*
X242342741Y-93872561D01*
X242165352Y-93996770D01*
X242165349Y-93996772D01*
X242160841Y-93999929D01*
X241999929Y-94160841D01*
X241869404Y-94347250D01*
X241867081Y-94352232D01*
X241867078Y-94352237D01*
X241775554Y-94548511D01*
X241773231Y-94553493D01*
X241714333Y-94773302D01*
X241694500Y-95000000D01*
X24305500Y-95000000D01*
X24285667Y-94773302D01*
X24226769Y-94553493D01*
X24224446Y-94548511D01*
X24132922Y-94352237D01*
X24132919Y-94352232D01*
X24130596Y-94347250D01*
X24000071Y-94160841D01*
X23839159Y-93999929D01*
X23834651Y-93996772D01*
X23834648Y-93996770D01*
X23657259Y-93872561D01*
X23657257Y-93872560D01*
X23652750Y-93869404D01*
X23647768Y-93867081D01*
X23647763Y-93867078D01*
X23451489Y-93775554D01*
X23451488Y-93775553D01*
X23446507Y-93773231D01*
X23441199Y-93771809D01*
X23441197Y-93771808D01*
X23373336Y-93753625D01*
X23226698Y-93714333D01*
X23000000Y-93694500D01*
X22773302Y-93714333D01*
X22626664Y-93753625D01*
X22558803Y-93771808D01*
X22558801Y-93771809D01*
X22553493Y-93773231D01*
X22548512Y-93775553D01*
X22548511Y-93775554D01*
X22352237Y-93867078D01*
X22352232Y-93867081D01*
X22347250Y-93869404D01*
X22342743Y-93872560D01*
X22342741Y-93872561D01*
X22165352Y-93996770D01*
X22165349Y-93996772D01*
X22160841Y-93999929D01*
X21999929Y-94160841D01*
X21869404Y-94347250D01*
X21867081Y-94352232D01*
X21867078Y-94352237D01*
X21775554Y-94548511D01*
X21773231Y-94553493D01*
X21714333Y-94773302D01*
X21694500Y-95000000D01*
X20205018Y-95000000D01*
X20204693Y-94975375D01*
X20203029Y-94968499D01*
X20202145Y-94961486D01*
X20202445Y-94961448D01*
X20200000Y-94940956D01*
X20200000Y-23059191D01*
X20202444Y-23038856D01*
X20202104Y-23038813D01*
X20203001Y-23031741D01*
X20204690Y-23024817D01*
X20205018Y-23000000D01*
X21694500Y-23000000D01*
X21714333Y-23226698D01*
X21773231Y-23446507D01*
X21775553Y-23451488D01*
X21775554Y-23451489D01*
X21867078Y-23647763D01*
X21867081Y-23647768D01*
X21869404Y-23652750D01*
X21999929Y-23839159D01*
X22160841Y-24000071D01*
X22165349Y-24003228D01*
X22165352Y-24003230D01*
X22342741Y-24127439D01*
X22347250Y-24130596D01*
X22352232Y-24132919D01*
X22352237Y-24132922D01*
X22548511Y-24224446D01*
X22553493Y-24226769D01*
X22558801Y-24228191D01*
X22558803Y-24228192D01*
X22626664Y-24246375D01*
X22773302Y-24285667D01*
X23000000Y-24305500D01*
X23226698Y-24285667D01*
X23373336Y-24246375D01*
X23441197Y-24228192D01*
X23441199Y-24228191D01*
X23446507Y-24226769D01*
X23451489Y-24224446D01*
X23647763Y-24132922D01*
X23647768Y-24132919D01*
X23652750Y-24130596D01*
X23657259Y-24127439D01*
X23834648Y-24003230D01*
X23834651Y-24003228D01*
X23839159Y-24000071D01*
X24000071Y-23839159D01*
X24130596Y-23652750D01*
X24132919Y-23647768D01*
X24132922Y-23647763D01*
X24224446Y-23451489D01*
X24224447Y-23451488D01*
X24226769Y-23446507D01*
X24285667Y-23226698D01*
X24305500Y-23000000D01*
X241694500Y-23000000D01*
X241714333Y-23226698D01*
X241773231Y-23446507D01*
X241775553Y-23451488D01*
X241775554Y-23451489D01*
X241867078Y-23647763D01*
X241867081Y-23647768D01*
X241869404Y-23652750D01*
X241999929Y-23839159D01*
X242160841Y-24000071D01*
X242165349Y-24003228D01*
X242165352Y-24003230D01*
X242342741Y-24127439D01*
X242347250Y-24130596D01*
X242352232Y-24132919D01*
X242352237Y-24132922D01*
X242548511Y-24224446D01*
X242553493Y-24226769D01*
X242558801Y-24228191D01*
X242558803Y-24228192D01*
X242626664Y-24246375D01*
X242773302Y-24285667D01*
X243000000Y-24305500D01*
X243226698Y-24285667D01*
X243373336Y-24246375D01*
X243441197Y-24228192D01*
X243441199Y-24228191D01*
X243446507Y-24226769D01*
X243451489Y-24224446D01*
X243647763Y-24132922D01*
X243647768Y-24132919D01*
X243652750Y-24130596D01*
X243657259Y-24127439D01*
X243834648Y-24003230D01*
X243834651Y-24003228D01*
X243839159Y-24000071D01*
X244000071Y-23839159D01*
X244130596Y-23652750D01*
X244132919Y-23647768D01*
X244132922Y-23647763D01*
X244224446Y-23451489D01*
X244224447Y-23451488D01*
X244226769Y-23446507D01*
X244285667Y-23226698D01*
X244305500Y-23000000D01*
X244285667Y-22773302D01*
X244230811Y-22568579D01*
X244228192Y-22558803D01*
X244228191Y-22558801D01*
X244226769Y-22553493D01*
X244199506Y-22495028D01*
X244132922Y-22352237D01*
X244132919Y-22352232D01*
X244130596Y-22347250D01*
X244127439Y-22342741D01*
X244003230Y-22165352D01*
X244003228Y-22165349D01*
X244000071Y-22160841D01*
X243839159Y-21999929D01*
X243834651Y-21996772D01*
X243834648Y-21996770D01*
X243657259Y-21872561D01*
X243657257Y-21872560D01*
X243652750Y-21869404D01*
X243647768Y-21867081D01*
X243647763Y-21867078D01*
X243451489Y-21775554D01*
X243451488Y-21775553D01*
X243446507Y-21773231D01*
X243441199Y-21771809D01*
X243441197Y-21771808D01*
X243373165Y-21753579D01*
X243226698Y-21714333D01*
X243000000Y-21694500D01*
X242773302Y-21714333D01*
X242626835Y-21753579D01*
X242558803Y-21771808D01*
X242558801Y-21771809D01*
X242553493Y-21773231D01*
X242548512Y-21775553D01*
X242548511Y-21775554D01*
X242352237Y-21867078D01*
X242352232Y-21867081D01*
X242347250Y-21869404D01*
X242342743Y-21872560D01*
X242342741Y-21872561D01*
X242165352Y-21996770D01*
X242165349Y-21996772D01*
X242160841Y-21999929D01*
X241999929Y-22160841D01*
X241996772Y-22165349D01*
X241996770Y-22165352D01*
X241872561Y-22342741D01*
X241869404Y-22347250D01*
X241867081Y-22352232D01*
X241867078Y-22352237D01*
X241800494Y-22495028D01*
X241773231Y-22553493D01*
X241771809Y-22558801D01*
X241771808Y-22558803D01*
X241769189Y-22568579D01*
X241714333Y-22773302D01*
X241694500Y-23000000D01*
X24305500Y-23000000D01*
X24285667Y-22773302D01*
X24230811Y-22568579D01*
X24228192Y-22558803D01*
X24228191Y-22558801D01*
X24226769Y-22553493D01*
X24199506Y-22495028D01*
X24132922Y-22352237D01*
X24132919Y-22352232D01*
X24130596Y-22347250D01*
X24127439Y-22342741D01*
X24003230Y-22165352D01*
X24003228Y-22165349D01*
X24000071Y-22160841D01*
X23839159Y-21999929D01*
X23834651Y-21996772D01*
X23834648Y-21996770D01*
X23657259Y-21872561D01*
X23657257Y-21872560D01*
X23652750Y-21869404D01*
X23647768Y-21867081D01*
X23647763Y-21867078D01*
X23451489Y-21775554D01*
X23451488Y-21775553D01*
X23446507Y-21773231D01*
X23441199Y-21771809D01*
X23441197Y-21771808D01*
X23373165Y-21753579D01*
X23226698Y-21714333D01*
X23000000Y-21694500D01*
X22773302Y-21714333D01*
X22626835Y-21753579D01*
X22558803Y-21771808D01*
X22558801Y-21771809D01*
X22553493Y-21773231D01*
X22548512Y-21775553D01*
X22548511Y-21775554D01*
X22352237Y-21867078D01*
X22352232Y-21867081D01*
X22347250Y-21869404D01*
X22342743Y-21872560D01*
X22342741Y-21872561D01*
X22165352Y-21996770D01*
X22165349Y-21996772D01*
X22160841Y-21999929D01*
X21999929Y-22160841D01*
X21996772Y-22165349D01*
X21996770Y-22165352D01*
X21872561Y-22342741D01*
X21869404Y-22347250D01*
X21867081Y-22352232D01*
X21867078Y-22352237D01*
X21800494Y-22495028D01*
X21773231Y-22553493D01*
X21771809Y-22558801D01*
X21771808Y-22558803D01*
X21769189Y-22568579D01*
X21714333Y-22773302D01*
X21694500Y-23000000D01*
X20205018Y-23000000D01*
X20206429Y-22893169D01*
X20206614Y-22887831D01*
X20210812Y-22813082D01*
X20211406Y-22806042D01*
X20238164Y-22568557D01*
X20239149Y-22561580D01*
X20249279Y-22501960D01*
X20250652Y-22495062D01*
X20303836Y-22262046D01*
X20305601Y-22255204D01*
X20312751Y-22230386D01*
X20322338Y-22197106D01*
X20324469Y-22190420D01*
X20403412Y-21964816D01*
X20405932Y-21958214D01*
X20429068Y-21902359D01*
X20431955Y-21895908D01*
X20535638Y-21680608D01*
X20538874Y-21674344D01*
X20568143Y-21621385D01*
X20571702Y-21615353D01*
X20698851Y-21412995D01*
X20702774Y-21407123D01*
X20737777Y-21357791D01*
X20742028Y-21352144D01*
X20891029Y-21165304D01*
X20895588Y-21159905D01*
X20935870Y-21114829D01*
X20940726Y-21109693D01*
X21109701Y-20940718D01*
X21114828Y-20935870D01*
X21159930Y-20895564D01*
X21165308Y-20891023D01*
X21201108Y-20862474D01*
X21352140Y-20742030D01*
X21357787Y-20737780D01*
X21407119Y-20702777D01*
X21412995Y-20698851D01*
X21413000Y-20698848D01*
X21615333Y-20571713D01*
X21621373Y-20568150D01*
X21674345Y-20538873D01*
X21680606Y-20535639D01*
X21737141Y-20508413D01*
X21895937Y-20431941D01*
X21902339Y-20429076D01*
X21944699Y-20411530D01*
X21958217Y-20405931D01*
X21964818Y-20403412D01*
X22190394Y-20324479D01*
X22197128Y-20322332D01*
X22255220Y-20305596D01*
X22262063Y-20303831D01*
X22495028Y-20250658D01*
X22501960Y-20249279D01*
X22561580Y-20239149D01*
X22568574Y-20238162D01*
X22630310Y-20231206D01*
X22806057Y-20211405D01*
X22813099Y-20210811D01*
X22887793Y-20206616D01*
X22893194Y-20206429D01*
X22899100Y-20206351D01*
X23024625Y-20204693D01*
X23031501Y-20203029D01*
X23038514Y-20202145D01*
X23038552Y-20202445D01*
X23059044Y-20200000D01*
X242940809Y-20200000D01*
X242961144Y-20202444D01*
G37*
%TD.AperFunction*%
M02*
